<?xml version="1.0"?><svg  viewBox="0 0 200 200" width="180mm" height="180mm" xmlns="http://www.w3.org/2000/svg"  version="1.2" viewport-fill="#fff">
  <polyline points="105.064,200.000,105.064,200.000"  style="fill:none;stroke:#000;stroke-width:0.1953;opacity:1"/>
  <polyline points="100.064,200.000,100.064,200.000"  style="fill:none;stroke:#000;stroke-width:0.1953;opacity:1"/>
  <polyline points="115.608,200.000,115.608,200.000"  style="fill:none;stroke:#000;stroke-width:0.1953;opacity:1"/>
  <polyline points="100.608,200.000,100.608,200.000"  style="fill:none;stroke:#000;stroke-width:0.1953;opacity:1"/>
  <polyline points="126.786,200.000,126.786,200.000"  style="fill:none;stroke:#000;stroke-width:0.1953;opacity:1"/>
  <polyline points="101.786,200.000,101.786,200.000"  style="fill:none;stroke:#000;stroke-width:0.1953;opacity:1"/>
  <polyline points="138.712,200.000,138.712,200.000"  style="fill:none;stroke:#000;stroke-width:0.1953;opacity:1"/>
  <polyline points="103.712,200.000,103.712,200.000"  style="fill:none;stroke:#000;stroke-width:0.1953;opacity:1"/>
  <polyline points="151.532,200.000,151.532,200.000"  style="fill:none;stroke:#000;stroke-width:0.1953;opacity:1"/>
  <polyline points="106.532,200.000,106.532,200.000"  style="fill:none;stroke:#000;stroke-width:0.1953;opacity:1"/>
  <polyline points="165.431,200.000,165.431,200.000"  style="fill:none;stroke:#000;stroke-width:0.1953;opacity:1"/>
  <polyline points="110.431,200.000,110.431,200.000"  style="fill:none;stroke:#000;stroke-width:0.1953;opacity:1"/>
  <polyline points="180.648,200.000,180.648,200.000"  style="fill:none;stroke:#000;stroke-width:0.1953;opacity:1"/>
  <polyline points="115.648,200.000,115.648,200.000"  style="fill:none;stroke:#000;stroke-width:0.1953;opacity:1"/>
  <polyline points="197.500,200.000,197.500,200.000"  style="fill:none;stroke:#000;stroke-width:0.1953;opacity:1"/>
  <polyline points="122.500,200.000,122.500,200.000"  style="fill:none;stroke:#000;stroke-width:0.1953;opacity:1"/>
  <polyline points="200.000,177.794,68.587,0.000"  style="fill:none;stroke:#000;stroke-width:0.1953;opacity:1"/>
  <polyline points="0.000,22.206,131.413,200.000"  style="fill:none;stroke:#000;stroke-width:0.1953;opacity:1"/>
  <polyline points="200.000,158.026,57.024,0.000"  style="fill:none;stroke:#000;stroke-width:0.1953;opacity:1"/>
  <polyline points="0.000,41.974,142.976,200.000"  style="fill:none;stroke:#000;stroke-width:0.1953;opacity:1"/>
  <polyline points="200.000,142.976,41.974,0.000"  style="fill:none;stroke:#000;stroke-width:0.1953;opacity:1"/>
  <polyline points="0.000,57.024,158.026,200.000"  style="fill:none;stroke:#000;stroke-width:0.1953;opacity:1"/>
  <polyline points="200.000,131.413,22.206,0.000"  style="fill:none;stroke:#000;stroke-width:0.1953;opacity:1"/>
  <polyline points="0.000,68.587,177.794,200.000"  style="fill:none;stroke:#000;stroke-width:0.1953;opacity:1"/>
  <polyline points="0.000,2.500,0.000,2.500"  style="fill:none;stroke:#000;stroke-width:0.1953;opacity:1"/>
  <polyline points="0.000,77.500,0.000,77.500"  style="fill:none;stroke:#000;stroke-width:0.1953;opacity:1"/>
  <polyline points="0.000,19.352,0.000,19.352"  style="fill:none;stroke:#000;stroke-width:0.1953;opacity:1"/>
  <polyline points="0.000,84.352,0.000,84.352"  style="fill:none;stroke:#000;stroke-width:0.1953;opacity:1"/>
  <polyline points="0.000,34.569,0.000,34.569"  style="fill:none;stroke:#000;stroke-width:0.1953;opacity:1"/>
  <polyline points="0.000,89.569,0.000,89.569"  style="fill:none;stroke:#000;stroke-width:0.1953;opacity:1"/>
  <polyline points="0.000,48.468,0.000,48.468"  style="fill:none;stroke:#000;stroke-width:0.1953;opacity:1"/>
  <polyline points="0.000,93.468,0.000,93.468"  style="fill:none;stroke:#000;stroke-width:0.1953;opacity:1"/>
  <polyline points="0.000,61.288,0.000,61.288"  style="fill:none;stroke:#000;stroke-width:0.1953;opacity:1"/>
  <polyline points="0.000,96.288,0.000,96.288"  style="fill:none;stroke:#000;stroke-width:0.1953;opacity:1"/>
  <polyline points="0.000,73.214,0.000,73.214"  style="fill:none;stroke:#000;stroke-width:0.1953;opacity:1"/>
  <polyline points="0.000,98.214,0.000,98.214"  style="fill:none;stroke:#000;stroke-width:0.1953;opacity:1"/>
  <polyline points="0.000,84.392,0.000,84.392"  style="fill:none;stroke:#000;stroke-width:0.1953;opacity:1"/>
  <polyline points="0.000,99.392,0.000,99.392"  style="fill:none;stroke:#000;stroke-width:0.1953;opacity:1"/>
  <polyline points="0.000,94.936,0.000,94.936"  style="fill:none;stroke:#000;stroke-width:0.1953;opacity:1"/>
  <polyline points="0.000,99.936,0.000,99.936"  style="fill:none;stroke:#000;stroke-width:0.1953;opacity:1"/>
  <polyline points="0.000,104.939,0.000,104.939"  style="fill:none;stroke:#000;stroke-width:0.1953;opacity:1"/>
  <polyline points="0.000,99.939,0.000,99.939"  style="fill:none;stroke:#000;stroke-width:0.1953;opacity:1"/>
</svg>