<?xml version="1.0"?><svg  viewBox="0 0 200 200" width="180mm" height="180mm" xmlns="http://www.w3.org/2000/svg"  version="1.2" viewport-fill="#fff">
  <polyline points="0.000,100.000,0.000,159.282"  style="fill:none;stroke:#000;stroke-width:0.1953;opacity:1"/>
  <polyline points="0.750,100.000,0.750,159.809"  style="fill:none;stroke:#000;stroke-width:0.1953;opacity:1"/>
  <polyline points="1.500,100.000,1.500,159.999"  style="fill:none;stroke:#000;stroke-width:0.1953;opacity:1"/>
  <polyline points="2.250,100.000,2.250,159.853"  style="fill:none;stroke:#000;stroke-width:0.1953;opacity:1"/>
  <polyline points="3.000,100.000,3.000,159.369"  style="fill:none;stroke:#000;stroke-width:0.1953;opacity:1"/>
  <polyline points="3.750,100.000,3.750,158.552"  style="fill:none;stroke:#000;stroke-width:0.1953;opacity:1"/>
  <polyline points="4.500,100.000,4.500,157.406"  style="fill:none;stroke:#000;stroke-width:0.1953;opacity:1"/>
  <polyline points="5.250,100.000,5.250,155.937"  style="fill:none;stroke:#000;stroke-width:0.1953;opacity:1"/>
  <polyline points="6.000,100.000,6.000,154.153"  style="fill:none;stroke:#000;stroke-width:0.1953;opacity:1"/>
  <polyline points="6.750,100.000,6.750,152.065"  style="fill:none;stroke:#000;stroke-width:0.1953;opacity:1"/>
  <polyline points="7.500,100.000,7.500,149.685"  style="fill:none;stroke:#000;stroke-width:0.1953;opacity:1"/>
  <polyline points="8.250,100.000,8.250,147.024"  style="fill:none;stroke:#000;stroke-width:0.1953;opacity:1"/>
  <polyline points="9.000,100.000,9.000,144.100"  style="fill:none;stroke:#000;stroke-width:0.1953;opacity:1"/>
  <polyline points="9.750,100.000,9.750,140.928"  style="fill:none;stroke:#000;stroke-width:0.1953;opacity:1"/>
  <polyline points="10.500,100.000,10.500,137.525"  style="fill:none;stroke:#000;stroke-width:0.1953;opacity:1"/>
  <polyline points="11.250,100.000,11.250,133.912"  style="fill:none;stroke:#000;stroke-width:0.1953;opacity:1"/>
  <polyline points="12.000,100.000,12.000,130.107"  style="fill:none;stroke:#000;stroke-width:0.1953;opacity:1"/>
  <polyline points="12.750,100.000,12.750,126.134"  style="fill:none;stroke:#000;stroke-width:0.1953;opacity:1"/>
  <polyline points="13.500,100.000,13.500,122.014"  style="fill:none;stroke:#000;stroke-width:0.1953;opacity:1"/>
  <polyline points="14.250,100.000,14.250,117.769"  style="fill:none;stroke:#000;stroke-width:0.1953;opacity:1"/>
  <polyline points="15.000,100.000,15.000,113.425"  style="fill:none;stroke:#000;stroke-width:0.1953;opacity:1"/>
  <polyline points="15.750,100.000,15.750,109.006"  style="fill:none;stroke:#000;stroke-width:0.1953;opacity:1"/>
  <polyline points="16.500,100.000,16.500,104.536"  style="fill:none;stroke:#000;stroke-width:0.1953;opacity:1"/>
  <polyline points="17.250,100.000,17.250,100.040"  style="fill:none;stroke:#000;stroke-width:0.1953;opacity:1"/>
  <polyline points="18.000,100.000,18.000,95.544"  style="fill:none;stroke:#000;stroke-width:0.1953;opacity:1"/>
  <polyline points="18.750,100.000,18.750,91.073"  style="fill:none;stroke:#000;stroke-width:0.1953;opacity:1"/>
  <polyline points="19.500,100.000,19.500,86.653"  style="fill:none;stroke:#000;stroke-width:0.1953;opacity:1"/>
  <polyline points="20.250,100.000,20.250,82.307"  style="fill:none;stroke:#000;stroke-width:0.1953;opacity:1"/>
  <polyline points="21.000,100.000,21.000,78.061"  style="fill:none;stroke:#000;stroke-width:0.1953;opacity:1"/>
  <polyline points="21.750,100.000,21.750,73.938"  style="fill:none;stroke:#000;stroke-width:0.1953;opacity:1"/>
  <polyline points="22.500,100.000,22.500,69.962"  style="fill:none;stroke:#000;stroke-width:0.1953;opacity:1"/>
  <polyline points="23.250,100.000,23.250,66.154"  style="fill:none;stroke:#000;stroke-width:0.1953;opacity:1"/>
  <polyline points="24.000,100.000,24.000,62.537"  style="fill:none;stroke:#000;stroke-width:0.1953;opacity:1"/>
  <polyline points="24.750,100.000,24.750,59.131"  style="fill:none;stroke:#000;stroke-width:0.1953;opacity:1"/>
  <polyline points="25.500,100.000,25.500,55.954"  style="fill:none;stroke:#000;stroke-width:0.1953;opacity:1"/>
  <polyline points="26.250,100.000,26.250,53.025"  style="fill:none;stroke:#000;stroke-width:0.1953;opacity:1"/>
  <polyline points="27.000,100.000,27.000,50.360"  style="fill:none;stroke:#000;stroke-width:0.1953;opacity:1"/>
  <polyline points="27.750,100.000,27.750,47.975"  style="fill:none;stroke:#000;stroke-width:0.1953;opacity:1"/>
  <polyline points="28.500,100.000,28.500,45.881"  style="fill:none;stroke:#000;stroke-width:0.1953;opacity:1"/>
  <polyline points="29.250,100.000,29.250,44.092"  style="fill:none;stroke:#000;stroke-width:0.1953;opacity:1"/>
  <polyline points="30.000,100.000,30.000,42.617"  style="fill:none;stroke:#000;stroke-width:0.1953;opacity:1"/>
  <polyline points="30.750,100.000,30.750,41.465"  style="fill:none;stroke:#000;stroke-width:0.1953;opacity:1"/>
  <polyline points="31.500,100.000,31.500,40.642"  style="fill:none;stroke:#000;stroke-width:0.1953;opacity:1"/>
  <polyline points="32.250,100.000,32.250,40.153"  style="fill:none;stroke:#000;stroke-width:0.1953;opacity:1"/>
  <polyline points="33.000,100.000,33.000,40.000"  style="fill:none;stroke:#000;stroke-width:0.1953;opacity:1"/>
  <polyline points="33.750,100.000,33.750,40.185"  style="fill:none;stroke:#000;stroke-width:0.1953;opacity:1"/>
  <polyline points="34.500,100.000,34.500,40.706"  style="fill:none;stroke:#000;stroke-width:0.1953;opacity:1"/>
  <polyline points="35.250,100.000,35.250,41.560"  style="fill:none;stroke:#000;stroke-width:0.1953;opacity:1"/>
  <polyline points="36.000,100.000,36.000,42.743"  style="fill:none;stroke:#000;stroke-width:0.1953;opacity:1"/>
  <polyline points="36.750,100.000,36.750,44.248"  style="fill:none;stroke:#000;stroke-width:0.1953;opacity:1"/>
  <polyline points="37.500,100.000,37.500,46.066"  style="fill:none;stroke:#000;stroke-width:0.1953;opacity:1"/>
  <polyline points="38.250,100.000,38.250,48.187"  style="fill:none;stroke:#000;stroke-width:0.1953;opacity:1"/>
  <polyline points="39.000,100.000,39.000,50.600"  style="fill:none;stroke:#000;stroke-width:0.1953;opacity:1"/>
  <polyline points="39.750,100.000,39.750,53.291"  style="fill:none;stroke:#000;stroke-width:0.1953;opacity:1"/>
  <polyline points="40.500,100.000,40.500,56.244"  style="fill:none;stroke:#000;stroke-width:0.1953;opacity:1"/>
  <polyline points="41.250,100.000,41.250,59.443"  style="fill:none;stroke:#000;stroke-width:0.1953;opacity:1"/>
  <polyline points="42.000,100.000,42.000,62.870"  style="fill:none;stroke:#000;stroke-width:0.1953;opacity:1"/>
  <polyline points="42.750,100.000,42.750,66.506"  style="fill:none;stroke:#000;stroke-width:0.1953;opacity:1"/>
  <polyline points="43.500,100.000,43.500,70.330"  style="fill:none;stroke:#000;stroke-width:0.1953;opacity:1"/>
  <polyline points="44.250,100.000,44.250,74.321"  style="fill:none;stroke:#000;stroke-width:0.1953;opacity:1"/>
  <polyline points="45.000,100.000,45.000,78.456"  style="fill:none;stroke:#000;stroke-width:0.1953;opacity:1"/>
  <polyline points="45.750,100.000,45.750,82.713"  style="fill:none;stroke:#000;stroke-width:0.1953;opacity:1"/>
  <polyline points="46.500,100.000,46.500,87.067"  style="fill:none;stroke:#000;stroke-width:0.1953;opacity:1"/>
  <polyline points="47.250,100.000,47.250,91.493"  style="fill:none;stroke:#000;stroke-width:0.1953;opacity:1"/>
  <polyline points="48.000,100.000,48.000,95.968"  style="fill:none;stroke:#000;stroke-width:0.1953;opacity:1"/>
  <polyline points="48.750,100.000,48.750,100.464"  style="fill:none;stroke:#000;stroke-width:0.1953;opacity:1"/>
  <polyline points="49.500,100.000,49.500,104.959"  style="fill:none;stroke:#000;stroke-width:0.1953;opacity:1"/>
  <polyline points="50.250,100.000,50.250,109.425"  style="fill:none;stroke:#000;stroke-width:0.1953;opacity:1"/>
  <polyline points="51.000,100.000,51.000,113.839"  style="fill:none;stroke:#000;stroke-width:0.1953;opacity:1"/>
  <polyline points="51.750,100.000,51.750,118.174"  style="fill:none;stroke:#000;stroke-width:0.1953;opacity:1"/>
  <polyline points="52.500,100.000,52.500,122.408"  style="fill:none;stroke:#000;stroke-width:0.1953;opacity:1"/>
  <polyline points="53.250,100.000,53.250,126.515"  style="fill:none;stroke:#000;stroke-width:0.1953;opacity:1"/>
  <polyline points="54.000,100.000,54.000,130.474"  style="fill:none;stroke:#000;stroke-width:0.1953;opacity:1"/>
  <polyline points="54.750,100.000,54.750,134.261"  style="fill:none;stroke:#000;stroke-width:0.1953;opacity:1"/>
  <polyline points="55.500,100.000,55.500,137.855"  style="fill:none;stroke:#000;stroke-width:0.1953;opacity:1"/>
  <polyline points="56.250,100.000,56.250,141.237"  style="fill:none;stroke:#000;stroke-width:0.1953;opacity:1"/>
  <polyline points="57.000,100.000,57.000,144.387"  style="fill:none;stroke:#000;stroke-width:0.1953;opacity:1"/>
  <polyline points="57.750,100.000,57.750,147.287"  style="fill:none;stroke:#000;stroke-width:0.1953;opacity:1"/>
  <polyline points="58.500,100.000,58.500,149.921"  style="fill:none;stroke:#000;stroke-width:0.1953;opacity:1"/>
  <polyline points="59.250,100.000,59.250,152.275"  style="fill:none;stroke:#000;stroke-width:0.1953;opacity:1"/>
  <polyline points="60.000,100.000,60.000,154.335"  style="fill:none;stroke:#000;stroke-width:0.1953;opacity:1"/>
  <polyline points="60.750,100.000,60.750,156.089"  style="fill:none;stroke:#000;stroke-width:0.1953;opacity:1"/>
  <polyline points="61.500,100.000,61.500,157.528"  style="fill:none;stroke:#000;stroke-width:0.1953;opacity:1"/>
  <polyline points="62.250,100.000,62.250,158.643"  style="fill:none;stroke:#000;stroke-width:0.1953;opacity:1"/>
  <polyline points="63.000,100.000,63.000,159.429"  style="fill:none;stroke:#000;stroke-width:0.1953;opacity:1"/>
  <polyline points="63.750,100.000,63.750,159.881"  style="fill:none;stroke:#000;stroke-width:0.1953;opacity:1"/>
  <polyline points="64.500,100.000,64.500,159.996"  style="fill:none;stroke:#000;stroke-width:0.1953;opacity:1"/>
  <polyline points="65.250,100.000,65.250,159.773"  style="fill:none;stroke:#000;stroke-width:0.1953;opacity:1"/>
  <polyline points="66.000,100.000,66.000,159.215"  style="fill:none;stroke:#000;stroke-width:0.1953;opacity:1"/>
  <polyline points="66.750,100.000,66.750,158.324"  style="fill:none;stroke:#000;stroke-width:0.1953;opacity:1"/>
  <polyline points="67.500,100.000,67.500,157.104"  style="fill:none;stroke:#000;stroke-width:0.1953;opacity:1"/>
  <polyline points="68.250,100.000,68.250,155.564"  style="fill:none;stroke:#000;stroke-width:0.1953;opacity:1"/>
  <polyline points="69.000,100.000,69.000,153.711"  style="fill:none;stroke:#000;stroke-width:0.1953;opacity:1"/>
  <polyline points="69.750,100.000,69.750,151.557"  style="fill:none;stroke:#000;stroke-width:0.1953;opacity:1"/>
  <polyline points="70.500,100.000,70.500,149.112"  style="fill:none;stroke:#000;stroke-width:0.1953;opacity:1"/>
  <polyline points="71.250,100.000,71.250,146.391"  style="fill:none;stroke:#000;stroke-width:0.1953;opacity:1"/>
  <polyline points="72.000,100.000,72.000,143.410"  style="fill:none;stroke:#000;stroke-width:0.1953;opacity:1"/>
  <polyline points="72.750,100.000,72.750,140.184"  style="fill:none;stroke:#000;stroke-width:0.1953;opacity:1"/>
  <polyline points="73.500,100.000,73.500,136.733"  style="fill:none;stroke:#000;stroke-width:0.1953;opacity:1"/>
  <polyline points="74.250,100.000,74.250,133.074"  style="fill:none;stroke:#000;stroke-width:0.1953;opacity:1"/>
  <polyline points="75.000,100.000,75.000,129.230"  style="fill:none;stroke:#000;stroke-width:0.1953;opacity:1"/>
  <polyline points="75.750,100.000,75.750,125.222"  style="fill:none;stroke:#000;stroke-width:0.1953;opacity:1"/>
  <polyline points="76.500,100.000,76.500,121.072"  style="fill:none;stroke:#000;stroke-width:0.1953;opacity:1"/>
  <polyline points="77.250,100.000,77.250,116.803"  style="fill:none;stroke:#000;stroke-width:0.1953;opacity:1"/>
  <polyline points="78.000,100.000,78.000,112.440"  style="fill:none;stroke:#000;stroke-width:0.1953;opacity:1"/>
  <polyline points="78.750,100.000,78.750,108.007"  style="fill:none;stroke:#000;stroke-width:0.1953;opacity:1"/>
  <polyline points="79.500,100.000,79.500,103.529"  style="fill:none;stroke:#000;stroke-width:0.1953;opacity:1"/>
  <polyline points="80.250,100.000,80.250,99.031"  style="fill:none;stroke:#000;stroke-width:0.1953;opacity:1"/>
  <polyline points="81.000,100.000,81.000,94.539"  style="fill:none;stroke:#000;stroke-width:0.1953;opacity:1"/>
  <polyline points="81.750,100.000,81.750,90.077"  style="fill:none;stroke:#000;stroke-width:0.1953;opacity:1"/>
  <polyline points="82.500,100.000,82.500,85.671"  style="fill:none;stroke:#000;stroke-width:0.1953;opacity:1"/>
  <polyline points="83.250,100.000,83.250,81.346"  style="fill:none;stroke:#000;stroke-width:0.1953;opacity:1"/>
  <polyline points="84.000,100.000,84.000,77.125"  style="fill:none;stroke:#000;stroke-width:0.1953;opacity:1"/>
  <polyline points="84.750,100.000,84.750,73.033"  style="fill:none;stroke:#000;stroke-width:0.1953;opacity:1"/>
  <polyline points="85.500,100.000,85.500,69.093"  style="fill:none;stroke:#000;stroke-width:0.1953;opacity:1"/>
  <polyline points="86.250,100.000,86.250,65.326"  style="fill:none;stroke:#000;stroke-width:0.1953;opacity:1"/>
  <polyline points="87.000,100.000,87.000,61.755"  style="fill:none;stroke:#000;stroke-width:0.1953;opacity:1"/>
  <polyline points="87.750,100.000,87.750,58.398"  style="fill:none;stroke:#000;stroke-width:0.1953;opacity:1"/>
  <polyline points="88.500,100.000,88.500,55.275"  style="fill:none;stroke:#000;stroke-width:0.1953;opacity:1"/>
  <polyline points="89.250,100.000,89.250,52.404"  style="fill:none;stroke:#000;stroke-width:0.1953;opacity:1"/>
  <polyline points="90.000,100.000,90.000,49.801"  style="fill:none;stroke:#000;stroke-width:0.1953;opacity:1"/>
  <polyline points="90.750,100.000,90.750,47.479"  style="fill:none;stroke:#000;stroke-width:0.1953;opacity:1"/>
  <polyline points="91.500,100.000,91.500,45.453"  style="fill:none;stroke:#000;stroke-width:0.1953;opacity:1"/>
  <polyline points="92.250,100.000,92.250,43.734"  style="fill:none;stroke:#000;stroke-width:0.1953;opacity:1"/>
  <polyline points="93.000,100.000,93.000,42.331"  style="fill:none;stroke:#000;stroke-width:0.1953;opacity:1"/>
  <polyline points="93.750,100.000,93.750,41.252"  style="fill:none;stroke:#000;stroke-width:0.1953;opacity:1"/>
  <polyline points="94.500,100.000,94.500,40.504"  style="fill:none;stroke:#000;stroke-width:0.1953;opacity:1"/>
  <polyline points="95.250,100.000,95.250,40.090"  style="fill:none;stroke:#000;stroke-width:0.1953;opacity:1"/>
  <polyline points="96.000,100.000,96.000,40.012"  style="fill:none;stroke:#000;stroke-width:0.1953;opacity:1"/>
  <polyline points="96.750,100.000,96.750,40.273"  style="fill:none;stroke:#000;stroke-width:0.1953;opacity:1"/>
  <polyline points="97.500,100.000,97.500,40.868"  style="fill:none;stroke:#000;stroke-width:0.1953;opacity:1"/>
  <polyline points="98.250,100.000,98.250,41.797"  style="fill:none;stroke:#000;stroke-width:0.1953;opacity:1"/>
  <polyline points="99.000,100.000,99.000,43.053"  style="fill:none;stroke:#000;stroke-width:0.1953;opacity:1"/>
  <polyline points="99.750,100.000,99.750,44.628"  style="fill:none;stroke:#000;stroke-width:0.1953;opacity:1"/>
  <polyline points="100.500,100.000,100.500,46.515"  style="fill:none;stroke:#000;stroke-width:0.1953;opacity:1"/>
  <polyline points="101.250,100.000,101.250,48.703"  style="fill:none;stroke:#000;stroke-width:0.1953;opacity:1"/>
  <polyline points="102.000,100.000,102.000,51.180"  style="fill:none;stroke:#000;stroke-width:0.1953;opacity:1"/>
  <polyline points="102.750,100.000,102.750,53.930"  style="fill:none;stroke:#000;stroke-width:0.1953;opacity:1"/>
  <polyline points="103.500,100.000,103.500,56.940"  style="fill:none;stroke:#000;stroke-width:0.1953;opacity:1"/>
  <polyline points="104.250,100.000,104.250,60.192"  style="fill:none;stroke:#000;stroke-width:0.1953;opacity:1"/>
  <polyline points="105.000,100.000,105.000,63.668"  style="fill:none;stroke:#000;stroke-width:0.1953;opacity:1"/>
  <polyline points="105.750,100.000,105.750,67.348"  style="fill:none;stroke:#000;stroke-width:0.1953;opacity:1"/>
  <polyline points="106.500,100.000,106.500,71.211"  style="fill:none;stroke:#000;stroke-width:0.1953;opacity:1"/>
  <polyline points="107.250,100.000,107.250,75.236"  style="fill:none;stroke:#000;stroke-width:0.1953;opacity:1"/>
  <polyline points="108.000,100.000,108.000,79.401"  style="fill:none;stroke:#000;stroke-width:0.1953;opacity:1"/>
  <polyline points="108.750,100.000,108.750,83.682"  style="fill:none;stroke:#000;stroke-width:0.1953;opacity:1"/>
  <polyline points="109.500,100.000,109.500,88.054"  style="fill:none;stroke:#000;stroke-width:0.1953;opacity:1"/>
  <polyline points="110.250,100.000,110.250,92.493"  style="fill:none;stroke:#000;stroke-width:0.1953;opacity:1"/>
  <polyline points="111.000,100.000,111.000,96.975"  style="fill:none;stroke:#000;stroke-width:0.1953;opacity:1"/>
  <polyline points="111.750,100.000,111.750,101.473"  style="fill:none;stroke:#000;stroke-width:0.1953;opacity:1"/>
  <polyline points="112.500,100.000,112.500,105.963"  style="fill:none;stroke:#000;stroke-width:0.1953;opacity:1"/>
  <polyline points="113.250,100.000,113.250,110.420"  style="fill:none;stroke:#000;stroke-width:0.1953;opacity:1"/>
  <polyline points="114.000,100.000,114.000,114.818"  style="fill:none;stroke:#000;stroke-width:0.1953;opacity:1"/>
  <polyline points="114.750,100.000,114.750,119.133"  style="fill:none;stroke:#000;stroke-width:0.1953;opacity:1"/>
  <polyline points="115.500,100.000,115.500,123.341"  style="fill:none;stroke:#000;stroke-width:0.1953;opacity:1"/>
  <polyline points="116.250,100.000,116.250,127.417"  style="fill:none;stroke:#000;stroke-width:0.1953;opacity:1"/>
  <polyline points="117.000,100.000,117.000,131.339"  style="fill:none;stroke:#000;stroke-width:0.1953;opacity:1"/>
  <polyline points="117.750,100.000,117.750,135.084"  style="fill:none;stroke:#000;stroke-width:0.1953;opacity:1"/>
  <polyline points="118.500,100.000,118.500,138.633"  style="fill:none;stroke:#000;stroke-width:0.1953;opacity:1"/>
  <polyline points="119.250,100.000,119.250,141.964"  style="fill:none;stroke:#000;stroke-width:0.1953;opacity:1"/>
  <polyline points="120.000,100.000,120.000,145.059"  style="fill:none;stroke:#000;stroke-width:0.1953;opacity:1"/>
  <polyline points="120.750,100.000,120.750,147.901"  style="fill:none;stroke:#000;stroke-width:0.1953;opacity:1"/>
  <polyline points="121.500,100.000,121.500,150.474"  style="fill:none;stroke:#000;stroke-width:0.1953;opacity:1"/>
  <polyline points="122.250,100.000,122.250,152.763"  style="fill:none;stroke:#000;stroke-width:0.1953;opacity:1"/>
  <polyline points="123.000,100.000,123.000,154.755"  style="fill:none;stroke:#000;stroke-width:0.1953;opacity:1"/>
  <polyline points="123.750,100.000,123.750,156.439"  style="fill:none;stroke:#000;stroke-width:0.1953;opacity:1"/>
  <polyline points="124.500,100.000,124.500,157.806"  style="fill:none;stroke:#000;stroke-width:0.1953;opacity:1"/>
  <polyline points="125.250,100.000,125.250,158.848"  style="fill:none;stroke:#000;stroke-width:0.1953;opacity:1"/>
  <polyline points="126.000,100.000,126.000,159.560"  style="fill:none;stroke:#000;stroke-width:0.1953;opacity:1"/>
  <polyline points="126.750,100.000,126.750,159.936"  style="fill:none;stroke:#000;stroke-width:0.1953;opacity:1"/>
  <polyline points="127.500,100.000,127.500,159.975"  style="fill:none;stroke:#000;stroke-width:0.1953;opacity:1"/>
  <polyline points="128.250,100.000,128.250,159.677"  style="fill:none;stroke:#000;stroke-width:0.1953;opacity:1"/>
  <polyline points="129.000,100.000,129.000,159.044"  style="fill:none;stroke:#000;stroke-width:0.1953;opacity:1"/>
  <polyline points="129.750,100.000,129.750,158.079"  style="fill:none;stroke:#000;stroke-width:0.1953;opacity:1"/>
  <polyline points="130.500,100.000,130.500,156.787"  style="fill:none;stroke:#000;stroke-width:0.1953;opacity:1"/>
  <polyline points="131.250,100.000,131.250,155.175"  style="fill:none;stroke:#000;stroke-width:0.1953;opacity:1"/>
  <polyline points="132.000,100.000,132.000,153.254"  style="fill:none;stroke:#000;stroke-width:0.1953;opacity:1"/>
  <polyline points="132.750,100.000,132.750,151.033"  style="fill:none;stroke:#000;stroke-width:0.1953;opacity:1"/>
  <polyline points="133.500,100.000,133.500,148.525"  style="fill:none;stroke:#000;stroke-width:0.1953;opacity:1"/>
  <polyline points="134.250,100.000,134.250,145.745"  style="fill:none;stroke:#000;stroke-width:0.1953;opacity:1"/>
  <polyline points="135.000,100.000,135.000,142.707"  style="fill:none;stroke:#000;stroke-width:0.1953;opacity:1"/>
  <polyline points="135.750,100.000,135.750,139.429"  style="fill:none;stroke:#000;stroke-width:0.1953;opacity:1"/>
  <polyline points="136.500,100.000,136.500,135.930"  style="fill:none;stroke:#000;stroke-width:0.1953;opacity:1"/>
  <polyline points="137.250,100.000,137.250,132.228"  style="fill:none;stroke:#000;stroke-width:0.1953;opacity:1"/>
  <polyline points="138.000,100.000,138.000,128.345"  style="fill:none;stroke:#000;stroke-width:0.1953;opacity:1"/>
  <polyline points="138.750,100.000,138.750,124.303"  style="fill:none;stroke:#000;stroke-width:0.1953;opacity:1"/>
  <polyline points="139.500,100.000,139.500,120.124"  style="fill:none;stroke:#000;stroke-width:0.1953;opacity:1"/>
  <polyline points="140.250,100.000,140.250,115.832"  style="fill:none;stroke:#000;stroke-width:0.1953;opacity:1"/>
  <polyline points="141.000,100.000,141.000,111.452"  style="fill:none;stroke:#000;stroke-width:0.1953;opacity:1"/>
  <polyline points="141.750,100.000,141.750,107.006"  style="fill:none;stroke:#000;stroke-width:0.1953;opacity:1"/>
  <polyline points="142.500,100.000,142.500,102.521"  style="fill:none;stroke:#000;stroke-width:0.1953;opacity:1"/>
  <polyline points="143.250,100.000,143.250,98.023"  style="fill:none;stroke:#000;stroke-width:0.1953;opacity:1"/>
  <polyline points="144.000,100.000,144.000,93.535"  style="fill:none;stroke:#000;stroke-width:0.1953;opacity:1"/>
  <polyline points="144.750,100.000,144.750,89.083"  style="fill:none;stroke:#000;stroke-width:0.1953;opacity:1"/>
  <polyline points="145.500,100.000,145.500,84.693"  style="fill:none;stroke:#000;stroke-width:0.1953;opacity:1"/>
  <polyline points="146.250,100.000,146.250,80.389"  style="fill:none;stroke:#000;stroke-width:0.1953;opacity:1"/>
  <polyline points="147.000,100.000,147.000,76.196"  style="fill:none;stroke:#000;stroke-width:0.1953;opacity:1"/>
  <polyline points="147.750,100.000,147.750,72.136"  style="fill:none;stroke:#000;stroke-width:0.1953;opacity:1"/>
  <polyline points="148.500,100.000,148.500,68.232"  style="fill:none;stroke:#000;stroke-width:0.1953;opacity:1"/>
  <polyline points="149.250,100.000,149.250,64.508"  style="fill:none;stroke:#000;stroke-width:0.1953;opacity:1"/>
  <polyline points="150.000,100.000,150.000,60.983"  style="fill:none;stroke:#000;stroke-width:0.1953;opacity:1"/>
  <polyline points="150.750,100.000,150.750,57.677"  style="fill:none;stroke:#000;stroke-width:0.1953;opacity:1"/>
  <polyline points="151.500,100.000,151.500,54.609"  style="fill:none;stroke:#000;stroke-width:0.1953;opacity:1"/>
  <polyline points="152.250,100.000,152.250,51.797"  style="fill:none;stroke:#000;stroke-width:0.1953;opacity:1"/>
  <polyline points="153.000,100.000,153.000,49.255"  style="fill:none;stroke:#000;stroke-width:0.1953;opacity:1"/>
  <polyline points="153.750,100.000,153.750,46.999"  style="fill:none;stroke:#000;stroke-width:0.1953;opacity:1"/>
  <polyline points="154.500,100.000,154.500,45.041"  style="fill:none;stroke:#000;stroke-width:0.1953;opacity:1"/>
  <polyline points="155.250,100.000,155.250,43.391"  style="fill:none;stroke:#000;stroke-width:0.1953;opacity:1"/>
  <polyline points="156.000,100.000,156.000,42.061"  style="fill:none;stroke:#000;stroke-width:0.1953;opacity:1"/>
  <polyline points="156.750,100.000,156.750,41.055"  style="fill:none;stroke:#000;stroke-width:0.1953;opacity:1"/>
  <polyline points="157.500,100.000,157.500,40.382"  style="fill:none;stroke:#000;stroke-width:0.1953;opacity:1"/>
  <polyline points="158.250,100.000,158.250,40.043"  style="fill:none;stroke:#000;stroke-width:0.1953;opacity:1"/>
  <polyline points="159.000,100.000,159.000,40.041"  style="fill:none;stroke:#000;stroke-width:0.1953;opacity:1"/>
  <polyline points="159.750,100.000,159.750,40.377"  style="fill:none;stroke:#000;stroke-width:0.1953;opacity:1"/>
  <polyline points="160.500,100.000,160.500,41.048"  style="fill:none;stroke:#000;stroke-width:0.1953;opacity:1"/>
  <polyline points="161.250,100.000,161.250,42.050"  style="fill:none;stroke:#000;stroke-width:0.1953;opacity:1"/>
  <polyline points="162.000,100.000,162.000,43.378"  style="fill:none;stroke:#000;stroke-width:0.1953;opacity:1"/>
  <polyline points="162.750,100.000,162.750,45.025"  style="fill:none;stroke:#000;stroke-width:0.1953;opacity:1"/>
  <polyline points="163.500,100.000,163.500,46.980"  style="fill:none;stroke:#000;stroke-width:0.1953;opacity:1"/>
  <polyline points="164.250,100.000,164.250,49.234"  style="fill:none;stroke:#000;stroke-width:0.1953;opacity:1"/>
  <polyline points="165.000,100.000,165.000,51.773"  style="fill:none;stroke:#000;stroke-width:0.1953;opacity:1"/>
  <polyline points="165.750,100.000,165.750,54.583"  style="fill:none;stroke:#000;stroke-width:0.1953;opacity:1"/>
  <polyline points="166.500,100.000,166.500,57.649"  style="fill:none;stroke:#000;stroke-width:0.1953;opacity:1"/>
  <polyline points="167.250,100.000,167.250,60.952"  style="fill:none;stroke:#000;stroke-width:0.1953;opacity:1"/>
  <polyline points="168.000,100.000,168.000,64.476"  style="fill:none;stroke:#000;stroke-width:0.1953;opacity:1"/>
  <polyline points="168.750,100.000,168.750,68.199"  style="fill:none;stroke:#000;stroke-width:0.1953;opacity:1"/>
  <polyline points="169.500,100.000,169.500,72.100"  style="fill:none;stroke:#000;stroke-width:0.1953;opacity:1"/>
  <polyline points="170.250,100.000,170.250,76.159"  style="fill:none;stroke:#000;stroke-width:0.1953;opacity:1"/>
  <polyline points="171.000,100.000,171.000,80.352"  style="fill:none;stroke:#000;stroke-width:0.1953;opacity:1"/>
  <polyline points="171.750,100.000,171.750,84.655"  style="fill:none;stroke:#000;stroke-width:0.1953;opacity:1"/>
  <polyline points="172.500,100.000,172.500,89.044"  style="fill:none;stroke:#000;stroke-width:0.1953;opacity:1"/>
  <polyline points="173.250,100.000,173.250,93.495"  style="fill:none;stroke:#000;stroke-width:0.1953;opacity:1"/>
  <polyline points="174.000,100.000,174.000,97.983"  style="fill:none;stroke:#000;stroke-width:0.1953;opacity:1"/>
  <polyline points="174.750,100.000,174.750,102.482"  style="fill:none;stroke:#000;stroke-width:0.1953;opacity:1"/>
  <polyline points="175.500,100.000,175.500,106.966"  style="fill:none;stroke:#000;stroke-width:0.1953;opacity:1"/>
  <polyline points="176.250,100.000,176.250,111.412"  style="fill:none;stroke:#000;stroke-width:0.1953;opacity:1"/>
  <polyline points="177.000,100.000,177.000,115.794"  style="fill:none;stroke:#000;stroke-width:0.1953;opacity:1"/>
  <polyline points="177.750,100.000,177.750,120.087"  style="fill:none;stroke:#000;stroke-width:0.1953;opacity:1"/>
  <polyline points="178.500,100.000,178.500,124.267"  style="fill:none;stroke:#000;stroke-width:0.1953;opacity:1"/>
  <polyline points="179.250,100.000,179.250,128.310"  style="fill:none;stroke:#000;stroke-width:0.1953;opacity:1"/>
  <polyline points="180.000,100.000,180.000,132.194"  style="fill:none;stroke:#000;stroke-width:0.1953;opacity:1"/>
  <polyline points="180.750,100.000,180.750,135.898"  style="fill:none;stroke:#000;stroke-width:0.1953;opacity:1"/>
  <polyline points="181.500,100.000,181.500,139.399"  style="fill:none;stroke:#000;stroke-width:0.1953;opacity:1"/>
  <polyline points="182.250,100.000,182.250,142.679"  style="fill:none;stroke:#000;stroke-width:0.1953;opacity:1"/>
  <polyline points="183.000,100.000,183.000,145.719"  style="fill:none;stroke:#000;stroke-width:0.1953;opacity:1"/>
  <polyline points="183.750,100.000,183.750,148.502"  style="fill:none;stroke:#000;stroke-width:0.1953;opacity:1"/>
  <polyline points="184.500,100.000,184.500,151.012"  style="fill:none;stroke:#000;stroke-width:0.1953;opacity:1"/>
  <polyline points="185.250,100.000,185.250,153.236"  style="fill:none;stroke:#000;stroke-width:0.1953;opacity:1"/>
  <polyline points="186.000,100.000,186.000,155.160"  style="fill:none;stroke:#000;stroke-width:0.1953;opacity:1"/>
  <polyline points="186.750,100.000,186.750,156.774"  style="fill:none;stroke:#000;stroke-width:0.1953;opacity:1"/>
  <polyline points="187.500,100.000,187.500,158.068"  style="fill:none;stroke:#000;stroke-width:0.1953;opacity:1"/>
  <polyline points="188.250,100.000,188.250,159.037"  style="fill:none;stroke:#000;stroke-width:0.1953;opacity:1"/>
  <polyline points="189.000,100.000,189.000,159.673"  style="fill:none;stroke:#000;stroke-width:0.1953;opacity:1"/>
  <polyline points="189.750,100.000,189.750,159.974"  style="fill:none;stroke:#000;stroke-width:0.1953;opacity:1"/>
  <polyline points="190.500,100.000,190.500,159.938"  style="fill:none;stroke:#000;stroke-width:0.1953;opacity:1"/>
  <polyline points="191.250,100.000,191.250,159.564"  style="fill:none;stroke:#000;stroke-width:0.1953;opacity:1"/>
  <polyline points="192.000,100.000,192.000,158.856"  style="fill:none;stroke:#000;stroke-width:0.1953;opacity:1"/>
  <polyline points="192.750,100.000,192.750,157.817"  style="fill:none;stroke:#000;stroke-width:0.1953;opacity:1"/>
  <polyline points="193.500,100.000,193.500,156.453"  style="fill:none;stroke:#000;stroke-width:0.1953;opacity:1"/>
  <polyline points="194.250,100.000,194.250,154.771"  style="fill:none;stroke:#000;stroke-width:0.1953;opacity:1"/>
  <polyline points="195.000,100.000,195.000,152.782"  style="fill:none;stroke:#000;stroke-width:0.1953;opacity:1"/>
  <polyline points="195.750,100.000,195.750,150.495"  style="fill:none;stroke:#000;stroke-width:0.1953;opacity:1"/>
  <polyline points="196.500,100.000,196.500,147.925"  style="fill:none;stroke:#000;stroke-width:0.1953;opacity:1"/>
  <polyline points="197.250,100.000,197.250,145.086"  style="fill:none;stroke:#000;stroke-width:0.1953;opacity:1"/>
  <polyline points="198.000,100.000,198.000,141.992"  style="fill:none;stroke:#000;stroke-width:0.1953;opacity:1"/>
  <polyline points="198.750,100.000,198.750,138.663"  style="fill:none;stroke:#000;stroke-width:0.1953;opacity:1"/>
  <polyline points="199.500,100.000,199.500,135.117"  style="fill:none;stroke:#000;stroke-width:0.1953;opacity:1"/>
</svg>