<?xml version="1.0"?><svg  viewBox="0 0 200 200" width="180mm" height="180mm" xmlns="http://www.w3.org/2000/svg"  version="1.2" viewport-fill="#fff">
  <polyline points="141.863,170.419,141.666,170.537,140.869,170.996,140.058,171.447,139.231,171.890,138.390,172.323,137.534,172.748,136.664,173.163,135.781,173.569,134.883,173.965,133.973,174.351,133.049,174.728,132.113,175.094,131.165,175.451,130.204,175.796,129.232,176.131,128.249,176.456,127.254,176.769,126.250,177.072,125.234,177.363,124.210,177.643,123.175,177.911,122.132,178.168,121.080,178.413,120.019,178.646,118.951,178.867,117.876,179.076,116.793,179.273,115.704,179.458,114.608,179.630,113.507,179.790,112.400,179.938,111.289,180.073,110.173,180.195,109.053,180.304,107.929,180.401,106.802,180.485,105.673,180.556,104.541,180.614,103.407,180.660,102.272,180.692,101.136,180.712,100.000,180.718,98.864,180.712,97.728,180.692,96.593,180.660,95.459,180.614,94.327,180.556,93.198,180.485,92.071,180.401,90.947,180.304,89.827,180.195,88.711,180.073,87.600,179.938,86.493,179.790,85.392,179.630,84.296,179.458,83.207,179.273,82.124,179.076,81.049,178.867,79.981,178.646,78.920,178.413,77.868,178.168,76.825,177.911,75.790,177.643,74.766,177.363,73.750,177.072,72.746,176.769,71.751,176.456,70.768,176.131,69.796,175.796,68.835,175.451,67.887,175.094,66.951,174.728,66.027,174.351,65.117,173.965,64.219,173.569,63.336,173.163,62.466,172.748,61.610,172.323,60.769,171.890,59.942,171.447,59.131,170.996,58.334,170.537"  style="fill:none;stroke:#000;stroke-width:0.1953;opacity:1"/>
  <polyline points="151.597,162.973,150.760,163.533,149.904,164.083,149.029,164.625,148.136,165.158,147.224,165.682,146.294,166.196,145.347,166.701,144.382,167.196,143.399,167.680,142.400,168.155,141.385,168.618,140.353,169.071,139.306,169.513,138.243,169.943,137.165,170.363,136.072,170.770,134.965,171.166,133.844,171.549,132.709,171.921,131.562,172.279,130.402,172.626,129.230,172.959,128.045,173.280,126.850,173.588,125.644,173.882,124.427,174.163,123.200,174.430,121.964,174.684,120.719,174.924,119.466,175.150,118.205,175.362,116.936,175.560,115.660,175.744,114.378,175.913,113.090,176.068,111.796,176.208,110.498,176.334,109.195,176.445,107.888,176.542,106.579,176.623,105.266,176.690,103.952,176.742,102.635,176.780,101.318,176.802,100.000,176.809,98.682,176.802,97.365,176.780,96.048,176.742,94.734,176.690,93.421,176.623,92.112,176.542,90.805,176.445,89.502,176.334,88.204,176.208,86.910,176.068,85.622,175.913,84.340,175.744,83.064,175.560,81.795,175.362,80.534,175.150,79.281,174.924,78.036,174.684,76.800,174.430,75.573,174.163,74.356,173.882,73.150,173.588,71.955,173.280,70.770,172.959,69.598,172.626,68.438,172.279,67.291,171.921,66.156,171.549,65.035,171.166,63.928,170.770,62.835,170.363,61.757,169.943,60.694,169.513,59.647,169.071,58.615,168.618,57.600,168.155,56.601,167.680,55.618,167.196,54.653,166.701,53.706,166.196,52.776,165.682,51.864,165.158,50.971,164.625,50.096,164.083,49.240,163.533,48.403,162.973,47.586,162.406,46.788,161.831,46.010,161.247,45.252,160.657,44.514,160.059,43.796,159.454,43.099,158.843,42.423,158.225,41.767,157.601,41.133,156.971,40.930,156.760"  style="fill:none;stroke:#000;stroke-width:0.1953;opacity:1"/>
  <polyline points="40.524,156.340,40.520,156.335"  style="fill:none;stroke:#000;stroke-width:0.1953;opacity:1"/>
  <polyline points="159.485,156.330,159.480,156.335"  style="fill:none;stroke:#000;stroke-width:0.1953;opacity:1"/>
  <polyline points="159.075,156.755,158.867,156.971,158.233,157.601,157.577,158.225,156.901,158.843,156.204,159.454,155.486,160.059,154.748,160.657,153.990,161.247,153.212,161.831,152.414,162.406,151.597,162.973"  style="fill:none;stroke:#000;stroke-width:0.1953;opacity:1"/>
  <polyline points="157.124,155.060,156.206,155.667,155.266,156.265,154.306,156.853,153.324,157.432,152.321,158.001,151.298,158.560,150.255,159.109,149.192,159.647,148.110,160.174,147.008,160.690,145.888,161.194,144.750,161.687,143.593,162.168,142.419,162.637,141.228,163.094,140.020,163.538,138.796,163.969,137.556,164.387,136.301,164.792,135.031,165.183,133.747,165.561,132.448,165.925,131.137,166.275,129.812,166.610,128.475,166.931,127.126,167.238,125.766,167.530,124.395,167.807,123.013,168.069,121.622,168.316,120.222,168.548,118.814,168.764,117.398,168.964,115.974,169.149,114.543,169.319,113.107,169.472,111.664,169.610,110.217,169.731,108.766,169.836,107.310,169.926,105.852,169.999,104.391,170.056,102.929,170.096,101.465,170.121,100.000,170.129,98.535,170.121,97.071,170.096,95.609,170.056,94.148,169.999,92.690,169.926,91.234,169.836,89.783,169.731,88.336,169.610,86.893,169.472,85.457,169.319,84.026,169.149,82.602,168.964,81.186,168.764,79.778,168.548,78.378,168.316,76.987,168.069,75.605,167.807,74.234,167.530,72.874,167.238,71.525,166.931,70.188,166.610,68.863,166.275,67.552,165.925,66.253,165.561,64.969,165.183,63.699,164.792,62.444,164.387,61.204,163.969,59.980,163.538,58.772,163.094,57.581,162.637,56.407,162.168,55.250,161.687,54.112,161.194,52.992,160.690,51.890,160.174,50.808,159.647,49.745,159.109,48.702,158.560,47.679,158.001,46.676,157.432,45.694,156.853,44.734,156.265,43.794,155.667,42.876,155.060,41.980,154.445,41.106,153.821,40.254,153.189,39.425,152.548,38.618,151.901,37.835,151.246,37.074,150.584,36.337,149.915,35.623,149.239,34.932,148.558,34.266,147.870,33.623,147.177,33.004,146.479,32.409,145.775,31.838,145.067,31.291,144.354,30.768,143.637,30.270,142.916,29.796,142.192,29.347,141.464,29.217,141.241"  style="fill:none;stroke:#000;stroke-width:0.1953;opacity:1"/>
  <polyline points="170.690,141.401,170.653,141.464,170.204,142.192,169.730,142.916,169.232,143.637,168.709,144.354,168.162,145.067,167.591,145.775,166.996,146.479,166.377,147.177,165.734,147.870,165.068,148.558,164.377,149.239,163.663,149.915,162.926,150.584,162.165,151.246,161.382,151.901,160.575,152.548,159.746,153.189,158.894,153.821,158.020,154.445,157.124,155.060"  style="fill:none;stroke:#000;stroke-width:0.1953;opacity:1"/>
  <polyline points="160.993,145.025,160.019,145.657,159.022,146.279,158.002,146.891,156.959,147.494,155.893,148.086,154.806,148.668,153.696,149.239,152.566,149.800,151.414,150.349,150.241,150.887,149.048,151.413,147.836,151.926,146.603,152.428,145.352,152.917,144.082,153.393,142.794,153.856,141.488,154.306,140.165,154.742,138.826,155.165,137.470,155.573,136.098,155.967,134.712,156.347,133.310,156.713,131.895,157.063,130.466,157.399,129.025,157.719,127.570,158.024,126.105,158.313,124.628,158.587,123.140,158.845,121.643,159.087,120.136,159.313,118.621,159.523,117.098,159.716,115.567,159.893,114.029,160.053,112.486,160.197,110.937,160.324,109.383,160.434,107.826,160.528,106.265,160.604,104.701,160.664,103.135,160.706,101.568,160.732,100.000,160.740,98.432,160.732,96.865,160.706,95.299,160.664,93.735,160.604,92.174,160.528,90.617,160.434,89.063,160.324,87.514,160.197,85.971,160.053,84.433,159.893,82.902,159.716,81.379,159.523,79.864,159.313,78.357,159.087,76.860,158.845,75.372,158.587,73.895,158.313,72.430,158.024,70.975,157.719,69.534,157.399,68.105,157.063,66.690,156.713,65.288,156.347,63.902,155.967,62.530,155.573,61.174,155.165,59.835,154.742,58.512,154.306,57.206,153.856,55.918,153.393,54.648,152.917,53.397,152.428,52.164,151.926,50.952,151.413,49.759,150.887,48.586,150.349,47.434,149.800,46.304,149.239,45.194,148.668,44.107,148.086,43.041,147.494,41.998,146.891,40.978,146.279,39.981,145.657,39.007,145.025,38.057,144.385,37.131,143.736,36.229,143.079,35.351,142.414,34.497,141.741,33.668,141.060,32.865,140.373,32.086,139.678,31.332,138.977,30.604,138.269,29.902,137.556,29.225,136.837,28.573,136.113,27.948,135.383,27.348,134.649,26.774,133.910,26.227,133.167,25.705,132.421,25.209,131.670,24.740,130.917,24.296,130.160,23.879,129.401,23.488,128.639,23.123,127.875,22.783,127.109,22.470,126.341,22.183,125.572,21.921,124.802"  style="fill:none;stroke:#000;stroke-width:0.1953;opacity:1"/>
  <polyline points="178.109,124.704,178.079,124.802,177.817,125.572,177.530,126.341,177.217,127.109,176.877,127.875,176.512,128.639,176.121,129.401,175.704,130.160,175.260,130.917,174.791,131.670,174.295,132.421,173.773,133.167,173.226,133.910,172.652,134.649,172.052,135.383,171.427,136.113,170.775,136.837,170.098,137.556,169.396,138.269,168.668,138.977,167.914,139.678,167.135,140.373,166.332,141.060,165.503,141.741,164.649,142.414,163.771,143.079,162.869,143.736,161.943,144.385,160.993,145.025"  style="fill:none;stroke:#000;stroke-width:0.1953;opacity:1"/>
  <polyline points="162.962,133.128,161.960,133.759,160.934,134.381,159.884,134.993,158.810,135.596,157.713,136.189,156.593,136.771,155.450,137.343,154.285,137.903,153.098,138.453,151.890,138.991,150.660,139.517,149.409,140.032,148.139,140.534,146.848,141.023,145.538,141.500,144.209,141.964,142.862,142.414,141.497,142.851,140.114,143.274,138.715,143.683,137.299,144.078,135.867,144.459,134.420,144.825,132.959,145.176,131.483,145.512,129.994,145.833,128.492,146.139,126.978,146.429,125.452,146.703,123.916,146.962,122.369,147.204,120.812,147.431,119.246,147.641,117.672,147.835,116.090,148.012,114.501,148.173,112.906,148.317,111.305,148.444,109.699,148.554,108.089,148.648,106.476,148.725,104.859,148.784,103.241,148.827,101.621,148.853,100.000,148.861,98.379,148.853,96.759,148.827,95.141,148.784,93.524,148.725,91.911,148.648,90.301,148.554,88.695,148.444,87.094,148.317,85.499,148.173,83.910,148.012,82.328,147.835,80.754,147.641,79.188,147.431,77.631,147.204,76.084,146.962,74.548,146.703,73.022,146.429,71.508,146.139,70.006,145.833,68.517,145.512,67.041,145.176,65.580,144.825,64.133,144.459,62.701,144.078,61.285,143.683,59.886,143.274,58.503,142.851,57.138,142.414,55.791,141.964,54.462,141.500,53.152,141.023,51.861,140.534,50.591,140.032,49.340,139.517,48.110,138.991,46.902,138.453,45.715,137.903,44.550,137.343,43.407,136.771,42.287,136.189,41.190,135.596,40.116,134.993,39.066,134.381,38.040,133.759,37.038,133.128,36.060,132.488,35.108,131.839,34.180,131.182,33.278,130.517,32.401,129.845,31.550,129.165,30.724,128.478,29.925,127.784,29.152,127.083,28.405,126.377,27.684,125.665,26.990,124.947,26.323,124.223,25.682,123.495,25.068,122.762,24.481,122.025,23.921,121.284,23.388,120.539,22.882,119.790,22.403,119.038,21.951,118.284,21.526,117.526,21.127,116.767,20.756,116.005,20.411,115.242,20.094,114.477,19.803,113.710,19.539,112.943,19.301,112.175,19.090,111.407,18.905,110.638,18.746,109.870,18.614,109.102,18.507,108.335,18.484,108.115"  style="fill:none;stroke:#000;stroke-width:0.1953;opacity:1"/>
  <polyline points="181.527,108.007,181.493,108.335,181.386,109.102,181.254,109.870,181.095,110.638,180.910,111.407,180.699,112.175,180.461,112.943,180.197,113.710,179.906,114.477,179.589,115.242,179.244,116.005,178.873,116.767,178.474,117.526,178.049,118.284,177.597,119.038,177.118,119.790,176.612,120.539,176.079,121.284,175.519,122.025,174.932,122.762,174.318,123.495,173.677,124.223,173.010,124.947,172.316,125.665,171.595,126.377,170.848,127.083,170.075,127.784,169.276,128.478,168.450,129.165,167.599,129.845,166.722,130.517,165.820,131.182,164.892,131.839,163.940,132.488,162.962,133.128"  style="fill:none;stroke:#000;stroke-width:0.1953;opacity:1"/>
  <polyline points="162.860,119.744,161.860,120.351,160.835,120.949,159.786,121.539,158.714,122.118,157.619,122.688,156.500,123.249,155.359,123.798,154.196,124.338,153.011,124.866,151.804,125.384,150.576,125.890,149.328,126.385,148.059,126.868,146.770,127.339,145.463,127.797,144.136,128.243,142.791,128.676,141.428,129.097,140.047,129.504,138.650,129.897,137.236,130.277,135.807,130.643,134.363,130.995,132.904,131.333,131.430,131.656,129.944,131.965,128.444,132.259,126.933,132.538,125.410,132.802,123.875,133.050,122.331,133.283,120.777,133.501,119.214,133.703,117.642,133.890,116.063,134.060,114.477,134.215,112.884,134.353,111.286,134.476,109.683,134.582,108.075,134.672,106.465,134.746,104.851,134.803,103.235,134.844,101.618,134.869,100.000,134.877,98.382,134.869,96.765,134.844,95.149,134.803,93.535,134.746,91.925,134.672,90.317,134.582,88.714,134.476,87.116,134.353,85.523,134.215,83.937,134.060,82.358,133.890,80.786,133.703,79.223,133.501,77.669,133.283,76.125,133.050,74.590,132.802,73.067,132.538,71.556,132.259,70.056,131.965,68.570,131.656,67.096,131.333,65.637,130.995,64.193,130.643,62.764,130.277,61.350,129.897,59.953,129.504,58.572,129.097,57.209,128.676,55.864,128.243,54.537,127.797,53.230,127.339,51.941,126.868,50.672,126.385,49.424,125.890,48.196,125.384,46.989,124.866,45.804,124.338,44.641,123.798,43.500,123.249,42.381,122.688,41.286,122.118,40.214,121.539,39.165,120.949,38.140,120.351,37.140,119.744,36.164,119.128,35.213,118.504,34.286,117.873,33.385,117.233,32.510,116.586,31.660,115.932,30.835,115.271,30.037,114.603,29.265,113.930,28.519,113.250,27.799,112.565,27.106,111.874,26.439,111.178,25.800,110.478,25.187,109.773,24.600,109.064,24.041,108.351,23.508,107.634,23.003,106.914,22.524,106.190,22.072,105.464,21.648,104.736,21.250,104.005,20.879,103.272,20.534,102.538,20.217,101.802,19.926,101.064,19.662,100.326,19.424,99.588,19.213,98.848,19.028,98.109,18.870,97.370,18.737,96.631,18.631,95.892,18.550,95.155,18.495,94.418,18.465,93.683,18.461,92.949,18.482,92.217,18.528,91.487,18.599,90.759"  style="fill:none;stroke:#000;stroke-width:0.1953;opacity:1"/>
  <polyline points="181.401,90.759,181.472,91.487,181.518,92.217,181.539,92.949,181.535,93.683,181.505,94.418,181.450,95.155,181.369,95.892,181.263,96.631,181.130,97.370,180.972,98.109,180.787,98.848,180.576,99.588,180.338,100.326,180.074,101.064,179.783,101.802,179.466,102.538,179.121,103.272,178.750,104.005,178.352,104.736,177.928,105.464,177.476,106.190,176.997,106.914,176.492,107.634,175.959,108.351,175.400,109.064,174.813,109.773,174.200,110.478,173.561,111.178,172.894,111.874,172.201,112.565,171.481,113.250,170.735,113.930,169.963,114.603,169.165,115.271,168.340,115.932,167.490,116.586,166.615,117.233,165.714,117.873,164.787,118.504,163.836,119.128,162.860,119.744"  style="fill:none;stroke:#000;stroke-width:0.1953;opacity:1"/>
  <polyline points="160.604,105.359,159.636,105.921,158.645,106.474,157.631,107.019,156.594,107.555,155.535,108.081,154.453,108.599,153.351,109.107,152.227,109.606,151.082,110.094,149.916,110.572,148.731,111.040,147.526,111.497,146.301,111.943,145.057,112.377,143.795,112.801,142.515,113.213,141.218,113.613,139.903,114.001,138.572,114.376,137.225,114.739,135.862,115.090,134.484,115.428,133.092,115.753,131.686,116.064,130.266,116.363,128.834,116.647,127.389,116.919,125.933,117.176,124.465,117.419,122.988,117.649,121.500,117.864,120.003,118.065,118.498,118.251,116.985,118.423,115.464,118.580,113.937,118.723,112.403,118.851,110.865,118.963,109.321,119.061,107.774,119.144,106.223,119.212,104.670,119.265,103.114,119.303,101.557,119.326,100.000,119.333,98.443,119.326,96.886,119.303,95.330,119.265,93.777,119.212,92.226,119.144,90.679,119.061,89.135,118.963,87.597,118.851,86.063,118.723,84.536,118.580,83.015,118.423,81.502,118.251,79.997,118.065,78.500,117.864,77.012,117.649,75.535,117.419,74.067,117.176,72.611,116.919,71.166,116.647,69.734,116.363,68.314,116.064,66.908,115.753,65.516,115.428,64.138,115.090,62.775,114.739,61.428,114.376,60.097,114.001,58.782,113.613,57.485,113.213,56.205,112.801,54.943,112.377,53.699,111.943,52.474,111.497,51.269,111.040,50.084,110.572,48.918,110.094,47.773,109.606,46.649,109.107,45.547,108.599,44.465,108.081,43.406,107.555,42.369,107.019,41.355,106.474,40.364,105.921,39.396,105.359,38.451,104.790,37.530,104.213,36.632,103.628,35.759,103.036,34.911,102.438,34.086,101.832,33.287,101.220,32.512,100.602,31.763,99.979,31.038,99.349,30.339,98.715,29.665,98.075,29.017,97.430,28.395,96.781,27.798,96.128,27.227,95.471,26.682,94.810,26.162,94.145,25.669,93.478,25.201,92.807,24.760,92.134,24.344,91.458,23.954,90.780,23.590,90.100,23.252,89.418,22.939,88.735,22.653,88.051,22.392,87.365,22.156,86.679,21.946,85.993,21.762,85.306,21.603,84.619,21.469,83.933,21.360,83.247,21.276,82.561,21.217,81.877,21.182,81.193,21.172,80.511,21.187,79.830,21.225,79.151,21.288,78.474,21.374,77.799,21.485,77.126,21.618,76.456,21.775,75.788,21.955,75.123,22.158,74.462"  style="fill:none;stroke:#000;stroke-width:0.1953;opacity:1"/>
  <polyline points="177.822,74.405,177.842,74.462,178.045,75.123,178.225,75.788,178.382,76.456,178.515,77.126,178.626,77.799,178.712,78.474,178.775,79.151,178.813,79.830,178.828,80.511,178.818,81.193,178.783,81.877,178.724,82.561,178.640,83.247,178.531,83.933,178.397,84.619,178.238,85.306,178.054,85.993,177.844,86.679,177.608,87.365,177.347,88.051,177.061,88.735,176.748,89.418,176.410,90.100,176.046,90.780,175.656,91.458,175.240,92.134,174.799,92.807,174.331,93.478,173.838,94.145,173.318,94.810,172.773,95.471,172.202,96.128,171.605,96.781,170.983,97.430,170.335,98.075,169.661,98.715,168.962,99.349,168.237,99.979,167.488,100.602,166.713,101.220,165.914,101.832,165.089,102.438,164.241,103.036,163.368,103.628,162.470,104.213,161.549,104.790,160.604,105.359"  style="fill:none;stroke:#000;stroke-width:0.1953;opacity:1"/>
  <polyline points="156.223,90.544,155.318,91.042,154.392,91.533,153.445,92.015,152.478,92.491,151.490,92.958,150.482,93.416,149.454,93.866,148.407,94.308,147.341,94.740,146.256,95.163,145.153,95.577,144.032,95.982,142.893,96.376,141.737,96.761,140.565,97.135,139.376,97.499,138.171,97.853,136.950,98.196,135.715,98.528,134.464,98.849,133.200,99.159,131.922,99.457,130.631,99.744,129.328,100.019,128.012,100.282,126.685,100.534,125.346,100.773,123.997,101.000,122.638,101.215,121.270,101.418,119.893,101.608,118.507,101.785,117.113,101.949,115.713,102.101,114.306,102.240,112.892,102.365,111.474,102.478,110.050,102.578,108.622,102.664,107.191,102.737,105.756,102.797,104.319,102.844,102.881,102.877,101.441,102.897,100.000,102.904,98.559,102.897,97.119,102.877,95.681,102.844,94.244,102.797,92.809,102.737,91.378,102.664,89.950,102.578,88.526,102.478,87.108,102.365,85.694,102.240,84.287,102.101,82.887,101.949,81.493,101.785,80.107,101.608,78.730,101.418,77.362,101.215,76.003,101.000,74.654,100.773,73.315,100.534,71.988,100.282,70.672,100.019,69.369,99.744,68.078,99.457,66.800,99.159,65.536,98.849,64.285,98.528,63.050,98.196,61.829,97.853,60.624,97.499,59.435,97.135,58.263,96.761,57.107,96.376,55.968,95.982,54.847,95.577,53.744,95.163,52.659,94.740,51.593,94.308,50.546,93.866,49.518,93.416,48.510,92.958,47.522,92.491,46.555,92.015,45.608,91.533,44.682,91.042,43.777,90.544,42.894,90.039,42.032,89.527,41.192,89.008,40.374,88.482,39.579,87.950,38.806,87.413,38.055,86.869,37.328,86.320,36.623,85.765,35.942,85.206,35.284,84.641,34.649,84.072,34.038,83.498,33.450,82.920,32.886,82.339,32.345,81.753,31.829,81.164,31.336,80.572,30.867,79.977,30.423,79.379,30.002,78.778,29.605,78.175,29.232,77.570,28.883,76.963,28.557,76.354,28.256,75.744,27.979,75.132,27.725,74.520,27.495,73.906,27.289,73.292,27.106,72.678,26.947,72.063,26.812,71.449,26.699,70.834,26.610,70.220,26.544,69.607,26.501,68.994,26.481,68.383,26.484,67.772,26.509,67.163,26.557,66.556,26.627,65.950,26.719,65.346,26.834,64.744,26.970,64.144,27.127,63.547,27.307,62.952,27.507,62.360,27.729,61.771,27.971,61.185,28.234,60.602,28.518,60.023,28.822,59.447,28.930,59.257"  style="fill:none;stroke:#000;stroke-width:0.1953;opacity:1"/>
  <polyline points="171.068,59.253,171.178,59.447,171.482,60.023,171.766,60.602,172.029,61.185,172.271,61.771,172.493,62.360,172.693,62.952,172.873,63.547,173.030,64.144,173.166,64.744,173.281,65.346,173.373,65.950,173.443,66.556,173.491,67.163,173.516,67.772,173.519,68.383,173.499,68.994,173.456,69.607,173.390,70.220,173.301,70.834,173.188,71.449,173.053,72.063,172.894,72.678,172.711,73.292,172.505,73.906,172.275,74.520,172.021,75.132,171.744,75.744,171.443,76.354,171.117,76.963,170.768,77.570,170.395,78.175,169.998,78.778,169.577,79.379,169.133,79.977,168.664,80.572,168.171,81.164,167.655,81.753,167.114,82.339,166.550,82.920,165.962,83.498,165.351,84.072,164.716,84.641,164.058,85.206,163.377,85.765,162.672,86.320,161.945,86.869,161.194,87.413,160.421,87.950,159.626,88.482,158.808,89.008,157.968,89.527,157.106,90.039,156.223,90.544"  style="fill:none;stroke:#000;stroke-width:0.1953;opacity:1"/>
  <polyline points="149.860,75.919,149.049,76.341,148.219,76.756,147.372,77.164,146.506,77.566,145.624,77.961,144.723,78.349,143.806,78.729,142.872,79.102,141.921,79.467,140.955,79.824,139.972,80.174,138.974,80.515,137.961,80.847,136.933,81.172,135.891,81.487,134.834,81.794,133.764,82.092,132.681,82.381,131.584,82.661,130.475,82.931,129.354,83.192,128.222,83.443,127.078,83.684,125.923,83.916,124.757,84.137,123.582,84.349,122.398,84.550,121.204,84.741,120.002,84.922,118.791,85.092,117.573,85.251,116.348,85.400,115.116,85.538,113.878,85.666,112.635,85.782,111.386,85.888,110.133,85.983,108.875,86.066,107.614,86.139,106.350,86.200,105.083,86.250,103.814,86.290,102.544,86.318,101.272,86.334,100.000,86.340,98.728,86.334,97.456,86.318,96.186,86.290,94.917,86.250,93.650,86.200,92.386,86.139,91.125,86.066,89.867,85.983,88.614,85.888,87.365,85.782,86.122,85.666,84.884,85.538,83.652,85.400,82.427,85.251,81.209,85.092,79.998,84.922,78.796,84.741,77.602,84.550,76.418,84.349,75.243,84.137,74.077,83.916,72.922,83.684,71.778,83.443,70.646,83.192,69.525,82.931,68.416,82.661,67.319,82.381,66.236,82.092,65.166,81.794,64.109,81.487,63.067,81.172,62.039,80.847,61.026,80.515,60.028,80.174,59.045,79.824,58.079,79.467,57.128,79.102,56.194,78.729,55.277,78.349,54.376,77.961,53.494,77.566,52.628,77.164,51.781,76.756,50.951,76.341,50.140,75.919,49.348,75.491,48.574,75.057,47.820,74.617,47.085,74.172,46.369,73.721,45.672,73.265,44.996,72.803,44.339,72.337,43.702,71.866,43.086,71.390,42.490,70.910,41.914,70.426,41.359,69.938,40.824,69.446,40.311,68.951,39.818,68.452,39.346,67.950,38.895,67.445,38.465,66.938,38.056,66.427,37.668,65.915,37.301,65.400,36.955,64.883,36.631,64.364,36.328,63.843,36.045,63.321,35.784,62.798,35.544,62.274,35.325,61.748,35.127,61.222,34.950,60.695,34.794,60.168,34.659,59.641,34.545,59.114,34.451,58.586,34.378,58.059,34.325,57.533,34.293,57.007,34.282,56.482,34.290,55.958,34.319,55.434,34.367,54.913,34.436,54.392,34.524,53.873,34.632,53.356,34.760,52.841,34.906,52.327,35.072,51.816,35.257,51.307,35.461,50.801,35.684,50.297,35.925,49.796,36.185,49.297,36.463,48.802,36.758,48.310,37.072,47.821,37.403,47.335,37.752,46.853,38.119,46.374,38.502,45.899,38.902,45.428,39.058,45.253"  style="fill:none;stroke:#000;stroke-width:0.1953;opacity:1"/>
  <polyline points="160.993,45.310,161.098,45.428,161.498,45.899,161.881,46.374,162.248,46.853,162.597,47.335,162.928,47.821,163.242,48.310,163.537,48.802,163.815,49.297,164.075,49.796,164.316,50.297,164.539,50.801,164.743,51.307,164.928,51.816,165.094,52.327,165.240,52.841,165.368,53.356,165.476,53.873,165.564,54.392,165.633,54.913,165.681,55.434,165.710,55.958,165.718,56.482,165.707,57.007,165.675,57.533,165.622,58.059,165.549,58.586,165.455,59.114,165.341,59.641,165.206,60.168,165.050,60.695,164.873,61.222,164.675,61.748,164.456,62.274,164.216,62.798,163.955,63.321,163.672,63.843,163.369,64.364,163.045,64.883,162.699,65.400,162.332,65.915,161.944,66.427,161.535,66.938,161.105,67.445,160.654,67.950,160.182,68.452,159.689,68.951,159.176,69.446,158.641,69.938,158.086,70.426,157.510,70.910,156.914,71.390,156.298,71.866,155.661,72.337,155.004,72.803,154.328,73.265,153.631,73.721,152.915,74.172,152.180,74.617,151.426,75.057,150.652,75.491,149.860,75.919"  style="fill:none;stroke:#000;stroke-width:0.1953;opacity:1"/>
  <polyline points="141.771,62.110,141.083,62.447,140.379,62.779,139.661,63.106,138.928,63.427,138.181,63.743,137.420,64.052,136.645,64.356,135.857,64.653,135.055,64.944,134.241,65.229,133.413,65.508,132.573,65.779,131.721,66.044,130.857,66.303,129.981,66.554,129.094,66.798,128.195,67.035,127.287,67.264,126.367,67.487,125.438,67.701,124.499,67.909,123.550,68.108,122.593,68.300,121.627,68.484,120.652,68.659,119.670,68.827,118.679,68.987,117.682,69.138,116.678,69.281,115.667,69.416,114.651,69.543,113.628,69.661,112.600,69.770,111.568,69.871,110.531,69.964,109.489,70.047,108.444,70.122,107.396,70.188,106.345,70.246,105.291,70.294,104.235,70.334,103.178,70.365,102.119,70.387,101.060,70.401,100.000,70.405,98.940,70.401,97.881,70.387,96.822,70.365,95.765,70.334,94.709,70.294,93.655,70.246,92.604,70.188,91.556,70.122,90.511,70.047,89.469,69.964,88.432,69.871,87.400,69.770,86.372,69.661,85.349,69.543,84.333,69.416,83.322,69.281,82.318,69.138,81.321,68.987,80.330,68.827,79.348,68.659,78.373,68.484,77.407,68.300,76.450,68.108,75.501,67.909,74.562,67.701,73.633,67.487,72.713,67.264,71.805,67.035,70.906,66.798,70.019,66.554,69.143,66.303,68.279,66.044,67.427,65.779,66.587,65.508,65.759,65.229,64.945,64.944,64.143,64.653,63.355,64.356,62.580,64.052,61.819,63.743,61.072,63.427,60.339,63.106,59.621,62.779,58.917,62.447,58.229,62.110,57.556,61.767,56.898,61.420,56.255,61.067,55.628,60.710,55.017,60.349,54.422,59.982,53.843,59.612,53.281,59.237,52.735,58.859,52.205,58.477,51.692,58.091,51.196,57.701,50.717,57.308,50.255,56.912,49.810,56.512,49.383,56.110,48.972,55.705,48.579,55.298,48.203,54.888,47.845,54.475,47.504,54.061,47.181,53.644,46.875,53.225,46.587,52.805,46.317,52.383,46.064,51.960,45.829,51.536,45.611,51.110,45.411,50.683,45.229,50.256,45.064,49.827,44.917,49.399,44.788,48.969,44.676,48.540,44.581,48.110,44.504,47.681,44.444,47.251,44.401,46.822,44.376,46.393,44.367,45.964,44.376,45.537,44.402,45.110,44.445,44.684,44.504,44.259,44.581,43.835,44.674,43.412,44.783,42.991,44.909,42.572,45.051,42.154,45.209,41.738,45.384,41.324,45.574,40.911,45.780,40.501,46.002,40.093,46.239,39.688,46.492,39.285,46.760,38.884,47.043,38.486,47.341,38.091,47.654,37.699,47.982,37.309,48.324,36.923,48.680,36.540,49.051,36.160,49.436,35.783,49.834,35.410,50.246,35.040,50.672,34.674,51.111,34.312,51.564,33.953,52.029,33.599,52.507,33.248,52.726,33.093"  style="fill:none;stroke:#000;stroke-width:0.1953;opacity:1"/>
  <polyline points="147.440,33.210,147.493,33.248,147.971,33.599,148.436,33.953,148.889,34.312,149.328,34.674,149.754,35.040,150.166,35.410,150.564,35.783,150.949,36.160,151.320,36.540,151.676,36.923,152.018,37.309,152.346,37.699,152.659,38.091,152.957,38.486,153.240,38.884,153.508,39.285,153.761,39.688,153.998,40.093,154.220,40.501,154.426,40.911,154.616,41.324,154.791,41.738,154.949,42.154,155.091,42.572,155.217,42.991,155.326,43.412,155.419,43.835,155.496,44.259,155.555,44.684,155.598,45.110,155.624,45.537,155.633,45.964,155.624,46.393,155.599,46.822,155.556,47.251,155.496,47.681,155.419,48.110,155.324,48.540,155.212,48.969,155.083,49.399,154.936,49.827,154.771,50.256,154.589,50.683,154.389,51.110,154.171,51.536,153.936,51.960,153.683,52.383,153.413,52.805,153.125,53.225,152.819,53.644,152.496,54.061,152.155,54.475,151.797,54.888,151.421,55.298,151.028,55.705,150.617,56.110,150.190,56.512,149.745,56.912,149.283,57.308,148.804,57.701,148.308,58.091,147.795,58.477,147.265,58.859,146.719,59.237,146.157,59.612,145.578,59.982,144.983,60.349,144.372,60.710,143.745,61.067,143.102,61.420,142.444,61.767,141.771,62.110"  style="fill:none;stroke:#000;stroke-width:0.1953;opacity:1"/>
  <polyline points="132.309,49.699,131.768,49.949,131.216,50.195,130.653,50.437,130.080,50.674,129.495,50.908,128.901,51.136,128.296,51.361,127.681,51.580,127.056,51.795,126.421,52.005,125.777,52.210,125.124,52.411,124.461,52.606,123.790,52.796,123.111,52.981,122.423,53.161,121.726,53.335,121.022,53.504,120.311,53.667,119.592,53.825,118.865,53.977,118.132,54.124,117.392,54.264,116.646,54.399,115.894,54.528,115.136,54.651,114.372,54.768,113.603,54.879,112.829,54.984,112.051,55.083,111.268,55.176,110.480,55.262,109.689,55.342,108.894,55.416,108.096,55.484,107.295,55.545,106.492,55.600,105.685,55.649,104.877,55.691,104.067,55.726,103.255,55.755,102.443,55.778,101.629,55.794,100.815,55.804,100.000,55.807,99.185,55.804,98.371,55.794,97.557,55.778,96.745,55.755,95.933,55.726,95.123,55.691,94.315,55.649,93.508,55.600,92.705,55.545,91.904,55.484,91.106,55.416,90.311,55.342,89.520,55.262,88.732,55.176,87.949,55.083,87.171,54.984,86.397,54.879,85.628,54.768,84.864,54.651,84.106,54.528,83.354,54.399,82.608,54.264,81.868,54.124,81.135,53.977,80.408,53.825,79.689,53.667,78.978,53.504,78.274,53.335,77.577,53.161,76.889,52.981,76.210,52.796,75.539,52.606,74.876,52.411,74.223,52.210,73.579,52.005,72.944,51.795,72.319,51.580,71.704,51.361,71.099,51.136,70.505,50.908,69.920,50.674,69.347,50.437,68.784,50.195,68.232,49.949,67.691,49.699,67.162,49.445,66.644,49.188,66.137,48.926,65.643,48.661,65.160,48.392,64.689,48.120,64.230,47.845,63.784,47.566,63.350,47.284,62.929,47.000,62.520,46.712,62.124,46.421,61.740,46.128,61.370,45.832,61.012,45.534,60.668,45.233,60.337,44.930,60.018,44.625,59.713,44.318,59.422,44.009,59.144,43.698,58.879,43.385,58.628,43.071,58.390,42.755,58.165,42.438,57.955,42.120,57.758,41.800,57.574,41.479,57.404,41.158,57.248,40.835,57.105,40.512,56.976,40.188,56.860,39.863,56.758,39.538,56.670,39.213,56.595,38.888,56.533,38.562,56.486,38.237,56.451,37.911,56.430,37.586,56.423,37.261,56.429,36.936,56.448,36.612,56.480,36.288,56.525,35.966,56.584,35.643,56.656,35.322,56.740,35.002,56.838,34.683,56.948,34.364,57.072,34.048,57.207,33.732,57.356,33.418,57.517,33.105,57.690,32.794,57.876,32.485,58.074,32.177,58.284,31.872,58.506,31.568,58.740,31.266,58.985,30.966,59.243,30.669,59.512,30.373,59.792,30.080,60.084,29.790,60.387,29.502,60.701,29.216,61.026,28.933,61.362,28.653,61.709,28.376,62.066,28.101,62.434,27.829,62.812,27.560,63.201,27.295,63.599,27.032,64.007,26.772,64.425,26.516,64.853,26.263,65.290,26.013,65.736,25.767,66.192,25.524,66.657,25.285,67.130,25.049,67.613,24.817,68.103,24.588,68.603,24.364,69.110,24.143,69.626,23.926,70.150,23.712,70.681,23.503,71.221,23.297"  style="fill:none;stroke:#000;stroke-width:0.1953;opacity:1"/>
  <polyline points="128.779,23.297,129.319,23.503,129.850,23.712,130.374,23.926,130.890,24.143,131.397,24.364,131.897,24.588,132.387,24.817,132.870,25.049,133.343,25.285,133.808,25.524,134.264,25.767,134.710,26.013,135.147,26.263,135.575,26.516,135.993,26.772,136.401,27.032,136.799,27.295,137.188,27.560,137.566,27.829,137.934,28.101,138.291,28.376,138.638,28.653,138.974,28.933,139.299,29.216,139.613,29.502,139.916,29.790,140.208,30.080,140.488,30.373,140.757,30.669,141.015,30.966,141.260,31.266,141.494,31.568,141.716,31.872,141.926,32.177,142.124,32.485,142.310,32.794,142.483,33.105,142.644,33.418,142.793,33.732,142.928,34.048,143.052,34.364,143.162,34.683,143.260,35.002,143.344,35.322,143.416,35.643,143.475,35.966,143.520,36.288,143.552,36.612,143.571,36.936,143.577,37.261,143.570,37.586,143.549,37.911,143.514,38.237,143.467,38.562,143.405,38.888,143.330,39.213,143.242,39.538,143.140,39.863,143.024,40.188,142.895,40.512,142.752,40.835,142.596,41.158,142.426,41.479,142.242,41.800,142.045,42.120,141.835,42.438,141.610,42.755,141.372,43.071,141.121,43.385,140.856,43.698,140.578,44.009,140.287,44.318,139.982,44.625,139.663,44.930,139.332,45.233,138.988,45.534,138.630,45.832,138.260,46.128,137.876,46.421,137.480,46.712,137.071,47.000,136.650,47.284,136.216,47.566,135.770,47.845,135.311,48.120,134.840,48.392,134.357,48.661,133.863,48.926,133.356,49.188,132.838,49.445,132.309,49.699"  style="fill:none;stroke:#000;stroke-width:0.1953;opacity:1"/>
  <polyline points="121.892,39.184,121.519,39.347,121.139,39.507,120.753,39.664,120.359,39.819,119.958,39.971,119.550,40.120,119.136,40.265,118.716,40.408,118.289,40.548,117.855,40.684,117.416,40.817,116.971,40.947,116.520,41.074,116.063,41.197,115.601,41.317,115.133,41.433,114.661,41.546,114.183,41.655,113.700,41.761,113.213,41.863,112.721,41.961,112.224,42.055,111.724,42.146,111.219,42.233,110.711,42.317,110.198,42.396,109.682,42.472,109.163,42.543,108.641,42.611,108.116,42.675,107.587,42.734,107.057,42.790,106.523,42.842,105.988,42.889,105.450,42.933,104.910,42.972,104.369,43.008,103.826,43.039,103.282,43.066,102.737,43.089,102.191,43.107,101.644,43.122,101.096,43.132,100.548,43.139,100.000,43.141,99.452,43.139,98.904,43.132,98.356,43.122,97.809,43.107,97.263,43.089,96.718,43.066,96.174,43.039,95.631,43.008,95.090,42.972,94.550,42.933,94.012,42.889,93.477,42.842,92.943,42.790,92.413,42.734,91.884,42.675,91.359,42.611,90.837,42.543,90.318,42.472,89.802,42.396,89.289,42.317,88.781,42.233,88.276,42.146,87.776,42.055,87.279,41.961,86.787,41.863,86.300,41.761,85.817,41.655,85.339,41.546,84.867,41.433,84.399,41.317,83.937,41.197,83.480,41.074,83.029,40.947,82.584,40.817,82.145,40.684,81.711,40.548,81.284,40.408,80.864,40.265,80.450,40.120,80.042,39.971,79.641,39.819,79.247,39.664,78.861,39.507,78.481,39.347,78.108,39.184,77.743,39.018,77.385,38.850,77.035,38.679,76.693,38.505,76.358,38.330,76.031,38.152,75.712,37.971,75.401,37.789,75.098,37.604,74.804,37.417,74.518,37.228,74.240,37.037,73.970,36.844,73.709,36.649,73.457,36.453,73.213,36.255,72.978,36.055,72.752,35.854,72.534,35.651,72.326,35.447,72.126,35.241,71.935,35.034,71.754,34.826,71.581,34.617,71.417,34.407,71.263,34.195,71.118,33.983,70.981,33.770,70.854,33.556,70.736,33.341,70.628,33.126,70.528,32.910,70.438,32.694,70.357,32.477,70.285,32.260,70.223,32.042,70.170,31.824,70.126,31.606,70.091,31.388,70.065,31.170,70.049,30.952,70.041,30.734,70.043,30.516,70.054,30.298,70.074,30.081,70.104,29.864,70.142,29.648,70.189,29.432,70.245,29.216,70.311,29.001,70.385,28.787,70.468,28.573,70.559,28.361,70.660,28.149,70.769,27.938,70.887,27.728,71.013,27.519,71.148,27.312,71.291,27.105,71.443,26.900,71.603,26.696,71.772,26.493,71.949,26.291,72.133,26.092,72.326,25.893,72.527,25.696,72.736,25.501,72.953,25.307,73.177,25.116,73.409,24.925,73.649,24.737,73.896,24.551,74.151,24.366,74.412,24.184,74.682,24.003,74.958,23.825,75.241,23.648,75.532,23.474,75.829,23.302,76.133,23.132,76.444,22.965,76.761,22.800,77.085,22.637,77.415,22.477,77.751,22.319,78.094,22.163,78.442,22.010,78.797,21.860,79.157,21.712,79.523,21.567,79.895,21.425,80.272,21.285,80.655,21.148,81.043,21.014,81.436,20.882,81.834,20.754,82.237,20.628,82.645,20.505,83.058,20.385,83.475,20.268,83.896,20.154,84.322,20.043,84.753,19.935,85.187,19.831,85.625,19.729,86.067,19.630,86.513,19.535,86.963,19.442,87.416,19.353,87.872,19.267,88.332,19.184,88.794,19.105,89.260,19.028,89.729,18.955,90.200,18.886,90.674,18.819,91.150,18.756,91.629,18.696,92.110,18.640,92.593,18.587,93.078,18.537,93.564,18.491,94.053,18.448,94.543,18.408,95.034,18.372,95.527,18.339,96.021,18.310,96.516,18.284,97.012,18.262,97.509,18.243,98.006,18.227,98.504,18.215,99.003,18.206,99.501,18.201,100.000,18.200,100.499,18.201,100.997,18.206,101.496,18.215,101.994,18.227,102.491,18.243,102.988,18.262,103.484,18.284,103.979,18.310,104.473,18.339,104.966,18.372,105.457,18.408,105.947,18.448,106.436,18.491,106.922,18.537,107.407,18.587,107.890,18.640,108.371,18.696,108.850,18.756,109.326,18.819,109.800,18.886,110.271,18.955,110.740,19.028,111.206,19.105,111.668,19.184,112.128,19.267,112.584,19.353,113.037,19.442,113.487,19.535,113.933,19.630,114.375,19.729,114.813,19.831,115.247,19.935,115.678,20.043,116.104,20.154,116.525,20.268,116.942,20.385,117.355,20.505,117.763,20.628,118.166,20.754,118.564,20.882,118.957,21.014,119.345,21.148,119.728,21.285,120.105,21.425,120.477,21.567,120.843,21.712,121.203,21.860,121.558,22.010,121.906,22.163,122.249,22.319,122.585,22.477,122.915,22.637,123.239,22.800,123.556,22.965,123.867,23.132,124.171,23.302,124.468,23.474,124.759,23.648,125.042,23.825,125.318,24.003,125.588,24.184,125.849,24.366,126.104,24.551,126.351,24.737,126.591,24.925,126.823,25.116,127.047,25.307,127.264,25.501,127.473,25.696,127.674,25.893,127.867,26.092,128.051,26.291,128.228,26.493,128.397,26.696,128.557,26.900,128.709,27.105,128.852,27.312,128.987,27.519,129.113,27.728,129.231,27.938,129.340,28.149,129.441,28.361,129.532,28.573,129.615,28.787,129.689,29.001,129.755,29.216,129.811,29.432,129.858,29.648,129.896,29.864,129.926,30.081,129.946,30.298,129.957,30.516,129.959,30.734,129.951,30.952,129.935,31.170,129.909,31.388,129.874,31.606,129.830,31.824,129.777,32.042,129.715,32.260,129.643,32.477,129.562,32.694,129.472,32.910,129.372,33.126,129.264,33.341,129.146,33.556,129.019,33.770,128.882,33.983,128.737,34.195,128.583,34.407,128.419,34.617,128.246,34.826,128.065,35.034,127.874,35.241,127.674,35.447,127.466,35.651,127.248,35.854,127.022,36.055,126.787,36.255,126.543,36.453,126.291,36.649,126.030,36.844,125.760,37.037,125.482,37.228,125.196,37.417,124.902,37.604,124.599,37.789,124.288,37.971,123.969,38.152,123.642,38.330,123.307,38.505,122.965,38.679,122.615,38.850,122.257,39.018,121.892,39.184"  style="fill:none;stroke:#000;stroke-width:0.1953;opacity:1"/>
  <polyline points="110.972,30.940,110.782,31.019,110.589,31.097,110.392,31.173,110.192,31.248,109.988,31.322,109.782,31.394,109.572,31.464,109.359,31.533,109.143,31.601,108.924,31.667,108.703,31.731,108.478,31.794,108.251,31.855,108.021,31.915,107.789,31.972,107.554,32.028,107.316,32.083,107.076,32.135,106.834,32.186,106.590,32.235,106.343,32.283,106.095,32.328,105.844,32.372,105.592,32.414,105.337,32.454,105.081,32.492,104.824,32.528,104.564,32.563,104.304,32.595,104.042,32.626,103.778,32.654,103.513,32.681,103.248,32.706,102.981,32.729,102.713,32.749,102.444,32.768,102.175,32.785,101.904,32.800,101.633,32.813,101.362,32.824,101.090,32.833,100.818,32.840,100.545,32.845,100.273,32.848,100.000,32.849,99.727,32.848,99.455,32.845,99.182,32.840,98.910,32.833,98.638,32.824,98.367,32.813,98.096,32.800,97.825,32.785,97.556,32.768,97.287,32.749,97.019,32.729,96.752,32.706,96.487,32.681,96.222,32.654,95.958,32.626,95.696,32.595,95.436,32.563,95.176,32.528,94.919,32.492,94.663,32.454,94.408,32.414,94.156,32.372,93.905,32.328,93.657,32.283,93.410,32.235,93.166,32.186,92.924,32.135,92.684,32.083,92.446,32.028,92.211,31.972,91.979,31.915,91.749,31.855,91.522,31.794,91.297,31.731,91.076,31.667,90.857,31.601,90.641,31.533,90.428,31.464,90.218,31.394,90.012,31.322,89.808,31.248,89.608,31.173,89.411,31.097,89.218,31.019,89.028,30.940,88.842,30.859,88.659,30.777,88.480,30.694,88.304,30.610,88.132,30.524,87.964,30.437,87.800,30.349,87.640,30.260,87.483,30.170,87.331,30.078,87.183,29.986,87.038,29.892,86.898,29.798,86.762,29.702,86.630,29.606,86.502,29.509,86.379,29.410,86.260,29.311,86.145,29.212,86.035,29.111,85.928,29.010,85.827,28.908,85.730,28.805,85.637,28.702,85.548,28.598,85.465,28.493,85.385,28.388,85.311,28.282,85.241,28.176,85.175,28.070,85.114,27.963,85.058,27.855,85.006,27.748,84.959,27.640,84.916,27.531,84.878,27.423,84.845,27.314,84.817,27.205,84.793,27.096,84.774,26.987,84.759,26.878,84.749,26.768,84.744,26.659,84.744,26.550,84.748,26.441,84.756,26.332,84.770,26.223,84.788,26.114,84.810,26.005,84.837,25.897,84.869,25.789,84.906,25.681,84.946,25.573,84.992,25.466,85.042,25.359,85.096,25.253,85.155,25.147,85.219,25.041,85.286,24.936,85.359,24.832,85.435,24.728,85.516,24.625,85.601,24.522,85.691,24.420,85.784,24.319,85.882,24.219,85.985,24.119,86.091,24.020,86.201,23.922,86.316,23.824,86.434,23.728,86.557,23.632,86.683,23.537,86.814,23.444,86.948,23.351,87.086,23.259,87.228,23.168,87.374,23.079,87.523,22.990,87.676,22.902,87.833,22.816,87.993,22.731,88.156,22.647,88.324,22.564,88.494,22.482,88.668,22.401,88.845,22.322,89.025,22.244,89.209,22.168,89.395,22.092,89.585,22.018,89.778,21.946,89.974,21.875,90.172,21.805,90.373,21.737,90.578,21.670,90.785,21.604,90.994,21.540,91.206,21.478,91.421,21.417,91.638,21.357,91.857,21.299,92.079,21.243,92.303,21.188,92.530,21.135,92.758,21.083,92.988,21.034,93.221,20.985,93.455,20.939,93.692,20.894,93.930,20.850,94.170,20.809,94.411,20.769,94.654,20.730,94.899,20.694,95.145,20.659,95.392,20.626,95.641,20.594,95.891,20.565,96.142,20.537,96.394,20.511,96.648,20.487,96.902,20.464,97.157,20.443,97.413,20.424,97.669,20.407,97.927,20.392,98.185,20.378,98.443,20.366,98.702,20.356,98.961,20.348,99.220,20.342,99.480,20.337,99.740,20.334,100.000,20.334,100.260,20.334,100.520,20.337,100.780,20.342,101.039,20.348,101.298,20.356,101.557,20.366,101.815,20.378,102.073,20.392,102.331,20.407,102.587,20.424,102.843,20.443,103.098,20.464,103.352,20.487,103.606,20.511,103.858,20.537,104.109,20.565,104.359,20.594,104.608,20.626,104.855,20.659,105.101,20.694,105.346,20.730,105.589,20.769,105.830,20.809,106.070,20.850,106.308,20.894,106.545,20.939,106.779,20.985,107.012,21.034,107.242,21.083,107.470,21.135,107.697,21.188,107.921,21.243,108.143,21.299,108.362,21.357,108.579,21.417,108.794,21.478,109.006,21.540,109.215,21.604,109.422,21.670,109.627,21.737,109.828,21.805,110.026,21.875,110.222,21.946,110.415,22.018,110.605,22.092,110.791,22.168,110.975,22.244,111.155,22.322,111.332,22.401,111.506,22.482,111.676,22.564,111.844,22.647,112.007,22.731,112.167,22.816,112.324,22.902,112.477,22.990,112.626,23.079,112.772,23.168,112.914,23.259,113.052,23.351,113.186,23.444,113.317,23.537,113.443,23.632,113.566,23.728,113.684,23.824,113.799,23.922,113.909,24.020,114.015,24.119,114.118,24.219,114.216,24.319,114.309,24.420,114.399,24.522,114.484,24.625,114.565,24.728,114.641,24.832,114.714,24.936,114.781,25.041,114.845,25.147,114.904,25.253,114.958,25.359,115.008,25.466,115.054,25.573,115.094,25.681,115.131,25.789,115.163,25.897,115.190,26.005,115.212,26.114,115.230,26.223,115.244,26.332,115.252,26.441,115.256,26.550,115.256,26.659,115.251,26.768,115.241,26.878,115.226,26.987,115.207,27.096,115.183,27.205,115.155,27.314,115.122,27.423,115.084,27.531,115.041,27.640,114.994,27.748,114.942,27.855,114.886,27.963,114.825,28.070,114.759,28.176,114.689,28.282,114.615,28.388,114.535,28.493,114.452,28.598,114.363,28.702,114.270,28.805,114.173,28.908,114.072,29.010,113.965,29.111,113.855,29.212,113.740,29.311,113.621,29.410,113.498,29.509,113.370,29.606,113.238,29.702,113.102,29.798,112.962,29.892,112.817,29.986,112.669,30.078,112.517,30.170,112.360,30.260,112.200,30.349,112.036,30.437,111.868,30.524,111.696,30.610,111.520,30.694,111.341,30.777,111.158,30.859,110.972,30.940"  style="fill:none;stroke:#000;stroke-width:0.1953;opacity:1"/>
  <polyline points="146.583,167.384,146.892,167.168,147.601,166.638,148.299,166.084,148.984,165.508,149.657,164.909,150.317,164.287,150.963,163.641,151.597,162.973,152.216,162.283,152.822,161.569,153.413,160.833,153.989,160.075,154.551,159.294,155.097,158.491,155.628,157.666,156.143,156.819,156.641,155.950,157.124,155.060,157.590,154.149,158.039,153.216,158.471,152.263,158.885,151.289,159.282,150.295,159.661,149.280,160.022,148.246,160.364,147.191,160.688,146.118,160.993,145.025,161.279,143.914,161.545,142.784,161.792,141.637,162.020,140.471,162.228,139.289,162.415,138.089,162.583,136.872,162.730,135.640,162.856,134.392,162.962,133.128,163.047,131.849,163.112,130.556,163.155,129.249,163.177,127.928,163.178,126.594,163.157,125.247,163.115,123.888,163.052,122.518,162.967,121.136,162.860,119.744,162.732,118.342,162.582,116.930,162.410,115.509,162.217,114.080,162.002,112.643,161.766,111.198,161.508,109.747,161.228,108.290,160.927,106.827,160.604,105.359,160.260,103.887,159.895,102.411,159.509,100.932,159.101,99.451,158.673,97.967,158.224,96.483,157.754,94.997,157.264,93.512,156.753,92.027,156.223,90.544,155.672,89.062,155.102,87.583,154.512,86.108,153.903,84.636,153.275,83.168,152.629,81.706,151.963,80.249,151.280,78.798,150.579,77.355,149.860,75.919,149.123,74.491,148.370,73.072,147.600,71.663,146.813,70.263,146.011,68.874,145.193,67.497,144.359,66.131,143.511,64.777,142.648,63.437,141.771,62.110,140.880,60.797,139.976,59.499,139.059,58.215,138.129,56.948,137.187,55.696,136.233,54.462,135.268,53.244,134.292,52.044,133.305,50.863,132.309,49.699,131.303,48.555,130.288,47.431,129.264,46.326,128.232,45.242,127.192,44.178,126.145,43.135,125.090,42.114,124.030,41.115,122.964,40.138,121.892,39.184,120.815,38.252,119.733,37.343,118.648,36.458,117.558,35.597,116.466,34.759,115.371,33.946,114.273,33.157,113.174,32.393,112.073,31.654,110.972,30.940"  style="fill:none;stroke:#000;stroke-width:0.1953;opacity:1"/>
  <polyline points="134.763,174.183,135.405,173.868,136.039,173.528,136.664,173.163,137.281,172.774,137.889,172.359,138.488,171.921,139.077,171.457,139.657,170.969,140.227,170.455,140.786,169.917,141.335,169.354,141.873,168.767,142.400,168.155,142.916,167.518,143.420,166.856,143.913,166.170,144.393,165.460,144.861,164.725,145.317,163.966,145.759,163.183,146.189,162.375,146.605,161.545,147.008,160.690,147.397,159.812,147.772,158.910,148.133,157.986,148.479,157.038,148.811,156.068,149.128,155.076,149.429,154.061,149.715,153.025,149.986,151.966,150.241,150.887,150.480,149.786,150.703,148.665,150.910,147.523,151.101,146.361,151.274,145.180,151.432,143.979,151.572,142.759,151.695,141.521,151.801,140.265,151.890,138.991,151.961,137.700,152.015,136.392,152.051,135.068,152.069,133.728,152.070,132.372,152.053,131.002,152.018,129.618,151.964,128.220,151.893,126.808,151.804,125.384,151.697,123.948,151.571,122.500,151.428,121.041,151.266,119.572,151.086,118.093,150.888,116.604,150.672,115.108,150.438,113.603,150.186,112.091,149.916,110.572,149.629,109.047,149.323,107.517,149.000,105.983,148.660,104.444,148.302,102.902,147.927,101.357,147.535,99.810,147.125,98.261,146.699,96.712,146.256,95.163,145.797,93.615,145.321,92.068,144.829,90.523,144.322,88.981,143.798,87.442,143.260,85.908,142.706,84.378,142.137,82.854,141.553,81.336,140.955,79.824,140.342,78.320,139.716,76.825,139.076,75.338,138.423,73.860,137.757,72.393,137.078,70.936,136.386,69.491,135.683,68.057,134.967,66.637,134.241,65.229,133.503,63.835,132.754,62.456,131.995,61.092,131.226,59.743,130.447,58.410,129.659,57.094,128.862,55.795,128.057,54.513,127.243,53.250,126.421,52.005,125.592,50.780,124.756,49.574,123.913,48.388,123.063,47.223,122.208,46.078,121.347,44.955,120.481,43.854,119.610,42.775,118.735,41.718,117.855,40.684,116.972,39.673,116.086,38.686,115.197,37.722,114.306,36.783,113.412,35.868,112.516,34.978,111.619,34.112,110.722,33.272,109.823,32.457,108.924,31.667"  style="fill:none;stroke:#000;stroke-width:0.1953;opacity:1"/>
  <polyline points="124.281,178.241,124.352,178.219,124.850,178.041,125.342,177.838,125.829,177.609,126.310,177.355,126.785,177.075,127.254,176.769,127.717,176.438,128.173,176.080,128.623,175.696,129.065,175.287,129.500,174.851,129.928,174.389,130.349,173.901,130.761,173.387,131.166,172.846,131.562,172.279,131.950,171.687,132.329,171.068,132.700,170.423,133.061,169.751,133.414,169.054,133.757,168.331,134.090,167.583,134.414,166.808,134.728,166.008,135.031,165.183,135.324,164.333,135.607,163.457,135.879,162.556,136.140,161.631,136.390,160.681,136.629,159.707,136.857,158.709,137.073,157.687,137.277,156.642,137.470,155.573,137.650,154.482,137.819,153.367,137.975,152.231,138.119,151.073,138.250,149.893,138.369,148.692,138.475,147.470,138.568,146.227,138.648,144.965,138.715,143.683,138.769,142.382,138.809,141.063,138.837,139.725,138.850,138.370,138.851,136.997,138.838,135.608,138.811,134.203,138.771,132.783,138.717,131.347,138.650,129.897,138.569,128.433,138.474,126.956,138.366,125.467,138.244,123.965,138.108,122.452,137.958,120.928,137.795,119.395,137.619,117.851,137.428,116.299,137.225,114.739,137.008,113.172,136.777,111.598,136.534,110.018,136.277,108.433,136.007,106.843,135.724,105.249,135.428,103.652,135.119,102.052,134.798,100.451,134.464,98.849,134.118,97.246,133.760,95.644,133.390,94.043,133.008,92.444,132.614,90.848,132.208,89.255,131.792,87.666,131.364,86.082,130.925,84.503,130.475,82.931,130.015,81.365,129.545,79.808,129.064,78.258,128.574,76.718,128.074,75.187,127.564,73.666,127.046,72.157,126.518,70.659,125.982,69.174,125.438,67.701,124.885,66.243,124.325,64.798,123.757,63.369,123.181,61.954,122.599,60.556,122.010,59.174,121.414,57.810,120.813,56.463,120.205,55.135,119.592,53.825,118.973,52.534,118.349,51.264,117.721,50.013,117.088,48.783,116.451,47.575,115.810,46.387,115.165,45.222,114.517,44.079,113.866,42.959,113.213,41.863,112.557,40.789,111.898,39.740,111.238,38.714,110.577,37.713,109.914,36.737,109.250,35.786,108.585,34.860,107.920,33.959,107.255,33.084,106.590,32.235"  style="fill:none;stroke:#000;stroke-width:0.1953;opacity:1"/>
  <polyline points="114.325,180.659,114.369,180.651,114.684,180.570,114.995,180.463,115.303,180.330,115.608,180.171,115.910,179.986,116.208,179.775,116.502,179.537,116.793,179.273,117.080,178.982,117.363,178.665,117.641,178.320,117.916,177.949,118.186,177.550,118.452,177.124,118.712,176.672,118.969,176.192,119.220,175.685,119.466,175.150,119.707,174.589,119.943,174.000,120.173,173.384,120.398,172.741,120.617,172.071,120.830,171.374,121.037,170.649,121.238,169.898,121.434,169.121,121.622,168.316,121.805,167.485,121.981,166.628,122.150,165.745,122.313,164.835,122.468,163.900,122.617,162.939,122.759,161.953,122.893,160.942,123.020,159.906,123.140,158.845,123.253,157.760,123.358,156.651,123.455,155.519,123.544,154.363,123.626,153.185,123.700,151.984,123.766,150.760,123.824,149.515,123.874,148.249,123.916,146.962,123.949,145.654,123.975,144.326,123.992,142.979,124.000,141.613,124.001,140.229,123.993,138.827,123.976,137.407,123.951,135.971,123.917,134.518,123.875,133.050,123.825,131.567,123.766,130.069,123.698,128.558,123.622,127.034,123.538,125.497,123.444,123.948,123.343,122.388,123.233,120.818,123.114,119.238,122.988,117.649,122.852,116.051,122.709,114.446,122.557,112.834,122.397,111.216,122.229,109.592,122.053,107.964,121.869,106.331,121.677,104.696,121.477,103.057,121.270,101.418,121.055,99.777,120.832,98.136,120.602,96.496,120.364,94.856,120.119,93.219,119.867,91.585,119.609,89.955,119.343,88.328,119.070,86.707,118.791,85.092,118.506,83.483,118.214,81.881,117.915,80.288,117.611,78.703,117.301,77.127,116.985,75.562,116.664,74.008,116.337,72.465,116.005,70.934,115.667,69.416,115.325,67.912,114.978,66.422,114.626,64.946,114.270,63.486,113.910,62.042,113.546,60.615,113.177,59.205,112.805,57.813,112.430,56.438,112.051,55.083,111.669,53.747,111.283,52.431,110.895,51.136,110.505,49.861,110.112,48.607,109.716,47.376,109.319,46.166,108.919,44.979,108.518,43.815,108.116,42.675,107.711,41.558,107.306,40.465,106.900,39.397,106.493,38.353,106.085,37.334,105.677,36.341,105.268,35.373,104.859,34.431,104.450,33.515,104.042,32.626"  style="fill:none;stroke:#000;stroke-width:0.1953;opacity:1"/>
  <polyline points="104.729,181.784,104.852,181.752,104.958,181.695,105.063,181.612,105.168,181.502,105.271,181.366,105.373,181.204,105.474,181.015,105.574,180.799,105.673,180.556,105.770,180.286,105.866,179.989,105.960,179.665,106.053,179.313,106.145,178.934,106.235,178.527,106.323,178.093,106.410,177.631,106.495,177.141,106.579,176.623,106.660,176.078,106.740,175.505,106.818,174.904,106.895,174.276,106.969,173.620,107.041,172.936,107.112,172.224,107.180,171.485,107.246,170.719,107.310,169.926,107.372,169.105,107.432,168.257,107.489,167.383,107.545,166.482,107.598,165.554,107.648,164.601,107.696,163.621,107.742,162.615,107.785,161.584,107.826,160.528,107.864,159.446,107.900,158.340,107.933,157.210,107.963,156.056,107.991,154.878,108.016,153.677,108.038,152.453,108.058,151.206,108.075,149.938,108.089,148.648,108.101,147.337,108.109,146.005,108.115,144.653,108.118,143.282,108.118,141.892,108.115,140.483,108.110,139.055,108.101,137.611,108.090,136.150,108.075,134.672,108.058,133.179,108.038,131.671,108.015,130.148,107.989,128.612,107.961,127.063,107.929,125.501,107.895,123.928,107.857,122.343,107.817,120.749,107.774,119.144,107.728,117.531,107.679,115.910,107.628,114.281,107.573,112.646,107.516,111.005,107.457,109.359,107.394,107.708,107.329,106.054,107.261,104.396,107.191,102.737,107.118,101.077,107.042,99.416,106.964,97.755,106.883,96.095,106.800,94.437,106.715,92.781,106.627,91.129,106.537,89.481,106.444,87.838,106.350,86.200,106.253,84.569,106.154,82.945,106.053,81.328,105.950,79.721,105.845,78.122,105.738,76.534,105.629,74.956,105.518,73.390,105.405,71.836,105.291,70.294,105.175,68.767,105.058,67.253,104.939,65.754,104.818,64.270,104.696,62.803,104.573,61.352,104.448,59.918,104.322,58.502,104.195,57.105,104.067,55.726,103.938,54.367,103.808,53.028,103.676,51.709,103.544,50.411,103.411,49.135,103.278,47.880,103.143,46.648,103.009,45.438,102.873,44.252,102.737,43.089,102.600,41.950,102.464,40.835,102.326,39.744,102.189,38.679,102.051,37.639,101.914,36.624,101.776,35.635,101.638,34.672,101.500,33.735,101.362,32.824"  style="fill:none;stroke:#000;stroke-width:0.1953;opacity:1"/>
  <polyline points="95.271,181.784,95.148,181.752,95.042,181.695,94.937,181.612,94.832,181.502,94.729,181.366,94.627,181.204,94.526,181.015,94.426,180.799,94.327,180.556,94.230,180.286,94.134,179.989,94.040,179.665,93.947,179.313,93.855,178.934,93.765,178.527,93.677,178.093,93.590,177.631,93.505,177.141,93.421,176.623,93.340,176.078,93.260,175.505,93.182,174.904,93.105,174.276,93.031,173.620,92.959,172.936,92.888,172.224,92.820,171.485,92.754,170.719,92.690,169.926,92.628,169.105,92.568,168.257,92.511,167.383,92.455,166.482,92.402,165.554,92.352,164.601,92.304,163.621,92.258,162.615,92.215,161.584,92.174,160.528,92.136,159.446,92.100,158.340,92.067,157.210,92.037,156.056,92.009,154.878,91.984,153.677,91.962,152.453,91.942,151.206,91.925,149.938,91.911,148.648,91.899,147.337,91.891,146.005,91.885,144.653,91.882,143.282,91.882,141.892,91.885,140.483,91.890,139.055,91.899,137.611,91.910,136.150,91.925,134.672,91.942,133.179,91.962,131.671,91.985,130.148,92.011,128.612,92.039,127.063,92.071,125.501,92.105,123.928,92.143,122.343,92.183,120.749,92.226,119.144,92.272,117.531,92.321,115.910,92.372,114.281,92.427,112.646,92.484,111.005,92.543,109.359,92.606,107.708,92.671,106.054,92.739,104.396,92.809,102.737,92.882,101.077,92.958,99.416,93.036,97.755,93.117,96.095,93.200,94.437,93.285,92.781,93.373,91.129,93.463,89.481,93.556,87.838,93.650,86.200,93.747,84.569,93.846,82.945,93.947,81.328,94.050,79.721,94.155,78.122,94.262,76.534,94.371,74.956,94.482,73.390,94.595,71.836,94.709,70.294,94.825,68.767,94.942,67.253,95.061,65.754,95.182,64.270,95.304,62.803,95.427,61.352,95.552,59.918,95.678,58.502,95.805,57.105,95.933,55.726,96.062,54.367,96.192,53.028,96.324,51.709,96.456,50.411,96.589,49.135,96.722,47.880,96.857,46.648,96.991,45.438,97.127,44.252,97.263,43.089,97.400,41.950,97.536,40.835,97.674,39.744,97.811,38.679,97.949,37.639,98.086,36.624,98.224,35.635,98.362,34.672,98.500,33.735,98.638,32.824"  style="fill:none;stroke:#000;stroke-width:0.1953;opacity:1"/>
  <polyline points="85.675,180.659,85.631,180.651,85.316,180.570,85.005,180.463,84.697,180.330,84.392,180.171,84.090,179.986,83.792,179.775,83.498,179.537,83.207,179.273,82.920,178.982,82.637,178.665,82.359,178.320,82.084,177.949,81.814,177.550,81.548,177.124,81.288,176.672,81.031,176.192,80.780,175.685,80.534,175.150,80.293,174.589,80.057,174.000,79.827,173.384,79.602,172.741,79.383,172.071,79.170,171.374,78.963,170.649,78.762,169.898,78.566,169.121,78.378,168.316,78.195,167.485,78.019,166.628,77.850,165.745,77.687,164.835,77.532,163.900,77.383,162.939,77.241,161.953,77.107,160.942,76.980,159.906,76.860,158.845,76.747,157.760,76.642,156.651,76.545,155.519,76.456,154.363,76.374,153.185,76.300,151.984,76.234,150.760,76.176,149.515,76.126,148.249,76.084,146.962,76.051,145.654,76.025,144.326,76.008,142.979,76.000,141.613,75.999,140.229,76.007,138.827,76.024,137.407,76.049,135.971,76.083,134.518,76.125,133.050,76.175,131.567,76.234,130.069,76.302,128.558,76.378,127.034,76.462,125.497,76.556,123.948,76.657,122.388,76.767,120.818,76.886,119.238,77.012,117.649,77.148,116.051,77.291,114.446,77.443,112.834,77.603,111.216,77.771,109.592,77.947,107.964,78.131,106.331,78.323,104.696,78.523,103.057,78.730,101.418,78.945,99.777,79.168,98.136,79.398,96.496,79.636,94.856,79.881,93.219,80.133,91.585,80.391,89.955,80.657,88.328,80.930,86.707,81.209,85.092,81.494,83.483,81.786,81.881,82.085,80.288,82.389,78.703,82.699,77.127,83.015,75.562,83.336,74.008,83.663,72.465,83.995,70.934,84.333,69.416,84.675,67.912,85.022,66.422,85.374,64.946,85.730,63.486,86.090,62.042,86.454,60.615,86.823,59.205,87.195,57.813,87.570,56.438,87.949,55.083,88.331,53.747,88.717,52.431,89.105,51.136,89.495,49.861,89.888,48.607,90.284,47.376,90.681,46.166,91.081,44.979,91.482,43.815,91.884,42.675,92.289,41.558,92.694,40.465,93.100,39.397,93.507,38.353,93.915,37.334,94.323,36.341,94.732,35.373,95.141,34.431,95.550,33.515,95.958,32.626"  style="fill:none;stroke:#000;stroke-width:0.1953;opacity:1"/>
  <polyline points="75.719,178.241,75.648,178.219,75.150,178.041,74.658,177.838,74.171,177.609,73.690,177.355,73.215,177.075,72.746,176.769,72.283,176.438,71.827,176.080,71.377,175.696,70.935,175.287,70.500,174.851,70.072,174.389,69.651,173.901,69.239,173.387,68.834,172.846,68.438,172.279,68.050,171.687,67.671,171.068,67.300,170.423,66.939,169.751,66.586,169.054,66.243,168.331,65.910,167.583,65.586,166.808,65.272,166.008,64.969,165.183,64.676,164.333,64.393,163.457,64.121,162.556,63.860,161.631,63.610,160.681,63.371,159.707,63.143,158.709,62.927,157.687,62.723,156.642,62.530,155.573,62.350,154.482,62.181,153.367,62.025,152.231,61.881,151.073,61.750,149.893,61.631,148.692,61.525,147.470,61.432,146.227,61.352,144.965,61.285,143.683,61.231,142.382,61.191,141.063,61.163,139.725,61.150,138.370,61.149,136.997,61.162,135.608,61.189,134.203,61.229,132.783,61.283,131.347,61.350,129.897,61.431,128.433,61.526,126.956,61.634,125.467,61.756,123.965,61.892,122.452,62.042,120.928,62.205,119.395,62.381,117.851,62.572,116.299,62.775,114.739,62.992,113.172,63.223,111.598,63.466,110.018,63.723,108.433,63.993,106.843,64.276,105.249,64.572,103.652,64.881,102.052,65.202,100.451,65.536,98.849,65.882,97.246,66.240,95.644,66.610,94.043,66.992,92.444,67.386,90.848,67.792,89.255,68.208,87.666,68.636,86.082,69.075,84.503,69.525,82.931,69.985,81.365,70.455,79.808,70.936,78.258,71.426,76.718,71.926,75.187,72.436,73.666,72.954,72.157,73.482,70.659,74.018,69.174,74.562,67.701,75.115,66.243,75.675,64.798,76.243,63.369,76.819,61.954,77.401,60.556,77.990,59.174,78.586,57.810,79.187,56.463,79.795,55.135,80.408,53.825,81.027,52.534,81.651,51.264,82.279,50.013,82.912,48.783,83.549,47.575,84.190,46.387,84.835,45.222,85.483,44.079,86.134,42.959,86.787,41.863,87.443,40.789,88.102,39.740,88.762,38.714,89.423,37.713,90.086,36.737,90.750,35.786,91.415,34.860,92.080,33.959,92.745,33.084,93.410,32.235"  style="fill:none;stroke:#000;stroke-width:0.1953;opacity:1"/>
  <polyline points="65.237,174.183,64.595,173.868,63.961,173.528,63.336,173.163,62.719,172.774,62.111,172.359,61.512,171.921,60.923,171.457,60.343,170.969,59.773,170.455,59.214,169.917,58.665,169.354,58.127,168.767,57.600,168.155,57.084,167.518,56.580,166.856,56.087,166.170,55.607,165.460,55.139,164.725,54.683,163.966,54.241,163.183,53.811,162.375,53.395,161.545,52.992,160.690,52.603,159.812,52.228,158.910,51.867,157.986,51.521,157.038,51.189,156.068,50.872,155.076,50.571,154.061,50.285,153.025,50.014,151.966,49.759,150.887,49.520,149.786,49.297,148.665,49.090,147.523,48.899,146.361,48.726,145.180,48.568,143.979,48.428,142.759,48.305,141.521,48.199,140.265,48.110,138.991,48.039,137.700,47.985,136.392,47.949,135.068,47.931,133.728,47.930,132.372,47.947,131.002,47.982,129.618,48.036,128.220,48.107,126.808,48.196,125.384,48.303,123.948,48.429,122.500,48.572,121.041,48.734,119.572,48.914,118.093,49.112,116.604,49.328,115.108,49.562,113.603,49.814,112.091,50.084,110.572,50.371,109.047,50.677,107.517,51.000,105.983,51.340,104.444,51.698,102.902,52.073,101.357,52.465,99.810,52.875,98.261,53.301,96.712,53.744,95.163,54.203,93.615,54.679,92.068,55.171,90.523,55.678,88.981,56.202,87.442,56.740,85.908,57.294,84.378,57.863,82.854,58.447,81.336,59.045,79.824,59.658,78.320,60.284,76.825,60.924,75.338,61.577,73.860,62.243,72.393,62.922,70.936,63.614,69.491,64.317,68.057,65.033,66.637,65.759,65.229,66.497,63.835,67.246,62.456,68.005,61.092,68.774,59.743,69.553,58.410,70.341,57.094,71.138,55.795,71.943,54.513,72.757,53.250,73.579,52.005,74.408,50.780,75.244,49.574,76.087,48.388,76.937,47.223,77.792,46.078,78.653,44.955,79.519,43.854,80.390,42.775,81.265,41.718,82.145,40.684,83.028,39.673,83.914,38.686,84.803,37.722,85.694,36.783,86.588,35.868,87.484,34.978,88.381,34.112,89.278,33.272,90.177,32.457,91.076,31.667"  style="fill:none;stroke:#000;stroke-width:0.1953;opacity:1"/>
  <polyline points="53.417,167.384,53.108,167.168,52.399,166.638,51.701,166.084,51.016,165.508,50.343,164.909,49.683,164.287,49.037,163.641,48.403,162.973,47.784,162.283,47.178,161.569,46.587,160.833,46.011,160.075,45.449,159.294,44.903,158.491,44.372,157.666,43.857,156.819,43.359,155.950,42.876,155.060,42.410,154.149,41.961,153.216,41.529,152.263,41.115,151.289,40.718,150.295,40.339,149.280,39.978,148.246,39.636,147.191,39.312,146.118,39.007,145.025,38.721,143.914,38.455,142.784,38.208,141.637,37.980,140.471,37.772,139.289,37.585,138.089,37.417,136.872,37.270,135.640,37.144,134.392,37.038,133.128,36.953,131.849,36.888,130.556,36.845,129.249,36.823,127.928,36.822,126.594,36.843,125.247,36.885,123.888,36.948,122.518,37.033,121.136,37.140,119.744,37.268,118.342,37.418,116.930,37.590,115.509,37.783,114.080,37.998,112.643,38.234,111.198,38.492,109.747,38.772,108.290,39.073,106.827,39.396,105.359,39.740,103.887,40.105,102.411,40.491,100.932,40.899,99.451,41.327,97.967,41.776,96.483,42.246,94.997,42.736,93.512,43.247,92.027,43.777,90.544,44.328,89.062,44.898,87.583,45.488,86.108,46.097,84.636,46.725,83.168,47.371,81.706,48.037,80.249,48.720,78.798,49.421,77.355,50.140,75.919,50.877,74.491,51.630,73.072,52.400,71.663,53.187,70.263,53.989,68.874,54.807,67.497,55.641,66.131,56.489,64.777,57.352,63.437,58.229,62.110,59.120,60.797,60.024,59.499,60.941,58.215,61.871,56.948,62.813,55.696,63.767,54.462,64.732,53.244,65.708,52.044,66.695,50.863,67.691,49.699,68.697,48.555,69.712,47.431,70.736,46.326,71.768,45.242,72.808,44.178,73.855,43.135,74.910,42.114,75.970,41.115,77.036,40.138,78.108,39.184,79.185,38.252,80.267,37.343,81.352,36.458,82.442,35.597,83.534,34.759,84.629,33.946,85.727,33.157,86.826,32.393,87.927,31.654,89.028,30.940"  style="fill:none;stroke:#000;stroke-width:0.1953;opacity:1"/>
  <polyline points="41.233,157.073,41.133,156.971,40.437,156.219,39.757,155.448,39.093,154.656,38.447,153.844,37.817,153.012,37.204,152.160,36.609,151.288,36.032,150.397,35.473,149.487,34.932,148.558,34.411,147.610,33.908,146.643,33.425,145.658,32.961,144.655,32.517,143.633,32.093,142.595,31.690,141.539,31.307,140.466,30.945,139.376,30.604,138.269,30.285,137.147,29.987,136.009,29.711,134.855,29.457,133.686,29.225,132.503,29.015,131.305,28.828,130.093,28.664,128.867,28.523,127.629,28.405,126.377,28.310,125.113,28.238,123.837,28.190,122.549,28.165,121.250,28.164,119.941,28.187,118.621,28.234,117.292,28.305,115.953,28.400,114.606,28.519,113.250,28.662,111.887,28.829,110.516,29.021,109.138,29.236,107.754,29.476,106.365,29.740,104.970,30.029,103.570,30.341,102.167,30.678,100.760,31.038,99.349,31.423,97.937,31.831,96.522,32.263,95.106,32.719,93.690,33.198,92.273,33.701,90.856,34.227,89.441,34.775,88.027,35.347,86.615,35.942,85.206,36.559,83.800,37.198,82.398,37.860,81.000,38.543,79.608,39.248,78.221,39.974,76.840,40.721,75.466,41.489,74.099,42.277,72.740,43.086,71.390,43.914,70.049,44.762,68.717,45.629,67.396,46.515,66.085,47.419,64.786,48.342,63.498,49.282,62.223,50.240,60.961,51.214,59.712,52.205,58.477,53.212,57.256,54.235,56.050,55.273,54.860,56.326,53.686,57.393,52.528,58.474,51.387,59.569,50.263,60.676,49.157,61.797,48.069,62.929,47.000,64.072,45.949,65.227,44.919,66.392,43.908,67.568,42.917,68.753,41.947,69.947,40.998,71.150,40.070,72.360,39.163,73.579,38.279,74.804,37.417,76.036,36.577,77.274,35.760,78.517,34.967,79.765,34.197,81.018,33.450,82.275,32.727,83.535,32.028,84.798,31.354,86.064,30.704,87.331,30.078"  style="fill:none;stroke:#000;stroke-width:0.1953;opacity:1"/>
  <polyline points="29.428,141.600,29.347,141.464,28.791,140.478,28.255,139.476,27.740,138.458,27.247,137.425,26.774,136.376,26.323,135.313,25.894,134.235,25.487,133.143,25.102,132.037,24.740,130.917,24.400,129.783,24.084,128.637,23.790,127.478,23.520,126.307,23.274,125.123,23.052,123.928,22.853,122.722,22.679,121.504,22.529,120.276,22.403,119.038,22.302,117.791,22.226,116.533,22.175,115.267,22.149,113.993,22.148,112.710,22.172,111.420,22.222,110.122,22.297,108.818,22.398,107.507,22.524,106.190,22.676,104.868,22.854,103.542,23.057,102.210,23.286,100.875,23.541,99.536,23.822,98.194,24.128,96.850,24.460,95.504,24.818,94.156,25.201,92.807,25.610,91.458,26.044,90.108,26.504,88.760,26.989,87.412,27.499,86.066,28.034,84.722,28.594,83.381,29.179,82.043,29.789,80.709,30.423,79.379,31.081,78.053,31.763,76.733,32.469,75.419,33.198,74.111,33.951,72.810,34.727,71.517,35.525,70.231,36.347,68.954,37.190,67.686,38.056,66.427,38.943,65.179,39.851,63.941,40.781,62.714,41.731,61.498,42.701,60.295,43.692,59.104,44.702,57.926,45.731,56.762,46.779,55.611,47.845,54.475,48.929,53.354,50.031,52.248,51.150,51.159,52.285,50.085,53.437,49.028,54.604,47.988,55.787,46.966,56.985,45.962,58.196,44.976,59.422,44.009,60.661,43.061,61.913,42.132,63.177,41.224,64.452,40.335,65.740,39.467,67.037,38.620,68.346,37.794,69.663,36.990,70.990,36.207,72.326,35.447,73.669,34.709,75.021,33.993,76.379,33.301,77.743,32.631,79.114,31.985,80.489,31.362,81.870,30.763,83.255,30.188,84.643,29.638,86.035,29.111"  style="fill:none;stroke:#000;stroke-width:0.1953;opacity:1"/>
  <polyline points="20.548,119.964,20.505,119.801,20.230,118.628,19.978,117.445,19.751,116.254,19.549,115.054,19.371,113.846,19.218,112.630,19.090,111.407,18.987,110.176,18.909,108.939,18.857,107.696,18.830,106.446,18.829,105.192,18.854,103.931,18.905,102.667,18.982,101.398,19.084,100.125,19.213,98.848,19.368,97.569,19.550,96.287,19.757,95.003,19.991,93.717,20.251,92.430,20.538,91.143,20.850,89.855,21.189,88.567,21.555,87.279,21.946,85.993,22.364,84.708,22.808,83.425,23.278,82.145,23.774,80.868,24.296,79.594,24.843,78.324,25.417,77.058,26.015,75.797,26.639,74.542,27.289,73.292,27.963,72.049,28.663,70.813,29.387,69.583,30.135,68.362,30.908,67.149,31.705,65.944,32.525,64.749,33.369,63.563,34.237,62.387,35.127,61.222,36.040,60.068,36.976,58.926,37.934,57.795,38.913,56.677,39.914,55.572,40.936,54.480,41.979,53.403,43.043,52.339,44.126,51.290,45.229,50.256,46.351,49.237,47.492,48.235,48.652,47.248,49.829,46.279,51.025,45.327,52.237,44.392,53.466,43.475,54.711,42.576,55.971,41.696,57.248,40.835,58.538,39.993,59.843,39.171,61.162,38.369,62.494,37.588,63.839,36.827,65.196,36.087,66.565,35.368,67.945,34.670,69.336,33.995,70.736,33.341,72.147,32.710,73.566,32.102,74.993,31.516,76.429,30.953,77.872,30.413,79.321,29.897,80.777,29.404,82.238,28.936,83.704,28.491,85.175,28.070"  style="fill:none;stroke:#000;stroke-width:0.1953;opacity:1"/>
  <polyline points="18.387,92.898,18.401,92.724,18.528,91.487,18.681,90.250,18.860,89.012,19.064,87.775,19.295,86.538,19.552,85.302,19.834,84.068,20.143,82.835,20.478,81.604,20.838,80.376,21.225,79.151,21.638,77.929,22.076,76.712,22.541,75.498,23.031,74.290,23.547,73.087,24.089,71.889,24.656,70.697,25.248,69.512,25.866,68.334,26.509,67.163,27.177,66.000,27.870,64.845,28.588,63.699,29.331,62.563,30.097,61.435,30.888,60.318,31.703,59.211,32.542,58.115,33.404,57.031,34.290,55.958,35.199,54.897,36.130,53.849,37.084,52.813,38.060,51.791,39.059,50.783,40.078,49.790,41.120,48.810,42.182,47.846,43.264,46.897,44.367,45.964,45.490,45.048,46.633,44.147,47.795,43.264,48.975,42.398,50.174,41.550,51.391,40.720,52.626,39.908,53.877,39.115,55.146,38.341,56.430,37.586,57.731,36.851,59.046,36.136,60.377,35.441,61.722,34.767,63.081,34.114,64.453,33.482,65.838,32.871,67.235,32.282,68.645,31.715,70.065,31.170,71.496,30.648,72.938,30.148,74.389,29.671,75.850,29.217,77.319,28.786,78.796,28.379,80.281,27.995,81.772,27.635,83.270,27.299,84.774,26.987"  style="fill:none;stroke:#000;stroke-width:0.1953;opacity:1"/>
  <polyline points="25.058,66.910,25.128,66.750,25.647,65.621,26.192,64.499,26.760,63.386,27.354,62.281,27.971,61.185,28.613,60.098,29.279,59.021,29.969,57.954,30.684,56.898,31.421,55.852,32.183,54.818,32.968,53.795,33.776,52.784,34.607,51.786,35.461,50.801,36.338,49.829,37.237,48.870,38.159,47.926,39.102,46.996,40.067,46.080,41.054,45.180,42.062,44.295,43.090,43.426,44.140,42.574,45.209,41.738,46.299,40.919,47.408,40.117,48.537,39.333,49.684,38.566,50.851,37.818,52.035,37.089,53.238,36.379,54.458,35.688,55.695,35.016,56.948,34.364,58.218,33.733,59.504,33.122,60.806,32.531,62.122,31.962,63.453,31.414,64.798,30.887,66.157,30.383,67.529,29.900,68.914,29.439,70.311,29.001,71.719,28.586,73.139,28.193,74.569,27.824,76.010,27.477,77.460,27.154,78.920,26.855,80.387,26.580,81.863,26.328,83.347,26.100,84.837,25.897"  style="fill:none;stroke:#000;stroke-width:0.1953;opacity:1"/>
  <polyline points="37.370,47.196,37.702,46.803,38.502,45.899,39.323,45.009,40.166,44.133,41.030,43.273,41.915,42.428,42.820,41.598,43.747,40.785,44.694,39.988,45.661,39.208,46.648,38.444,47.654,37.699,48.680,36.970,49.725,36.260,50.789,35.569,51.872,34.895,52.973,34.241,54.091,33.607,55.228,32.991,56.382,32.396,57.552,31.821,58.740,31.266,59.943,30.732,61.163,30.219,62.398,29.727,63.648,29.257,64.913,28.808,66.192,28.382,67.485,27.977,68.791,27.595,70.111,27.236,71.443,26.900,72.788,26.586,74.144,26.296,75.511,26.029,76.890,25.786,78.278,25.567,79.677,25.372,81.084,25.200,82.501,25.053,83.926,24.930,85.359,24.832"  style="fill:none;stroke:#000;stroke-width:0.1953;opacity:1"/>
  <polyline points="50.261,34.910,50.645,34.618,51.564,33.953,52.500,33.308,53.455,32.681,54.427,32.073,55.417,31.484,56.424,30.915,57.448,30.366,58.489,29.837,59.546,29.329,60.620,28.842,61.709,28.376,62.814,27.931,63.935,27.507,65.070,27.106,66.220,26.726,67.384,26.369,68.563,26.034,69.755,25.723,70.960,25.434,72.178,25.168,73.409,24.925,74.652,24.707,75.907,24.512,77.172,24.340,78.449,24.193,79.737,24.070,81.034,23.972,82.341,23.898,83.657,23.849,84.983,23.824,86.316,23.824"  style="fill:none;stroke:#000;stroke-width:0.1953;opacity:1"/>
  <polyline points="61.060,27.922,61.965,27.449,62.886,26.996,63.821,26.565,64.771,26.155,65.736,25.767,66.716,25.401,67.709,25.057,68.716,24.736,69.737,24.437,70.772,24.161,71.819,23.908,72.879,23.679,73.952,23.473,75.036,23.291,76.133,23.132,77.241,22.998,78.361,22.889,79.491,22.803,80.631,22.742,81.782,22.706,82.943,22.695,84.113,22.709,85.292,22.748,86.480,22.813,87.676,22.902"  style="fill:none;stroke:#000;stroke-width:0.1953;opacity:1"/>
  <polyline points="70.566,23.548,70.681,23.503,71.512,23.204,72.356,22.928,73.211,22.675,74.079,22.445,74.958,22.239,75.849,22.056,76.751,21.898,77.664,21.763,78.589,21.653,79.523,21.567,80.469,21.506,81.424,21.470,82.389,21.459,83.364,21.473,84.348,21.512,85.340,21.577,86.342,21.667,87.352,21.783,88.370,21.925,89.395,22.092"  style="fill:none;stroke:#000;stroke-width:0.1953;opacity:1"/>
  <polyline points="78.414,20.971,79.109,20.797,79.813,20.648,80.527,20.523,81.250,20.422,81.983,20.346,82.724,20.295,83.475,20.268,84.234,20.267,85.001,20.291,85.777,20.341,86.561,20.417,87.353,20.518,88.152,20.645,88.959,20.799,89.773,20.978,90.593,21.184,91.421,21.417"  style="fill:none;stroke:#000;stroke-width:0.1953;opacity:1"/>
  <polyline points="85.198,19.424,85.719,19.343,86.247,19.286,86.782,19.254,87.324,19.248,87.872,19.267,88.427,19.312,88.989,19.382,89.556,19.479,90.130,19.601,90.710,19.750,91.295,19.926,91.886,20.127,92.483,20.356,93.085,20.611,93.692,20.894"  style="fill:none;stroke:#000;stroke-width:0.1953;opacity:1"/>
  <polyline points="91.466,18.526,91.603,18.515,91.929,18.513,92.259,18.537,92.593,18.587,92.931,18.662,93.273,18.764,93.619,18.892,93.969,19.047,94.322,19.228,94.679,19.436,95.040,19.670,95.404,19.932,95.771,20.221,96.142,20.537"  style="fill:none;stroke:#000;stroke-width:0.1953;opacity:1"/>
  <polyline points="97.177,18.125,97.286,18.138,97.397,18.178,97.509,18.243,97.623,18.334,97.737,18.451,97.854,18.595,97.971,18.766,98.090,18.963,98.210,19.188,98.331,19.439,98.454,19.717,98.577,20.023,98.702,20.356"  style="fill:none;stroke:#000;stroke-width:0.1953;opacity:1"/>
  <polyline points="102.823,18.125,102.714,18.138,102.603,18.178,102.491,18.243,102.377,18.334,102.263,18.451,102.146,18.595,102.029,18.766,101.910,18.963,101.790,19.188,101.669,19.439,101.546,19.717,101.423,20.023,101.298,20.356"  style="fill:none;stroke:#000;stroke-width:0.1953;opacity:1"/>
  <polyline points="108.534,18.526,108.397,18.515,108.071,18.513,107.741,18.537,107.407,18.587,107.069,18.662,106.727,18.764,106.381,18.892,106.031,19.047,105.678,19.228,105.321,19.436,104.960,19.670,104.596,19.932,104.229,20.221,103.858,20.537"  style="fill:none;stroke:#000;stroke-width:0.1953;opacity:1"/>
  <polyline points="114.802,19.424,114.281,19.343,113.753,19.286,113.218,19.254,112.676,19.248,112.128,19.267,111.573,19.312,111.011,19.382,110.444,19.479,109.870,19.601,109.290,19.750,108.705,19.926,108.114,20.127,107.517,20.356,106.915,20.611,106.308,20.894"  style="fill:none;stroke:#000;stroke-width:0.1953;opacity:1"/>
  <polyline points="121.586,20.971,120.891,20.797,120.187,20.648,119.473,20.523,118.750,20.422,118.017,20.346,117.276,20.295,116.525,20.268,115.766,20.267,114.999,20.291,114.223,20.341,113.439,20.417,112.647,20.518,111.848,20.645,111.041,20.799,110.227,20.978,109.407,21.184,108.579,21.417"  style="fill:none;stroke:#000;stroke-width:0.1953;opacity:1"/>
  <polyline points="129.434,23.548,129.319,23.503,128.488,23.204,127.644,22.928,126.789,22.675,125.921,22.445,125.042,22.239,124.151,22.056,123.249,21.898,122.336,21.763,121.411,21.653,120.477,21.567,119.531,21.506,118.576,21.470,117.611,21.459,116.636,21.473,115.652,21.512,114.660,21.577,113.658,21.667,112.648,21.783,111.630,21.925,110.605,22.092"  style="fill:none;stroke:#000;stroke-width:0.1953;opacity:1"/>
  <polyline points="138.940,27.922,138.035,27.449,137.114,26.996,136.179,26.565,135.229,26.155,134.264,25.767,133.284,25.401,132.291,25.057,131.284,24.736,130.263,24.437,129.228,24.161,128.181,23.908,127.121,23.679,126.048,23.473,124.964,23.291,123.867,23.132,122.759,22.998,121.639,22.889,120.509,22.803,119.369,22.742,118.218,22.706,117.057,22.695,115.887,22.709,114.708,22.748,113.520,22.813,112.324,22.902"  style="fill:none;stroke:#000;stroke-width:0.1953;opacity:1"/>
  <polyline points="149.739,34.910,149.355,34.618,148.436,33.953,147.500,33.308,146.545,32.681,145.573,32.073,144.583,31.484,143.576,30.915,142.552,30.366,141.511,29.837,140.454,29.329,139.380,28.842,138.291,28.376,137.186,27.931,136.065,27.507,134.930,27.106,133.780,26.726,132.616,26.369,131.437,26.034,130.245,25.723,129.040,25.434,127.822,25.168,126.591,24.925,125.348,24.707,124.093,24.512,122.828,24.340,121.551,24.193,120.263,24.070,118.966,23.972,117.659,23.898,116.343,23.849,115.017,23.824,113.684,23.824"  style="fill:none;stroke:#000;stroke-width:0.1953;opacity:1"/>
  <polyline points="162.630,47.196,162.298,46.803,161.498,45.899,160.677,45.009,159.834,44.133,158.970,43.273,158.085,42.428,157.180,41.598,156.253,40.785,155.306,39.988,154.339,39.208,153.352,38.444,152.346,37.699,151.320,36.970,150.275,36.260,149.211,35.569,148.128,34.895,147.027,34.241,145.909,33.607,144.772,32.991,143.618,32.396,142.448,31.821,141.260,31.266,140.057,30.732,138.837,30.219,137.602,29.727,136.352,29.257,135.087,28.808,133.808,28.382,132.515,27.977,131.209,27.595,129.889,27.236,128.557,26.900,127.212,26.586,125.856,26.296,124.489,26.029,123.110,25.786,121.722,25.567,120.323,25.372,118.916,25.200,117.499,25.053,116.074,24.930,114.641,24.832"  style="fill:none;stroke:#000;stroke-width:0.1953;opacity:1"/>
  <polyline points="174.942,66.910,174.872,66.750,174.353,65.621,173.808,64.499,173.240,63.386,172.646,62.281,172.029,61.185,171.387,60.098,170.721,59.021,170.031,57.954,169.316,56.898,168.579,55.852,167.817,54.818,167.032,53.795,166.224,52.784,165.393,51.786,164.539,50.801,163.662,49.829,162.763,48.870,161.841,47.926,160.898,46.996,159.933,46.080,158.946,45.180,157.938,44.295,156.910,43.426,155.860,42.574,154.791,41.738,153.701,40.919,152.592,40.117,151.463,39.333,150.316,38.566,149.149,37.818,147.965,37.089,146.762,36.379,145.542,35.688,144.305,35.016,143.052,34.364,141.782,33.733,140.496,33.122,139.194,32.531,137.878,31.962,136.547,31.414,135.202,30.887,133.843,30.383,132.471,29.900,131.086,29.439,129.689,29.001,128.281,28.586,126.861,28.193,125.431,27.824,123.990,27.477,122.540,27.154,121.080,26.855,119.613,26.580,118.137,26.328,116.653,26.100,115.163,25.897"  style="fill:none;stroke:#000;stroke-width:0.1953;opacity:1"/>
  <polyline points="181.613,92.898,181.599,92.724,181.472,91.487,181.319,90.250,181.140,89.012,180.936,87.775,180.705,86.538,180.448,85.302,180.166,84.068,179.857,82.835,179.522,81.604,179.162,80.376,178.775,79.151,178.362,77.929,177.924,76.712,177.459,75.498,176.969,74.290,176.453,73.087,175.911,71.889,175.344,70.697,174.752,69.512,174.134,68.334,173.491,67.163,172.823,66.000,172.130,64.845,171.412,63.699,170.669,62.563,169.903,61.435,169.112,60.318,168.297,59.211,167.458,58.115,166.596,57.031,165.710,55.958,164.801,54.897,163.870,53.849,162.916,52.813,161.940,51.791,160.941,50.783,159.922,49.790,158.880,48.810,157.818,47.846,156.736,46.897,155.633,45.964,154.510,45.048,153.367,44.147,152.205,43.264,151.025,42.398,149.826,41.550,148.609,40.720,147.374,39.908,146.123,39.115,144.854,38.341,143.570,37.586,142.269,36.851,140.954,36.136,139.623,35.441,138.278,34.767,136.919,34.114,135.547,33.482,134.162,32.871,132.765,32.282,131.355,31.715,129.935,31.170,128.504,30.648,127.062,30.148,125.611,29.671,124.150,29.217,122.681,28.786,121.204,28.379,119.719,27.995,118.228,27.635,116.730,27.299,115.226,26.987"  style="fill:none;stroke:#000;stroke-width:0.1953;opacity:1"/>
  <polyline points="179.452,119.964,179.495,119.801,179.770,118.628,180.022,117.445,180.249,116.254,180.451,115.054,180.629,113.846,180.782,112.630,180.910,111.407,181.013,110.176,181.091,108.939,181.143,107.696,181.170,106.446,181.171,105.192,181.146,103.931,181.095,102.667,181.018,101.398,180.916,100.125,180.787,98.848,180.632,97.569,180.450,96.287,180.243,95.003,180.009,93.717,179.749,92.430,179.462,91.143,179.150,89.855,178.811,88.567,178.445,87.279,178.054,85.993,177.636,84.708,177.192,83.425,176.722,82.145,176.226,80.868,175.704,79.594,175.157,78.324,174.583,77.058,173.985,75.797,173.361,74.542,172.711,73.292,172.037,72.049,171.337,70.813,170.613,69.583,169.865,68.362,169.092,67.149,168.295,65.944,167.475,64.749,166.631,63.563,165.763,62.387,164.873,61.222,163.960,60.068,163.024,58.926,162.066,57.795,161.087,56.677,160.086,55.572,159.064,54.480,158.021,53.403,156.957,52.339,155.874,51.290,154.771,50.256,153.649,49.237,152.508,48.235,151.348,47.248,150.171,46.279,148.975,45.327,147.763,44.392,146.534,43.475,145.289,42.576,144.029,41.696,142.752,40.835,141.462,39.993,140.157,39.171,138.838,38.369,137.506,37.588,136.161,36.827,134.804,36.087,133.435,35.368,132.055,34.670,130.664,33.995,129.264,33.341,127.853,32.710,126.434,32.102,125.007,31.516,123.571,30.953,122.128,30.413,120.679,29.897,119.223,29.404,117.762,28.936,116.296,28.491,114.825,28.070"  style="fill:none;stroke:#000;stroke-width:0.1953;opacity:1"/>
  <polyline points="170.572,141.600,170.653,141.464,171.209,140.478,171.745,139.476,172.260,138.458,172.753,137.425,173.226,136.376,173.677,135.313,174.106,134.235,174.513,133.143,174.898,132.037,175.260,130.917,175.600,129.783,175.916,128.637,176.210,127.478,176.480,126.307,176.726,125.123,176.948,123.928,177.147,122.722,177.321,121.504,177.471,120.276,177.597,119.038,177.698,117.791,177.774,116.533,177.825,115.267,177.851,113.993,177.852,112.710,177.828,111.420,177.778,110.122,177.703,108.818,177.602,107.507,177.476,106.190,177.324,104.868,177.146,103.542,176.943,102.210,176.714,100.875,176.459,99.536,176.178,98.194,175.872,96.850,175.540,95.504,175.182,94.156,174.799,92.807,174.390,91.458,173.956,90.108,173.496,88.760,173.011,87.412,172.501,86.066,171.966,84.722,171.406,83.381,170.821,82.043,170.211,80.709,169.577,79.379,168.919,78.053,168.237,76.733,167.531,75.419,166.802,74.111,166.049,72.810,165.273,71.517,164.475,70.231,163.653,68.954,162.810,67.686,161.944,66.427,161.057,65.179,160.149,63.941,159.219,62.714,158.269,61.498,157.299,60.295,156.308,59.104,155.298,57.926,154.269,56.762,153.221,55.611,152.155,54.475,151.071,53.354,149.969,52.248,148.850,51.159,147.715,50.085,146.563,49.028,145.396,47.988,144.213,46.966,143.015,45.962,141.804,44.976,140.578,44.009,139.339,43.061,138.087,42.132,136.823,41.224,135.548,40.335,134.260,39.467,132.963,38.620,131.654,37.794,130.337,36.990,129.010,36.207,127.674,35.447,126.331,34.709,124.979,33.993,123.621,33.301,122.257,32.631,120.886,31.985,119.511,31.362,118.130,30.763,116.745,30.188,115.357,29.638,113.965,29.111"  style="fill:none;stroke:#000;stroke-width:0.1953;opacity:1"/>
  <polyline points="158.767,157.073,158.867,156.971,159.563,156.219,160.243,155.448,160.907,154.656,161.553,153.844,162.183,153.012,162.796,152.160,163.391,151.288,163.968,150.397,164.527,149.487,165.068,148.558,165.589,147.610,166.092,146.643,166.575,145.658,167.039,144.655,167.483,143.633,167.907,142.595,168.310,141.539,168.693,140.466,169.055,139.376,169.396,138.269,169.715,137.147,170.013,136.009,170.289,134.855,170.543,133.686,170.775,132.503,170.985,131.305,171.172,130.093,171.336,128.867,171.477,127.629,171.595,126.377,171.690,125.113,171.762,123.837,171.810,122.549,171.835,121.250,171.836,119.941,171.813,118.621,171.766,117.292,171.695,115.953,171.600,114.606,171.481,113.250,171.338,111.887,171.171,110.516,170.979,109.138,170.764,107.754,170.524,106.365,170.260,104.970,169.971,103.570,169.659,102.167,169.322,100.760,168.962,99.349,168.577,97.937,168.169,96.522,167.737,95.106,167.281,93.690,166.802,92.273,166.299,90.856,165.773,89.441,165.225,88.027,164.653,86.615,164.058,85.206,163.441,83.800,162.802,82.398,162.140,81.000,161.457,79.608,160.752,78.221,160.026,76.840,159.279,75.466,158.511,74.099,157.723,72.740,156.914,71.390,156.086,70.049,155.238,68.717,154.371,67.396,153.485,66.085,152.581,64.786,151.658,63.498,150.718,62.223,149.760,60.961,148.786,59.712,147.795,58.477,146.788,57.256,145.765,56.050,144.727,54.860,143.674,53.686,142.607,52.528,141.526,51.387,140.431,50.263,139.324,49.157,138.203,48.069,137.071,47.000,135.928,45.949,134.773,44.919,133.608,43.908,132.432,42.917,131.247,41.947,130.053,40.998,128.850,40.070,127.640,39.163,126.421,38.279,125.196,37.417,123.964,36.577,122.726,35.760,121.483,34.967,120.235,34.197,118.982,33.450,117.725,32.727,116.465,32.028,115.202,31.354,113.936,30.704,112.669,30.078"  style="fill:none;stroke:#000;stroke-width:0.1953;opacity:1"/>
</svg>