<?xml version="1.0"?><svg  viewBox="0 0 200 200" width="200mm" height="200mm" xmlns="http://www.w3.org/2000/svg"  version="1.2" viewport-fill="#fff">
  <polyline points="5.000,5.000,185.000,5.000,185.000,185.000,5.000,185.000,5.000,5.000"  style="fill:none;stroke:#000;stroke-width:0.1953;opacity:1"/>
  <polyline points="20.556,20.556,170.191,31.020,159.727,180.654,10.093,170.191,20.556,20.556"  style="fill:none;stroke:#000;stroke-width:0.1953;opacity:1"/>
  <polyline points="34.990,37.160,153.822,53.861,137.121,172.693,18.289,155.992,34.990,37.160"  style="fill:none;stroke:#000;stroke-width:0.1953;opacity:1"/>
  <polyline points="48.230,54.730,136.263,73.442,117.551,161.475,29.518,142.763,48.230,54.730"  style="fill:none;stroke:#000;stroke-width:0.1953;opacity:1"/>
  <polyline points="60.212,73.181,117.887,89.719,101.349,147.395,43.673,130.856,60.212,73.181"  style="fill:none;stroke:#000;stroke-width:0.1953;opacity:1"/>
  <polyline points="70.877,92.422,99.068,102.683,88.808,130.874,60.617,120.613,70.877,92.422"  style="fill:none;stroke:#000;stroke-width:0.1953;opacity:1"/>
</svg>