<svg version="1.1" xmlns="http://www.w3.org/2000/svg" width="432" height="432" viewBox="0 0 432 432" xml:space="preserve">
  <g stroke-width="1px" stroke="black">
  <path d="M199.9 212.1l8.9-.1"/>
  <path d="M227.1 138.1l3.1.1"/>
  <path d="M283.6 148.9l.7-.2"/>
  <path d="M196.2 87.7l2.7 5.4"/>
  <path d="M321.1 219.7l4.2 1"/>
  <path d="M168.7 96.8l8.4.7"/>
  <path d="M148.1 343l.1 3"/>
  <path d="M274.5 331.3l8.3-7.7"/>
  <path d="M141.3 330.2l4.1-.3"/>
  <path d="M269.1 318.3l.5-1"/>
  <path d="M120.3 248.3l1.8 4.6"/>
  <path d="M269.7 293.2l7.4.8"/>
  <path d="M91.3 266.6l5.2 12.8"/>
  <path d="M314.4 293v.2"/>
  <path d="M120.3 248.3"/>
  <path d="M118.2 246.7l2.1 1.6"/>
  <path d="M305.3 124.6l.3 6.5"/>
  <path d="M291.6 144.1l.6-1.1"/>
  <path d="M267.4 116.7l6.1 4.7"/>
  <path d="M196.5 295.1l7.9 3.7"/>
  <path d="M291.9 228.3l3.2.4"/>
  <path d="M112.9 211.7l4.7-11.2"/>
  <path d="M199.8 101.6l1.7-4.4"/>
  <path d="M371.4 351.3l10.3-13.2"/>
  <path d="M381.7 338.1l8.9-13.2"/>
  <path d="M266.6 155l9.4 5.4"/>
  <path d="M390.6 324.9l3.9-6.7"/>
  <path d="M394.5 318.2l9-18"/>
  <path d="M403.5 300.2l2.3-5.3"/>
  <path d="M163.6 132.9l10.6 5.2"/>
  <path d="M322.8 140.6l12.3-5.2"/>
  <path d="M222.5 337.7l1 .7"/>
  <path d="M217.9 287.8l18.7 2.6"/>
  <path d="M326.8 223.2l4.9-1.3"/>
  <path d="M316.5 187.9l6.5-6.7"/>
  <path d="M162 171.1l13.6 18.1"/>
  <path d="M229.9 151.1l9.5 6.2"/>
  <path d="M178 100.3l2.2 5.1"/>
  <path d="M333.5 161.8l3.9-.6"/>
  <path d="M261.4 332.8l12.2-2"/>
  <path d="M216.8 326l4.5-5"/>
  <path d="M241.1 93.8l6.4-5.3"/>
  <path d="M205 168l5.1-6.8"/>
  <path d="M284.3 148.7l6.5-1.3"/>
  <path d="M213.5 122.4l5.6 5.3"/>
  <path d="M117.9 315.2l7.4-1.1"/>
  <path d="M137.6 309.9l.4 5.2"/>
  <path d="M262 349.8l2.4-1"/>
  <path d="M144.9 318.1l4.4 1.9"/>
  <path d="M266.8 310.1l2.5 5"/>
  <path d="M87.9 168.8l3.3-3"/>
  <path d="M316.8 299.7l3.5-5.4"/>
  <path d="M234.1 281.9l3.1 7.7"/>
  <path d="M251.6 284.1l3.9.8"/>
  <path d="M113.1 271.4l.1 1.1"/>
  <path d="M264.9 17.6l-16.1-3.4"/>
  <path d="M248.8 14.2l-11.1-1.5"/>
  <path d="M237.7 12.7L212 11.5"/>
  <path d="M212 11.5L182.9 14"/>
  <path d="M182.9 14L148 22.7"/>
  <path d="M148 22.7l-7.3 2.8"/>
  <path d="M140.7 25.5l-23.1 10.6"/>
  <path d="M262.1 105.8l.5-2.1"/>
  <path d="M117.6 36.1l-18.1 11"/>
  <path d="M99.5 47.1L86 57.1"/>
  <path d="M112.3 161.9h.1"/>
  <path d="M242 128.7l4-5.5"/>
  <path d="M346.2 189.7l1.7-.7"/>
  <path d="M179.9 142l.3.5"/>
  <path d="M202.6 119.9l3-3.7"/>
  <path d="M236.3 86.7l12.5-72.5"/>
  <path d="M336.2 231.5l.7 2.6"/>
  <path d="M294.7 143.2l6.6 6.3"/>
  <path d="M157.6 103.2l3.1-2.3"/>
  <path d="M239.6 91.7l.4 1.7"/>
  <path d="M131.5 206.7l11.3 8.8"/>
  <path d="M114.2 120.4l-47-46.1"/>
  <path d="M323.7 268.7h.8"/>
  <path d="M148.2 342.9l3.7-4.7"/>
  <path d="M190.4 180.1l4.5-6.3"/>
  <path d="M254.8 322.6l3.2 5.1"/>
  <path d="M140.4 292.2l5.3 7.1"/>
  <path d="M150.9 170.3l11.1.8"/>
  <path d="M323.4 149.6l.4 6.1"/>
  <path d="M102 150l1.8 6.7"/>
  <path d="M267.9 148.2l.1 1"/>
  <path d="M267.9 148.2l.7-7.4"/>
  <path d="M304.3 118.5l.2.3"/>
  <path d="M219.4 269.8l10.4-2.5"/>
  <path d="M104.3 225.4l5-2.7"/>
  <path d="M319 163.7l1.4-5.2"/>
  <path d="M140.5 127.1v-.9"/>
  <path d="M193.7 349l6.6.5"/>
  <path d="M194.6 114.3l7.2 5.8"/>
  <path d="M130.4 123.5l4.9-1.9"/>
  <path d="M171.5 345l5.2-4.1"/>
  <path d="M235.1 260.3l10 .4"/>
  <path d="M249.2 259.2l.2-.1"/>
  <path d="M136 195.3l1.9-13.2"/>
  <path d="M324.4 194l1.6 1.2"/>
  <path d="M177.7 96.1l3-1.8"/>
  <path d="M103.8 156.7h.1"/>
  <path d="M188.2 320.1l12.1-6.9"/>
  <path d="M331.7 221.9l.9-5.8"/>
  <path d="M283.6 148.9"/>
  <path d="M111.9 145.6l.2-12.3"/>
  <path d="M311.8 319l1.1-8.3"/>
  <path d="M173.3 298.4l1 11.6"/>
  <path d="M91.2 266.2l.1.3"/>
  <path d="M316.7 325.3l2.4-10.2"/>
  <path d="M101.3 286.4l10.3-.1"/>
  <path d="M111.9 267.8l7.2-2.5"/>
  <path d="M274.5 331.3l1.6 3.3"/>
  <path d="M301 325.5l3.4-4.6"/>
  <path d="M110.7 275.9l1.3 5.3"/>
  <path d="M297.3 325l4.6-9.7"/>
  <path d="M211.7 226.4l1.6 9.7"/>
  <path d="M327.3 170.5l11.9 4.5"/>
  <path d="M289.1 144l1.4-2.6"/>
  <path d="M320 142.7l1.8-2"/>
  <path d="M216.1 355.5l.6.5"/>
  <path d="M220.3 247.1l4.5-.9"/>
  <path d="M121.6 138l2.8.2"/>
  <path d="M132.5 324.8l.2 1.8"/>
  <path d="M118.6 161.5l.1 8"/>
  <path d="M290.9 243.2h3"/>
  <path d="M226.1 112.3l4-7.9"/>
  <path d="M192.1 98.5l.2-.3"/>
  <path d="M127.2 109.8l.5 5.5"/>
  <path d="M210.3 149.2l1.4 11.6"/>
  <path d="M172.9 123.5l.9-1.6"/>
  <path d="M106.7 237.3l3.7 8.8"/>
  <path d="M123.1 126.6h.1"/>
  <path d="M320.7 126.2l48.1-45.9"/>
  <path d="M97.9 264.3l1.2-.8"/>
  <path d="M260 335l1.4-2.2"/>
  <path d="M158.4 315.4l6.3 1"/>
  <path d="M100.5 288l1.2 3.2"/>
  <path d="M302.1 280.9l7.4 4.1"/>
  <path d="M232.1 281.1l2 .8"/>
  <path d="M167.7 297.4l3.7.2"/>
  <path d="M173.3 298.4l14.8-6.3"/>
  <path d="M281.7 215.1l2.8-4.2"/>
  <path d="M161.5 293.4l6.2 4"/>
  <path d="M180.2 142.5l.2-.1"/>
  <path d="M215.9 141.6l3.5-7.2"/>
  <path d="M183.3 16.6l-.4-2.6"/>
  <path d="M143.1 109.3l.8-3.1"/>
  <path d="M86.8 269.5l-63.5 22.1"/>
  <path d="M127.9 148.7l4.1-3.4"/>
  <path d="M325.3 300.8l53.7 35.6"/>
  <path d="M325.8 304.7l53.2 31.7"/>
  <path d="M335.1 135.4l49.8-34.6"/>
  <path d="M202.4 331.1l.7 16.4"/>
  <path d="M234.2 196.2l1.5 2.9"/>
  <path d="M236.5 96.3l1.1 4.6"/>
  <path d="M344.6 218l1.1 1.7"/>
  <path d="M180.1 119.8l2.6.4"/>
  <path d="M289.2 114.2l6.8 1"/>
  <path d="M178.5 166.2l3.4 14.7"/>
  <path d="M166.2 129.9l1.6-1.9"/>
  <path d="M152.5 338.9l.5 1.6"/>
  <path d="M91.8 320.7l9.3-14.7"/>
  <path d="M103.8 280.6l1.4-2.6"/>
  <path d="M315.6 278.8l1.3 5.8"/>
  <path d="M196.8 294.8l5.1-19.7"/>
  <path d="M310 324.6l3.9-1"/>
  <path d="M151.1 346.2l.5-2.5"/>
  <path d="M308.6 305.4l3.3 2.7"/>
  <path d="M312 297.5l1.2 6.7"/>
  <path d="M178.2 353.2l.2 8.9"/>
  <path d="M347.4 230.1l1.9 4.1"/>
  <path d="M306.6 231.2l2.3 1.7"/>
  <path d="M166.3 74.2l8.7 14.4"/>
  <path d="M323.3 208.6l5.8-6.3"/>
  <path d="M123.2 126.6l3.8.2"/>
  <path d="M208.1 89.4l9-.4"/>
  <path d="M149.9 165.4l8.7-7.6"/>
  <path d="M333.1 145.2l22.9-10.5"/>
  <path d="M187.8 345.9l.5.8"/>
  <path d="M107.7 263.7l10.1-8.2"/>
  <path d="M266.8 240.2l1.9 1.4"/>
  <path d="M313.8 197.4l3.8 3.3"/>
  <path d="M236.7 111.1l2.4 2.2"/>
  <path d="M50.4 167.8l1 .1"/>
  <path d="M176.8 127.7l5.9-7.5"/>
  <path d="M122.8 211.7l12.3 9.5"/>
  <path d="M121.2 158.6l7.2 7.1"/>
  <path d="M125.5 141.5l6.3-.2"/>
  <path d="M276.4 114.7l2.6-4"/>
  <path d="M180.4 142.4l22.7.9"/>
  <path d="M252 100.8l3.3-1.8"/>
  <path d="M103.9 165.1v-8.4"/>
  <path d="M347.9 215.2h7.3"/>
  <path d="M277.1 294l5 .1"/>
  <path d="M252.5 306.9l3.1-6.2"/>
  <path d="M251.6 321.2l7.4-5.4"/>
  <path d="M153 340.5l6.6 5.5"/>
  <path d="M164.3 344.4l3.4-.7"/>
  <path d="M170.9 277.2l.5 20.4"/>
  <path d="M104.9 172.3l3.2 5.6"/>
  <path d="M270.8 274.9l13.6-1.4"/>
  <path d="M94.6 199.4l4.2-3.9"/>
  <path d="M281.9 337.7l.2 1.8"/>
  <path d="M254.7 117.6l13.1 9.4"/>
  <path d="M259.4 99.8l3.2 3.9"/>
  <path d="M357.2 366.2l14.2-14.9"/>
  <path d="M299.1 181l8.5-11.4"/>
  <path d="M224.8 246.2l10.3 14.1"/>
  <path d="M272.6 253.9l1.4-2.5"/>
  <path d="M127.7 115.3l7.4 3.7"/>
  <path d="M91.8 320.7l-35 27.9"/>
  <path d="M294.1 124.7l2.3 2"/>
  <path d="M179.3 328.4l3.3-10.1"/>
  <path d="M122 253.3l.1-.4"/>
  <path d="M304.3 118.5l1.7-1.3"/>
  <path d="M184.3 89.4l2.7 1.3"/>
  <path d="M294.3 135.5l.4 7.7"/>
  <path d="M303.5 118.1l.8.4"/>
  <path d="M237.9 351.1l.5-14.2"/>
  <path d="M133.9 138l6.6-10.9"/>
  <path d="M247.7 151.7l3.9 1.1"/>
  <path d="M231.5 308.4l.1 1.2"/>
  <path d="M213.3 236.1l7 11"/>
  <path d="M252.3 118.8l2.1 5.9"/>
  <path d="M340.6 221.3l4-3.3"/>
  <path d="M273 216.3l8.7-1.2"/>
  <path d="M204.6 106l3.3.2"/>
  <path d="M111.9 145.6l1.2-.5"/>
  <path d="M140.4 292.2l.2-.5"/>
  <path d="M340.9 182.9l8-2.4"/>
  <path d="M301.6 314.3l.3 1"/>
  <path d="M132 299.3l.5 3.6"/>
  <path d="M317 248.2l.6-.1"/>
  <path d="M132.2 310.4l3 5.6"/>
  <path d="M286 289.4l3.9-4.9"/>
  <path d="M330.9 186l2.6 3.3"/>
  <path d="M148.1 343l.1-.1"/>
  <path d="M292 344.8l1.9 1.5"/>
  <path d="M119.1 265.3l9.5 2"/>
  <path d="M273.6 98.9l.8 2.1"/>
  <path d="M198.3 159.8l11.8 1.4"/>
  <path d="M156.5 104.4l2.4 11.7"/>
  <path d="M276.5 137.8l8.2-3"/>
  <path d="M192 100.8l7.8.8"/>
  <path d="M315.2 126.6v-3.3"/>
  <path d="M50.4 167.8l-32-10.6"/>
  <path d="M196.5 295.1l.3-.3"/>
  <path d="M365.6 231l54.3 6.9"/>
  <path d="M117.8 132.4l.8-.2"/>
  <path d="M328.1 285.7l.1-.3"/>
  <path d="M133 270.6l15.3.5"/>
  <path d="M264.4 348.8l1.1-2.1"/>
  <path d="M154.1 333.7l4.5-.1"/>
  <path d="M278 311.4l3.9 2.2"/>
  <path d="M110.7 275.9l2.5-3.4"/>
  <path d="M84.8 168.2l.7-2.6"/>
  <path d="M284.1 307l1.5-2.5"/>
  <path d="M139.6 152l2.2-4"/>
  <path d="M240.4 104.6l5.3 1.8"/>
  <path d="M289.1 144l2.5.1"/>
  <path d="M128.4 263.2l10.2-9.2"/>
  <path d="M219.1 127.7l2-.9"/>
  <path d="M117.2 288.1l8.8.8"/>
  <path d="M336.9 234.1l10.9 2.6"/>
  <path d="M222.1 167.9h13.6"/>
  <path d="M193 156.8l10.1-13.5"/>
  <path d="M317.9 134.7l3.8 2.1"/>
  <path d="M91.8 165.6L96 171"/>
  <path d="M128.4 165.7l1.9-.9"/>
  <path d="M178.5 120l1.6-.2"/>
  <path d="M191.2 361.6l6.6-1.1"/>
  <path d="M112.1 245.6l.4-.1"/>
  <path d="M405.8 294.9l11.3-38.1"/>
  <path d="M417.1 256.8l2.8-18.9"/>
  <path d="M419.9 237.9l1-27.6"/>
  <path d="M420.9 210.3l-2.4-25.1"/>
  <path d="M418.5 185.2l-1.8-9.5"/>
  <path d="M416.7 175.7l-8.1-28.7"/>
  <path d="M408.6 147l-.5-1.4"/>
  <path d="M408.1 145.6l-17.4-35.8"/>
  <path d="M95.7 318.5l9.2-4.6"/>
  <path d="M219.4 134.4l7.7 3.7"/>
  <path d="M122 121l.4-2.6"/>
  <path d="M193 156.8l5.3 3"/>
  <path d="M284.6 342.1l31 54.7"/>
  <path d="M218.7 331.9l3.8 5.8"/>
  <path d="M112.1 312.3l.3-2.1"/>
  <path d="M266.8 310.1l.8-3.4"/>
  <path d="M258.5 352.9l3.5-3.1"/>
  <path d="M307.8 324l2.2.6"/>
  <path d="M325.5 300l.5-1.9"/>
  <path d="M288.4 340.3l3.6-.5"/>
  <path d="M188.2 320.1l8 9.5"/>
  <path d="M320.3 309.5l2 4.9"/>
  <path d="M132 299.3l4.7-3.9"/>
  <path d="M260.3 337.6l.1.3"/>
  <path d="M301.3 149.5l.8.4"/>
  <path d="M110.7 127.9l4.4-1"/>
  <path d="M256.1 137.9l3.3 8.3"/>
  <path d="M129.8 134.1l.2-3.5"/>
  <path d="M242 128.7l8.5 5.5"/>
  <path d="M192.1 90.5l1 5.9"/>
  <path d="M203.1 347.5l4.3.6"/>
  <path d="M327.7 144.6l1.9 3"/>
  <path d="M348.9 180.5l18.3-13.7"/>
  <path d="M120 223.2l1.8-10.2"/>
  <path d="M295.3 324.3l2 .7"/>
  <path d="M182.6 318.3l5.6 1.8"/>
  <path d="M138.6 254l15.5-5.1"/>
  <path d="M306.4 123.3l3.9-4.2"/>
  <path d="M85.1 256.8l.2-1.5"/>
  <path d="M284.9 257.9l2.5 4"/>
  <path d="M162.7 341.7l1.6 2.7"/>
  <path d="M78.4 241.1l6.7-4.8"/>
  <path d="M218.1 184.9l16.1 11.3"/>
  <path d="M237.6 100.9l2.8 3.7"/>
  <path d="M118.6 161.5l2.6-2.9"/>
  <path d="M136.4 114.3l10.9 1.1"/>
  <path d="M202.4 331.1l6.1-4.4"/>
  <path d="M162 171.1l16.5-4.9"/>
  <path d="M290.8 147.4l10.5 2.1"/>
  <path d="M234.2 105.8l3.4-4.9"/>
  <path d="M85.1 236.3l8.6 4.7"/>
  <path d="M113.8 197.3l.2-3.1"/>
  <path d="M307.9 193.1l2.1-7.6"/>
  <path d="M150.9 337.4l.6.1"/>
  <path d="M284.3 336.9l4.1 3.4"/>
  <path d="M184.2 335.1l2.5 1.3"/>
  <path d="M297.3 194.2l.4-3.4"/>
  <path d="M172.5 333.8l2.8-.6"/>
  <path d="M276 248.2l8.9 9.7"/>
  <path d="M90 174.6l3-.7"/>
  <path d="M323.3 208.6l3.8 5.6"/>
  <path d="M266.8 270.5l.3 1.5"/>
  <path d="M85.1 236.3l2.2-9"/>
  <path d="M315.2 126.7l5.1-.2"/>
  <path d="M125.9 241.4l6.5-1.3"/>
  <path d="M112.9 211.7l8.9 1.3"/>
  <path d="M229.5 89.2l1.8-3.6"/>
  <path d="M130.6 224.8l13.1 17.7"/>
  <path d="M77.9 219.9l12.3-10.1"/>
  <path d="M332 318.9l39.4 32.4"/>
  <path d="M115 287.5l2.2.6"/>
  <path d="M123.7 279.2l.5-.7"/>
  <path d="M207.4 348.1l11.3-16.2"/>
  <path d="M316.6 299.8l.2-.1"/>
  <path d="M295.6 134.8l6 5.3"/>
  <path d="M208.1 89.4l6.1-39.8"/>
  <path d="M189 218.8l22.7 7.6"/>
  <path d="M332.9 201.8l4.9-11.1"/>
  <path d="M119.1 265.3l.6-10.5"/>
  <path d="M239 236.2l7.6 17.7"/>
  <path d="M176 237.9l2.8-2.4"/>
  <path d="M274.3 90.7l26.8-60.4"/>
  <path d="M113.1 145.1l3.8-.2"/>
  <path d="M126 288.9l.8-3.5"/>
  <path d="M321.2 259.8l10.3-5"/>
  <path d="M308.5 132.5l.8-.1"/>
  <path d="M336.9 98.1l12.4-13.6"/>
  <path d="M89 158.3l8 .2"/>
  <path d="M349 60.9l-14.4-11.3"/>
  <path d="M334.6 49.6l-12.8-8.4"/>
  <path d="M123 238.7l2.9 2.7"/>
  <path d="M325.3 220.7l1.5 2.5"/>
  <path d="M127.5 304.7l4-5.3"/>
  <path d="M116.7 134.9l.1-1.3"/>
  <path d="M321.8 41.2l-20.7-10.9"/>
  <path d="M301.1 30.3l-8-3.5"/>
  <path d="M283.3 106.9v-4.2"/>
  <path d="M293.1 26.8l-28.2-9.2"/>
  <path d="M167.5 324.1l13.9-7.4"/>
  <path d="M130.3 164.8l5.1-6.5"/>
  <path d="M148.7 146.2l.7-6.5"/>
  <path d="M118.7 296.7l1.4 7"/>
  <path d="M291.8 173.6l7.3 7.4"/>
  <path d="M316.2 308.4l4.1 1.1"/>
  <path d="M339.6 263.6l.8-.2"/>
  <path d="M258.9 315l.1.8"/>
  <path d="M234.4 353.5l3.5-2.4"/>
  <path d="M306 328.8l4-4.2"/>
  <path d="M313.9 323.6l2.8 1.7"/>
  <path d="M301 325.5l6.8-1.5"/>
  <path d="M104.3 225.4l12.7 4.3"/>
  <path d="M332.6 216.1l9.9-2.9"/>
  <path d="M136.5 330.3l3.3-.4"/>
  <path d="M106.5 137l5.6-3.7"/>
  <path d="M152.1 148.3l5.9-7.6"/>
  <path d="M300.8 119.3l.1 4.2"/>
  <path d="M149.6 327.2l3 .7"/>
  <path d="M199.9 212.1l14.2-10.3"/>
  <path d="M151.1 346.2l3.3 3.8"/>
  <path d="M108.2 237.1l2.3 1"/>
  <path d="M347.8 236.7l1.5-2.5"/>
  <path d="M119.8 332.4l2.5-11"/>
  <path d="M295.1 228.7l1.4 10.8"/>
  <path d="M126.4 190.9l5.9-9.5"/>
  <path d="M337.8 168.2l1.3-6.1"/>
  <path d="M234.7 106.3l1 4.2"/>
  <path d="M236.7 111.1l2.5-5.8"/>
  <path d="M82.2 374.3l8.6 6.9"/>
  <path d="M90.8 381.2l19.6 13.1"/>
  <path d="M116.9 144.9l3.8-6.5"/>
  <path d="M110.4 394.3l25.2 12.7"/>
  <path d="M221.1 126.8l1.9-8.9"/>
  <path d="M145.6 104.9l1.4-.4"/>
  <path d="M313.2 137.4l1.3-.5"/>
  <path d="M252.9 117.9l1.8-.3"/>
  <path d="M120.5 174.6l.4-.2"/>
  <path d="M98.8 195.5h.4"/>
  <path d="M179.3 255.8l8.4 15.8"/>
  <path d="M93.2 249.3l6.2 4.2"/>
  <path d="M317.7 201.4l11.4.9"/>
  <path d="M158.4 315.4l.9 10"/>
  <path d="M267.6 306.7l4.8-1"/>
  <path d="M253.4 256.1l20.6-4.7"/>
  <path d="M329 169.4l4.5-7.6"/>
  <path d="M201.5 97.2l2.3-3.6"/>
  <path d="M309.9 352.5l21.8 34.4"/>
  <path d="M279.2 350.9l25 51.9"/>
  <path d="M166.3 74.2l1.6 22.3"/>
  <path d="M230.2 138.2l.2-.2"/>
  <path d="M325.3 300.4l.2-.4"/>
  <path d="M127 126.8l3 3.8"/>
  <path d="M107.5 203.2l.8 10"/>
  <path d="M111.5 304.8l.9 5.4"/>
  <path d="M371.9 195.1l46.6-9.9"/>
  <path d="M72 241.4l3.5.4"/>
  <path d="M221.1 126.8l2.2.5"/>
  <path d="M323.7 308.3l5 8.3"/>
  <path d="M174.3 310l1.2 2.5"/>
  <path d="M176.6 131.9l.2-4.2"/>
  <path d="M208.9 144.6l7-3"/>
  <path d="M291.6 208.4l.9-11.7"/>
  <path d="M112.4 161.9l6.3 7.6"/>
  <path d="M239.1 161.1l21.2 6.3"/>
  <path d="M266.7 105.9l2.2-.1"/>
  <path d="M161.8 98.7l6.1-2.2"/>
  <path d="M266.6 155l1.4-5.8"/>
  <path d="M314.8 212.4l6.3 7.3"/>
  <path d="M161.2 205.9l6.7 13.1"/>
  <path d="M292.1 314.5l1.4.3"/>
  <path d="M299.1 299.5l.4-.4"/>
  <path d="M313.5 292l.5.3"/>
  <path d="M340.9 289.2l7.5 7.9"/>
  <path d="M97.9 264.3l7.3 13.7"/>
  <path d="M323 181.2l4 7.2"/>
  <path d="M162.7 330.4l.4-.5"/>
  <path d="M308.9 297.9l.6.3"/>
  <path d="M298.5 246l3.3-.9"/>
  <path d="M93 173.9l3.6 9.5"/>
  <path d="M270.2 345.4l3.1-6.3"/>
  <path d="M261.2 331.8l3.2-11.5"/>
  <path d="M136.1 114.6l.3-.3"/>
  <path d="M303 196.8l.3 4.1"/>
  <path d="M111 146l10.5 9.7"/>
  <path d="M163.2 131.6l3-1.7"/>
  <path d="M111.5 304.8l8.6-1.1"/>
  <path d="M213.5 122.4l1.2-5.6"/>
  <path d="M304.4 217.2l.5.4"/>
  <path d="M168.5 120.7l.5 6"/>
  <path d="M99.5 302.8l1.6 3.2"/>
  <path d="M184.2 138l4.4-12.4"/>
  <path d="M216.7 356l16.3.1"/>
  <path d="M178.8 235.5l1.5-5.6"/>
  <path d="M171.1 313.8l4.4-1.3"/>
  <path d="M262.1 294.3l2 .6"/>
  <path d="M301.6 140.1l2.5-8.7"/>
  <path d="M114.1 287.8l.9-.3"/>
  <path d="M92.9 288.3l5.1.3"/>
  <path d="M98.3 298.2l3.4-7"/>
  <path d="M259 315.8l3.8 4.3"/>
  <path d="M137.9 182.1l6.3-3.2"/>
  <path d="M260.3 337.6l13 1.5"/>
  <path d="M175.3 333.2l1.5 7.5"/>
  <path d="M282.8 323.6l3.5.4"/>
  <path d="M112.4 161.9l6.2-.4"/>
  <path d="M150.6 122l.6-1.4"/>
  <path d="M118.7 296.7l3.4-1.6"/>
  <path d="M103.3 120.2l5.5 11.2"/>
  <path d="M204.7 93.3l5.3 11.8"/>
  <path d="M160.9 130.5l2.3 1.1"/>
  <path d="M140.5 126.2l10.1-4.2"/>
  <path d="M342 211.8l.5 1.4"/>
  <path d="M119.5 332.7l.3-.3"/>
  <path d="M300.8 119.3l2.7-1.2"/>
  <path d="M111.8 319.2l-44.5 41.1"/>
  <path d="M136.5 305l.9-1.6"/>
  <path d="M305.3 124.6l1.1-1.1"/>
  <path d="M83.2 174l4.8 5.9"/>
  <path d="M166.1 218.8l1.8.2"/>
  <path d="M247.5 329.9l10.5-2.2"/>
  <path d="M229.9 151.1l.3-12.9"/>
  <path d="M301.9 272.3l2 5.9"/>
  <path d="M293.9 243.2l4.6 2.8"/>
  <path d="M323.4 149.6l3.1-5.4"/>
  <path d="M168.7 147.6l7.9 3.8"/>
  <path d="M285.2 122.2l1.8 1.8"/>
  <path d="M185.7 118.7l2.9 6.9"/>
  <path d="M276 160.4l2.6 8.7"/>
  <path d="M296.3 308.1l.9-7.2"/>
  <path d="M108.1 247.9l1.2 3.1"/>
  <path d="M314.8 212.4l1.4-2.9"/>
  <path d="M205.8 142.1l3.1 2.5"/>
  <path d="M51.4 167.9l31.8 6.1"/>
  <path d="M347.9 189l1.3-1.9"/>
  <path d="M301.8 245.1l15.2 3.1"/>
  <path d="M288.4 340.3l3.6 4.5"/>
  <path d="M237.9 351.1l7.8 1.3"/>
  <path d="M148 208.2l13.2-2.3"/>
  <path d="M154.4 350l5.2-4"/>
  <path d="M322.3 314.4l6.4 2.2"/>
  <path d="M161.9 363.7l1.7-13.8"/>
  <path d="M181.4 316.7l1.2 1.6"/>
  <path d="M121.1 188.8l9.9-8.1"/>
  <path d="M336.6 253.6l5.7 5.8"/>
  <path d="M176.7 340.9l.1-.2"/>
  <path d="M149.2 300.4l4.9 4.7"/>
  <path d="M104.9 313.9l1.6-9.3"/>
  <path d="M148.3 271.1l5.4-2.7"/>
  <path d="M211 176.6l1.2-15.2"/>
  <path d="M258 327.7l3.2 4.1"/>
  <path d="M305.8 184.1h3"/>
  <path d="M215.3 105l10.8 7.3"/>
  <path d="M136 308.7l.5-3.7"/>
  <path d="M211 176.6l6.4 8.2"/>
  <path d="M260 335l.3 2.6"/>
  <path d="M163.1 329.9l.2-1.5"/>
  <path d="M120.5 174.6l.6 14.2"/>
  <path d="M297.4 130.6l6.7.8"/>
  <path d="M344.4 257.7l61.4 37.2"/>
  <path d="M310.8 123.4l.9-.3"/>
  <path d="M243 119.1l4 1.5"/>
  <path d="M122 253.3l6.4 9.9"/>
  <path d="M306 217.3l8.8-4.9"/>
  <path d="M224 202.4l7-.3"/>
  <path d="M235.1 126.5l1.3-3.6"/>
  <path d="M191.4 101.8l4 9.5"/>
  <path d="M152.1 318.8l5.5-4.2"/>
  <path d="M100.7 301h7.9"/>
  <path d="M111.6 286.3l2.5 1.5"/>
  <path d="M123.5 117.8l3.2-.2"/>
  <path d="M290.9 243.2l1-14.9"/>
  <path d="M147.1 114.6l.2.8"/>
  <path d="M189 218.8l.5-2.9"/>
  <path d="M238.4 336.9l7.8-2.4"/>
  <path d="M274 312.1l4-.7"/>
  <path d="M252.8 344.7l7.6-6.8"/>
  <path d="M263.6 187.6l.2-4"/>
  <path d="M328.2 285.4l.6-.2"/>
  <path d="M224.4 314.5l7.2-4.9"/>
  <path d="M107.5 203.2l2.3-3.6"/>
  <path d="M171.4 297.6l1.9.8"/>
  <path d="M311.2 283.8l1.9 8"/>
  <path d="M111.9 267.8l1.2 3.6"/>
  <path d="M211.8 160.8l17.8-9.7"/>
  <path d="M230.1 104.4l.2-.1"/>
  <path d="M108.3 145.3l2.3.8"/>
  <path d="M264.4 136l4.2 4.8"/>
  <path d="M325.9 132.2l56.5-35"/>
  <path d="M356 134.7l34.7-24.9"/>
  <path d="M210 105.1l5 .1"/>
  <path d="M288.7 325.8l6.6-1.5"/>
  <path d="M302.2 196.1v-4.7"/>
  <path d="M229.1 81.5l2.2 4.1"/>
  <path d="M12.8 254.2l10.5 37.4"/>
  <path d="M23.3 291.6l9.1 20.1"/>
  <path d="M32.4 311.7l3.5 6.5"/>
  <path d="M35.9 318.2l7.4 12.1"/>
  <path d="M43.3 330.3l13.5 18.3"/>
  <path d="M56.8 348.6l10.5 11.7"/>
  <path d="M50.7 93.6l-7 9.9"/>
  <path d="M43.7 103.5l-9.1 15.1"/>
  <path d="M34.6 118.6l-5.1 10.1"/>
  <path d="M29.5 128.7l-11.1 28.5"/>
  <path d="M135.1 119l1-4.4"/>
  <path d="M225.1 115.8l1.1-1.8"/>
  <path d="M218.7 99.1l11.4 5.3"/>
  <path d="M304.2 143.9l1 4.1"/>
  <path d="M31.9 251.5l53.2 5.3"/>
  <path d="M237.8 165.4l1.3-4.3"/>
  <path d="M215 283.7l1.7 2"/>
  <path d="M173.7 118.8l.1 3.1"/>
  <path d="M127.5 304.7l5-1.8"/>
  <path d="M297.9 299.7l1.2-.2"/>
  <path d="M303.2 330.8l6.6 3.2"/>
  <path d="M135.2 316l2.8-.9"/>
  <path d="M144.9 318.1l2.3-7.2"/>
  <path d="M273.3 339.1l2.8-4.5"/>
  <path d="M131.5 299.4l.5-.1"/>
  <path d="M137 309.2l.6.7"/>
  <path d="M113.8 295.4l4.9 1.3"/>
  <path d="M131 180.7l1.3.7"/>
  <path d="M321.6 131.3l4.3.9"/>
  <path d="M154.5 97.7l3.1 5.5"/>
  <path d="M147 135.9l2.9 3"/>
  <path d="M151.4 95.4l.3 1"/>
  <path d="M136.8 73.5l10 24.5"/>
  <path d="M174.2 138.1l5.7 3.9"/>
  <path d="M126.8 120.5l.3-2.1"/>
  <path d="M316.1 236l8.2-4.4"/>
  <path d="M154.9 137.6l3.1 3.1"/>
  <path d="M208.6 133l9.8-3.7"/>
  <path d="M348.8 274.7l54.7 25.5"/>
  <path d="M277.2 134.5l8.9-1.6"/>
  <path d="M201.9 314l6.6 12.7"/>
  <path d="M175.5 312.5l5.9 4"/>
  <path d="M136 195.3l10.5 4.1"/>
  <path d="M273.1 122.3l4 8.2"/>
  <path d="M311 119.2l38.3-34.7"/>
  <path d="M329.5 152.4l.1-4.8"/>
  <path d="M306 117.2l1.7-.5"/>
  <path d="M177.1 97.5l.9 2.8"/>
  <path d="M247.1 355.2l11.4 63.2"/>
  <path d="M204.4 189.3l13-4.5"/>
  <path d="M122.4 118.4L72.5 69"/>
  <path d="M208.6 133v-9.9"/>
  <path d="M349.3 84.5l12-12.1"/>
  <path d="M290.5 141.4l1.7 1.6"/>
  <path d="M120.3 248.3l5.6-6.9"/>
  <path d="M266.4 240.2h.4"/>
  <path d="M143.5 322.7l.5-4.3"/>
  <path d="M141.3 330.2l3.7 7.1"/>
  <path d="M196.2 329.6l6.2 1.5"/>
  <path d="M151.6 343.7l1.4-3.2"/>
  <path d="M324.4 194l2.6-5.6"/>
  <path d="M108.1 177.9l12.4-3.3"/>
  <path d="M336.5 276.9l2.6.3"/>
  <path d="M315.8 208.1l.4 1.4"/>
  <path d="M257.6 98.9l1.8.9"/>
  <path d="M72 241.4l9.7-16.4"/>
  <path d="M322.6 157.2l10.9 4.6"/>
  <path d="M179.3 328.4l4.9 6.7"/>
  <path d="M244.3 315.3l3.9 5.2"/>
  <path d="M242.1 312.7l.3-.2"/>
  <path d="M234.1 281.9l2.7-7.4"/>
  <path d="M163 116.7l1 5.7"/>
  <path d="M163 116.7l.7-.2"/>
  <path d="M234.2 105.8l.5.5"/>
  <path d="M220 94.1l6.5-.4"/>
  <path d="M111 129.5l5.2.5"/>
  <path d="M201.9 275.1l12.7 2.4"/>
  <path d="M164 122.4l3.8 5.6"/>
  <path d="M214.5 116.3l.5-11.1"/>
  <path d="M320 142.7l3.4 6.9"/>
  <path d="M121.3 130.9l2 1.9"/>
  <path d="M110.6 146.1h.2"/>
  <path d="M91.8 320.7l3.9-2.2"/>
  <path d="M124.8 307.3l.8-1.4"/>
  <path d="M98.3 298.2l2.4 2.8"/>
  <path d="M324.5 268.7l12 8.2"/>
  <path d="M136.3 330.3h.2"/>
  <path d="M319.1 315.1l3.2-.7"/>
  <path d="M258.9 315l1-4.4"/>
  <path d="M296.3 308.1l2.7 4.4"/>
  <path d="M159.3 325.4l4 3"/>
  <path d="M140.8 311.8l6.4-.9"/>
  <path d="M156.2 104.4h.3"/>
  <path d="M304.1 100.9l1.9 16.3"/>
  <path d="M310.2 124.2l.3 7.1"/>
  <path d="M259.4 99.8l3.8-1.3"/>
  <path d="M126.9 109.4l10.2-1.4"/>
  <path d="M321.1 167.2l4 4"/>
  <path d="M205.6 116.2l2.3-10"/>
  <path d="M87.3 227.3l10.1-1"/>
  <path d="M204.2 177l6.8-.4"/>
  <path d="M125.3 314.1l.9 3.8"/>
  <path d="M169.9 112.3l.3-.4"/>
  <path d="M143.1 109.3l4 5.3"/>
  <path d="M154.5 95.8v1.9"/>
  <path d="M107.3 155.4l3.3-9.3"/>
  <path d="M301.6 140.1l2.6 3.8"/>
  <path d="M176.7 151.6l1.7 4.1"/>
  <path d="M109.9 215l8.8 7.6"/>
  <path d="M129.8 269.9l3.2.7"/>
  <path d="M106.7 237.3l1.5-.2"/>
  <path d="M237 334.9l.5 1.4"/>
  <path d="M149.3 320l2.8-1.2"/>
  <path d="M152.1 318.8l2.5 7.9"/>
  <path d="M145.4 329.9l5 7.2"/>
  <path d="M321.8 294.2l.1-4.6"/>
  <path d="M297.3 186.8l3.1-3.9"/>
  <path d="M131.5 206.7l3-10.5"/>
  <path d="M260.3 167.4l2.7 14.7"/>
  <path d="M321.7 136.8l.4 3.7"/>
  <path d="M184.2 138l15.8-5.6"/>
  <path d="M96.1 214.5l2 2.9"/>
  <path d="M230 124.2l1.2-4.6"/>
  <path d="M226.2 114l3.9 2.3"/>
  <path d="M113.7 231.3l3.3-1.6"/>
  <path d="M155.3 186l14.2 4.4"/>
  <path d="M175.6 189.2l1-.1"/>
  <path d="M214.2 49.6l3.1 38.8"/>
  <path d="M345.9 376.2l11.3-10"/>
  <path d="M251.2 135l3.2-10.3"/>
  <path d="M299.4 214.8l5 2.4"/>
  <path d="M122.8 211.7l1.8-4.4"/>
  <path d="M194.9 173.8l3.4-14"/>
  <path d="M200 132.4l5 4.5"/>
  <path d="M310.2 124.2l5 2.4"/>
  <path d="M198.6 78.8l.2.4"/>
  <path d="M301.6 314.3l11.2-4.1"/>
  <path d="M299.3 283.8l2.8-2.9"/>
  <path d="M91.2 165.8l.6-.2"/>
  <path d="M152.6 327.9l1.5 5.8"/>
  <path d="M347.5 242.7l.3-6"/>
  <path d="M124.2 278.5l9 2.2"/>
  <path d="M117.7 237.9l.5 8.8"/>
  <path d="M316.5 299.7l.1.1"/>
  <path d="M125.8 303.5l3.1-4.9"/>
  <path d="M111.8 155.3l.5-4.1"/>
  <path d="M272.2 103.9l6.8 6.8"/>
  <path d="M321.7 136.8l.1-.2"/>
  <path d="M142.6 217.2l.2-1.7"/>
  <path d="M306 121.3l.4 2"/>
  <path d="M92.9 288.3l-57 29.9"/>
  <path d="M336 231.1l4.6-9.8"/>
  <path d="M247.5 329.9l.7-9.4"/>
  <path d="M126.8 120.5l3.6 3"/>
  <path d="M107.3 155.4l2.6 1.6"/>
  <path d="M217.1 89l.2-.6"/>
  <path d="M124.4 138.2l1.1 3.3"/>
  <path d="M219.9 142.6l4.8 5.5"/>
  <path d="M84.8 168.2l3.1.6"/>
  <path d="M112.5 245.5l5.7 1.2"/>
  <path d="M176.6 189.1l5.3-8.2"/>
  <path d="M125.5 293.3l1-1.6"/>
  <path d="M154.1 248.9l1-3.1"/>
  <path d="M158.6 333.6l.6 4.9"/>
  <path d="M277.5 307.5l.5 3.9"/>
  <path d="M99.4 235.4l7.3 1.9"/>
  <path d="M172.9 123.5l3.9 4.2"/>
  <path d="M246 123.2l4.5 11"/>
  <path d="M136.5 351.1l-26.1 43.2"/>
  <path d="M151.4 95.4l3.1.4"/>
  <path d="M239 236.2l2.7-2.5"/>
  <path d="M121.8 213l1-1.3"/>
  <path d="M283.4 312.5l6.2 2.9"/>
  <path d="M91.3 266.5l6.6-2.2"/>
  <path d="M122 121l1 1.9"/>
  <path d="M95.7 152.7l-61.1-34.1"/>
  <path d="M104.3 133.8L50.7 93.6"/>
  <path d="M214.2 256.4l5.2 13.4"/>
  <path d="M108.8 131.4l2-.5"/>
  <path d="M236.6 290.4l.6-.8"/>
  <path d="M109.3 251l8.5 4.5"/>
  <path d="M186.8 240.8l8.3 23.8"/>
  <path d="M337.8 190.7l1.3-.7"/>
  <path d="M61.2 145l-31.7-16.3"/>
  <path d="M277.1 130.5l8.9 1.5"/>
  <path d="M129.8 134.1l4.1 3.9"/>
  <path d="M205.6 116.2l8.9.1"/>
  <path d="M347.9 189l15.4 5.8"/>
  <path d="M148.2 342.9l3.4.8"/>
  <path d="M307.7 253.4l9.3-5.2"/>
  <path d="M260.4 337.9l5.1 8.8"/>
  <path d="M156 308.9l1.6 5.7"/>
  <path d="M141.1 318l.6-.1"/>
  <path d="M136.5 351.1l2.5-7.3"/>
  <path d="M170.6 327.8l8.4.8"/>
  <path d="M106.4 345.4l9.7-23.9"/>
  <path d="M297.2 300.9l.7-1.2"/>
  <path d="M149.2 325.2l.4 2"/>
  <path d="M114.2 120.4l1.8 4"/>
  <path d="M304.5 118.8l1.5 2.5"/>
  <path d="M300.5 110.1l3 8"/>
  <path d="M152.1 148.3l.7 1.4"/>
  <path d="M207.9 106.2l2.1-1.1"/>
  <path d="M141.9 100.9l3.7 4"/>
  <path d="M248.7 200.4l24.3 15.9"/>
  <path d="M112.1 133.3l.1-.1"/>
  <path d="M150.6 122l1.7 3.7"/>
  <path d="M276 160.4l7.9-8.1"/>
  <path d="M182.2 278.6l5.5-7"/>
  <path d="M84.8 251.2l5.3-6.7"/>
  <path d="M217.3 88.4l7.1-3.9"/>
  <path d="M104.6 146l3.7-.7"/>
  <path d="M146.5 199.4l1.5 8.8"/>
  <path d="M196.1 181.9l8.3 7.4"/>
  <path d="M69 148.7l16.5 6.7"/>
  <path d="M307.2 294.7l6.3-2.7"/>
  <path d="M310.2 124.2l.6-.8"/>
  <path d="M305.9 289.5l7.2 2.3"/>
  <path d="M103 247.5l5.1.4"/>
  <path d="M112 281.2v.1"/>
  <path d="M247.1 355.2l6.8 2.5"/>
  <path d="M282.1 339.5l2.5 2.6"/>
  <path d="M276.3 306.9l1.2.6"/>
  <path d="M337.8 168.2l2.3 5.2"/>
  <path d="M123.7 279.2l3.1 6.2"/>
  <path d="M291.2 209l.4-.6"/>
  <path d="M112.3 161.9l.8-1.9"/>
  <path d="M214.1 201.8l9.9.6"/>
  <path d="M212.2 161.4l9.9 6.5"/>
  <path d="M136.7 295.4l.7 8"/>
  <path d="M254.7 117.6l1.5-.6"/>
  <path d="M302.1 149.9l1.5-.7"/>
  <path d="M98.9 231.4l.5 4"/>
  <path d="M297.3 194.2l4.9 1.9"/>
  <path d="M249.7 105.2l2.3-4.4"/>
  <path d="M257.6 98.9l35.5-72.1"/>
  <path d="M122.9 144.6l5 4.1"/>
  <path d="M310.3 119.1l.7.1"/>
  <path d="M284.4 273.5l5.2 8.3"/>
  <path d="M334.7 152.8l21.3-18.1"/>
  <path d="M136.8 73.5l-19.2-37.4"/>
  <path d="M219.3 221.9l1.9-4.9"/>
  <path d="M303 196.8l4.9-3.7"/>
  <path d="M139.7 140.6l.8 1.2"/>
  <path d="M184.2 86.7l1.1-5.4"/>
  <path d="M314.5 136.9l1.9-1.9"/>
  <path d="M242.2 137.7l7.6 2.8"/>
  <path d="M284.7 134.8l1.4-1.9"/>
  <path d="M207.4 348.1l3.1 1.2"/>
  <path d="M169.9 112.3l1.5 1.8"/>
  <path d="M284.9 257.9l15.1-5.6"/>
  <path d="M124.4 294.3l1.4 9.2"/>
  <path d="M286.7 189.2l5.8 7.5"/>
  <path d="M299.6 337.8l.7 1.8"/>
  <path d="M111.8 319.2l4.3 2.3"/>
  <path d="M269.3 315.1l4.7-3"/>
  <path d="M312 297.5l1.2-.6"/>
  <path d="M119.7 254.8l2.3-1.5"/>
  <path d="M302.2 328.8h3.8"/>
  <path d="M118.6 321.8l.9 10.9"/>
  <path d="M154.6 326.7l4.7-1.3"/>
  <path d="M106.6 156.4l2.6 6.3"/>
  <path d="M214.3 352.1l10.4-6.9"/>
  <path d="M149.9 138.9l5-1.3"/>
  <path d="M185.3 81.3l5.5 7"/>
  <path d="M97.5 226.1l6.8-.7"/>
  <path d="M122 174.2l6.4-8.5"/>
  <path d="M204.4 298.8l13.7-6.7"/>
  <path d="M90.2 209.8l5.9 4.7"/>
  <path d="M327 188.4l3.9-2.4"/>
  <path d="M156.5 104.4l1.1-1.2"/>
  <path d="M238.4 312.3l3.7.4"/>
  <path d="M327.7 144.6l1.6-1.4"/>
  <path d="M116.8 156.9l4 .3"/>
  <path d="M331.3 180.5l6.8-.9"/>
  <path d="M198.7 127.4l3.1-7.3"/>
  <path d="M89.7 301.8l8.6-3.6"/>
  <path d="M106.4 263.3l2.9-12.3"/>
  <path d="M110.7 127.9l.3 1.6"/>
  <path d="M195.3 268.9v-.1"/>
  <path d="M307.9 193.1l2.1 2.7"/>
  <path d="M170.9 331.9l1.6 1.9"/>
  <path d="M166.6 326.1l.9-2"/>
  <path d="M251.6 321.2l3.2 1.4"/>
  <path d="M96.6 154"/>
  <path d="M283.9 152.3l10.7 7.7"/>
  <path d="M282.1 143.7l.1.2"/>
  <path d="M168.1 128l.9-1.3"/>
  <path d="M235.9 129.1l3.2.8"/>
  <path d="M141.8 148l6.9-1.8"/>
  <path d="M214.2 256.4l.2-2.9"/>
  <path d="M325.3 304.2l.5.5"/>
  <path d="M109 298.8l4.8-3.4"/>
  <path d="M135.1 120.7l.2.9"/>
  <path d="M384.2 252.9l32.9 3.9"/>
  <path d="M288.1 110.6l1.1 3.6"/>
  <path d="M126.5 291.7l10.5 2.8"/>
  <path d="M304.2 227.2l2.4 4"/>
  <path d="M308.6 305.4l.9-7.2"/>
  <path d="M104.9 172.3l.2-5.8"/>
  <path d="M139.1 157l.5-5"/>
  <path d="M316.5 187.9l1 1.7"/>
  <path d="M231.5 308.4l5.1-18"/>
  <path d="M330.3 201.4l2.6.4"/>
  <path d="M190.8 88.3l.6 1.8"/>
  <path d="M61.2 145l7.8 3.7"/>
  <path d="M134 322.9l7.1-4.9"/>
  <path d="M150.9 169.8l27.2-11.3"/>
  <path d="M85.2 305.3l4.5-3.5"/>
  <path d="M255.5 284.9l11.6-12.9"/>
  <path d="M304.2 227.2l.7-9.6"/>
  <path d="M304.4 317.7l7.4 1.3"/>
  <path d="M128.9 298.6l2.6.8"/>
  <path d="M93 173.9l3-2.9"/>
  <path d="M132.3 181.4l5.6.7"/>
  <path d="M94.1 184.8l2.5-1.4"/>
  <path d="M253.9 357.7l4.4-2.1"/>
  <path d="M132.2 310.4l3.8-1.7"/>
  <path d="M316.6 299.8l1.5 5.7"/>
  <path d="M325 302l.3 2.2"/>
  <path d="M313.2 296.9l1.2-3.7"/>
  <path d="M329 169.4l8.8-1.2"/>
  <path d="M292.6 333.3l6.1-3.6"/>
  <path d="M293.5 314.8l1.8 9.5"/>
  <path d="M81.7 225l5.6 2.3"/>
  <path d="M329.5 152.4l5.2.4"/>
  <path d="M335.7 204.1l8.1-6.6"/>
  <path d="M127.8 152.9l7.6 5.4"/>
  <path d="M317.9 134.7l.4-3.4"/>
  <path d="M230.1 116.3l4.6.2"/>
  <path d="M176 237.9l3.3 17.9"/>
  <path d="M274.4 101l8.9 1.7"/>
  <path d="M145.4 329.9l4.2-2.7"/>
  <path d="M194.6 331.1l1.6-1.5"/>
  <path d="M192.9 295.5l1.8.2"/>
  <path d="M249.2 259.2l13.9 8.2"/>
  <path d="M124.8 252l10.3-10.5"/>
  <path d="M275.1 120.4l1.3-5.7"/>
  <path d="M268.9 105.8l7.5 8.9"/>
  <path d="M313.6 177.5l7.5-10.3"/>
  <path d="M223 117.9l2.1-2.1"/>
  <path d="M291.1 170.2l.7 3.4"/>
  <path d="M219.2 295.7l12.3 12.7"/>
  <path d="M183.3 16.6l15.3 62.2"/>
  <path d="M247.3 273.2l15.8-5.8"/>
  <path d="M133.9 138l.1.3"/>
  <path d="M270.1 415.6l10-3.1"/>
  <path d="M280.1 412.5l11.6-4.2"/>
  <path d="M291.7 408.3l12.5-5.5"/>
  <path d="M304.2 402.8l11.4-6"/>
  <path d="M204.4 298.8l5.3 3.8"/>
  <path d="M315.6 396.8l10.9-6.5"/>
  <path d="M326.5 390.3l5.2-3.4"/>
  <path d="M331.7 386.9l14.2-10.7"/>
  <path d="M314.4 293l6-4.2"/>
  <path d="M249.4 259.1l23.2-5.2"/>
  <path d="M264.1 294.9l3.5 11.8"/>
  <path d="M279.2 350.9l2.9-11.4"/>
  <path d="M281.9 337.7l2.4-.8"/>
  <path d="M261.2 331.8l.2 1"/>
  <path d="M143.5 322.7l5.7 2.5"/>
  <path d="M274 312.1l2.3-5.2"/>
  <path d="M159.8 307.5l3.1-1.5"/>
  <path d="M110.4 246.1l1.7-.5"/>
  <path d="M113.1 160l3.7-3.1"/>
  <path d="M277.1 130.5l.1 4"/>
  <path d="M219.3 221.9l17 15"/>
  <path d="M320.3 126.5l.4-.3"/>
  <path d="M241.7 233.7l24.7 6.5"/>
  <path d="M282.7 219.5l6.5 7.5"/>
  <path d="M379 336.4l2.7 1.7"/>
  <path d="M167.7 343.7l1.1-7.3"/>
  <path d="M139.8 329.9l1.5.3"/>
  <path d="M340.4 263.4l8.4 11.3"/>
  <path d="M242.4 312.5l5-16.1"/>
  <path d="M99.4 253.5l3.6-6"/>
  <path d="M113.8 197.3l3.8 3.2"/>
  <path d="M307.4 168.2l.2 1.4"/>
  <path d="M195.4 111.3l9.2-5.3"/>
  <path d="M117.2 229.7l4.1-3.8"/>
  <path d="M282.2 143.9l7.4-5"/>
  <path d="M304.9 217.6l1.1-.3"/>
  <path d="M313.6 177.5l10.7 1"/>
  <path d="M296.5 239.5l10.1-8.3"/>
  <path d="M305.9 289.3l3.6-4.3"/>
  <path d="M89.4 282.9l7.1-3.5"/>
  <path d="M87.9 168.8v3.6"/>
  <path d="M293 263.6l7.4-.1"/>
  <path d="M298.7 329.7l.9 8.1"/>
  <path d="M252.5 306.9l7.4 3.7"/>
  <path d="M101.7 291.2l7.3 7.6"/>
  <path d="M186.8 240.8l4.3 1.5"/>
  <path d="M339.2 175l.9-1.6"/>
  <path d="M132.5 302.9l4 2.1"/>
  <path d="M325.3 300.8v-.4"/>
  <path d="M118.7 169.5l2.2 4.9"/>
  <path d="M284.4 273.5l1.5-7"/>
  <path d="M125.6 305.9l.2-2.4"/>
  <path d="M320.7 126.2l.9 5.1"/>
  <path d="M323.7 308.3l1.6-4.1"/>
  <path d="M89.4 282.9l3.5 5.4"/>
  <path d="M147.2 310.9l.8-.9"/>
  <path d="M282.1 143.7l2.6-8.9"/>
  <path d="M197.8 360.5l2.8-4.6"/>
  <path d="M224.4 84.5l5.1 4.7"/>
  <path d="M244.3 315.3l14.6-.3"/>
  <path d="M167.7 276.1l11.6-20.3"/>
  <path d="M122.4 295l2-.7"/>
  <path d="M318 247.2l14.1-2.9"/>
  <path d="M109.8 199.6l4-2.3"/>
  <path d="M241.1 93.8l10.9 7"/>
  <path d="M283.3 102.7l38.5-61.5"/>
  <path d="M124.8 107.2L86 57.1"/>
  <path d="M178.1 158.5l.3-2.8"/>
  <path d="M187 90.7l2 5.5"/>
  <path d="M291.6 208.4l11.7-7.5"/>
  <path d="M307.6 169.6l2.7 9.3"/>
  <path d="M75.5 241.8l9.3 9.4"/>
  <path d="M330.9 186l.4-5.5"/>
  <path d="M248.2 320.5l3.4.7"/>
  <path d="M88.8 282.6l.6.3"/>
  <path d="M269.7 293.2l2.2-15.6"/>
  <path d="M84.5 199.3l3.2 2.4"/>
  <path d="M195.3 268.8l6.7-3.8"/>
  <path d="M113.2 272.5l7.4 6.5"/>
  <path d="M145 337.3l5.4-.2"/>
  <path d="M149.2 300.4l2.9-7.5"/>
  <path d="M132 145.3l7.6 6.7"/>
  <path d="M140.5 141.8l8.9-2.1"/>
  <path d="M251.2 135l.8 3.2"/>
  <path d="M262.8 320.1l1.6.2"/>
  <path d="M239.4 89.9l10-13.7"/>
  <path d="M266.2 268.1l6.4-14.2"/>
  <path d="M78.4 241.1l11.7 3.4"/>
  <path d="M120.8 157.2l.4 1.4"/>
  <path d="M118.6 132.2l2.8 4.9"/>
  <path d="M116.9 144.9l2.5.6"/>
  <path d="M320.7 132.2l.9-.9"/>
  <path d="M178.1 158.5l.4 7.7"/>
  <path d="M334.3 243.3l2.2 1.3"/>
  <path d="M324.3 231.6l10 10.5"/>
  <path d="M284.5 210.9l6.7-1.9"/>
  <path d="M87.7 201.7l6.9-2.3"/>
  <path d="M315.4 235.4l1.5-11.5"/>
  <path d="M305.2 291.7l2 3"/>
  <path d="M152.1 292.9l7.4 1.8"/>
  <path d="M150.3 290.7l7.8-17.8"/>
  <path d="M286 132l1-8"/>
  <path d="M135.3 121.6l4.3 4.2"/>
  <path d="M116 124.4l7.1 2.2"/>
  <path d="M239.1 129.9l3.1 7.8"/>
  <path d="M161.9 363.7l-15.8 47.4"/>
  <path d="M119.8 201.6l4.8 5.7"/>
  <path d="M124.8 307.3l1.6 3.7"/>
  <path d="M107.1 303.2l1.6-1.6"/>
  <path d="M330.9 294.4l.9.1"/>
  <path d="M291.9 337.2l.1 2.6"/>
  <path d="M297.3 325l1.9 1.7"/>
  <path d="M101.1 306l6-2.8"/>
  <path d="M252.8 344.7l9.2 5.1"/>
  <path d="M289.8 306.2l6.5 1.9"/>
  <path d="M86.8 269.5l2 13.1"/>
  <path d="M338.5 285.1l2.4 4.1"/>
  <path d="M314.1 130.8l2.3 4.2"/>
  <path d="M135.6 407l10.5 4.1"/>
  <path d="M146.1 411.1l13.8 4.3"/>
  <path d="M159.9 415.4l17 4"/>
  <path d="M176.9 419.4l13.4 2.1"/>
  <path d="M190.3 421.5l23 1.5"/>
  <path d="M213.3 423l12.8-.3"/>
  <path d="M226.1 422.7l7.1-.5"/>
  <path d="M136.8 73.5l14.6 21.9"/>
  <path d="M233.2 422.2l25.3-3.8"/>
  <path d="M258.5 418.4l11.6-2.8"/>
  <path d="M133.2 280.7l.7 3.6"/>
  <path d="M161.2 205.9l8.3-15.5"/>
  <path d="M288.8 333.7l.2.1"/>
  <path d="M162.9 306l4.8-8.6"/>
  <path d="M120.6 279l.5.2"/>
  <path d="M367.2 166.8l41.4-19.8"/>
  <path d="M248 351l3.6-5.9"/>
  <path d="M105.1 166.5l4.1-3.8"/>
  <path d="M176.7 340.9l11.1 5"/>
  <path d="M226.1 112.3v.1"/>
  <path d="M306 328.8l3.8 5.2"/>
  <path d="M198.9 93.1l4.9.5"/>
  <path d="M247 120.6l5.3-1.8"/>
  <path d="M214.7 116.8l8.3 1.1"/>
  <path d="M144.6 100.7l2.4 3.8"/>
  <path d="M174.4 350.1l3.8 3.1"/>
  <path d="M86 186.9l1.9-1.3"/>
  <path d="M315.4 235.4l.7.6"/>
  <path d="M299.3 283.8l6.6 5.5"/>
  <path d="M133 270.6l.2 10.1"/>
  <path d="M336.2 231.5l11.2-1.4"/>
  <path d="M98 288.6l2.5-.6"/>
  <path d="M135.1 241.5l8.6 1"/>
  <path d="M294.6 166.1l12.8 2.1"/>
  <path d="M322.6 157.2l1.2-1.5"/>
  <path d="M104.9 313.9l7.2-1.6"/>
  <path d="M188.6 125.6l10.1 1.8"/>
  <path d="M176.6 151.4l.1.2"/>
  <path d="M295.1 228.7l9.1-1.5"/>
  <path d="M103.9 156.7l2.7-.3"/>
  <path d="M294.3 135.5l1.3-.7"/>
  <path d="M88.8 282.6l-56.4 29.1"/>
  <path d="M303.2 330.8l6.7 21.7"/>
  <path d="M90.1 244.5l1.3-.4"/>
  <path d="M247.7 151.7l2.1-11.2"/>
  <path d="M229.4 124.3l.6-.1"/>
  <path d="M214.6 277.5l1.6-2.6"/>
  <path d="M236.3 86.7l3.1 3.2"/>
  <path d="M119.4 145.5l3.5-.9"/>
  <path d="M273.5 121.4l1.6-1"/>
  <path d="M319 163.7l2.1 3.5"/>
  <path d="M265.3 130.7l2.5-3.7"/>
  <path d="M258.3 355.6l.2-2.7"/>
  <path d="M270.2 345.4l9 5.5"/>
  <path d="M324.5 268.7l15.1-5.1"/>
  <path d="M279.8 318l2.1-4.4"/>
  <path d="M154.1 305.1l.6 2.7"/>
  <path d="M88 179.9l2-5.3"/>
  <path d="M159.8 307.5l11.3 6.3"/>
  <path d="M311.9 308.1l1 1.6"/>
  <path d="M328.8 285.2l12.1 4"/>
  <path d="M292.5 284.7l6.8-.9"/>
  <path d="M303.6 149.2l6.2 17.3"/>
  <path d="M192 100.8l.1-2.3"/>
  <path d="M203.9 194.9l10.2 6.9"/>
  <path d="M278.6 169.1l12.5 1.1"/>
  <path d="M241.7 233.7l4.1-22.1"/>
  <path d="M139.7 140.6l4.1-5.7"/>
  <path d="M160.7 100.9l1.1-2.2"/>
  <path d="M286 132l.2.8"/>
  <path d="M245.7 352.4l1.4 2.8"/>
  <path d="M309.5 202.9l4.3-5.5"/>
  <path d="M329.6 147.6l3.5-2.4"/>
  <path d="M191.2 361.6l-14.3 57.8"/>
  <path d="M205 136.9l3.6-3.9"/>
  <path d="M299.2 326.7l1.8-1.2"/>
  <path d="M103.9 165.1l1.2 1.4"/>
  <path d="M158.6 157.8l18.1-6.2"/>
  <path d="M286.1 132.9l.1-.1"/>
  <path d="M347.9 215.2l8.5-11.6"/>
  <path d="M208.9 144.6l1.4 4.6"/>
  <path d="M216.7 285.7l15.4-4.6"/>
  <path d="M103.3 120.2L64.5 77.1"/>
  <path d="M216.7 356l9.4 66.7"/>
  <path d="M321.2 261.6v-1.8"/>
  <path d="M145.4 341.6l2.7 1.4"/>
  <path d="M149.2 325.2l.1-5.2"/>
  <path d="M169.5 190.4l6.1-1.2"/>
  <path d="M321.2 261.6l2.5 7.1"/>
  <path d="M153.7 268.4l.4-19.5"/>
  <path d="M148.6 178l2.3-7.7"/>
  <path d="M130.3 164.8l13.9 14.1"/>
  <path d="M149.4 139.7l.5-.8"/>
  <path d="M168.7 96.8l.3 6.8"/>
  <path d="M110.8 130.9l.2-1.4"/>
  <path d="M310.8 123.4l.2-4.2"/>
  <path d="M315.2 123.3l21.7-25.2"/>
  <path d="M110.5 238.1l1.6 7.5"/>
  <path d="M196.1 181.9l8.1-4.9"/>
  <path d="M146.5 161.2l6.3-11.5"/>
  <path d="M127 126.8l3.4-3.3"/>
  <path d="M236.4 122.9l6.6-3.8"/>
  <path d="M237.5 336.3l.9.6"/>
  <path d="M98.9 231.4l14.8-.1"/>
  <path d="M239.4 157.3l1-.9"/>
  <path d="M232.5 97.1l4-.8"/>
  <path d="M247.5 88.5L254 95"/>
  <path d="M256.2 117l5.9-11.2"/>
  <path d="M103.3 120.2l7.4 7.7"/>
  <path d="M215.9 141.6l4 1"/>
  <path d="M146.8 98l4 5.1"/>
  <path d="M230.4 138l.5-3.5"/>
  <path d="M85.5 155.4l11.1-1.4"/>
  <path d="M276.1 334.6l5.8 3.1"/>
  <path d="M119.8 332.4l12.9-5.8"/>
  <path d="M89.7 301.8l8.3-13.2"/>
  <path d="M117.6 200.5l2.2 1.1"/>
  <path d="M312.9 309.7l3.3-1.3"/>
  <path d="M84.5 199.3l1.5-12.4"/>
  <path d="M293.5 314.8l5.5-2.3"/>
  <path d="M307.2 294.7l1.7 3.2"/>
  <path d="M314.4 293.2l5.9 1.1"/>
  <path d="M137 309.2l6.7-2.4"/>
  <path d="M324.3 231.6l2.5-2.7"/>
  <path d="M201.9 314l10.5-5.8"/>
  <path d="M200.3 349.5l2.8-2"/>
  <path d="M306 121.3l3.1-2.5"/>
  <path d="M147 135.9l5.3-10.2"/>
  <path d="M267.8 127l5.3-4.7"/>
  <path d="M139.1 157l7.4 4.2"/>
  <path d="M124.4 138.2l1.2-3.4"/>
  <path d="M284.3 148.7l4.8-4.7"/>
  <path d="M42.6 207.4l35.3 12.5"/>
  <path d="M181.4 316.5l11.5-21"/>
  <path d="M307.7 253.4l1.1 8.6"/>
  <path d="M290.9 227.6l1 .7"/>
  <path d="M102.3 204.4l5.2-1.2"/>
  <path d="M310 185.5l6.5 2.4"/>
  <path d="M235.7 167.9l2.1-2.5"/>
  <path d="M309.3 132.4l1.2-1.1"/>
  <path d="M126.7 117.6l.4.8"/>
  <path d="M304.1 100.9l30.5-51.3"/>
  <path d="M296.4 126.7l1 3.9"/>
  <path d="M166.3 74.2L148 22.7"/>
  <path d="M194.9 173.8L205 168"/>
  <path d="M51.4 167.9l33.4.3"/>
  <path d="M259.4 146.2l8.5 2"/>
  <path d="M246.6 253.9l19.8-13.7"/>
  <path d="M297.3 186.8l.4 4"/>
  <path d="M83.2 174l4.7-1.6"/>
  <path d="M200.3 349.5l.3 6.4"/>
  <path d="M284.3 336.9l4.5-3.2"/>
  <path d="M320.4 288.8l1.5.8"/>
  <path d="M282.9 293.9l2.7 10.6"/>
  <path d="M302.2 191.4l3.6-7.3"/>
  <path d="M111.6 286.3l.4-5"/>
  <path d="M109.7 162.4l.2-5.4"/>
  <path d="M293.9 346.3l32.6 44"/>
  <path d="M310.9 147l2.3-9.6"/>
  <path d="M251.4 72.2L254 95"/>
  <path d="M168.5 120.7l3.9 2.7"/>
  <path d="M126.7 117.6l1-2.3"/>
  <path d="M337.4 207.1l4.6 4.7"/>
  <path d="M245.8 211.6l19.6 15.3"/>
  <path d="M224.4 84.5l4.7-3"/>
  <path d="M93.5 140.7l-49.8-37.2"/>
  <path d="M229.8 267.3l5.3-7"/>
  <path d="M344.7 245.4l1.8 9.2"/>
  <path d="M313.7 197.3l.1.1"/>
  <path d="M248.7 200.4l14.9-12.8"/>
  <path d="M226.1 112.4l9.6-1.9"/>
  <path d="M154.4 350l-18.8 57"/>
  <path d="M316.9 223.9l4.2-4.2"/>
  <path d="M342 211.8l5.9-8.6"/>
  <path d="M95.7 152.7l.9 1.3"/>
  <path d="M180.4 142.4l3.8-4.4"/>
  <path d="M254 95l1.3 4"/>
  <path d="M96.6 183.4l10.4-2.9"/>
  <path d="M303.9 278.2l11.2.8"/>
  <path d="M308.8 184.1l1.2 1.4"/>
  <path d="M169.4 353.7l5-3.6"/>
  <path d="M136.5 351.1l11.7-5.1"/>
  <path d="M113.8 295.4l.3-7.6"/>
  <path d="M115 287.5l6.1-8.3"/>
  <path d="M137.6 309.9l3.2 1.9"/>
  <path d="M269.3 315.1l.3 2.2"/>
  <path d="M77.9 219.9l3.8 5.1"/>
  <path d="M291.2 209l8.2 5.8"/>
  <path d="M211.7 160.8h.1"/>
  <path d="M115.1 126.9l.9-2.5"/>
  <path d="M250.5 134.2l.7.8"/>
  <path d="M249.4 76.2l2-4"/>
  <path d="M110.8 146.1l.2-.1"/>
  <path d="M301.8 245.1l7.1-12.2"/>
  <path d="M230.3 104.3l2.2-7.2"/>
  <path d="M208.6 123.1l4.9-.7"/>
  <path d="M311.7 123.1l3.5.2"/>
  <path d="M327.1 214.2l.2 1.8"/>
  <path d="M327.1 214.2l10.3-7.1"/>
  <path d="M130.6 224.8l4.5-3.6"/>
  <path d="M134 138.3l5.7 2.3"/>
  <path d="M135.4 158.3l3.7-1.3"/>
  <path d="M67.3 360.3l14.9 14"/>
  <path d="M292.2 143l2.5.2"/>
  <path d="M121.4 137.1l.2.9"/>
  <path d="M167.8 106.8l2.4 5.1"/>
  <path d="M99.1 263.5l7.3-.2"/>
  <path d="M189.1 357.9l2.1 3.7"/>
  <path d="M163.6 349.9l5.8 3.8"/>
  <path d="M195.1 264.6l.2 4.2"/>
  <path d="M260.3 167.4l1.7-9.9"/>
  <path d="M276.5 137.8l.7-3.3"/>
  <path d="M150.8 103.1l5.4 1.3"/>
  <path d="M175 88.6l2.7 7.5"/>
  <path d="M258.3 355.6l21.8 56.9"/>
  <path d="M318.1 130.9l.2.4"/>
  <path d="M97.5 226.1l.6-8.7"/>
  <path d="M154.3 150.2l14.4-2.6"/>
  <path d="M196.8 294.8l18.2-11.1"/>
  <path d="M188.9 211.5l15-16.6"/>
  <path d="M42.6 207.4l-32.8-2.2"/>
  <path d="M104.3 133.8l4.5-2.4"/>
  <path d="M325.3 220.7l2-4.7"/>
  <path d="M268.6 140.8l7-1.3"/>
  <path d="M219.1 271l13 10.1"/>
  <path d="M91.2 266.2l1.3-16.1"/>
  <path d="M239.1 161.1l.3-3.8"/>
  <path d="M316.4 135l1.5-.3"/>
  <path d="M287 124l7.1.7"/>
  <path d="M116.7 134.9l4 3.5"/>
  <path d="M217.1 89l2.9 5.1"/>
  <path d="M252.3 118.8l.6-.9"/>
  <path d="M254.4 124.7l10.9 6"/>
  <path d="M275.1 120.4l10.1 1.8"/>
  <path d="M139.8 329.9l3.7-7.2"/>
  <path d="M312.8 310.2l.1-.5"/>
  <path d="M307.8 298.2l1.1-.3"/>
  <path d="M159.2 338.5l3.5 3.2"/>
  <path d="M301.9 315.3l2.5 2.4"/>
  <path d="M332.9 201.8l2.8 2.3"/>
  <path d="M87.9 185.6l6.2-.8"/>
  <path d="M116.1 321.5l.6-.3"/>
  <path d="M126.8 285.4l7.1-1.1"/>
  <path d="M331.5 254.8l.1-.1"/>
  <path d="M154.3 150.2l4.3 7.6"/>
  <path d="M167.9 96.5l.8.3"/>
  <path d="M200.6 355.9l6.1 8.1"/>
  <path d="M202.6 119.9l6 3.2"/>
  <path d="M180.7 94.3l3.6-4.9"/>
  <path d="M166.2 129.9l8 8.2"/>
  <path d="M150.9 170.3v-.5"/>
  <path d="M121 189.6l.1-.8"/>
  <path d="M339.1 190l2-2.3"/>
  <path d="M244.6 202.2l4.1-1.8"/>
  <path d="M194.7 295.7l1.8-.6"/>
  <path d="M275.7 247.6l.3.5"/>
  <path d="M98.2 238.3l1.2-2.9"/>
  <path d="M265.4 226.9l7.6-10.6"/>
  <path d="M198.8 79.2l8.3 10.3"/>
  <path d="M163.6 328.3l3-2.2"/>
  <path d="M356.4 203.6l15.5-8.5"/>
  <path d="M187.7 271.6l7.6-2.7"/>
  <path d="M292.5 284.7l9 9.6"/>
  <path d="M167.7 276.1l3.2 1.1"/>
  <path d="M161.9 363.7l7.5-10"/>
  <path d="M188.3 346.7l3.5 1.3"/>
  <path d="M259.9 310.6l6.9-.5"/>
  <path d="M242.4 312.5l10.1-5.6"/>
  <path d="M333.8 282.8l4.7 2.3"/>
  <path d="M158.1 272.9l3.9 2.4"/>
  <path d="M86.3 165l2.8-.2"/>
  <path d="M318.1 130.9l2.2-4.4"/>
  <path d="M263 182.1l.8 1.5"/>
  <path d="M282.9 293.9l2.3-2.3"/>
  <path d="M247.5 88.5l1.9-12.3"/>
  <path d="M345.7 219.7l1.7 10.4"/>
  <path d="M147.1 114.6l.8-2.7"/>
  <path d="M311.7 123.1l25.2-25"/>
  <path d="M251.4 72.2l13.5-54.6"/>
  <path d="M125.6 305.9l1.9-1.2"/>
  <path d="M256.2 117l6.5-1.1"/>
  <path d="M178.4 362.1l-18.5 53.3"/>
  <path d="M327.3 216l5.3.1"/>
  <path d="M167.9 219l12.4 10.9"/>
  <path d="M296.6 118.2l4.2 1.1"/>
  <path d="M137.1 108l.7 1.8"/>
  <path d="M208.8 212l15.2-9.6"/>
  <path d="M291.9 337.2l8.4 2.4"/>
  <path d="M328.1 285.7l2.8 8.7"/>
  <path d="M162 275.3l5.7.8"/>
  <path d="M122 174.2l9 6.5"/>
  <path d="M139 343.8l2.7-1.6"/>
  <path d="M316.8 299.7l8.5.7"/>
  <path d="M325.5 300l6.7 2.4"/>
  <path d="M347.9 203.2l8.5.4"/>
  <path d="M113 313.5l4.9 1.7"/>
  <path d="M281.9 313.6l1.5-1.1"/>
  <path d="M357.4 225.9l8.2 5.1"/>
  <path d="M251.6 345.1l1.2-.4"/>
  <path d="M148.7 104.4l2.1-1.3"/>
  <path d="M86 57.1L72.5 69"/>
  <path d="M348.9 180.5l.3 6.6"/>
  <path d="M286.2 132.8l4.5 3.2"/>
  <path d="M163.7 116.5l6.2-4.2"/>
  <path d="M89 158.3l2.9 7.1"/>
  <path d="M167.8 106.8l1.2-3.2"/>
  <path d="M306 217.3l10.9 6.6"/>
  <path d="M307.4 202.4l2.1.5"/>
  <path d="M87.7 201.7l2.5 8.1"/>
  <path d="M108.2 237.1l5.5-5.8"/>
  <path d="M300 252.3l2.1 2.7"/>
  <path d="M108.1 247.9l2.3-1.8"/>
  <path d="M239.1 113.5l3.9 5.6"/>
  <path d="M189 96.2l3.1 2.3"/>
  <path d="M215.3 105l3.4-5.9"/>
  <path d="M184.2 86.7l.1 2.7"/>
  <path d="M109.3 222.7l9.4-.1"/>
  <path d="M106.6 156.4l.7-1"/>
  <path d="M304.4 217.2l2.3-14.7"/>
  <path d="M111.8 155.3l1.3 4.7"/>
  <path d="M329.3 143.2l3.8 2"/>
  <path d="M140.5 127.1l3.3 7.8"/>
  <path d="M110.8 146.1l1.5 5.1"/>
  <path d="M390.7 109.8l-5.8-9"/>
  <path d="M384.9 100.8l-2.5-3.6"/>
  <path d="M211.7 226.4l7.6-4.5"/>
  <path d="M128.4 263.2l.2 4.1"/>
  <path d="M96.5 279.4l4.6 5.6"/>
  <path d="M303.3 200.9l3.4 1.6"/>
  <path d="M269.1 318.3l4.5 12.5"/>
  <path d="M303 268.8l17 4.6"/>
  <path d="M129.7 269.8l.1.1"/>
  <path d="M336.5 244.6l8.2.8"/>
  <path d="M349.3 234.2l16.3-3.2"/>
  <path d="M279.8 318l3 5.6"/>
  <path d="M299.8 312.6l1.8 1.7"/>
  <path d="M320.3 309.5l3.4-1.2"/>
  <path d="M163.3 328.4l.3-.1"/>
  <path d="M142.6 217.2l2.5 3.7"/>
  <path d="M171.4 114.1l2.3 4.7"/>
  <path d="M121.1 279.2h2.6"/>
  <path d="M331.6 254.7l.5-10.4"/>
  <path d="M229.3 89.6l10.3 2.1"/>
  <path d="M320 273.4l1.3-.8"/>
  <path d="M324.3 178.5l1.2-1.2"/>
  <path d="M289.6 138.9l.9 2.5"/>
  <path d="M336 231.1l.2.4"/>
  <path d="M93.5 140.7l2.2 12"/>
  <path d="M307.4 202.4l2.6-6.6"/>
  <path d="M329.1 202.3l1.2-.9"/>
  <path d="M231.2 119.6l4.5 2.1"/>
  <path d="M230.1 116.3l1.1 3.3"/>
  <path d="M136.4 114.3l1.4-4.5"/>
  <path d="M214.4 253.5l5.9-6.4"/>
  <path d="M154.1 305.1l5.4-10.4"/>
  <path d="M109.9 157l1.9-1.7"/>
  <path d="M308.9 232.9l6.5 2.5"/>
  <path d="M145.9 211.8l2.1-3.6"/>
  <path d="M201.8 120.1l.8-.2"/>
  <path d="M209.7 302.6l9.5-6.9"/>
  <path d="M126.2 317.9l6.3 6.9"/>
  <path d="M122.3 321.4l3.9-3.5"/>
  <path d="M347.2 197.5l1-1"/>
  <path d="M136.5 330.3l2.5 13.5"/>
  <path d="M99.5 302.8l1.2-1.8"/>
  <path d="M321.8 294.2l4.2 3.9"/>
  <path d="M264.1 294.9l5.6-1.7"/>
  <path d="M289.8 306.2l7.4-5.3"/>
  <path d="M153.7 268.4l4.4 4.5"/>
  <path d="M300.4 182.9l5.4 1.2"/>
  <path d="M162.9 306l11.4 4"/>
  <path d="M178.2 353.2l10.1-6.5"/>
  <path d="M293.9 243.2l2.6-3.7"/>
  <path d="M240.4 156.4l7.3-4.7"/>
  <path d="M123.3 132.8l2.3 2"/>
  <path d="M275.6 139.5l.9-1.7"/>
  <path d="M284.5 188.1l7.3-14.5"/>
  <path d="M108.3 213.2l.4.1"/>
  <path d="M204.7 93.3l2.4-3.8"/>
  <path d="M335.7 204.1l1.7 3"/>
  <path d="M159.6 346l3.9-.8"/>
  <path d="M75.5 241.8l2.9-.7"/>
  <path d="M195.3 268.9l6.6 6.2"/>
  <path d="M145.4 341.6l5.5-4.2"/>
  <path d="M239.1 129.9l2.9-1.2"/>
  <path d="M215 105.2l.3-.2"/>
  <path d="M134.5 97.4l-35-50.3"/>
  <path d="M42.6 207.4l41.9-8.1"/>
  <path d="M252 138.2l4.1-.3"/>
  <path d="M163.7 116.5l4.8 4.2"/>
  <path d="M344.7 216.3l3.2-1.1"/>
  <path d="M302.2 328.8l1 2"/>
  <path d="M230.9 134.5l5-5.4"/>
  <path d="M125.8 228.9l6.6 11.2"/>
  <path d="M120.9 174.4l1.1-.2"/>
  <path d="M282.1 294.1l.8-.2"/>
  <path d="M122.1 252.9l2.7-.9"/>
  <path d="M141.7 317.9l2.3.5"/>
  <path d="M333.5 189.3l4.3 1.4"/>
  <path d="M294.6 160l7.5-10.1"/>
  <path d="M154.9 137.6l.9-7.2"/>
  <path d="M239.1 113.5v-.2"/>
  <path d="M158.9 116.1l4.1.6"/>
  <path d="M106.4 345.4l-24.2 28.9"/>
  <path d="M256.1 137.9l8.3-1.9"/>
  <path d="M345.7 219.7l11.7 6.2"/>
  <path d="M120 223.2l1.3 2.7"/>
  <path d="M140.5 141.8l1.3 6.2"/>
  <path d="M150.8 103.1l.9-6.7"/>
  <path d="M219.1 271l.3-1.2"/>
  <path d="M273.1 122.3l.4-.9"/>
  <path d="M199.8 101.6l4.8 4.4"/>
  <path d="M99.2 195.5l8.6-11.9"/>
  <path d="M230.4 138l7.4 1.5"/>
  <path d="M194.6 114.3l.8-3"/>
  <path d="M175 88.6l9.2-1.9"/>
  <path d="M307.4 168.2l2.4-1.7"/>
  <path d="M93.5 140.7l11.1 5.3"/>
  <path d="M176.8 340.7l7.4-5.6"/>
  <path d="M109.3 222.7l.6-7.7"/>
  <path d="M254.8 322.6l8-2.5"/>
  <path d="M110.5 238.1l3.6.3"/>
  <path d="M93.7 241l4.5-2.7"/>
  <path d="M152.8 149.7l1.5.5"/>
  <path d="M272.2 103.9l2.2-2.9"/>
  <path d="M217.9 287.8l.2 4.3"/>
  <path d="M208.8 212l12.4 5"/>
  <path d="M128.6 267.3l1.1 2.5"/>
  <path d="M139.9 286.1l8.4-15"/>
  <path d="M117.2 288.1l4.9 7"/>
  <path d="M124.4 307.1l.4.2"/>
  <path d="M86.8 269.5l4.5-2.9"/>
  <path d="M292.6 333.3l7 4.5"/>
  <path d="M108.6 301l.1.6"/>
  <path d="M125.5 293.3l3.4 5.3"/>
  <path d="M96 171l8.9 1.3"/>
  <path d="M301.2 264.2l7.6-2.2"/>
  <path d="M248 351l10.5 1.9"/>
  <path d="M286.3 324l3.3-8.6"/>
  <path d="M85.3 255.3l7.2-5.2"/>
  <path d="M216.2 274.9l2.9-3.9"/>
  <path d="M226.5 93.7l6 3.4"/>
  <path d="M292.5 196.7l4.8-2.5"/>
  <path d="M150.8 103.1"/>
  <path d="M145.1 220.9l10.1 24.8"/>
  <path d="M159.5 294.7l2-1.3"/>
  <path d="M179 328.6l.3-.2"/>
  <path d="M182.7 120.2l3-1.5"/>
  <path d="M157.6 314.6l.8.8"/>
  <path d="M119.4 145.5l3.9 8.3"/>
  <path d="M131.8 141.3l2.2-3"/>
  <path d="M180.7 94.3l8.3 1.9"/>
  <path d="M31.9 251.5L72 241.4"/>
  <path d="M187 90.7l4.4-.6"/>
  <path d="M197.8 360.5l-7.5 61"/>
  <path d="M307.7 116.7L349 60.9"/>
  <path d="M118.6 132.2l2.7-1.3"/>
  <path d="M115.1 126.9l1.1 3.1"/>
  <path d="M96.6 154l.6 3.8"/>
  <path d="M120.7 138.4l.9-.4"/>
  <path d="M155.2 245.7l20.8-7.8"/>
  <path d="M178.8 235.5l8 5.3"/>
  <path d="M137.4 303.4l5.5-.1"/>
  <path d="M217.4 184.8l.7.1"/>
  <path d="M152.3 125.7l3.5 4.7"/>
  <path d="M122.4 118.4l1.1-.6"/>
  <path d="M326 298.1l4.9-3.7"/>
  <path d="M346.5 254.6l37.7-1.7"/>
  <path d="M255.3 99l2.3-.1"/>
  <path d="M87.9 185.6l.1-5.7"/>
  <path d="M308.8 184.1l1.5-5.2"/>
  <path d="M327.3 170.5l1.7-1.1"/>
  <path d="M150.3 290.7l1.8 2.2"/>
  <path d="M331.5 254.8l8.1 8.8"/>
  <path d="M113.1 271.4l16.6-1.6"/>
  <path d="M92.5 250.1l.7-.8"/>
  <path d="M323 181.2l1.3-2.7"/>
  <path d="M106.4 345.4l13.1-12.7"/>
  <path d="M265.5 346.7l4.7-1.3"/>
  <path d="M311.9 308.1l1.3-3.9"/>
  <path d="M289.9 284.5l2.6.2"/>
  <path d="M202 265l12.2-8.6"/>
  <path d="M314.5 136.9l7.3 3.8"/>
  <path d="M124.4 294.3l1.1-1"/>
  <path d="M315.2 126.6v.1"/>
  <path d="M192.3 98.2l9.2-1"/>
  <path d="M299.5 299.1l2-4.8"/>
  <path d="M233 356.1l.2 66.1"/>
  <path d="M275.7 306l.6.9"/>
  <path d="M309.5 298.2l2.5-.7"/>
  <path d="M320.7 132.2l1.1 4.4"/>
  <path d="M298.5 246l1.5 6.3"/>
  <path d="M263.6 187.6l8.1 3.3"/>
  <path d="M344.7 245.4l2.8-2.7"/>
  <path d="M302.2 196.1l.8.7"/>
  <path d="M179.6 107.3l6.5 10.2"/>
  <path d="M31.9 251.5l-19.1 2.7"/>
  <path d="M163.5 345.2l.1 4.7"/>
  <path d="M221.2 217l9.8-14.9"/>
  <path d="M235.1 126.5l.8 2.6"/>
  <path d="M147.9 111.9l.8-7.5"/>
  <path d="M323.8 155.7l5.7-3.3"/>
  <path d="M216.8 326l1.9 5.9"/>
  <path d="M231 202.1l4.7-3"/>
  <path d="M135.1 119v1.7"/>
  <path d="M290.7 136l3.6-.5"/>
  <path d="M91.9 165.4l5.5-4.6"/>
  <path d="M144 318.4l.9-.3"/>
  <path d="M246.9 258.9l2.3.3"/>
  <path d="M325 302l.3-1.2"/>
  <path d="M134 322.9l1.2-6.9"/>
  <path d="M141.7 342.2l3.7-.6"/>
  <path d="M276 248.1l14.9-4.9"/>
  <path d="M221.3 321l3.1-6.5"/>
  <path d="M255.5 284.9l6.6 9.4"/>
  <path d="M273.6 330.8l.9.5"/>
  <path d="M243.2 288.6l4.2 7.8"/>
  <path d="M108.7 301.6l2.8 3.2"/>
  <path d="M151.5 337.5l2.6-3.8"/>
  <path d="M191.4 90.1l.7.4"/>
  <path d="M176.6 131.9l3.3 10.1"/>
  <path d="M151.9 338.2l.6.7"/>
  <path d="M134.5 97.4l2.4 5.6"/>
  <path d="M301.2 264.2l1.8 4.6"/>
  <path d="M218.1 292.1l1.1 3.6"/>
  <path d="M198.7 127.4l1.3 5"/>
  <path d="M268 149.2l15.6-.3"/>
  <path d="M126 288.9l.5 2.8"/>
  <path d="M275.7 306l6.4-11.9"/>
  <path d="M111 146l.9-.4"/>
  <path d="M122.1 295.1l.3-.1"/>
  <path d="M136.7 295.4l.3-.9"/>
  <path d="M303.6 149.2l1.6-1.2"/>
  <path d="M224.7 345.2l9.7 8.3"/>
  <path d="M344.4 257.7l2.1-3.1"/>
  <path d="M343.8 197.5h3.4"/>
  <path d="M94.1 184.8l4.7 10.7"/>
  <path d="M313.5 130.5l.6.3"/>
  <path d="M185.7 118.7l.4-1.2"/>
  <path d="M186.1 117.5l8.5-3.2"/>
  <path d="M313.5 130.5l1.7-3.8"/>
  <path d="M268.9 105.8l3.3-1.9"/>
  <path d="M124.6 207.3l6.9-.6"/>
  <path d="M160.7 100.9l7.1 5.9"/>
  <path d="M234.2 196.2l1.5-28.3"/>
  <path d="M206.7 364l9.4-8.5"/>
  <path d="M121.5 155.7l1.8-1.9"/>
  <path d="M316.7 325.3l40.5 40.9"/>
  <path d="M347.5 242.7l36.7 10.2"/>
  <path d="M123.3 153.8l4.5-.9"/>
  <path d="M295.6 134.8l1.8-4.2"/>
  <path d="M191.8 348l1.9 1"/>
  <path d="M164.7 316.4l2.8 7.7"/>
  <path d="M271.3 243l4.4 4.6"/>
  <path d="M148.6 178l6.7 8"/>
  <path d="M156 308.9l3.8-1.4"/>
  <path d="M309.5 285l1.7-1.2"/>
  <path d="M338.1 179.6l1.1-4.6"/>
  <path d="M143.7 306.8l4.3 3.2"/>
  <path d="M317.6 200.7l5.7-7"/>
  <path d="M167.7 343.7l3.8 1.3"/>
  <path d="M118.6 321.8l3.7-.4"/>
  <path d="M126.9 109.4l.3.4"/>
  <path d="M264.4 136l.9-5.3"/>
  <path d="M64.5 77.1L50.7 93.6"/>
  <path d="M191.1 242.3l22.2-6.2"/>
  <path d="M225.1 115.8l4.3 8.5"/>
  <path d="M300.8 124.4l4.5.2"/>
  <path d="M193.1 96.4l5.8-3.3"/>
  <path d="M368.8 80.3l-7.5-7.9"/>
  <path d="M285.2 122.2l4-8"/>
  <path d="M300.9 123.5l3.6-4.7"/>
  <path d="M251.6 152.8l10.4 4.7"/>
  <path d="M289.6 138.9l1.1-2.9"/>
  <path d="M123 122.9l.2 3.7"/>
  <path d="M170.2 111.9l9.4-4.6"/>
  <path d="M190.8 88.3l7.8-9.5"/>
  <path d="M271.3 243l11.4-23.5"/>
  <path d="M111.8 319.2l1.2-5.7"/>
  <path d="M151.7 96.4l2.8 1.3"/>
  <path d="M299.4 327.6l2.8 1.2"/>
  <path d="M210.5 349.3l3.8 2.8"/>
  <path d="M251.6 152.8l7.8-6.6"/>
  <path d="M171.4 114.1l8.7 5.7"/>
  <path d="M229.1 81.5l8.6-68.8"/>
  <path d="M155.8 130.4l5.1.1"/>
  <path d="M211.8 160.8l.4.6"/>
  <path d="M246 123.2l1-2.6"/>
  <path d="M294.6 166.1V160"/>
  <path d="M326.5 144.2l1.2.4"/>
  <path d="M113.1 145.1l3.6-10.2"/>
  <path d="M164.7 316.4l6.4-2.6"/>
  <path d="M284.5 188.1l2.2 1.1"/>
  <path d="M340.9 182.9l.2 4.8"/>
  <path d="M163.6 328.3l7.3 3.6"/>
  <path d="M321.3 272.6l2.4-3.9"/>
  <path d="M289.8 306.2l2.3 8.3"/>
  <path d="M144.2 178.9l4.4-.9"/>
  <path d="M95.7 318.5l10.8-13.9"/>
  <path d="M275.7 247.6l13.5-20.6"/>
  <path d="M109.2 162.7l.5-.3"/>
  <path d="M245.7 106.4l4-1.2"/>
  <path d="M177.1 97.5l.6-1.4"/>
  <path d="M218.4 129.3l.7-1.6"/>
  <path d="M120.8 157.2l.7-1.5"/>
  <path d="M116.8 133.6l1-1.2"/>
  <path d="M309.8 334l36.1 42.2"/>
  <path d="M210.5 349.3l12-11.6"/>
  <path d="M306.7 202.5l.7-.1"/>
  <path d="M317.6 248.1l3.6 11.7"/>
  <path d="M274 251.4l2-3.2"/>
  <path d="M326 195.2l7.5-5.9"/>
  <path d="M204.2 177l.8-9"/>
  <path d="M218.7 99.1l1.3-5"/>
  <path d="M289.2 227l1.7.6"/>
  <path d="M147.9 111.9l8.3-7.5"/>
  <path d="M288.1 110.6l15.5-8.9"/>
  <path d="M208.5 326.7l8.3-.7"/>
  <path d="M306.4 123.3v.2"/>
  <path d="M271.7 190.9l12.8 20"/>
  <path d="M361.3 72.4L349 60.9"/>
  <path d="M206.7 364l6.6 59"/>
  <path d="M130 130.6l9.6-4.8"/>
  <path d="M355.2 215.2l2.2 10.7"/>
  <path d="M158.4 92.1l3.4 6.6"/>
  <path d="M101.1 285l2.7-4.4"/>
  <path d="M268.7 241.6l2.6 1.4"/>
  <path d="M163.1 329.9l5.7 6.5"/>
  <path d="M148.2 346l2.9.2"/>
  <path d="M294.4 275.6l7.5-3.3"/>
  <path d="M154.7 307.8l1.3 1.1"/>
  <path d="M106.4 263.3l1.3.4"/>
  <path d="M300.4 263.5l.8.7"/>
  <path d="M325.5 177.3l5.8 3.2"/>
  <path d="M101.1 285l.2 1.4"/>
  <path d="M121.3 225.9l3.9 1.1"/>
  <path d="M289.6 315.4l2.5-.9"/>
  <path d="M194.7 295.7l5.6 17.5"/>
  <path d="M316.1 236l1.9 11.2"/>
  <path d="M108.7 213.3l4.2-1.6"/>
  <path d="M283.3 106.9l4.8 3.7"/>
  <path d="M180.3 229.9l8.7-11.1"/>
  <path d="M85.2 305.3l-41.9 25"/>
  <path d="M207.1 89.5l1-.1"/>
  <path d="M296.4 126.7l4.4-2.3"/>
  <path d="M114.2 120.4l7.8.6"/>
  <path d="M348.4 297.1l46.1 21.1"/>
  <path d="M180.2 105.4l11.2-3.6"/>
  <path d="M332.1 244.3l2.2-1"/>
  <path d="M155.1 245.8l.1-.1"/>
  <path d="M190.4 180.1l5.7 1.8"/>
  <path d="M317.5 189.6l5.8 4.1"/>
  <path d="M239.4 89.9l.2 1.8"/>
  <path d="M125.2 227l5.4-2.2"/>
  <path d="M230 124.2l5.1 2.3"/>
  <path d="M97.4 226.3l.1-.2"/>
  <path d="M342.5 213.2l2.2 3.1"/>
  <path d="M304.1 131.4l1.5-.3"/>
  <path d="M288.7 325.8l.1 7.9"/>
  <path d="M188.1 292.1l4.8 3.4"/>
  <path d="M299.2 326.7l.2.9"/>
  <path d="M328.7 316.6l3.3 2.3"/>
  <path d="M178.4 362.1l10.7-4.2"/>
  <path d="M312.9 310.7l6.2 4.4"/>
  <path d="M117.8 255.5l1.9-.7"/>
  <path d="M289 333.8l2.9 3.4"/>
  <path d="M299.8 312.6l3.7-7.5"/>
  <path d="M266.8 270.5l19.1-4"/>
  <path d="M121.3 130.9l1.8-4.3"/>
  <path d="M179.6 107.3l.6-1.9"/>
  <path d="M283.6 148.9l.3 3.4"/>
  <path d="M117 229.7h.2"/>
  <path d="M310 195.8l3.7 1.5"/>
  <path d="M107.8 183.6l6.2 10.6"/>
  <path d="M148.7 146.2l3.4 2.1"/>
  <path d="M205 136.9l.8 5.2"/>
  <path d="M169 126.7l3.4-3.3"/>
  <path d="M191.4 101.8l.6-1"/>
  <path d="M192.3 98.2l.8-1.8"/>
  <path d="M192.1 90.5l4.1-2.8"/>
  <path d="M116.2 130l1.6 2.4"/>
  <path d="M231.3 85.6l5 1.1"/>
  <path d="M281.7 215.1l1 4.4"/>
  <path d="M136.9 103l.2 5"/>
  <path d="M162.7 341.7v-11.3"/>
  <path d="M269.6 317.3l10.2.7"/>
  <path d="M329.3 143.2l5.8-7.8"/>
  <path d="M300.4 263.5l1.7-8.5"/>
  <path d="M336.5 244.6l.1 9"/>
  <path d="M85.1 256.8l6.1 9.4"/>
  <path d="M181.9 180.9l8.5-.8"/>
  <path d="M151.5 337.5l.4.7"/>
  <path d="M152.6 327.9l2-1.2"/>
  <path d="M247.3 273.2l4.3 10.9"/>
  <path d="M235.7 199.1l8.9 3.1"/>
  <path d="M342.3 259.4l2.1-1.7"/>
  <path d="M297.7 190.8l4.5.6"/>
  <path d="M170.6 327.8l.3 4.1"/>
  <path d="M109.7 162.4l2.6-.5"/>
  <path d="M264.4 348.8l27.3 59.5"/>
  <path d="M135.1 221.2l7.5-4"/>
  <path d="M72.5 69l-5.3 5.3"/>
  <path d="M67.2 74.3l-2.7 2.8"/>
  <path d="M117.7 237.9l3.8.9"/>
  <path d="M218.1 184.9l4-17"/>
  <path d="M136.9 103l7 3.2"/>
  <path d="M303.6 101.7l.5-.8"/>
  <path d="M146.5 161.2l3.4 4.2"/>
  <path d="M240 93.4l1.1.4"/>
  <path d="M347.2 197.5l.7 5.7"/>
  <path d="M230.3 104.3l3.9 1.5"/>
  <path d="M154.5 95.8l3.9-3.7"/>
  <path d="M262.7 115.9l4.7.8"/>
  <path d="M300.5 110.1l3.1-8.4"/>
  <path d="M263.2 98.5l11.1-7.8"/>
  <path d="M98.2 238.3l4.8 9.2"/>
  <path d="M125.6 134.8l4.2-.7"/>
  <path d="M306.4 123.5l3.8.7"/>
  <path d="M144.6 100.7l2.2-2.7"/>
  <path d="M112.4 310.2l12-3.1"/>
  <path d="M150.4 337.1l.5.3"/>
  <path d="M116.7 321.2l1.9.6"/>
  <path d="M140.8 311.8l.9 6.1"/>
  <path d="M292 339.8l1.9 6.5"/>
  <path d="M289 333.8l3.6-.5"/>
  <path d="M175.3 333.2l3.7-4.6"/>
  <path d="M313.2 296.9l3.3 2.8"/>
  <path d="M315.6 278.8l4.4-5.4"/>
  <path d="M138 315.1l3.1 2.9"/>
  <path d="M309.8 148l1.1-1"/>
  <path d="M121.4 137.1l1.9-4.3"/>
  <path d="M262.6 103.7l4.1 2.2"/>
  <path d="M291.1 170.2l3.5-4.1"/>
  <path d="M275.6 139.5l6.5 4.2"/>
  <path d="M85.5 155.4l3.5 2.9"/>
  <path d="M321.8 136.6l4.1-4.4"/>
  <path d="M127.1 118.4l8 2.3"/>
  <path d="M141.9 100.9l2.7-.2"/>
  <path d="M216.7 285.7l1.2 2.1"/>
  <path d="M245.1 260.7l1.8-1.8"/>
  <path d="M246.6 253.9l.3 5"/>
  <path d="M121.5 238.8l1.5-.1"/>
  <path d="M108.7 213.3l1.2 1.7"/>
  <path d="M323.3 193.7l1.1.3"/>
  <path d="M305.6 131.1l2.9 1.4"/>
  <path d="M173.7 118.8l4.8 1.2"/>
  <path d="M226.1 112.4l.1 1.6"/>
  <path d="M229.3 89.6l.2-.4"/>
  <path d="M61.2 145l23.2 19"/>
  <path d="M182.2 278.6l5.9 13.5"/>
  <path d="M203.9 194.9l.5-5.6"/>
  <path d="M168.8 336.4l3.7-2.6"/>
  <path d="M158.6 333.6l4.1-3.2"/>
  <path d="M152.5 338.9l6.7-.4"/>
  <path d="M107.7 263.7l4.2 4.1"/>
  <path d="M148 310l6.7-2.2"/>
  <path d="M237 334.9l1.4-22.6"/>
  <path d="M137 294.5l3.4-2.3"/>
  <path d="M314 292.3l2.9-7.7"/>
  <path d="M149.9 165.4l1 4.4"/>
  <path d="M167.8 128h.3"/>
  <path d="M112.2 133.2l4.6.4"/>
  <path d="M124.8 107.2l2.1 2.2"/>
  <path d="M286.7 189.2l10.6-2.4"/>
  <path d="M223.5 338.4l14-2.1"/>
  <path d="M162.3 142l1.3-9.1"/>
  <path d="M332.2 302.4l58.4 22.5"/>
  <path d="M178.4 155.7l14.6 1.1"/>
  <path d="M18.4 157.2l-8.6 48"/>
  <path d="M9.8 205.2l3 49"/>
  <path d="M326 195.2l4.3 6.2"/>
  <path d="M214.6 277.5l.4 6.2"/>
  <path d="M290.8 147.4l.8-3.3"/>
  <path d="M141.7 342.2l3.3-4.9"/>
  <path d="M318.3 131.3l2.4.9"/>
  <path d="M147.3 115.4l3.9 5.2"/>
  <path d="M221.3 321l15.7 13.9"/>
  <path d="M123 122.9l3.8-2.4"/>
  <path d="M309.1 118.8l1.2.3"/>
  <path d="M235.7 110.5l1 .6"/>
  <path d="M118.7 222.6l1.3.6"/>
  <path d="M322.1 140.5l.7.1"/>
  <path d="M310.2 124.2"/>
  <path d="M171.5 345l2.9 5.1"/>
  <path d="M237.2 289.6l6-1"/>
  <path d="M340.4 263.4l1.9-4"/>
  <path d="M244.6 202.2l1.2 9.4"/>
  <path d="M103.8 280.6l8.2.6"/>
  <path d="M289.6 281.8l4.8-6.2"/>
  <path d="M106.5 304.6l.6-1.4"/>
  <path d="M123 238.7l2.8-9.8"/>
  <path d="M304.4 317.7v3.2"/>
  <path d="M145.7 299.3l3.5 1.1"/>
  <path d="M136.3 330.3l-45.5 50.9"/>
  <path d="M282.2 143.9l1.4 5"/>
  <path d="M142.8 215.5l3.1-3.7"/>
  <path d="M262 157.5l4.6-2.5"/>
  <path d="M173.8 121.9l4.7-1.9"/>
  <path d="M196.2 87.7l2.6-8.5"/>
  <path d="M253.9 357.7l16.2 57.9"/>
  <path d="M294.1 124.7l2.5-6.5"/>
  <path d="M236.5 96.3l3.5-2.9"/>
  <path d="M309.8 166.5l9.2-2.8"/>
  <path d="M309.3 132.4l3.9 5"/>
  <path d="M200.3 313.2l1.6.8"/>
  <path d="M128.6 194.5l5.9 1.7"/>
  <path d="M346.2 189.7l2 6.8"/>
  <path d="M176.6 189.1l12.3 22.4"/>
  <path d="M331.7 221.9l8.9-.6"/>
  <path d="M158 140.7l4.3 1.3"/>
  <path d="M235.7 121.7l.7 1.2"/>
  <path d="M214.5 116.3l.2.5"/>
  <path d="M249.7 105.2l3.2 12.7"/>
  <path d="M131.8 141.3l.2 4"/>
  <path d="M236.3 236.9l2.7-.7"/>
  <path d="M160.9 130.5l3.1-8.1"/>
  <path d="M321.9 289.6l6.2-3.9"/>
  <path d="M267.1 272l3.7 2.9"/>
  <path d="M331.6 254.7l5-1.1"/>
  <path d="M245.1 260.7l.1 10.2"/>
  <path d="M302.1 280.9l1.8-2.7"/>
  <path d="M94.6 199.4l7.7 5"/>
  <path d="M272.4 305.7l4.7-11.7"/>
  <path d="M112 281.3l8.6-2.3"/>
  <path d="M85.5 165.6l.8-.6"/>
  <path d="M316.9 284.6l3.5 4.2"/>
  <path d="M97.2 157.8l6.6-1.1"/>
  <path d="M168.1 128l8.5 3.9"/>
  <path d="M326.8 228.9l9.2 2.2"/>
  <path d="M214.2 49.6L212 11.5"/>
  <path d="M106.5 137l1.8 8.3"/>
  <path d="M317.6 248.1l.4-.9"/>
  <path d="M349.2 187.1l67.5-11.4"/>
  <path d="M245.7 352.4l2.3-1.4"/>
  <path d="M186.7 336.4l7.9-5.3"/>
  <path d="M191.1 242.3l12.1 7.7"/>
  <path d="M253.4 256.1l15.3-14.5"/>
  <path d="M316.2 209.5l7.1-.9"/>
  <path d="M96.1 214.5l6.2-10.1"/>
  <path d="M300.3 339.6l9.6 12.9"/>
  <path d="M304.4 320.9l3.4 3.1"/>
  <path d="M132.7 326.6l3.6 3.7"/>
  <path d="M265.4 226.9l1.4 13.3"/>
  <path d="M363.3 194.8l8.6.3"/>
  <path d="M142.9 303.3l.8 3.5"/>
  <path d="M303.2 304.5l.3.6"/>
  <path d="M313.2 304.2l3.3-4.5"/>
  <path d="M136 308.7l1 .5"/>
  <path d="M242.1 312.7l2.2 2.6"/>
  <path d="M166.6 326.1l4 1.7"/>
  <path d="M247 333.7l13 1.3"/>
  <path d="M116.7 321.2l1.2-6"/>
  <path d="M299 312.5l.8.1"/>
  <path d="M337.4 161.2l1.7.9"/>
  <path d="M97 158.5l.2-.7"/>
  <path d="M310.9 147l9.1-4.3"/>
  <path d="M239.2 105.3l1.2-.7"/>
  <path d="M239.1 113.3l6.6-6.9"/>
  <path d="M110.8 130.9l1.4 2.3"/>
  <path d="M105.2 278l5.5-2.1"/>
  <path d="M273.6 98.9l.7-8.2"/>
  <path d="M382.4 97.2l-13.6-16.9"/>
  <path d="M320.4 158.5l2.2-1.3"/>
  <path d="M262.1 105.8l.6 10.1"/>
  <path d="M122.9 144.6l2.6-3.1"/>
  <path d="M340.1 173.4l27.1-6.6"/>
  <path d="M341.1 187.7l5.1 2"/>
  <path d="M99.2 195.5l10.6 4.1"/>
  <path d="M243.2 288.6l8.4-4.5"/>
  <path d="M99.1 263.5l.3-10"/>
  <path d="M143.7 242.5l11.4 3.3"/>
  <path d="M229.6 151.1h.3"/>
  <path d="M143.9 106.2l1.7-1.3"/>
  <path d="M214.3 352.1l1.8 3.4"/>
  <path d="M315.8 208.1l1.9-6.7"/>
  <path d="M304.2 143.9l4.3-11.4"/>
  <path d="M218.4 129.3l1 5.1"/>
  <path d="M104.3 133.8l2.2 3.2"/>
  <path d="M127.2 109.8l8.9 4.8"/>
  <path d="M107 180.5l1.1-2.6"/>
  <path d="M338.1 179.6l2.8 3.3"/>
  <path d="M314 292.3l.4.7"/>
  <path d="M333.8 282.8l2.7-5.9"/>
  <path d="M236.8 274.5l8.4-3.6"/>
  <path d="M289.6 281.8l.3 2.7"/>
  <path d="M308.8 262l12.4-.4"/>
  <path d="M114.1 238.4l2.8-1.6"/>
  <path d="M315.1 279l.5-.2"/>
  <path d="M146.5 199.4l8.8-13.4"/>
  <path d="M318.1 305.5l6.9-3.5"/>
  <path d="M143.8 134.9l3.2 1"/>
  <path d="M120.3 248.3l1.2-9.5"/>
  <path d="M116.9 236.8l.3-7.1"/>
  <path d="M223.5 338.4l1.2 6.8"/>
  <path d="M296 115.2l.6 3"/>
  <path d="M140.6 291.7l9.7-1"/>
  <path d="M97.4 226.3l1.5 5.1"/>
  <path d="M298.7 329.7l.7-2.1"/>
  <path d="M299.1 299.5l4.1 5"/>
  <path d="M134.5 97.4l7.4 3.5"/>
  <path d="M313.7 197.3l3.8-7.7"/>
  <path d="M186.7 336.4l1.1 9.5"/>
  <path d="M246.2 334.5l5.4 10.6"/>
  <path d="M191.8 348l2.8-16.9"/>
  <path d="M247 333.7l.5-3.8"/>
  <path d="M181.4 316.5v.2"/>
  <path d="M285.9 266.5l1.5-4.6"/>
  <path d="M96.6 154l5.4-4"/>
  <path d="M162.3 142l6.4 5.6"/>
  <path d="M50.4 167.8L86 186.9"/>
  <path d="M69 148.7l20.1 16.1"/>
  <path d="M123.5 117.8l1.3-10.6"/>
  <path d="M107 180.5l.8 3.1"/>
  <path d="M325.1 171.2l.4 6.1"/>
  <path d="M127.8 152.9l.1-4.2"/>
  <path d="M116.9 236.8l.8 1.1"/>
  <path d="M170.9 277.2l11.3 1.4"/>
  <path d="M123.8 306.6l.6.5"/>
  <path d="M331.8 294.5l16.6 2.6"/>
  <path d="M339.1 277.2l9.7-2.5"/>
  <path d="M132.5 324.8l1.5-1.9"/>
  <path d="M124.2 278.5l5.6-8.6"/>
  <path d="M121 189.6l5.4 1.3"/>
  <path d="M321.3 272.6l6.9 12.8"/>
  <path d="M310.3 178.9l3.3-1.4"/>
  <path d="M224.8 246.2l11.5-9.3"/>
  <path d="M202 265l14.2 9.9"/>
  <path d="M334.3 242.1l2.6-8"/>
  <path d="M309.5 202.9l6.3 5.2"/>
  <path d="M169 103.6l9-3.3"/>
  <path d="M326.8 228.9v-5.7"/>
  <path d="M344.6 218l.1-1.7"/>
  <path d="M223.3 127.3l7.6 7.2"/>
  <path d="M314.1 130.8l4 .1"/>
  <path d="M276 248.1v.1"/>
  <path d="M119.8 201.6l8.8-7.1"/>
  <path d="M233 356.1l1.4-2.6"/>
  <path d="M246.2 334.5l.8-.8"/>
  <path d="M302.1 255l5.6-1.6"/>
  <path d="M203.1 143.3l2.7-1.2"/>
  <path d="M209.7 302.6l2.7 5.6"/>
  <path d="M145.9 211.8l20.2 7"/>
  <path d="M311.8 319l2.1 4.6"/>
  <path d="M212.4 308.2l12 6.3"/>
  <path d="M231.6 309.6l6.8 2.7"/>
  <path d="M300.8 124.4l.1-.9"/>
  <path d="M203.2 250l11.2 3.5"/>
  <path d="M316.2 308.4l1.9-2.9"/>
  <path d="M151.2 120.6l7.7-4.5"/>
  <path d="M293 263.6l1.4 12"/>
  <path d="M285.6 304.5l4.2 1.7"/>
  <path d="M305.9 289.3v.2"/>
  <path d="M139.9 286.1l.7 5.6"/>
  <path d="M266.2 268.1l.6 2.4"/>
  <path d="M255.6 300.7l6.5-6.4"/>
  <path d="M299.1 181l1.3 1.9"/>
  <path d="M311.2 283.8l3.9-4.8"/>
  <path d="M91.3 266.6v-.1"/>
  <path d="M328.8 285.2l5-2.4"/>
  <path d="M312.8 310.2l.1.5"/>
  <path d="M266.7 105.9l.7 10.8"/>
  <path d="M124.8 252l13.8 2"/>
  <path d="M263.2 98.5l10.4.4"/>
  <path d="M271.9 277.6l14.1 11.8"/>
  <path d="M84.4 164l1.9 1"/>
  <path d="M188.9 211.5l.6 4.4"/>
  <path d="M195.1 264.6l8.1-14.6"/>
  <path d="M339.1 190l4.7 7.5"/>
  <path d="M237.8 165.4l25.2 16.7"/>
  <path d="M189.1 357.9l4.6-8.9"/>
  <path d="M247.4 296.4l8.2 4.3"/>
  <path d="M158.4 92.1l-17.7-66.6"/>
  <path d="M125.3 314.1l1.1-3.1"/>
  <path d="M296 115.2l4.5-5.1"/>
  <path d="M85.2 305.3l14.3-2.5"/>
  <path d="M348.2 196.5l15.1-1.7"/>
  <path d="M112.1 312.3l.9 1.2"/>
  <path d="M277.5 307.5l6.6-.5"/>
  <path d="M108.6 301l.4-2.2"/>
  <path d="M285.2 291.6l.8-2.2"/>
  <path d="M112.5 245.5l1.6-7.1"/>
  <path d="M301.9 272.3l1.1-3.5"/>
  <path d="M87.9 172.4l2.1 2.2"/>
  <path d="M100.5 288l.8-1.6"/>
  <path d="M249.4 259.1l4-3"/>
  <path d="M286.3 324l2.4 1.8"/>
  <path d="M279 110.7l4.3-3.8"/>
  <path d="M132.4 240.1l2.7 1.4"/>
  <path d="M289.8 306.2"/>
  <path d="M114 194.2l7-4.6"/>
  <path d="M203.8 93.6l.9-.3"/>
  <path d="M145.1 220.9l21-2.1"/>
  <path d="M271.7 190.9l12.8-2.8"/>
  <path d="M249.8 140.5l2.2-2.3"/>
  <path d="M97 158.5l.4 2.3"/>
  <path d="M234.7 106.3l4.5-1"/>
  <path d="M189.5 215.9l10.4-3.8"/>
  <path d="M91.4 244.1l1.8 5.2"/>
  <path d="M263.8 183.6l14.8-14.5"/>
  <path d="M97.4 160.8l6.5 4.3"/>
  <path d="M210.3 149.2l14.4-1.1"/>
  <path d="M283.4 312.5l.7-5.5"/>
  <path d="M245.2 270.9l2.1 2.3"/>
  <path d="M84.8 251.2l.5 4.1"/>
  <path d="M84.4 164l1.1 1.6"/>
  <path d="M301.5 294.3l3.7-2.6"/>
  <path d="M317.6 200.7l.1.7"/>
  <path d="M334.7 152.8l2.7 8.4"/>
  <path d="M325.1 171.2l2.2-.7"/>
  <path d="M112.3 151.2l4.5 5.7"/>
  <path d="M224.7 148.1l4.9 3"/>
  <path d="M309.8 148l10.6 10.5"/>
  <path d="M163.2 131.6l.4 1.3"/>
  <path d="M355.2 215.2l65.7-4.9"/>
  <path d="M290.9 227.6l8.5-12.8"/>
  <path d="M226.5 93.7l2.8-4.1"/>
  <path d="M210.1 161.2l1.6-.4"/>
  <path d="M122.4 295l1.4 11.6"/>
  <path d="M98.1 217.4l10.2-4.2"/>
  <path d="M264.4 320.3l4.7-2"/>
  <path d="M234.7 116.5l4.4-3"/>
  <path d="M305.2 148h4.6"/>
  <path d="M125.2 227l.6 1.9"/>
  <path d="M313.1 291.8l.4.2"/>
  <path d="M134.5 196.2l1.5-.9"/>
  <path d="M334.3 242.1v1.2"/>
  <path d="M285.2 291.6l12.7 8.1"/>
  <path d="M229.8 267.3l7 7.2"/>
  <path d="M325.8 304.7l6.2 14.2"/>
  <path d="M126.4 190.9l2.2 3.6"/>
  <path d="M223.3 127.3l6.1-3"/>
  <path d="M137.8 109.8l5.3-.5"/>
  <path d="M147 104.5l1.7-.1"/>
  <path d="M303.5 305.1l5.1.3"/>
  <path d="M310.5 131.3l3-.8"/>
  <path d="M172.4 123.4l.5.1"/>
  <path d="M307.7 116.7l1.4 2.1"/>
  <path d="M287.4 261.9l5.6 1.7"/>
  <path d="M102 150l2.6-4"/>
  <path d="M322.8 140.6l3.7 3.6"/>
  <path d="M338.5 285.1l.6-7.9"/>
  <path d="M126.4 311l5.8-.6"/>
  <path d="M142.9 303.3l2.8-4"/>
  <path d="M320.3 294.3l1.5-.1"/>
  <path d="M91.4 244.1l2.3-3.1"/>
  <path d="M272.4 305.7l3.3.3"/>
  <path d="M331.8 294.5l.4 7.9"/>
  <path d="M305.2 291.7l.7-2.2"/>
  <path d="M284.6 342.1l7.4 2.7"/>
  <path d="M299.5 299.1l8.3-.9"/>
  <path d="M161.5 293.4l.5-18.1"/>
  <path d="M234.7 116.5l1 5.2"/>
  <path d="M219.9 142.6l7.2-4.5"/>
  <path d="M183.3 16.6l2 64.7"/>
  <path d="M120.1 303.7l3.7 2.9"/>
  <path d="M133.9 284.3l6 1.8"/>
  <path d="M237.8 139.5l2.6 16.9"/>
  <path d="M89.1 164.8l2.1 1"/>
  <path d="M163.5 345.2l.8-.8"/>
  <path d="M263.1 267.4l3.1.7"/>
  <path d="M339.1 162.1l69-16.5"/>
  <path d="M139.6 125.8l.9.4"/>
  <path d="M237.8 139.5l4.4-1.8"/>
  <path d="M176.6 151.4l3.6-8.9"/>
  <path d="M270.8 274.9l1.1 2.7"/>
  <path d="M91.8 165.6l.1-.2"/>
  <path d="M303.2 304.5l4.6-6.3"/>
  <path d="M321.8 140.7l.3-.2"/>
  </g>
</svg>
