<?xml version="1.0" standalone="no"?>
<!DOCTYPE svg PUBLIC "-//W3C//DTD SVG 1.1//EN" "http://www.w3.org/Graphics/SVG/1.1/DTD/svg11.dtd">
<svg width="103mm" height="99mm" viewBox="0 -99 103 99" xmlns="http://www.w3.org/2000/svg" version="1.1">
<title>OpenSCAD Model</title>
<path d="
M 100.488,-0.752365 L 100.525,-0.759445 L 100.56,-0.771042 L 100.595,-0.787125 L 100.626,-0.807312 L 100.655,-0.831284
 L 100.681,-0.858795 L 100.703,-0.889236 L 100.721,-0.922287 L 100.735,-0.95726 L 100.745,-0.993744 L 100.75,-1.05005
 L 100.75,-97.95 L 100.752,-97.9876 L 100.759,-98.0246 L 100.771,-98.0604 L 100.787,-98.0945 L 100.807,-98.1263
 L 100.831,-98.1554 L 100.859,-98.1812 L 100.889,-98.2033 L 100.922,-98.2215 L 100.957,-98.2353 L 100.994,-98.2447
 L 101.05,-98.25 L 102.2,-98.25 L 102.238,-98.2524 L 102.275,-98.2594 L 102.31,-98.271 L 102.345,-98.2871
 L 102.376,-98.3073 L 102.405,-98.3313 L 102.431,-98.3588 L 102.453,-98.3892 L 102.471,-98.4223 L 102.485,-98.4573
 L 102.495,-98.4937 L 102.5,-98.55 L 102.5,-98.7 L 102.498,-98.7376 L 102.491,-98.7747 L 102.479,-98.8104
 L 102.463,-98.8445 L 102.443,-98.8764 L 102.419,-98.9053 L 102.391,-98.9312 L 102.361,-98.9533 L 102.328,-98.9715
 L 102.293,-98.9853 L 102.256,-98.9947 L 102.2,-99 L 100.05,-99 L 100.012,-98.9976 L 99.9753,-98.9906
 L 99.9396,-98.979 L 99.9055,-98.9629 L 99.8736,-98.9427 L 99.8447,-98.9187 L 99.8188,-98.8912 L 99.7967,-98.8608
 L 99.7785,-98.8277 L 99.7647,-98.7927 L 99.7553,-98.7563 L 99.75,-98.7 L 99.75,-2.05 L 99.7476,-2.01241
 L 99.7406,-1.9754 L 99.7289,-1.93956 L 99.7129,-1.90547 L 99.6927,-1.87367 L 99.6687,-1.84464 L 99.6412,-1.81885
 L 99.6107,-1.79671 L 99.5777,-1.77855 L 99.5427,-1.76468 L 99.5062,-1.75531 L 99.45,-1.75 L 99.3,-1.75
 L 99.2624,-1.75237 L 99.2254,-1.75943 L 99.1896,-1.77107 L 99.1555,-1.78711 L 99.1237,-1.8073 L 99.0946,-1.83131
 L 99.0688,-1.85878 L 99.0467,-1.88925 L 99.0285,-1.92227 L 99.0147,-1.95729 L 99.0053,-1.99379 L 99,-2.05
 L 99,-98.7 L 98.9976,-98.7376 L 98.9906,-98.7747 L 98.979,-98.8104 L 98.9629,-98.8445 L 98.9427,-98.8764
 L 98.9187,-98.9053 L 98.8912,-98.9312 L 98.8608,-98.9533 L 98.8277,-98.9715 L 98.7927,-98.9853 L 98.7563,-98.9947
 L 98.7,-99 L 96.55,-99 L 96.5124,-98.9976 L 96.4753,-98.9906 L 96.4396,-98.979 L 96.4055,-98.9629
 L 96.3736,-98.9427 L 96.3447,-98.9187 L 96.3188,-98.8912 L 96.2967,-98.8608 L 96.2785,-98.8277 L 96.2647,-98.7927
 L 96.2553,-98.7563 L 96.25,-98.7 L 96.25,-2.05 L 96.2476,-2.01241 L 96.2406,-1.9754 L 96.2289,-1.93956
 L 96.2129,-1.90547 L 96.1927,-1.87367 L 96.1687,-1.84464 L 96.1412,-1.81885 L 96.1107,-1.79671 L 96.0777,-1.77855
 L 96.0427,-1.76468 L 96.0062,-1.75531 L 95.95,-1.75 L 95.8,-1.75 L 95.7624,-1.75237 L 95.7254,-1.75943
 L 95.6896,-1.77107 L 95.6555,-1.78711 L 95.6237,-1.8073 L 95.5946,-1.83131 L 95.5688,-1.85878 L 95.5467,-1.88925
 L 95.5285,-1.92227 L 95.5147,-1.95729 L 95.5053,-1.99379 L 95.5,-2.05 L 95.5,-98.7 L 95.4976,-98.7376
 L 95.4906,-98.7747 L 95.479,-98.8104 L 95.4629,-98.8445 L 95.4427,-98.8764 L 95.4187,-98.9053 L 95.3912,-98.9312
 L 95.3608,-98.9533 L 95.3277,-98.9715 L 95.2927,-98.9853 L 95.2563,-98.9947 L 95.2,-99 L 93.05,-99
 L 93.0124,-98.9976 L 92.9753,-98.9906 L 92.9396,-98.979 L 92.9055,-98.9629 L 92.8736,-98.9427 L 92.8447,-98.9187
 L 92.8188,-98.8912 L 92.7967,-98.8608 L 92.7785,-98.8277 L 92.7647,-98.7927 L 92.7553,-98.7563 L 92.75,-98.7
 L 92.75,-2.05 L 92.7476,-2.01241 L 92.7406,-1.9754 L 92.7289,-1.93956 L 92.7129,-1.90547 L 92.6927,-1.87367
 L 92.6687,-1.84464 L 92.6412,-1.81885 L 92.6107,-1.79671 L 92.5777,-1.77855 L 92.5427,-1.76468 L 92.5062,-1.75531
 L 92.45,-1.75 L 92.3,-1.75 L 92.2624,-1.75237 L 92.2254,-1.75943 L 92.1896,-1.77107 L 92.1555,-1.78711
 L 92.1237,-1.8073 L 92.0946,-1.83131 L 92.0688,-1.85878 L 92.0467,-1.88925 L 92.0285,-1.92227 L 92.0147,-1.95729
 L 92.0053,-1.99379 L 92,-2.05 L 92,-98.7 L 91.9976,-98.7376 L 91.9906,-98.7747 L 91.979,-98.8104
 L 91.9629,-98.8445 L 91.9427,-98.8764 L 91.9187,-98.9053 L 91.8912,-98.9312 L 91.8608,-98.9533 L 91.8277,-98.9715
 L 91.7927,-98.9853 L 91.7563,-98.9947 L 91.7,-99 L 89.55,-99 L 89.5124,-98.9976 L 89.4753,-98.9906
 L 89.4396,-98.979 L 89.4055,-98.9629 L 89.3736,-98.9427 L 89.3447,-98.9187 L 89.3188,-98.8912 L 89.2967,-98.8608
 L 89.2785,-98.8277 L 89.2647,-98.7927 L 89.2553,-98.7563 L 89.25,-98.7 L 89.25,-2.05 L 89.2476,-2.01241
 L 89.2406,-1.9754 L 89.2289,-1.93956 L 89.2129,-1.90547 L 89.1927,-1.87367 L 89.1687,-1.84464 L 89.1412,-1.81885
 L 89.1107,-1.79671 L 89.0777,-1.77855 L 89.0427,-1.76468 L 89.0062,-1.75531 L 88.95,-1.75 L 88.8,-1.75
 L 88.7624,-1.75237 L 88.7254,-1.75943 L 88.6896,-1.77107 L 88.6555,-1.78711 L 88.6237,-1.8073 L 88.5946,-1.83131
 L 88.5688,-1.85878 L 88.5467,-1.88925 L 88.5285,-1.92227 L 88.5147,-1.95729 L 88.5053,-1.99379 L 88.5,-2.05
 L 88.5,-98.7 L 88.4976,-98.7376 L 88.4906,-98.7747 L 88.479,-98.8104 L 88.4629,-98.8445 L 88.4427,-98.8764
 L 88.4187,-98.9053 L 88.3912,-98.9312 L 88.3608,-98.9533 L 88.3277,-98.9715 L 88.2927,-98.9853 L 88.2563,-98.9947
 L 88.2,-99 L 86.05,-99 L 86.0124,-98.9976 L 85.9753,-98.9906 L 85.9396,-98.979 L 85.9055,-98.9629
 L 85.8736,-98.9427 L 85.8447,-98.9187 L 85.8188,-98.8912 L 85.7967,-98.8608 L 85.7785,-98.8277 L 85.7647,-98.7927
 L 85.7553,-98.7563 L 85.75,-98.7 L 85.75,-2.05 L 85.7476,-2.01241 L 85.7406,-1.9754 L 85.7289,-1.93956
 L 85.7129,-1.90547 L 85.6927,-1.87367 L 85.6687,-1.84464 L 85.6412,-1.81885 L 85.6107,-1.79671 L 85.5777,-1.77855
 L 85.5427,-1.76468 L 85.5062,-1.75531 L 85.45,-1.75 L 85.3,-1.75 L 85.2624,-1.75237 L 85.2254,-1.75943
 L 85.1896,-1.77107 L 85.1555,-1.78711 L 85.1237,-1.8073 L 85.0946,-1.83131 L 85.0688,-1.85878 L 85.0467,-1.88925
 L 85.0285,-1.92227 L 85.0147,-1.95729 L 85.0053,-1.99379 L 85,-2.05 L 85,-98.7 L 84.9976,-98.7376
 L 84.9906,-98.7747 L 84.979,-98.8104 L 84.9629,-98.8445 L 84.9427,-98.8764 L 84.9187,-98.9053 L 84.8912,-98.9312
 L 84.8608,-98.9533 L 84.8277,-98.9715 L 84.7927,-98.9853 L 84.7563,-98.9947 L 84.7,-99 L 82.55,-99
 L 82.5124,-98.9976 L 82.4753,-98.9906 L 82.4396,-98.979 L 82.4055,-98.9629 L 82.3736,-98.9427 L 82.3447,-98.9187
 L 82.3188,-98.8912 L 82.2967,-98.8608 L 82.2785,-98.8277 L 82.2647,-98.7927 L 82.2553,-98.7563 L 82.25,-98.7
 L 82.25,-2.05 L 82.2476,-2.01241 L 82.2406,-1.9754 L 82.2289,-1.93956 L 82.2129,-1.90547 L 82.1927,-1.87367
 L 82.1687,-1.84464 L 82.1412,-1.81885 L 82.1107,-1.79671 L 82.0777,-1.77855 L 82.0427,-1.76468 L 82.0062,-1.75531
 L 81.95,-1.75 L 81.8,-1.75 L 81.7624,-1.75237 L 81.7254,-1.75943 L 81.6896,-1.77107 L 81.6555,-1.78711
 L 81.6237,-1.8073 L 81.5946,-1.83131 L 81.5688,-1.85878 L 81.5467,-1.88925 L 81.5285,-1.92227 L 81.5147,-1.95729
 L 81.5053,-1.99379 L 81.5,-2.05 L 81.5,-98.7 L 81.4976,-98.7376 L 81.4906,-98.7747 L 81.479,-98.8104
 L 81.4629,-98.8445 L 81.4427,-98.8764 L 81.4187,-98.9053 L 81.3912,-98.9312 L 81.3608,-98.9533 L 81.3277,-98.9715
 L 81.2927,-98.9853 L 81.2563,-98.9947 L 81.2,-99 L 79.05,-99 L 79.0124,-98.9976 L 78.9753,-98.9906
 L 78.9396,-98.979 L 78.9055,-98.9629 L 78.8736,-98.9427 L 78.8447,-98.9187 L 78.8188,-98.8912 L 78.7967,-98.8608
 L 78.7785,-98.8277 L 78.7647,-98.7927 L 78.7553,-98.7563 L 78.75,-98.7 L 78.75,-2.05 L 78.7476,-2.01241
 L 78.7406,-1.9754 L 78.7289,-1.93956 L 78.7129,-1.90547 L 78.6927,-1.87367 L 78.6687,-1.84464 L 78.6412,-1.81885
 L 78.6107,-1.79671 L 78.5777,-1.77855 L 78.5427,-1.76468 L 78.5062,-1.75531 L 78.45,-1.75 L 78.3,-1.75
 L 78.2624,-1.75237 L 78.2254,-1.75943 L 78.1896,-1.77107 L 78.1555,-1.78711 L 78.1237,-1.8073 L 78.0946,-1.83131
 L 78.0688,-1.85878 L 78.0467,-1.88925 L 78.0285,-1.92227 L 78.0147,-1.95729 L 78.0053,-1.99379 L 78,-2.05
 L 78,-98.7 L 77.9976,-98.7376 L 77.9906,-98.7747 L 77.979,-98.8104 L 77.9629,-98.8445 L 77.9427,-98.8764
 L 77.9187,-98.9053 L 77.8912,-98.9312 L 77.8608,-98.9533 L 77.8277,-98.9715 L 77.7927,-98.9853 L 77.7563,-98.9947
 L 77.7,-99 L 75.55,-99 L 75.5124,-98.9976 L 75.4753,-98.9906 L 75.4396,-98.979 L 75.4055,-98.9629
 L 75.3736,-98.9427 L 75.3447,-98.9187 L 75.3188,-98.8912 L 75.2967,-98.8608 L 75.2785,-98.8277 L 75.2647,-98.7927
 L 75.2553,-98.7563 L 75.25,-98.7 L 75.25,-2.05 L 75.2476,-2.01241 L 75.2406,-1.9754 L 75.2289,-1.93956
 L 75.2129,-1.90547 L 75.1927,-1.87367 L 75.1687,-1.84464 L 75.1412,-1.81885 L 75.1107,-1.79671 L 75.0777,-1.77855
 L 75.0427,-1.76468 L 75.0062,-1.75531 L 74.95,-1.75 L 74.8,-1.75 L 74.7624,-1.75237 L 74.7254,-1.75943
 L 74.6896,-1.77107 L 74.6555,-1.78711 L 74.6237,-1.8073 L 74.5946,-1.83131 L 74.5688,-1.85878 L 74.5467,-1.88925
 L 74.5285,-1.92227 L 74.5147,-1.95729 L 74.5053,-1.99379 L 74.5,-2.05 L 74.5,-98.7 L 74.4976,-98.7376
 L 74.4906,-98.7747 L 74.479,-98.8104 L 74.4629,-98.8445 L 74.4427,-98.8764 L 74.4187,-98.9053 L 74.3912,-98.9312
 L 74.3608,-98.9533 L 74.3277,-98.9715 L 74.2927,-98.9853 L 74.2563,-98.9947 L 74.2,-99 L 72.05,-99
 L 72.0124,-98.9976 L 71.9753,-98.9906 L 71.9396,-98.979 L 71.9055,-98.9629 L 71.8736,-98.9427 L 71.8447,-98.9187
 L 71.8188,-98.8912 L 71.7967,-98.8608 L 71.7785,-98.8277 L 71.7647,-98.7927 L 71.7553,-98.7563 L 71.75,-98.7
 L 71.75,-2.05 L 71.7476,-2.01241 L 71.7406,-1.9754 L 71.7289,-1.93956 L 71.7129,-1.90547 L 71.6927,-1.87367
 L 71.6687,-1.84464 L 71.6412,-1.81885 L 71.6107,-1.79671 L 71.5777,-1.77855 L 71.5427,-1.76468 L 71.5062,-1.75531
 L 71.45,-1.75 L 71.3,-1.75 L 71.2624,-1.75237 L 71.2254,-1.75943 L 71.1896,-1.77107 L 71.1555,-1.78711
 L 71.1237,-1.8073 L 71.0946,-1.83131 L 71.0688,-1.85878 L 71.0467,-1.88925 L 71.0285,-1.92227 L 71.0147,-1.95729
 L 71.0053,-1.99379 L 71,-2.05 L 71,-98.7 L 70.9976,-98.7376 L 70.9906,-98.7747 L 70.979,-98.8104
 L 70.9629,-98.8445 L 70.9427,-98.8764 L 70.9187,-98.9053 L 70.8912,-98.9312 L 70.8608,-98.9533 L 70.8277,-98.9715
 L 70.7927,-98.9853 L 70.7563,-98.9947 L 70.7,-99 L 68.55,-99 L 68.5124,-98.9976 L 68.4753,-98.9906
 L 68.4396,-98.979 L 68.4055,-98.9629 L 68.3736,-98.9427 L 68.3447,-98.9187 L 68.3188,-98.8912 L 68.2967,-98.8608
 L 68.2785,-98.8277 L 68.2647,-98.7927 L 68.2553,-98.7563 L 68.25,-98.7 L 68.25,-2.05 L 68.2476,-2.01241
 L 68.2406,-1.9754 L 68.2289,-1.93956 L 68.2129,-1.90547 L 68.1927,-1.87367 L 68.1687,-1.84464 L 68.1412,-1.81885
 L 68.1107,-1.79671 L 68.0777,-1.77855 L 68.0427,-1.76468 L 68.0062,-1.75531 L 67.95,-1.75 L 67.8,-1.75
 L 67.7624,-1.75237 L 67.7254,-1.75943 L 67.6896,-1.77107 L 67.6555,-1.78711 L 67.6237,-1.8073 L 67.5946,-1.83131
 L 67.5688,-1.85878 L 67.5467,-1.88925 L 67.5285,-1.92227 L 67.5147,-1.95729 L 67.5053,-1.99379 L 67.5,-2.05
 L 67.5,-98.7 L 67.4976,-98.7376 L 67.4906,-98.7747 L 67.479,-98.8104 L 67.4629,-98.8445 L 67.4427,-98.8764
 L 67.4187,-98.9053 L 67.3912,-98.9312 L 67.3608,-98.9533 L 67.3277,-98.9715 L 67.2927,-98.9853 L 67.2563,-98.9947
 L 67.2,-99 L 65.05,-99 L 65.0124,-98.9976 L 64.9753,-98.9906 L 64.9396,-98.979 L 64.9055,-98.9629
 L 64.8736,-98.9427 L 64.8447,-98.9187 L 64.8188,-98.8912 L 64.7967,-98.8608 L 64.7785,-98.8277 L 64.7647,-98.7927
 L 64.7553,-98.7563 L 64.75,-98.7 L 64.75,-2.05 L 64.7476,-2.01241 L 64.7406,-1.9754 L 64.7289,-1.93956
 L 64.7129,-1.90547 L 64.6927,-1.87367 L 64.6687,-1.84464 L 64.6412,-1.81885 L 64.6107,-1.79671 L 64.5777,-1.77855
 L 64.5427,-1.76468 L 64.5062,-1.75531 L 64.45,-1.75 L 64.3,-1.75 L 64.2624,-1.75237 L 64.2254,-1.75943
 L 64.1896,-1.77107 L 64.1555,-1.78711 L 64.1237,-1.8073 L 64.0946,-1.83131 L 64.0688,-1.85878 L 64.0467,-1.88925
 L 64.0285,-1.92227 L 64.0147,-1.95729 L 64.0053,-1.99379 L 64,-2.05 L 64,-98.7 L 63.9976,-98.7376
 L 63.9906,-98.7747 L 63.979,-98.8104 L 63.9629,-98.8445 L 63.9427,-98.8764 L 63.9187,-98.9053 L 63.8912,-98.9312
 L 63.8608,-98.9533 L 63.8277,-98.9715 L 63.7927,-98.9853 L 63.7563,-98.9947 L 63.7,-99 L 61.55,-99
 L 61.5124,-98.9976 L 61.4753,-98.9906 L 61.4396,-98.979 L 61.4055,-98.9629 L 61.3736,-98.9427 L 61.3447,-98.9187
 L 61.3188,-98.8912 L 61.2967,-98.8608 L 61.2785,-98.8277 L 61.2647,-98.7927 L 61.2553,-98.7563 L 61.25,-98.7
 L 61.25,-2.05 L 61.2476,-2.01241 L 61.2406,-1.9754 L 61.2289,-1.93956 L 61.2129,-1.90547 L 61.1927,-1.87367
 L 61.1687,-1.84464 L 61.1412,-1.81885 L 61.1107,-1.79671 L 61.0777,-1.77855 L 61.0427,-1.76468 L 61.0062,-1.75531
 L 60.95,-1.75 L 60.8,-1.75 L 60.7624,-1.75237 L 60.7254,-1.75943 L 60.6896,-1.77107 L 60.6555,-1.78711
 L 60.6237,-1.8073 L 60.5946,-1.83131 L 60.5688,-1.85878 L 60.5467,-1.88925 L 60.5285,-1.92227 L 60.5147,-1.95729
 L 60.5053,-1.99379 L 60.5,-2.05 L 60.5,-98.7 L 60.4976,-98.7376 L 60.4906,-98.7747 L 60.479,-98.8104
 L 60.4629,-98.8445 L 60.4427,-98.8764 L 60.4187,-98.9053 L 60.3912,-98.9312 L 60.3608,-98.9533 L 60.3277,-98.9715
 L 60.2927,-98.9853 L 60.2563,-98.9947 L 60.2,-99 L 58.05,-99 L 58.0124,-98.9976 L 57.9753,-98.9906
 L 57.9396,-98.979 L 57.9055,-98.9629 L 57.8736,-98.9427 L 57.8447,-98.9187 L 57.8188,-98.8912 L 57.7967,-98.8608
 L 57.7785,-98.8277 L 57.7647,-98.7927 L 57.7553,-98.7563 L 57.75,-98.7 L 57.75,-2.05 L 57.7476,-2.01241
 L 57.7406,-1.9754 L 57.7289,-1.93956 L 57.7129,-1.90547 L 57.6927,-1.87367 L 57.6687,-1.84464 L 57.6412,-1.81885
 L 57.6107,-1.79671 L 57.5777,-1.77855 L 57.5427,-1.76468 L 57.5062,-1.75531 L 57.45,-1.75 L 57.3,-1.75
 L 57.2624,-1.75237 L 57.2254,-1.75943 L 57.1896,-1.77107 L 57.1555,-1.78711 L 57.1237,-1.8073 L 57.0946,-1.83131
 L 57.0688,-1.85878 L 57.0467,-1.88925 L 57.0285,-1.92227 L 57.0147,-1.95729 L 57.0053,-1.99379 L 57,-2.05
 L 57,-98.7 L 56.9976,-98.7376 L 56.9906,-98.7747 L 56.979,-98.8104 L 56.9629,-98.8445 L 56.9427,-98.8764
 L 56.9187,-98.9053 L 56.8912,-98.9312 L 56.8608,-98.9533 L 56.8277,-98.9715 L 56.7927,-98.9853 L 56.7563,-98.9947
 L 56.7,-99 L 54.55,-99 L 54.5124,-98.9976 L 54.4753,-98.9906 L 54.4396,-98.979 L 54.4055,-98.9629
 L 54.3736,-98.9427 L 54.3447,-98.9187 L 54.3188,-98.8912 L 54.2967,-98.8608 L 54.2785,-98.8277 L 54.2647,-98.7927
 L 54.2553,-98.7563 L 54.25,-98.7 L 54.25,-2.05 L 54.2476,-2.01241 L 54.2406,-1.9754 L 54.2289,-1.93956
 L 54.2129,-1.90547 L 54.1927,-1.87367 L 54.1687,-1.84464 L 54.1412,-1.81885 L 54.1107,-1.79671 L 54.0777,-1.77855
 L 54.0427,-1.76468 L 54.0062,-1.75531 L 53.95,-1.75 L 53.8,-1.75 L 53.7624,-1.75237 L 53.7254,-1.75943
 L 53.6896,-1.77107 L 53.6555,-1.78711 L 53.6237,-1.8073 L 53.5946,-1.83131 L 53.5688,-1.85878 L 53.5467,-1.88925
 L 53.5285,-1.92227 L 53.5147,-1.95729 L 53.5053,-1.99379 L 53.5,-2.05 L 53.5,-98.7 L 53.4976,-98.7376
 L 53.4906,-98.7747 L 53.479,-98.8104 L 53.4629,-98.8445 L 53.4427,-98.8764 L 53.4187,-98.9053 L 53.3912,-98.9312
 L 53.3608,-98.9533 L 53.3277,-98.9715 L 53.2927,-98.9853 L 53.2563,-98.9947 L 53.2,-99 L 51.05,-99
 L 51.0124,-98.9976 L 50.9753,-98.9906 L 50.9396,-98.979 L 50.9055,-98.9629 L 50.8736,-98.9427 L 50.8447,-98.9187
 L 50.8188,-98.8912 L 50.7967,-98.8608 L 50.7785,-98.8277 L 50.7647,-98.7927 L 50.7553,-98.7563 L 50.75,-98.7
 L 50.75,-2.05 L 50.7476,-2.01241 L 50.7406,-1.9754 L 50.7289,-1.93956 L 50.7129,-1.90547 L 50.6927,-1.87367
 L 50.6687,-1.84464 L 50.6412,-1.81885 L 50.6107,-1.79671 L 50.5777,-1.77855 L 50.5427,-1.76468 L 50.5062,-1.75531
 L 50.45,-1.75 L 50.3,-1.75 L 50.2624,-1.75237 L 50.2254,-1.75943 L 50.1896,-1.77107 L 50.1555,-1.78711
 L 50.1237,-1.8073 L 50.0946,-1.83131 L 50.0688,-1.85878 L 50.0467,-1.88925 L 50.0285,-1.92227 L 50.0147,-1.95729
 L 50.0053,-1.99379 L 50,-2.05 L 50,-98.7 L 49.9976,-98.7376 L 49.9906,-98.7747 L 49.979,-98.8104
 L 49.9629,-98.8445 L 49.9427,-98.8764 L 49.9187,-98.9053 L 49.8912,-98.9312 L 49.8608,-98.9533 L 49.8277,-98.9715
 L 49.7927,-98.9853 L 49.7563,-98.9947 L 49.7,-99 L 47.55,-99 L 47.5124,-98.9976 L 47.4753,-98.9906
 L 47.4396,-98.979 L 47.4055,-98.9629 L 47.3736,-98.9427 L 47.3447,-98.9187 L 47.3188,-98.8912 L 47.2967,-98.8608
 L 47.2785,-98.8277 L 47.2647,-98.7927 L 47.2553,-98.7563 L 47.25,-98.7 L 47.25,-2.05 L 47.2476,-2.01241
 L 47.2406,-1.9754 L 47.2289,-1.93956 L 47.2129,-1.90547 L 47.1927,-1.87367 L 47.1687,-1.84464 L 47.1412,-1.81885
 L 47.1107,-1.79671 L 47.0777,-1.77855 L 47.0427,-1.76468 L 47.0062,-1.75531 L 46.95,-1.75 L 46.8,-1.75
 L 46.7624,-1.75237 L 46.7254,-1.75943 L 46.6896,-1.77107 L 46.6555,-1.78711 L 46.6237,-1.8073 L 46.5946,-1.83131
 L 46.5688,-1.85878 L 46.5467,-1.88925 L 46.5285,-1.92227 L 46.5147,-1.95729 L 46.5053,-1.99379 L 46.5,-2.05
 L 46.5,-98.7 L 46.4976,-98.7376 L 46.4906,-98.7747 L 46.479,-98.8104 L 46.4629,-98.8445 L 46.4427,-98.8764
 L 46.4187,-98.9053 L 46.3912,-98.9312 L 46.3608,-98.9533 L 46.3277,-98.9715 L 46.2927,-98.9853 L 46.2563,-98.9947
 L 46.2,-99 L 44.05,-99 L 44.0124,-98.9976 L 43.9753,-98.9906 L 43.9396,-98.979 L 43.9055,-98.9629
 L 43.8736,-98.9427 L 43.8447,-98.9187 L 43.8188,-98.8912 L 43.7967,-98.8608 L 43.7785,-98.8277 L 43.7647,-98.7927
 L 43.7553,-98.7563 L 43.75,-98.7 L 43.75,-2.05 L 43.7476,-2.01241 L 43.7406,-1.9754 L 43.7289,-1.93956
 L 43.7129,-1.90547 L 43.6927,-1.87367 L 43.6687,-1.84464 L 43.6412,-1.81885 L 43.6107,-1.79671 L 43.5777,-1.77855
 L 43.5427,-1.76468 L 43.5062,-1.75531 L 43.45,-1.75 L 43.3,-1.75 L 43.2624,-1.75237 L 43.2254,-1.75943
 L 43.1896,-1.77107 L 43.1555,-1.78711 L 43.1237,-1.8073 L 43.0946,-1.83131 L 43.0688,-1.85878 L 43.0467,-1.88925
 L 43.0285,-1.92227 L 43.0147,-1.95729 L 43.0053,-1.99379 L 43,-2.05 L 43,-98.7 L 42.9976,-98.7376
 L 42.9906,-98.7747 L 42.979,-98.8104 L 42.9629,-98.8445 L 42.9427,-98.8764 L 42.9187,-98.9053 L 42.8912,-98.9312
 L 42.8608,-98.9533 L 42.8277,-98.9715 L 42.7927,-98.9853 L 42.7563,-98.9947 L 42.7,-99 L 40.55,-99
 L 40.5124,-98.9976 L 40.4753,-98.9906 L 40.4396,-98.979 L 40.4055,-98.9629 L 40.3736,-98.9427 L 40.3447,-98.9187
 L 40.3188,-98.8912 L 40.2967,-98.8608 L 40.2785,-98.8277 L 40.2647,-98.7927 L 40.2553,-98.7563 L 40.25,-98.7
 L 40.25,-2.05 L 40.2476,-2.01241 L 40.2406,-1.9754 L 40.2289,-1.93956 L 40.2129,-1.90547 L 40.1927,-1.87367
 L 40.1687,-1.84464 L 40.1412,-1.81885 L 40.1107,-1.79671 L 40.0777,-1.77855 L 40.0427,-1.76468 L 40.0062,-1.75531
 L 39.95,-1.75 L 39.8,-1.75 L 39.7624,-1.75237 L 39.7254,-1.75943 L 39.6896,-1.77107 L 39.6555,-1.78711
 L 39.6237,-1.8073 L 39.5946,-1.83131 L 39.5688,-1.85878 L 39.5467,-1.88925 L 39.5285,-1.92227 L 39.5147,-1.95729
 L 39.5053,-1.99379 L 39.5,-2.05 L 39.5,-98.7 L 39.4976,-98.7376 L 39.4906,-98.7747 L 39.479,-98.8104
 L 39.4629,-98.8445 L 39.4427,-98.8764 L 39.4187,-98.9053 L 39.3912,-98.9312 L 39.3608,-98.9533 L 39.3277,-98.9715
 L 39.2927,-98.9853 L 39.2563,-98.9947 L 39.2,-99 L 37.05,-99 L 37.0124,-98.9976 L 36.9753,-98.9906
 L 36.9396,-98.979 L 36.9055,-98.9629 L 36.8736,-98.9427 L 36.8447,-98.9187 L 36.8188,-98.8912 L 36.7967,-98.8608
 L 36.7785,-98.8277 L 36.7647,-98.7927 L 36.7553,-98.7563 L 36.75,-98.7 L 36.75,-2.05 L 36.7476,-2.01241
 L 36.7406,-1.9754 L 36.7289,-1.93956 L 36.7129,-1.90547 L 36.6927,-1.87367 L 36.6687,-1.84464 L 36.6412,-1.81885
 L 36.6107,-1.79671 L 36.5777,-1.77855 L 36.5427,-1.76468 L 36.5062,-1.75531 L 36.45,-1.75 L 36.3,-1.75
 L 36.2624,-1.75237 L 36.2254,-1.75943 L 36.1896,-1.77107 L 36.1555,-1.78711 L 36.1237,-1.8073 L 36.0946,-1.83131
 L 36.0688,-1.85878 L 36.0467,-1.88925 L 36.0285,-1.92227 L 36.0147,-1.95729 L 36.0053,-1.99379 L 36,-2.05
 L 36,-98.7 L 35.9976,-98.7376 L 35.9906,-98.7747 L 35.979,-98.8104 L 35.9629,-98.8445 L 35.9427,-98.8764
 L 35.9187,-98.9053 L 35.8912,-98.9312 L 35.8608,-98.9533 L 35.8277,-98.9715 L 35.7927,-98.9853 L 35.7563,-98.9947
 L 35.7,-99 L 33.55,-99 L 33.5124,-98.9976 L 33.4753,-98.9906 L 33.4396,-98.979 L 33.4055,-98.9629
 L 33.3736,-98.9427 L 33.3447,-98.9187 L 33.3188,-98.8912 L 33.2967,-98.8608 L 33.2785,-98.8277 L 33.2647,-98.7927
 L 33.2553,-98.7563 L 33.25,-98.7 L 33.25,-2.05 L 33.2476,-2.01241 L 33.2406,-1.9754 L 33.2289,-1.93956
 L 33.2129,-1.90547 L 33.1927,-1.87367 L 33.1687,-1.84464 L 33.1412,-1.81885 L 33.1107,-1.79671 L 33.0777,-1.77855
 L 33.0427,-1.76468 L 33.0062,-1.75531 L 32.95,-1.75 L 32.8,-1.75 L 32.7624,-1.75237 L 32.7254,-1.75943
 L 32.6896,-1.77107 L 32.6555,-1.78711 L 32.6237,-1.8073 L 32.5946,-1.83131 L 32.5688,-1.85878 L 32.5467,-1.88925
 L 32.5285,-1.92227 L 32.5147,-1.95729 L 32.5053,-1.99379 L 32.5,-2.05 L 32.5,-98.7 L 32.4976,-98.7376
 L 32.4906,-98.7747 L 32.479,-98.8104 L 32.4629,-98.8445 L 32.4427,-98.8764 L 32.4187,-98.9053 L 32.3912,-98.9312
 L 32.3608,-98.9533 L 32.3277,-98.9715 L 32.2927,-98.9853 L 32.2563,-98.9947 L 32.2,-99 L 30.05,-99
 L 30.0124,-98.9976 L 29.9753,-98.9906 L 29.9396,-98.979 L 29.9055,-98.9629 L 29.8736,-98.9427 L 29.8447,-98.9187
 L 29.8188,-98.8912 L 29.7967,-98.8608 L 29.7785,-98.8277 L 29.7647,-98.7927 L 29.7553,-98.7563 L 29.75,-98.7
 L 29.75,-2.05 L 29.7476,-2.01241 L 29.7406,-1.9754 L 29.7289,-1.93956 L 29.7129,-1.90547 L 29.6927,-1.87367
 L 29.6687,-1.84464 L 29.6412,-1.81885 L 29.6107,-1.79671 L 29.5777,-1.77855 L 29.5427,-1.76468 L 29.5062,-1.75531
 L 29.45,-1.75 L 29.3,-1.75 L 29.2624,-1.75237 L 29.2254,-1.75943 L 29.1896,-1.77107 L 29.1555,-1.78711
 L 29.1237,-1.8073 L 29.0946,-1.83131 L 29.0688,-1.85878 L 29.0467,-1.88925 L 29.0285,-1.92227 L 29.0147,-1.95729
 L 29.0053,-1.99379 L 29,-2.05 L 29,-98.7 L 28.9976,-98.7376 L 28.9906,-98.7747 L 28.979,-98.8104
 L 28.9629,-98.8445 L 28.9427,-98.8764 L 28.9187,-98.9053 L 28.8912,-98.9312 L 28.8608,-98.9533 L 28.8277,-98.9715
 L 28.7927,-98.9853 L 28.7563,-98.9947 L 28.7,-99 L 26.55,-99 L 26.5124,-98.9976 L 26.4753,-98.9906
 L 26.4396,-98.979 L 26.4055,-98.9629 L 26.3736,-98.9427 L 26.3447,-98.9187 L 26.3188,-98.8912 L 26.2967,-98.8608
 L 26.2785,-98.8277 L 26.2647,-98.7927 L 26.2553,-98.7563 L 26.25,-98.7 L 26.25,-2.05 L 26.2476,-2.01241
 L 26.2406,-1.9754 L 26.2289,-1.93956 L 26.2129,-1.90547 L 26.1927,-1.87367 L 26.1687,-1.84464 L 26.1412,-1.81885
 L 26.1107,-1.79671 L 26.0777,-1.77855 L 26.0427,-1.76468 L 26.0062,-1.75531 L 25.95,-1.75 L 25.8,-1.75
 L 25.7624,-1.75237 L 25.7254,-1.75943 L 25.6896,-1.77107 L 25.6555,-1.78711 L 25.6237,-1.8073 L 25.5946,-1.83131
 L 25.5688,-1.85878 L 25.5467,-1.88925 L 25.5285,-1.92227 L 25.5147,-1.95729 L 25.5053,-1.99379 L 25.5,-2.05
 L 25.5,-98.7 L 25.4976,-98.7376 L 25.4906,-98.7747 L 25.479,-98.8104 L 25.4629,-98.8445 L 25.4427,-98.8764
 L 25.4187,-98.9053 L 25.3912,-98.9312 L 25.3608,-98.9533 L 25.3277,-98.9715 L 25.2927,-98.9853 L 25.2563,-98.9947
 L 25.2,-99 L 23.05,-99 L 23.0124,-98.9976 L 22.9753,-98.9906 L 22.9396,-98.979 L 22.9055,-98.9629
 L 22.8736,-98.9427 L 22.8447,-98.9187 L 22.8188,-98.8912 L 22.7967,-98.8608 L 22.7785,-98.8277 L 22.7647,-98.7927
 L 22.7553,-98.7563 L 22.75,-98.7 L 22.75,-2.05 L 22.7476,-2.01241 L 22.7406,-1.9754 L 22.7289,-1.93956
 L 22.7129,-1.90547 L 22.6927,-1.87367 L 22.6687,-1.84464 L 22.6412,-1.81885 L 22.6107,-1.79671 L 22.5777,-1.77855
 L 22.5427,-1.76468 L 22.5062,-1.75531 L 22.45,-1.75 L 22.3,-1.75 L 22.2624,-1.75237 L 22.2254,-1.75943
 L 22.1896,-1.77107 L 22.1555,-1.78711 L 22.1237,-1.8073 L 22.0946,-1.83131 L 22.0688,-1.85878 L 22.0467,-1.88925
 L 22.0285,-1.92227 L 22.0147,-1.95729 L 22.0053,-1.99379 L 22,-2.05 L 22,-98.7 L 21.9976,-98.7376
 L 21.9906,-98.7747 L 21.979,-98.8104 L 21.9629,-98.8445 L 21.9427,-98.8764 L 21.9187,-98.9053 L 21.8912,-98.9312
 L 21.8608,-98.9533 L 21.8277,-98.9715 L 21.7927,-98.9853 L 21.7563,-98.9947 L 21.7,-99 L 19.55,-99
 L 19.5124,-98.9976 L 19.4753,-98.9906 L 19.4396,-98.979 L 19.4055,-98.9629 L 19.3736,-98.9427 L 19.3447,-98.9187
 L 19.3188,-98.8912 L 19.2967,-98.8608 L 19.2785,-98.8277 L 19.2647,-98.7927 L 19.2553,-98.7563 L 19.25,-98.7
 L 19.25,-2.05 L 19.2476,-2.01241 L 19.2406,-1.9754 L 19.2289,-1.93956 L 19.2129,-1.90547 L 19.1927,-1.87367
 L 19.1687,-1.84464 L 19.1412,-1.81885 L 19.1107,-1.79671 L 19.0777,-1.77855 L 19.0427,-1.76468 L 19.0062,-1.75531
 L 18.95,-1.75 L 18.8,-1.75 L 18.7624,-1.75237 L 18.7254,-1.75943 L 18.6896,-1.77107 L 18.6555,-1.78711
 L 18.6237,-1.8073 L 18.5946,-1.83131 L 18.5688,-1.85878 L 18.5467,-1.88925 L 18.5285,-1.92227 L 18.5147,-1.95729
 L 18.5053,-1.99379 L 18.5,-2.05 L 18.5,-98.7 L 18.4976,-98.7376 L 18.4906,-98.7747 L 18.479,-98.8104
 L 18.4629,-98.8445 L 18.4427,-98.8764 L 18.4187,-98.9053 L 18.3912,-98.9312 L 18.3608,-98.9533 L 18.3277,-98.9715
 L 18.2927,-98.9853 L 18.2563,-98.9947 L 18.2,-99 L 16.05,-99 L 16.0124,-98.9976 L 15.9753,-98.9906
 L 15.9396,-98.979 L 15.9055,-98.9629 L 15.8736,-98.9427 L 15.8447,-98.9187 L 15.8188,-98.8912 L 15.7967,-98.8608
 L 15.7785,-98.8277 L 15.7647,-98.7927 L 15.7553,-98.7563 L 15.75,-98.7 L 15.75,-2.05 L 15.7476,-2.01241
 L 15.7406,-1.9754 L 15.7289,-1.93956 L 15.7129,-1.90547 L 15.6927,-1.87367 L 15.6687,-1.84464 L 15.6412,-1.81885
 L 15.6107,-1.79671 L 15.5777,-1.77855 L 15.5427,-1.76468 L 15.5062,-1.75531 L 15.45,-1.75 L 15.3,-1.75
 L 15.2624,-1.75237 L 15.2254,-1.75943 L 15.1896,-1.77107 L 15.1555,-1.78711 L 15.1237,-1.8073 L 15.0946,-1.83131
 L 15.0688,-1.85878 L 15.0467,-1.88925 L 15.0285,-1.92227 L 15.0147,-1.95729 L 15.0053,-1.99379 L 15,-2.05
 L 15,-98.7 L 14.9976,-98.7376 L 14.9906,-98.7747 L 14.979,-98.8104 L 14.9629,-98.8445 L 14.9427,-98.8764
 L 14.9187,-98.9053 L 14.8912,-98.9312 L 14.8608,-98.9533 L 14.8277,-98.9715 L 14.7927,-98.9853 L 14.7563,-98.9947
 L 14.7,-99 L 12.55,-99 L 12.5124,-98.9976 L 12.4753,-98.9906 L 12.4396,-98.979 L 12.4055,-98.9629
 L 12.3736,-98.9427 L 12.3447,-98.9187 L 12.3188,-98.8912 L 12.2967,-98.8608 L 12.2785,-98.8277 L 12.2647,-98.7927
 L 12.2553,-98.7563 L 12.25,-98.7 L 12.25,-2.05 L 12.2476,-2.01241 L 12.2406,-1.9754 L 12.2289,-1.93956
 L 12.2129,-1.90547 L 12.1927,-1.87367 L 12.1687,-1.84464 L 12.1412,-1.81885 L 12.1107,-1.79671 L 12.0777,-1.77855
 L 12.0427,-1.76468 L 12.0062,-1.75531 L 11.95,-1.75 L 11.8,-1.75 L 11.7624,-1.75237 L 11.7254,-1.75943
 L 11.6896,-1.77107 L 11.6555,-1.78711 L 11.6237,-1.8073 L 11.5946,-1.83131 L 11.5688,-1.85878 L 11.5467,-1.88925
 L 11.5285,-1.92227 L 11.5147,-1.95729 L 11.5053,-1.99379 L 11.5,-2.05 L 11.5,-98.7 L 11.4976,-98.7376
 L 11.4906,-98.7747 L 11.479,-98.8104 L 11.4629,-98.8445 L 11.4427,-98.8764 L 11.4187,-98.9053 L 11.3912,-98.9312
 L 11.3608,-98.9533 L 11.3277,-98.9715 L 11.2927,-98.9853 L 11.2563,-98.9947 L 11.2,-99 L 9.04999,-99
 L 9.01244,-98.9976 L 8.97533,-98.9906 L 8.93962,-98.979 L 8.90546,-98.9629 L 8.87364,-98.9427 L 8.84467,-98.9187
 L 8.81883,-98.8912 L 8.79671,-98.8608 L 8.77853,-98.8277 L 8.76469,-98.7927 L 8.75533,-98.7563 L 8.75,-98.7
 L 8.75,-2.05 L 8.74763,-2.01241 L 8.74057,-1.9754 L 8.72893,-1.93956 L 8.71289,-1.90547 L 8.6927,-1.87367
 L 8.66869,-1.84464 L 8.64122,-1.81885 L 8.61075,-1.79671 L 8.57773,-1.77855 L 8.54271,-1.76468 L 8.50621,-1.75531
 L 8.45,-1.75 L 8.3,-1.75 L 8.26241,-1.75237 L 8.2254,-1.75943 L 8.18956,-1.77107 L 8.15547,-1.78711
 L 8.12367,-1.8073 L 8.09464,-1.83131 L 8.06885,-1.85878 L 8.04671,-1.88925 L 8.02855,-1.92227 L 8.01468,-1.95729
 L 8.00531,-1.99379 L 8,-2.05 L 8,-98.7 L 7.99763,-98.7376 L 7.99055,-98.7747 L 7.97896,-98.8104
 L 7.96288,-98.8445 L 7.94269,-98.8764 L 7.91872,-98.9053 L 7.8912,-98.9312 L 7.86076,-98.9533 L 7.82771,-98.9715
 L 7.79274,-98.9853 L 7.75626,-98.9947 L 7.69995,-99 L 5.54999,-99 L 5.51244,-98.9976 L 5.47533,-98.9906
 L 5.43962,-98.979 L 5.40546,-98.9629 L 5.37364,-98.9427 L 5.34467,-98.9187 L 5.31883,-98.8912 L 5.29671,-98.8608
 L 5.27853,-98.8277 L 5.26469,-98.7927 L 5.25533,-98.7563 L 5.25,-98.7 L 5.25,-2.05 L 5.24763,-2.01241
 L 5.24057,-1.9754 L 5.22893,-1.93956 L 5.21289,-1.90547 L 5.1927,-1.87367 L 5.16869,-1.84464 L 5.14122,-1.81885
 L 5.11075,-1.79671 L 5.07773,-1.77855 L 5.04271,-1.76468 L 5.00621,-1.75531 L 4.95,-1.75 L 4.8,-1.75
 L 4.76241,-1.75237 L 4.7254,-1.75943 L 4.68956,-1.77107 L 4.65547,-1.78711 L 4.62367,-1.8073 L 4.59464,-1.83131
 L 4.56885,-1.85878 L 4.54671,-1.88925 L 4.52855,-1.92227 L 4.51468,-1.95729 L 4.50531,-1.99379 L 4.5,-2.05
 L 4.5,-98.7 L 4.49763,-98.7376 L 4.49055,-98.7747 L 4.47896,-98.8104 L 4.46288,-98.8445 L 4.44269,-98.8764
 L 4.41872,-98.9053 L 4.3912,-98.9312 L 4.36076,-98.9533 L 4.32771,-98.9715 L 4.29274,-98.9853 L 4.25626,-98.9947
 L 4.19995,-99 L 2.04999,-99 L 2.01244,-98.9976 L 1.97533,-98.9906 L 1.93962,-98.979 L 1.90546,-98.9629
 L 1.87364,-98.9427 L 1.84467,-98.9187 L 1.81883,-98.8912 L 1.79671,-98.8608 L 1.77853,-98.8277 L 1.76469,-98.7927
 L 1.75533,-98.7563 L 1.75,-98.7 L 1.75,-2.05 L 1.74763,-2.01241 L 1.74057,-1.9754 L 1.72893,-1.93956
 L 1.71289,-1.90547 L 1.6927,-1.87367 L 1.66869,-1.84464 L 1.64122,-1.81885 L 1.61075,-1.79671 L 1.57773,-1.77855
 L 1.54271,-1.76468 L 1.50621,-1.75531 L 1.45,-1.75 L 0.299988,-1.75 L 0.262436,-1.74763 L 0.225327,-1.74055
 L 0.189621,-1.72896 L 0.155457,-1.71288 L 0.123642,-1.69269 L 0.0946655,-1.66872 L 0.0688324,-1.6412 L 0.0467072,-1.61076
 L 0.0285339,-1.57771 L 0.0146942,-1.54274 L 0.00532532,-1.50626 L 0,-1.44995 L 0,-1.04999 L 0.00236511,-1.01244
 L 0.00944519,-0.975327 L 0.0210419,-0.939621 L 0.0371246,-0.905457 L 0.057312,-0.873642 L 0.0812836,-0.844666 L 0.108795,-0.818832
 L 0.139236,-0.796707 L 0.172287,-0.778534 L 0.20726,-0.764694 L 0.243744,-0.755325 L 0.300049,-0.75 L 2.45001,-0.75
 L 2.48756,-0.752365 L 2.52467,-0.759445 L 2.56038,-0.771042 L 2.59454,-0.787125 L 2.62636,-0.807312 L 2.65533,-0.831284
 L 2.68117,-0.858795 L 2.70329,-0.889236 L 2.72147,-0.922287 L 2.73531,-0.95726 L 2.74467,-0.993744 L 2.75,-1.05005
 L 2.75,-97.95 L 2.75237,-97.9876 L 2.75943,-98.0246 L 2.77107,-98.0604 L 2.78711,-98.0945 L 2.8073,-98.1263
 L 2.83131,-98.1554 L 2.85878,-98.1812 L 2.88925,-98.2033 L 2.92227,-98.2215 L 2.95729,-98.2353 L 2.99379,-98.2447
 L 3.05,-98.25 L 3.2,-98.25 L 3.23759,-98.2476 L 3.2746,-98.2406 L 3.31044,-98.2289 L 3.34453,-98.2129
 L 3.37633,-98.1927 L 3.40536,-98.1687 L 3.43115,-98.1412 L 3.45329,-98.1107 L 3.47145,-98.0777 L 3.48532,-98.0427
 L 3.49469,-98.0062 L 3.5,-97.95 L 3.5,-1.04999 L 3.50237,-1.01244 L 3.50945,-0.975327 L 3.52104,-0.939621
 L 3.53712,-0.905457 L 3.55731,-0.873642 L 3.58128,-0.844666 L 3.6088,-0.818832 L 3.63924,-0.796707 L 3.67229,-0.778534
 L 3.70726,-0.764694 L 3.74374,-0.755325 L 3.80005,-0.75 L 5.95001,-0.75 L 5.98756,-0.752365 L 6.02467,-0.759445
 L 6.06038,-0.771042 L 6.09454,-0.787125 L 6.12636,-0.807312 L 6.15533,-0.831284 L 6.18117,-0.858795 L 6.20329,-0.889236
 L 6.22147,-0.922287 L 6.23531,-0.95726 L 6.24467,-0.993744 L 6.25,-1.05005 L 6.25,-97.95 L 6.25237,-97.9876
 L 6.25943,-98.0246 L 6.27107,-98.0604 L 6.28711,-98.0945 L 6.3073,-98.1263 L 6.33131,-98.1554 L 6.35878,-98.1812
 L 6.38925,-98.2033 L 6.42227,-98.2215 L 6.45729,-98.2353 L 6.49379,-98.2447 L 6.55,-98.25 L 6.7,-98.25
 L 6.73759,-98.2476 L 6.7746,-98.2406 L 6.81044,-98.2289 L 6.84453,-98.2129 L 6.87633,-98.1927 L 6.90536,-98.1687
 L 6.93115,-98.1412 L 6.95329,-98.1107 L 6.97145,-98.0777 L 6.98532,-98.0427 L 6.99469,-98.0062 L 7,-97.95
 L 7,-1.04999 L 7.00237,-1.01244 L 7.00945,-0.975327 L 7.02104,-0.939621 L 7.03712,-0.905457 L 7.05731,-0.873642
 L 7.08128,-0.844666 L 7.1088,-0.818832 L 7.13924,-0.796707 L 7.17229,-0.778534 L 7.20726,-0.764694 L 7.24374,-0.755325
 L 7.30005,-0.75 L 9.45001,-0.75 L 9.48756,-0.752365 L 9.52467,-0.759445 L 9.56038,-0.771042 L 9.59454,-0.787125
 L 9.62636,-0.807312 L 9.65533,-0.831284 L 9.68117,-0.858795 L 9.70329,-0.889236 L 9.72147,-0.922287 L 9.73531,-0.95726
 L 9.74467,-0.993744 L 9.75,-1.05005 L 9.75,-97.95 L 9.75237,-97.9876 L 9.75943,-98.0246 L 9.77107,-98.0604
 L 9.78711,-98.0945 L 9.8073,-98.1263 L 9.83131,-98.1554 L 9.85878,-98.1812 L 9.88925,-98.2033 L 9.92227,-98.2215
 L 9.95729,-98.2353 L 9.99379,-98.2447 L 10.05,-98.25 L 10.2,-98.25 L 10.2376,-98.2476 L 10.2746,-98.2406
 L 10.3104,-98.2289 L 10.3445,-98.2129 L 10.3763,-98.1927 L 10.4054,-98.1687 L 10.4312,-98.1412 L 10.4533,-98.1107
 L 10.4715,-98.0777 L 10.4853,-98.0427 L 10.4947,-98.0062 L 10.5,-97.95 L 10.5,-1.04999 L 10.5024,-1.01244
 L 10.5094,-0.975327 L 10.521,-0.939621 L 10.5371,-0.905457 L 10.5573,-0.873642 L 10.5813,-0.844666 L 10.6088,-0.818832
 L 10.6392,-0.796707 L 10.6723,-0.778534 L 10.7073,-0.764694 L 10.7437,-0.755325 L 10.8,-0.75 L 12.95,-0.75
 L 12.9876,-0.752365 L 13.0247,-0.759445 L 13.0604,-0.771042 L 13.0945,-0.787125 L 13.1264,-0.807312 L 13.1553,-0.831284
 L 13.1812,-0.858795 L 13.2033,-0.889236 L 13.2215,-0.922287 L 13.2353,-0.95726 L 13.2447,-0.993744 L 13.25,-1.05005
 L 13.25,-97.95 L 13.2524,-97.9876 L 13.2594,-98.0246 L 13.2711,-98.0604 L 13.2871,-98.0945 L 13.3073,-98.1263
 L 13.3313,-98.1554 L 13.3588,-98.1812 L 13.3893,-98.2033 L 13.4223,-98.2215 L 13.4573,-98.2353 L 13.4938,-98.2447
 L 13.55,-98.25 L 13.7,-98.25 L 13.7376,-98.2476 L 13.7746,-98.2406 L 13.8104,-98.2289 L 13.8445,-98.2129
 L 13.8763,-98.1927 L 13.9054,-98.1687 L 13.9312,-98.1412 L 13.9533,-98.1107 L 13.9715,-98.0777 L 13.9853,-98.0427
 L 13.9947,-98.0062 L 14,-97.95 L 14,-1.04999 L 14.0024,-1.01244 L 14.0094,-0.975327 L 14.021,-0.939621
 L 14.0371,-0.905457 L 14.0573,-0.873642 L 14.0813,-0.844666 L 14.1088,-0.818832 L 14.1392,-0.796707 L 14.1723,-0.778534
 L 14.2073,-0.764694 L 14.2437,-0.755325 L 14.3,-0.75 L 16.45,-0.75 L 16.4876,-0.752365 L 16.5247,-0.759445
 L 16.5604,-0.771042 L 16.5945,-0.787125 L 16.6264,-0.807312 L 16.6553,-0.831284 L 16.6812,-0.858795 L 16.7033,-0.889236
 L 16.7215,-0.922287 L 16.7353,-0.95726 L 16.7447,-0.993744 L 16.75,-1.05005 L 16.75,-97.95 L 16.7524,-97.9876
 L 16.7594,-98.0246 L 16.7711,-98.0604 L 16.7871,-98.0945 L 16.8073,-98.1263 L 16.8313,-98.1554 L 16.8588,-98.1812
 L 16.8893,-98.2033 L 16.9223,-98.2215 L 16.9573,-98.2353 L 16.9938,-98.2447 L 17.05,-98.25 L 17.2,-98.25
 L 17.2376,-98.2476 L 17.2746,-98.2406 L 17.3104,-98.2289 L 17.3445,-98.2129 L 17.3763,-98.1927 L 17.4054,-98.1687
 L 17.4312,-98.1412 L 17.4533,-98.1107 L 17.4715,-98.0777 L 17.4853,-98.0427 L 17.4947,-98.0062 L 17.5,-97.95
 L 17.5,-1.04999 L 17.5024,-1.01244 L 17.5094,-0.975327 L 17.521,-0.939621 L 17.5371,-0.905457 L 17.5573,-0.873642
 L 17.5813,-0.844666 L 17.6088,-0.818832 L 17.6392,-0.796707 L 17.6723,-0.778534 L 17.7073,-0.764694 L 17.7437,-0.755325
 L 17.8,-0.75 L 19.95,-0.75 L 19.9876,-0.752365 L 20.0247,-0.759445 L 20.0604,-0.771042 L 20.0945,-0.787125
 L 20.1264,-0.807312 L 20.1553,-0.831284 L 20.1812,-0.858795 L 20.2033,-0.889236 L 20.2215,-0.922287 L 20.2353,-0.95726
 L 20.2447,-0.993744 L 20.25,-1.05005 L 20.25,-97.95 L 20.2524,-97.9876 L 20.2594,-98.0246 L 20.2711,-98.0604
 L 20.2871,-98.0945 L 20.3073,-98.1263 L 20.3313,-98.1554 L 20.3588,-98.1812 L 20.3893,-98.2033 L 20.4223,-98.2215
 L 20.4573,-98.2353 L 20.4938,-98.2447 L 20.55,-98.25 L 20.7,-98.25 L 20.7376,-98.2476 L 20.7746,-98.2406
 L 20.8104,-98.2289 L 20.8445,-98.2129 L 20.8763,-98.1927 L 20.9054,-98.1687 L 20.9312,-98.1412 L 20.9533,-98.1107
 L 20.9715,-98.0777 L 20.9853,-98.0427 L 20.9947,-98.0062 L 21,-97.95 L 21,-1.04999 L 21.0024,-1.01244
 L 21.0094,-0.975327 L 21.021,-0.939621 L 21.0371,-0.905457 L 21.0573,-0.873642 L 21.0813,-0.844666 L 21.1088,-0.818832
 L 21.1392,-0.796707 L 21.1723,-0.778534 L 21.2073,-0.764694 L 21.2437,-0.755325 L 21.3,-0.75 L 23.45,-0.75
 L 23.4876,-0.752365 L 23.5247,-0.759445 L 23.5604,-0.771042 L 23.5945,-0.787125 L 23.6264,-0.807312 L 23.6553,-0.831284
 L 23.6812,-0.858795 L 23.7033,-0.889236 L 23.7215,-0.922287 L 23.7353,-0.95726 L 23.7447,-0.993744 L 23.75,-1.05005
 L 23.75,-97.95 L 23.7524,-97.9876 L 23.7594,-98.0246 L 23.7711,-98.0604 L 23.7871,-98.0945 L 23.8073,-98.1263
 L 23.8313,-98.1554 L 23.8588,-98.1812 L 23.8893,-98.2033 L 23.9223,-98.2215 L 23.9573,-98.2353 L 23.9938,-98.2447
 L 24.05,-98.25 L 24.2,-98.25 L 24.2376,-98.2476 L 24.2746,-98.2406 L 24.3104,-98.2289 L 24.3445,-98.2129
 L 24.3763,-98.1927 L 24.4054,-98.1687 L 24.4312,-98.1412 L 24.4533,-98.1107 L 24.4715,-98.0777 L 24.4853,-98.0427
 L 24.4947,-98.0062 L 24.5,-97.95 L 24.5,-1.04999 L 24.5024,-1.01244 L 24.5094,-0.975327 L 24.521,-0.939621
 L 24.5371,-0.905457 L 24.5573,-0.873642 L 24.5813,-0.844666 L 24.6088,-0.818832 L 24.6392,-0.796707 L 24.6723,-0.778534
 L 24.7073,-0.764694 L 24.7437,-0.755325 L 24.8,-0.75 L 26.95,-0.75 L 26.9876,-0.752365 L 27.0247,-0.759445
 L 27.0604,-0.771042 L 27.0945,-0.787125 L 27.1264,-0.807312 L 27.1553,-0.831284 L 27.1812,-0.858795 L 27.2033,-0.889236
 L 27.2215,-0.922287 L 27.2353,-0.95726 L 27.2447,-0.993744 L 27.25,-1.05005 L 27.25,-97.95 L 27.2524,-97.9876
 L 27.2594,-98.0246 L 27.2711,-98.0604 L 27.2871,-98.0945 L 27.3073,-98.1263 L 27.3313,-98.1554 L 27.3588,-98.1812
 L 27.3893,-98.2033 L 27.4223,-98.2215 L 27.4573,-98.2353 L 27.4938,-98.2447 L 27.55,-98.25 L 27.7,-98.25
 L 27.7376,-98.2476 L 27.7746,-98.2406 L 27.8104,-98.2289 L 27.8445,-98.2129 L 27.8763,-98.1927 L 27.9054,-98.1687
 L 27.9312,-98.1412 L 27.9533,-98.1107 L 27.9715,-98.0777 L 27.9853,-98.0427 L 27.9947,-98.0062 L 28,-97.95
 L 28,-1.04999 L 28.0024,-1.01244 L 28.0094,-0.975327 L 28.021,-0.939621 L 28.0371,-0.905457 L 28.0573,-0.873642
 L 28.0813,-0.844666 L 28.1088,-0.818832 L 28.1392,-0.796707 L 28.1723,-0.778534 L 28.2073,-0.764694 L 28.2437,-0.755325
 L 28.3,-0.75 L 30.45,-0.75 L 30.4876,-0.752365 L 30.5247,-0.759445 L 30.5604,-0.771042 L 30.5945,-0.787125
 L 30.6264,-0.807312 L 30.6553,-0.831284 L 30.6812,-0.858795 L 30.7033,-0.889236 L 30.7215,-0.922287 L 30.7353,-0.95726
 L 30.7447,-0.993744 L 30.75,-1.05005 L 30.75,-97.95 L 30.7524,-97.9876 L 30.7594,-98.0246 L 30.7711,-98.0604
 L 30.7871,-98.0945 L 30.8073,-98.1263 L 30.8313,-98.1554 L 30.8588,-98.1812 L 30.8893,-98.2033 L 30.9223,-98.2215
 L 30.9573,-98.2353 L 30.9938,-98.2447 L 31.05,-98.25 L 31.2,-98.25 L 31.2376,-98.2476 L 31.2746,-98.2406
 L 31.3104,-98.2289 L 31.3445,-98.2129 L 31.3763,-98.1927 L 31.4054,-98.1687 L 31.4312,-98.1412 L 31.4533,-98.1107
 L 31.4715,-98.0777 L 31.4853,-98.0427 L 31.4947,-98.0062 L 31.5,-97.95 L 31.5,-1.04999 L 31.5024,-1.01244
 L 31.5094,-0.975327 L 31.521,-0.939621 L 31.5371,-0.905457 L 31.5573,-0.873642 L 31.5813,-0.844666 L 31.6088,-0.818832
 L 31.6392,-0.796707 L 31.6723,-0.778534 L 31.7073,-0.764694 L 31.7437,-0.755325 L 31.8,-0.75 L 33.95,-0.75
 L 33.9876,-0.752365 L 34.0247,-0.759445 L 34.0604,-0.771042 L 34.0945,-0.787125 L 34.1264,-0.807312 L 34.1553,-0.831284
 L 34.1812,-0.858795 L 34.2033,-0.889236 L 34.2215,-0.922287 L 34.2353,-0.95726 L 34.2447,-0.993744 L 34.25,-1.05005
 L 34.25,-97.95 L 34.2524,-97.9876 L 34.2594,-98.0246 L 34.2711,-98.0604 L 34.2871,-98.0945 L 34.3073,-98.1263
 L 34.3313,-98.1554 L 34.3588,-98.1812 L 34.3893,-98.2033 L 34.4223,-98.2215 L 34.4573,-98.2353 L 34.4938,-98.2447
 L 34.55,-98.25 L 34.7,-98.25 L 34.7376,-98.2476 L 34.7746,-98.2406 L 34.8104,-98.2289 L 34.8445,-98.2129
 L 34.8763,-98.1927 L 34.9054,-98.1687 L 34.9312,-98.1412 L 34.9533,-98.1107 L 34.9715,-98.0777 L 34.9853,-98.0427
 L 34.9947,-98.0062 L 35,-97.95 L 35,-1.04999 L 35.0024,-1.01244 L 35.0094,-0.975327 L 35.021,-0.939621
 L 35.0371,-0.905457 L 35.0573,-0.873642 L 35.0813,-0.844666 L 35.1088,-0.818832 L 35.1392,-0.796707 L 35.1723,-0.778534
 L 35.2073,-0.764694 L 35.2437,-0.755325 L 35.3,-0.75 L 37.45,-0.75 L 37.4876,-0.752365 L 37.5247,-0.759445
 L 37.5604,-0.771042 L 37.5945,-0.787125 L 37.6264,-0.807312 L 37.6553,-0.831284 L 37.6812,-0.858795 L 37.7033,-0.889236
 L 37.7215,-0.922287 L 37.7353,-0.95726 L 37.7447,-0.993744 L 37.75,-1.05005 L 37.75,-97.95 L 37.7524,-97.9876
 L 37.7594,-98.0246 L 37.7711,-98.0604 L 37.7871,-98.0945 L 37.8073,-98.1263 L 37.8313,-98.1554 L 37.8588,-98.1812
 L 37.8893,-98.2033 L 37.9223,-98.2215 L 37.9573,-98.2353 L 37.9938,-98.2447 L 38.05,-98.25 L 38.2,-98.25
 L 38.2376,-98.2476 L 38.2746,-98.2406 L 38.3104,-98.2289 L 38.3445,-98.2129 L 38.3763,-98.1927 L 38.4054,-98.1687
 L 38.4312,-98.1412 L 38.4533,-98.1107 L 38.4715,-98.0777 L 38.4853,-98.0427 L 38.4947,-98.0062 L 38.5,-97.95
 L 38.5,-1.04999 L 38.5024,-1.01244 L 38.5094,-0.975327 L 38.521,-0.939621 L 38.5371,-0.905457 L 38.5573,-0.873642
 L 38.5813,-0.844666 L 38.6088,-0.818832 L 38.6392,-0.796707 L 38.6723,-0.778534 L 38.7073,-0.764694 L 38.7437,-0.755325
 L 38.8,-0.75 L 40.95,-0.75 L 40.9876,-0.752365 L 41.0247,-0.759445 L 41.0604,-0.771042 L 41.0945,-0.787125
 L 41.1264,-0.807312 L 41.1553,-0.831284 L 41.1812,-0.858795 L 41.2033,-0.889236 L 41.2215,-0.922287 L 41.2353,-0.95726
 L 41.2447,-0.993744 L 41.25,-1.05005 L 41.25,-97.95 L 41.2524,-97.9876 L 41.2594,-98.0246 L 41.2711,-98.0604
 L 41.2871,-98.0945 L 41.3073,-98.1263 L 41.3313,-98.1554 L 41.3588,-98.1812 L 41.3893,-98.2033 L 41.4223,-98.2215
 L 41.4573,-98.2353 L 41.4938,-98.2447 L 41.55,-98.25 L 41.7,-98.25 L 41.7376,-98.2476 L 41.7746,-98.2406
 L 41.8104,-98.2289 L 41.8445,-98.2129 L 41.8763,-98.1927 L 41.9054,-98.1687 L 41.9312,-98.1412 L 41.9533,-98.1107
 L 41.9715,-98.0777 L 41.9853,-98.0427 L 41.9947,-98.0062 L 42,-97.95 L 42,-1.04999 L 42.0024,-1.01244
 L 42.0094,-0.975327 L 42.021,-0.939621 L 42.0371,-0.905457 L 42.0573,-0.873642 L 42.0813,-0.844666 L 42.1088,-0.818832
 L 42.1392,-0.796707 L 42.1723,-0.778534 L 42.2073,-0.764694 L 42.2437,-0.755325 L 42.3,-0.75 L 44.45,-0.75
 L 44.4876,-0.752365 L 44.5247,-0.759445 L 44.5604,-0.771042 L 44.5945,-0.787125 L 44.6264,-0.807312 L 44.6553,-0.831284
 L 44.6812,-0.858795 L 44.7033,-0.889236 L 44.7215,-0.922287 L 44.7353,-0.95726 L 44.7447,-0.993744 L 44.75,-1.05005
 L 44.75,-97.95 L 44.7524,-97.9876 L 44.7594,-98.0246 L 44.7711,-98.0604 L 44.7871,-98.0945 L 44.8073,-98.1263
 L 44.8313,-98.1554 L 44.8588,-98.1812 L 44.8893,-98.2033 L 44.9223,-98.2215 L 44.9573,-98.2353 L 44.9938,-98.2447
 L 45.05,-98.25 L 45.2,-98.25 L 45.2376,-98.2476 L 45.2746,-98.2406 L 45.3104,-98.2289 L 45.3445,-98.2129
 L 45.3763,-98.1927 L 45.4054,-98.1687 L 45.4312,-98.1412 L 45.4533,-98.1107 L 45.4715,-98.0777 L 45.4853,-98.0427
 L 45.4947,-98.0062 L 45.5,-97.95 L 45.5,-1.04999 L 45.5024,-1.01244 L 45.5094,-0.975327 L 45.521,-0.939621
 L 45.5371,-0.905457 L 45.5573,-0.873642 L 45.5813,-0.844666 L 45.6088,-0.818832 L 45.6392,-0.796707 L 45.6723,-0.778534
 L 45.7073,-0.764694 L 45.7437,-0.755325 L 45.8,-0.75 L 47.95,-0.75 L 47.9876,-0.752365 L 48.0247,-0.759445
 L 48.0604,-0.771042 L 48.0945,-0.787125 L 48.1264,-0.807312 L 48.1553,-0.831284 L 48.1812,-0.858795 L 48.2033,-0.889236
 L 48.2215,-0.922287 L 48.2353,-0.95726 L 48.2447,-0.993744 L 48.25,-1.05005 L 48.25,-97.95 L 48.2524,-97.9876
 L 48.2594,-98.0246 L 48.2711,-98.0604 L 48.2871,-98.0945 L 48.3073,-98.1263 L 48.3313,-98.1554 L 48.3588,-98.1812
 L 48.3893,-98.2033 L 48.4223,-98.2215 L 48.4573,-98.2353 L 48.4938,-98.2447 L 48.55,-98.25 L 48.7,-98.25
 L 48.7376,-98.2476 L 48.7746,-98.2406 L 48.8104,-98.2289 L 48.8445,-98.2129 L 48.8763,-98.1927 L 48.9054,-98.1687
 L 48.9312,-98.1412 L 48.9533,-98.1107 L 48.9715,-98.0777 L 48.9853,-98.0427 L 48.9947,-98.0062 L 49,-97.95
 L 49,-1.04999 L 49.0024,-1.01244 L 49.0094,-0.975327 L 49.021,-0.939621 L 49.0371,-0.905457 L 49.0573,-0.873642
 L 49.0813,-0.844666 L 49.1088,-0.818832 L 49.1392,-0.796707 L 49.1723,-0.778534 L 49.2073,-0.764694 L 49.2437,-0.755325
 L 49.3,-0.75 L 51.45,-0.75 L 51.4876,-0.752365 L 51.5247,-0.759445 L 51.5604,-0.771042 L 51.5945,-0.787125
 L 51.6264,-0.807312 L 51.6553,-0.831284 L 51.6812,-0.858795 L 51.7033,-0.889236 L 51.7215,-0.922287 L 51.7353,-0.95726
 L 51.7447,-0.993744 L 51.75,-1.05005 L 51.75,-97.95 L 51.7524,-97.9876 L 51.7594,-98.0246 L 51.7711,-98.0604
 L 51.7871,-98.0945 L 51.8073,-98.1263 L 51.8313,-98.1554 L 51.8588,-98.1812 L 51.8893,-98.2033 L 51.9223,-98.2215
 L 51.9573,-98.2353 L 51.9938,-98.2447 L 52.05,-98.25 L 52.2,-98.25 L 52.2376,-98.2476 L 52.2746,-98.2406
 L 52.3104,-98.2289 L 52.3445,-98.2129 L 52.3763,-98.1927 L 52.4054,-98.1687 L 52.4312,-98.1412 L 52.4533,-98.1107
 L 52.4715,-98.0777 L 52.4853,-98.0427 L 52.4947,-98.0062 L 52.5,-97.95 L 52.5,-1.04999 L 52.5024,-1.01244
 L 52.5094,-0.975327 L 52.521,-0.939621 L 52.5371,-0.905457 L 52.5573,-0.873642 L 52.5813,-0.844666 L 52.6088,-0.818832
 L 52.6392,-0.796707 L 52.6723,-0.778534 L 52.7073,-0.764694 L 52.7437,-0.755325 L 52.8,-0.75 L 54.95,-0.75
 L 54.9876,-0.752365 L 55.0247,-0.759445 L 55.0604,-0.771042 L 55.0945,-0.787125 L 55.1264,-0.807312 L 55.1553,-0.831284
 L 55.1812,-0.858795 L 55.2033,-0.889236 L 55.2215,-0.922287 L 55.2353,-0.95726 L 55.2447,-0.993744 L 55.25,-1.05005
 L 55.25,-97.95 L 55.2524,-97.9876 L 55.2594,-98.0246 L 55.2711,-98.0604 L 55.2871,-98.0945 L 55.3073,-98.1263
 L 55.3313,-98.1554 L 55.3588,-98.1812 L 55.3893,-98.2033 L 55.4223,-98.2215 L 55.4573,-98.2353 L 55.4938,-98.2447
 L 55.55,-98.25 L 55.7,-98.25 L 55.7376,-98.2476 L 55.7746,-98.2406 L 55.8104,-98.2289 L 55.8445,-98.2129
 L 55.8763,-98.1927 L 55.9054,-98.1687 L 55.9312,-98.1412 L 55.9533,-98.1107 L 55.9715,-98.0777 L 55.9853,-98.0427
 L 55.9947,-98.0062 L 56,-97.95 L 56,-1.04999 L 56.0024,-1.01244 L 56.0094,-0.975327 L 56.021,-0.939621
 L 56.0371,-0.905457 L 56.0573,-0.873642 L 56.0813,-0.844666 L 56.1088,-0.818832 L 56.1392,-0.796707 L 56.1723,-0.778534
 L 56.2073,-0.764694 L 56.2437,-0.755325 L 56.3,-0.75 L 58.45,-0.75 L 58.4876,-0.752365 L 58.5247,-0.759445
 L 58.5604,-0.771042 L 58.5945,-0.787125 L 58.6264,-0.807312 L 58.6553,-0.831284 L 58.6812,-0.858795 L 58.7033,-0.889236
 L 58.7215,-0.922287 L 58.7353,-0.95726 L 58.7447,-0.993744 L 58.75,-1.05005 L 58.75,-97.95 L 58.7524,-97.9876
 L 58.7594,-98.0246 L 58.7711,-98.0604 L 58.7871,-98.0945 L 58.8073,-98.1263 L 58.8313,-98.1554 L 58.8588,-98.1812
 L 58.8893,-98.2033 L 58.9223,-98.2215 L 58.9573,-98.2353 L 58.9938,-98.2447 L 59.05,-98.25 L 59.2,-98.25
 L 59.2376,-98.2476 L 59.2746,-98.2406 L 59.3104,-98.2289 L 59.3445,-98.2129 L 59.3763,-98.1927 L 59.4054,-98.1687
 L 59.4312,-98.1412 L 59.4533,-98.1107 L 59.4715,-98.0777 L 59.4853,-98.0427 L 59.4947,-98.0062 L 59.5,-97.95
 L 59.5,-1.04999 L 59.5024,-1.01244 L 59.5094,-0.975327 L 59.521,-0.939621 L 59.5371,-0.905457 L 59.5573,-0.873642
 L 59.5813,-0.844666 L 59.6088,-0.818832 L 59.6392,-0.796707 L 59.6723,-0.778534 L 59.7073,-0.764694 L 59.7437,-0.755325
 L 59.8,-0.75 L 61.95,-0.75 L 61.9876,-0.752365 L 62.0247,-0.759445 L 62.0604,-0.771042 L 62.0945,-0.787125
 L 62.1264,-0.807312 L 62.1553,-0.831284 L 62.1812,-0.858795 L 62.2033,-0.889236 L 62.2215,-0.922287 L 62.2353,-0.95726
 L 62.2447,-0.993744 L 62.25,-1.05005 L 62.25,-97.95 L 62.2524,-97.9876 L 62.2594,-98.0246 L 62.2711,-98.0604
 L 62.2871,-98.0945 L 62.3073,-98.1263 L 62.3313,-98.1554 L 62.3588,-98.1812 L 62.3893,-98.2033 L 62.4223,-98.2215
 L 62.4573,-98.2353 L 62.4938,-98.2447 L 62.55,-98.25 L 62.7,-98.25 L 62.7376,-98.2476 L 62.7746,-98.2406
 L 62.8104,-98.2289 L 62.8445,-98.2129 L 62.8763,-98.1927 L 62.9054,-98.1687 L 62.9312,-98.1412 L 62.9533,-98.1107
 L 62.9715,-98.0777 L 62.9853,-98.0427 L 62.9947,-98.0062 L 63,-97.95 L 63,-1.04999 L 63.0024,-1.01244
 L 63.0094,-0.975327 L 63.021,-0.939621 L 63.0371,-0.905457 L 63.0573,-0.873642 L 63.0813,-0.844666 L 63.1088,-0.818832
 L 63.1392,-0.796707 L 63.1723,-0.778534 L 63.2073,-0.764694 L 63.2437,-0.755325 L 63.3,-0.75 L 65.45,-0.75
 L 65.4876,-0.752365 L 65.5247,-0.759445 L 65.5604,-0.771042 L 65.5945,-0.787125 L 65.6264,-0.807312 L 65.6553,-0.831284
 L 65.6812,-0.858795 L 65.7033,-0.889236 L 65.7215,-0.922287 L 65.7353,-0.95726 L 65.7447,-0.993744 L 65.75,-1.05005
 L 65.75,-97.95 L 65.7524,-97.9876 L 65.7594,-98.0246 L 65.7711,-98.0604 L 65.7871,-98.0945 L 65.8073,-98.1263
 L 65.8313,-98.1554 L 65.8588,-98.1812 L 65.8893,-98.2033 L 65.9223,-98.2215 L 65.9573,-98.2353 L 65.9938,-98.2447
 L 66.05,-98.25 L 66.2,-98.25 L 66.2376,-98.2476 L 66.2746,-98.2406 L 66.3104,-98.2289 L 66.3445,-98.2129
 L 66.3763,-98.1927 L 66.4054,-98.1687 L 66.4312,-98.1412 L 66.4533,-98.1107 L 66.4715,-98.0777 L 66.4853,-98.0427
 L 66.4947,-98.0062 L 66.5,-97.95 L 66.5,-1.04999 L 66.5024,-1.01244 L 66.5094,-0.975327 L 66.521,-0.939621
 L 66.5371,-0.905457 L 66.5573,-0.873642 L 66.5813,-0.844666 L 66.6088,-0.818832 L 66.6392,-0.796707 L 66.6723,-0.778534
 L 66.7073,-0.764694 L 66.7437,-0.755325 L 66.8,-0.75 L 68.95,-0.75 L 68.9876,-0.752365 L 69.0247,-0.759445
 L 69.0604,-0.771042 L 69.0945,-0.787125 L 69.1264,-0.807312 L 69.1553,-0.831284 L 69.1812,-0.858795 L 69.2033,-0.889236
 L 69.2215,-0.922287 L 69.2353,-0.95726 L 69.2447,-0.993744 L 69.25,-1.05005 L 69.25,-97.95 L 69.2524,-97.9876
 L 69.2594,-98.0246 L 69.2711,-98.0604 L 69.2871,-98.0945 L 69.3073,-98.1263 L 69.3313,-98.1554 L 69.3588,-98.1812
 L 69.3893,-98.2033 L 69.4223,-98.2215 L 69.4573,-98.2353 L 69.4938,-98.2447 L 69.55,-98.25 L 69.7,-98.25
 L 69.7376,-98.2476 L 69.7746,-98.2406 L 69.8104,-98.2289 L 69.8445,-98.2129 L 69.8763,-98.1927 L 69.9054,-98.1687
 L 69.9312,-98.1412 L 69.9533,-98.1107 L 69.9715,-98.0777 L 69.9853,-98.0427 L 69.9947,-98.0062 L 70,-97.95
 L 70,-1.04999 L 70.0024,-1.01244 L 70.0094,-0.975327 L 70.021,-0.939621 L 70.0371,-0.905457 L 70.0573,-0.873642
 L 70.0813,-0.844666 L 70.1088,-0.818832 L 70.1392,-0.796707 L 70.1723,-0.778534 L 70.2073,-0.764694 L 70.2437,-0.755325
 L 70.3,-0.75 L 72.45,-0.75 L 72.4876,-0.752365 L 72.5247,-0.759445 L 72.5604,-0.771042 L 72.5945,-0.787125
 L 72.6264,-0.807312 L 72.6553,-0.831284 L 72.6812,-0.858795 L 72.7033,-0.889236 L 72.7215,-0.922287 L 72.7353,-0.95726
 L 72.7447,-0.993744 L 72.75,-1.05005 L 72.75,-97.95 L 72.7524,-97.9876 L 72.7594,-98.0246 L 72.7711,-98.0604
 L 72.7871,-98.0945 L 72.8073,-98.1263 L 72.8313,-98.1554 L 72.8588,-98.1812 L 72.8893,-98.2033 L 72.9223,-98.2215
 L 72.9573,-98.2353 L 72.9938,-98.2447 L 73.05,-98.25 L 73.2,-98.25 L 73.2376,-98.2476 L 73.2746,-98.2406
 L 73.3104,-98.2289 L 73.3445,-98.2129 L 73.3763,-98.1927 L 73.4054,-98.1687 L 73.4312,-98.1412 L 73.4533,-98.1107
 L 73.4715,-98.0777 L 73.4853,-98.0427 L 73.4947,-98.0062 L 73.5,-97.95 L 73.5,-1.04999 L 73.5024,-1.01244
 L 73.5094,-0.975327 L 73.521,-0.939621 L 73.5371,-0.905457 L 73.5573,-0.873642 L 73.5813,-0.844666 L 73.6088,-0.818832
 L 73.6392,-0.796707 L 73.6723,-0.778534 L 73.7073,-0.764694 L 73.7437,-0.755325 L 73.8,-0.75 L 75.95,-0.75
 L 75.9876,-0.752365 L 76.0247,-0.759445 L 76.0604,-0.771042 L 76.0945,-0.787125 L 76.1264,-0.807312 L 76.1553,-0.831284
 L 76.1812,-0.858795 L 76.2033,-0.889236 L 76.2215,-0.922287 L 76.2353,-0.95726 L 76.2447,-0.993744 L 76.25,-1.05005
 L 76.25,-97.95 L 76.2524,-97.9876 L 76.2594,-98.0246 L 76.2711,-98.0604 L 76.2871,-98.0945 L 76.3073,-98.1263
 L 76.3313,-98.1554 L 76.3588,-98.1812 L 76.3893,-98.2033 L 76.4223,-98.2215 L 76.4573,-98.2353 L 76.4938,-98.2447
 L 76.55,-98.25 L 76.7,-98.25 L 76.7376,-98.2476 L 76.7746,-98.2406 L 76.8104,-98.2289 L 76.8445,-98.2129
 L 76.8763,-98.1927 L 76.9054,-98.1687 L 76.9312,-98.1412 L 76.9533,-98.1107 L 76.9715,-98.0777 L 76.9853,-98.0427
 L 76.9947,-98.0062 L 77,-97.95 L 77,-1.04999 L 77.0024,-1.01244 L 77.0094,-0.975327 L 77.021,-0.939621
 L 77.0371,-0.905457 L 77.0573,-0.873642 L 77.0813,-0.844666 L 77.1088,-0.818832 L 77.1392,-0.796707 L 77.1723,-0.778534
 L 77.2073,-0.764694 L 77.2437,-0.755325 L 77.3,-0.75 L 79.45,-0.75 L 79.4876,-0.752365 L 79.5247,-0.759445
 L 79.5604,-0.771042 L 79.5945,-0.787125 L 79.6264,-0.807312 L 79.6553,-0.831284 L 79.6812,-0.858795 L 79.7033,-0.889236
 L 79.7215,-0.922287 L 79.7353,-0.95726 L 79.7447,-0.993744 L 79.75,-1.05005 L 79.75,-97.95 L 79.7524,-97.9876
 L 79.7594,-98.0246 L 79.7711,-98.0604 L 79.7871,-98.0945 L 79.8073,-98.1263 L 79.8313,-98.1554 L 79.8588,-98.1812
 L 79.8893,-98.2033 L 79.9223,-98.2215 L 79.9573,-98.2353 L 79.9938,-98.2447 L 80.05,-98.25 L 80.2,-98.25
 L 80.2376,-98.2476 L 80.2746,-98.2406 L 80.3104,-98.2289 L 80.3445,-98.2129 L 80.3763,-98.1927 L 80.4054,-98.1687
 L 80.4312,-98.1412 L 80.4533,-98.1107 L 80.4715,-98.0777 L 80.4853,-98.0427 L 80.4947,-98.0062 L 80.5,-97.95
 L 80.5,-1.04999 L 80.5024,-1.01244 L 80.5094,-0.975327 L 80.521,-0.939621 L 80.5371,-0.905457 L 80.5573,-0.873642
 L 80.5813,-0.844666 L 80.6088,-0.818832 L 80.6392,-0.796707 L 80.6723,-0.778534 L 80.7073,-0.764694 L 80.7437,-0.755325
 L 80.8,-0.75 L 82.95,-0.75 L 82.9876,-0.752365 L 83.0247,-0.759445 L 83.0604,-0.771042 L 83.0945,-0.787125
 L 83.1264,-0.807312 L 83.1553,-0.831284 L 83.1812,-0.858795 L 83.2033,-0.889236 L 83.2215,-0.922287 L 83.2353,-0.95726
 L 83.2447,-0.993744 L 83.25,-1.05005 L 83.25,-97.95 L 83.2524,-97.9876 L 83.2594,-98.0246 L 83.2711,-98.0604
 L 83.2871,-98.0945 L 83.3073,-98.1263 L 83.3313,-98.1554 L 83.3588,-98.1812 L 83.3893,-98.2033 L 83.4223,-98.2215
 L 83.4573,-98.2353 L 83.4938,-98.2447 L 83.55,-98.25 L 83.7,-98.25 L 83.7376,-98.2476 L 83.7746,-98.2406
 L 83.8104,-98.2289 L 83.8445,-98.2129 L 83.8763,-98.1927 L 83.9054,-98.1687 L 83.9312,-98.1412 L 83.9533,-98.1107
 L 83.9715,-98.0777 L 83.9853,-98.0427 L 83.9947,-98.0062 L 84,-97.95 L 84,-1.04999 L 84.0024,-1.01244
 L 84.0094,-0.975327 L 84.021,-0.939621 L 84.0371,-0.905457 L 84.0573,-0.873642 L 84.0813,-0.844666 L 84.1088,-0.818832
 L 84.1392,-0.796707 L 84.1723,-0.778534 L 84.2073,-0.764694 L 84.2437,-0.755325 L 84.3,-0.75 L 86.45,-0.75
 L 86.4876,-0.752365 L 86.5247,-0.759445 L 86.5604,-0.771042 L 86.5945,-0.787125 L 86.6264,-0.807312 L 86.6553,-0.831284
 L 86.6812,-0.858795 L 86.7033,-0.889236 L 86.7215,-0.922287 L 86.7353,-0.95726 L 86.7447,-0.993744 L 86.75,-1.05005
 L 86.75,-97.95 L 86.7524,-97.9876 L 86.7594,-98.0246 L 86.7711,-98.0604 L 86.7871,-98.0945 L 86.8073,-98.1263
 L 86.8313,-98.1554 L 86.8588,-98.1812 L 86.8893,-98.2033 L 86.9223,-98.2215 L 86.9573,-98.2353 L 86.9938,-98.2447
 L 87.05,-98.25 L 87.2,-98.25 L 87.2376,-98.2476 L 87.2746,-98.2406 L 87.3104,-98.2289 L 87.3445,-98.2129
 L 87.3763,-98.1927 L 87.4054,-98.1687 L 87.4312,-98.1412 L 87.4533,-98.1107 L 87.4715,-98.0777 L 87.4853,-98.0427
 L 87.4947,-98.0062 L 87.5,-97.95 L 87.5,-1.04999 L 87.5024,-1.01244 L 87.5094,-0.975327 L 87.521,-0.939621
 L 87.5371,-0.905457 L 87.5573,-0.873642 L 87.5813,-0.844666 L 87.6088,-0.818832 L 87.6392,-0.796707 L 87.6723,-0.778534
 L 87.7073,-0.764694 L 87.7437,-0.755325 L 87.8,-0.75 L 89.95,-0.75 L 89.9876,-0.752365 L 90.0247,-0.759445
 L 90.0604,-0.771042 L 90.0945,-0.787125 L 90.1264,-0.807312 L 90.1553,-0.831284 L 90.1812,-0.858795 L 90.2033,-0.889236
 L 90.2215,-0.922287 L 90.2353,-0.95726 L 90.2447,-0.993744 L 90.25,-1.05005 L 90.25,-97.95 L 90.2524,-97.9876
 L 90.2594,-98.0246 L 90.2711,-98.0604 L 90.2871,-98.0945 L 90.3073,-98.1263 L 90.3313,-98.1554 L 90.3588,-98.1812
 L 90.3893,-98.2033 L 90.4223,-98.2215 L 90.4573,-98.2353 L 90.4938,-98.2447 L 90.55,-98.25 L 90.7,-98.25
 L 90.7376,-98.2476 L 90.7746,-98.2406 L 90.8104,-98.2289 L 90.8445,-98.2129 L 90.8763,-98.1927 L 90.9054,-98.1687
 L 90.9312,-98.1412 L 90.9533,-98.1107 L 90.9715,-98.0777 L 90.9853,-98.0427 L 90.9947,-98.0062 L 91,-97.95
 L 91,-1.04999 L 91.0024,-1.01244 L 91.0094,-0.975327 L 91.021,-0.939621 L 91.0371,-0.905457 L 91.0573,-0.873642
 L 91.0813,-0.844666 L 91.1088,-0.818832 L 91.1392,-0.796707 L 91.1723,-0.778534 L 91.2073,-0.764694 L 91.2437,-0.755325
 L 91.3,-0.75 L 93.45,-0.75 L 93.4876,-0.752365 L 93.5247,-0.759445 L 93.5604,-0.771042 L 93.5945,-0.787125
 L 93.6264,-0.807312 L 93.6553,-0.831284 L 93.6812,-0.858795 L 93.7033,-0.889236 L 93.7215,-0.922287 L 93.7353,-0.95726
 L 93.7447,-0.993744 L 93.75,-1.05005 L 93.75,-97.95 L 93.7524,-97.9876 L 93.7594,-98.0246 L 93.7711,-98.0604
 L 93.7871,-98.0945 L 93.8073,-98.1263 L 93.8313,-98.1554 L 93.8588,-98.1812 L 93.8893,-98.2033 L 93.9223,-98.2215
 L 93.9573,-98.2353 L 93.9938,-98.2447 L 94.05,-98.25 L 94.2,-98.25 L 94.2376,-98.2476 L 94.2746,-98.2406
 L 94.3104,-98.2289 L 94.3445,-98.2129 L 94.3763,-98.1927 L 94.4054,-98.1687 L 94.4312,-98.1412 L 94.4533,-98.1107
 L 94.4715,-98.0777 L 94.4853,-98.0427 L 94.4947,-98.0062 L 94.5,-97.95 L 94.5,-1.04999 L 94.5024,-1.01244
 L 94.5094,-0.975327 L 94.521,-0.939621 L 94.5371,-0.905457 L 94.5573,-0.873642 L 94.5813,-0.844666 L 94.6088,-0.818832
 L 94.6392,-0.796707 L 94.6723,-0.778534 L 94.7073,-0.764694 L 94.7437,-0.755325 L 94.8,-0.75 L 96.95,-0.75
 L 96.9876,-0.752365 L 97.0247,-0.759445 L 97.0604,-0.771042 L 97.0945,-0.787125 L 97.1264,-0.807312 L 97.1553,-0.831284
 L 97.1812,-0.858795 L 97.2033,-0.889236 L 97.2215,-0.922287 L 97.2353,-0.95726 L 97.2447,-0.993744 L 97.25,-1.05005
 L 97.25,-97.95 L 97.2524,-97.9876 L 97.2594,-98.0246 L 97.2711,-98.0604 L 97.2871,-98.0945 L 97.3073,-98.1263
 L 97.3313,-98.1554 L 97.3588,-98.1812 L 97.3893,-98.2033 L 97.4223,-98.2215 L 97.4573,-98.2353 L 97.4938,-98.2447
 L 97.55,-98.25 L 97.7,-98.25 L 97.7376,-98.2476 L 97.7746,-98.2406 L 97.8104,-98.2289 L 97.8445,-98.2129
 L 97.8763,-98.1927 L 97.9054,-98.1687 L 97.9312,-98.1412 L 97.9533,-98.1107 L 97.9715,-98.0777 L 97.9853,-98.0427
 L 97.9947,-98.0062 L 98,-97.95 L 98,-1.04999 L 98.0024,-1.01244 L 98.0094,-0.975327 L 98.021,-0.939621
 L 98.0371,-0.905457 L 98.0573,-0.873642 L 98.0813,-0.844666 L 98.1088,-0.818832 L 98.1392,-0.796707 L 98.1723,-0.778534
 L 98.2073,-0.764694 L 98.2437,-0.755325 L 98.3,-0.75 L 100.45,-0.75 z
" stroke="black" fill="lightgray" stroke-width="0.5"/>
</svg>
