<?xml version="1.0" standalone="no"?>
<!DOCTYPE svg PUBLIC "-//W3C//DTD SVG 1.1//EN" "http://www.w3.org/Graphics/SVG/1.1/DTD/svg11.dtd">
<svg width="116mm" height="111mm" viewBox="-3 -111 116 111" xmlns="http://www.w3.org/2000/svg" version="1.1">
<title>OpenSCAD Model</title>
<path d="
M 112.25,-110.7 L -2.14999,-110.7 L -2.14999,-0.699997 L 112.25,-0.699997 z
M 2.84999,-103.21 L 2.86963,-103.522 L 2.92822,-103.829 L 3.02486,-104.127 L 3.15799,-104.41 L 3.32555,-104.674
 L 3.52487,-104.915 L 3.75281,-105.129 L 4.00578,-105.312 L 4.2798,-105.463 L 4.57054,-105.578 L 4.87341,-105.656
 L 5.34,-105.7 L 104.76,-105.7 L 105.072,-105.68 L 105.379,-105.622 L 105.677,-105.525 L 105.96,-105.392
 L 106.224,-105.224 L 106.465,-105.025 L 106.679,-104.797 L 106.862,-104.544 L 107.013,-104.27 L 107.128,-103.979
 L 107.206,-103.677 L 107.25,-103.21 L 107.25,-100 L 89.9898,-100 L 89.6153,-99.9764 L 89.2464,-99.906
 L 88.8893,-99.79 L 88.5496,-99.6302 L 88.2325,-99.429 L 87.9433,-99.1897 L 87.6861,-98.9159 L 87.4654,-98.6121
 L 87.2846,-98.2831 L 87.1463,-97.934 L 87.0529,-97.5702 L 87,-97.01 L 87,-20.39 L 86.9764,-20.0153
 L 86.906,-19.6464 L 86.79,-19.2893 L 86.6301,-18.9496 L 86.4289,-18.6325 L 86.1896,-18.3432 L 85.9159,-18.0862
 L 85.6121,-17.8655 L 85.2831,-17.6846 L 84.9339,-17.5463 L 84.5703,-17.453 L 84.01,-17.4 L 78.59,-17.4
 L 78.2153,-17.4236 L 77.8464,-17.4939 L 77.4893,-17.61 L 77.1496,-17.7698 L 76.8325,-17.971 L 76.5432,-18.2104
 L 76.2862,-18.4841 L 76.0655,-18.7879 L 75.8846,-19.1169 L 75.7463,-19.466 L 75.653,-19.8297 L 75.6,-20.39
 L 75.6,-91.0101 L 75.5764,-91.3847 L 75.506,-91.7536 L 75.39,-92.1107 L 75.2056,-92.5027 L 75.0802,-92.7307
 L 74.942,-93.0799 L 74.8486,-93.4436 L 74.8015,-93.8161 L 74.8015,-94.1916 L 74.8486,-94.5641 L 74.942,-94.9278
 L 75.1655,-95.4442 L 75.3154,-95.7169 L 75.4536,-96.066 L 75.547,-96.4298 L 75.6,-96.99 L 75.6,-97.0101
 L 75.5764,-97.3847 L 75.506,-97.7536 L 75.39,-98.1107 L 75.2302,-98.4504 L 75.0289,-98.7675 L 74.7896,-99.0567
 L 74.5158,-99.3138 L 74.2121,-99.5345 L 73.8831,-99.7154 L 73.5339,-99.8537 L 73.1702,-99.9471 L 72.61,-100
 L 55.1898,-100 L 54.8153,-99.9764 L 54.4464,-99.906 L 54.0893,-99.79 L 53.7496,-99.6302 L 53.4325,-99.429
 L 53.1432,-99.1897 L 52.8861,-98.9159 L 52.6654,-98.6121 L 52.4846,-98.2831 L 52.3463,-97.934 L 52.2529,-97.5702
 L 52.2,-97.01 L 52.2,-20.39 L 52.1764,-20.0153 L 52.106,-19.6464 L 51.99,-19.2893 L 51.8301,-18.9496
 L 51.6289,-18.6325 L 51.3896,-18.3432 L 51.1159,-18.0862 L 50.8121,-17.8655 L 50.4831,-17.6846 L 50.1339,-17.5463
 L 49.7702,-17.453 L 49.21,-17.4 L 43.79,-17.4 L 43.4153,-17.4236 L 43.0464,-17.4939 L 42.6893,-17.61
 L 42.3495,-17.7698 L 42.0325,-17.971 L 41.7432,-18.2104 L 41.4862,-18.4841 L 41.2655,-18.7879 L 41.0846,-19.1169
 L 40.9463,-19.466 L 40.853,-19.8297 L 40.8,-20.39 L 40.8,-91.0101 L 40.7764,-91.3847 L 40.706,-91.7536
 L 40.59,-92.1107 L 40.4056,-92.5026 L 40.2803,-92.7306 L 40.142,-93.0797 L 40.0486,-93.4434 L 40.0016,-93.8159
 L 40.0015,-94.1914 L 40.0486,-94.5639 L 40.1419,-94.9276 L 40.2802,-95.2767 L 40.3655,-95.4442 L 40.5154,-95.7169
 L 40.6536,-96.066 L 40.747,-96.4298 L 40.8,-96.99 L 40.8,-97.0101 L 40.7764,-97.3847 L 40.706,-97.7536
 L 40.59,-98.1107 L 40.4302,-98.4504 L 40.2289,-98.7675 L 39.9896,-99.0567 L 39.7159,-99.3138 L 39.4121,-99.5345
 L 39.0831,-99.7154 L 38.7339,-99.8537 L 38.3702,-99.9471 L 37.81,-100 L 20.3898,-100 L 20.0153,-99.9764
 L 19.6464,-99.906 L 19.2893,-99.79 L 18.9496,-99.6302 L 18.6325,-99.429 L 18.3433,-99.1897 L 18.0862,-98.9159
 L 17.8654,-98.6121 L 17.6846,-98.2831 L 17.5463,-97.934 L 17.4529,-97.5702 L 17.4,-97.01 L 17.4,-20.39
 L 17.3764,-20.0153 L 17.306,-19.6464 L 17.19,-19.2893 L 17.0302,-18.9496 L 16.8289,-18.6325 L 16.5896,-18.3432
 L 16.3159,-18.0862 L 16.0121,-17.8655 L 15.6831,-17.6846 L 15.334,-17.5463 L 14.9703,-17.453 L 14.41,-17.4
 L 2.98985,-17.4 L 2.84999,-17.3912 z
M 104.76,-5.7 L 5.34,-5.7 L 5.02792,-5.71964 L 4.72076,-5.77823 L 4.42337,-5.87486 L 4.14043,-6.008
 L 3.8764,-6.17555 L 3.63547,-6.37488 L 3.42142,-6.60281 L 3.23763,-6.85579 L 3.08698,-7.12981 L 2.97186,-7.42055
 L 2.8941,-7.72342 L 2.84999,-8.19 L 2.84999,-11.4132 L 2.98996,-11.4 L 20.4101,-11.4 L 20.7847,-11.4236
 L 21.1536,-11.494 L 21.5107,-11.61 L 21.8504,-11.7698 L 22.1674,-11.971 L 22.4567,-12.2103 L 22.7138,-12.4841
 L 22.9345,-12.7879 L 23.1154,-13.1169 L 23.2536,-13.466 L 23.347,-13.8298 L 23.4,-14.39 L 23.4,-91.01
 L 23.4236,-91.3847 L 23.4939,-91.7536 L 23.61,-92.1107 L 23.7698,-92.4504 L 23.971,-92.7675 L 24.2104,-93.0568
 L 24.4841,-93.3138 L 24.7879,-93.5345 L 25.1169,-93.7154 L 25.466,-93.8537 L 25.8297,-93.947 L 26.39,-94
 L 31.81,-94 L 32.1847,-93.9764 L 32.5536,-93.9061 L 32.9107,-93.79 L 33.2504,-93.6302 L 33.5675,-93.429
 L 33.8568,-93.1896 L 34.1138,-92.9159 L 34.3345,-92.6121 L 34.5154,-92.2831 L 34.6536,-91.934 L 34.747,-91.5703
 L 34.8,-91.01 L 34.8,-14.3898 L 34.8236,-14.0153 L 34.894,-13.6464 L 35.01,-13.2893 L 35.1698,-12.9496
 L 35.371,-12.6325 L 35.6103,-12.3433 L 35.8841,-12.0862 L 36.1879,-11.8654 L 36.5169,-11.6846 L 36.866,-11.5463
 L 37.2298,-11.4529 L 37.7899,-11.4 L 55.2101,-11.4 L 55.5847,-11.4236 L 55.9536,-11.494 L 56.3107,-11.61
 L 56.6504,-11.7698 L 56.9674,-11.971 L 57.2567,-12.2103 L 57.5138,-12.4841 L 57.7345,-12.7879 L 57.9154,-13.1169
 L 58.0536,-13.466 L 58.147,-13.8298 L 58.2,-14.39 L 58.2,-91.01 L 58.2236,-91.3847 L 58.2939,-91.7536
 L 58.41,-92.1107 L 58.5698,-92.4504 L 58.771,-92.7675 L 59.0104,-93.0568 L 59.2841,-93.3138 L 59.5879,-93.5345
 L 59.9169,-93.7154 L 60.266,-93.8537 L 60.6297,-93.947 L 61.19,-94 L 66.61,-94 L 66.9847,-93.9764
 L 67.3536,-93.9061 L 67.7107,-93.79 L 68.0504,-93.6302 L 68.3675,-93.429 L 68.6568,-93.1896 L 68.9138,-92.9159
 L 69.1345,-92.6121 L 69.3154,-92.2831 L 69.4536,-91.934 L 69.547,-91.5703 L 69.6,-91.01 L 69.6,-14.3898
 L 69.6236,-14.0153 L 69.694,-13.6464 L 69.81,-13.2893 L 69.9698,-12.9496 L 70.171,-12.6325 L 70.4103,-12.3433
 L 70.6841,-12.0862 L 70.9879,-11.8654 L 71.3169,-11.6846 L 71.666,-11.5463 L 72.0298,-11.4529 L 72.59,-11.4
 L 90.0101,-11.4 L 90.3847,-11.4236 L 90.7536,-11.494 L 91.1107,-11.61 L 91.4504,-11.7698 L 91.7674,-11.971
 L 92.0567,-12.2103 L 92.3138,-12.4841 L 92.5345,-12.7879 L 92.7154,-13.1169 L 92.8536,-13.466 L 92.947,-13.8298
 L 93,-14.39 L 93,-91.01 L 93.0236,-91.3847 L 93.0939,-91.7536 L 93.21,-92.1107 L 93.3698,-92.4504
 L 93.571,-92.7675 L 93.8104,-93.0568 L 94.0841,-93.3138 L 94.3879,-93.5345 L 94.7169,-93.7154 L 95.066,-93.8537
 L 95.4297,-93.947 L 95.99,-94 L 107.25,-94 L 107.25,-8.19 L 107.23,-7.87793 L 107.172,-7.57077
 L 107.075,-7.27338 L 106.942,-6.99043 L 106.774,-6.72641 L 106.575,-6.48547 L 106.347,-6.27142 L 106.094,-6.08763
 L 105.82,-5.93698 L 105.529,-5.82187 L 105.227,-5.74411 z
" stroke="black" fill="lightgray" stroke-width="0.5"/>
</svg>
