<?xml version="1.0" standalone="no"?>
<!DOCTYPE svg PUBLIC "-//W3C//DTD SVG 1.1//EN" "http://www.w3.org/Graphics/SVG/1.1/DTD/svg11.dtd">
<svg width="106mm" height="99mm" viewBox="0 -100 106 99" xmlns="http://www.w3.org/2000/svg" version="1.1">
<title>OpenSCAD Model</title>
<path d="
M 38.4375,-1.90236 L 38.4747,-1.90944 L 38.5104,-1.92104 L 38.5445,-1.93712 L 38.5763,-1.95731 L 38.6053,-1.98128
 L 38.6311,-2.00879 L 38.6533,-2.03923 L 38.6714,-2.07228 L 38.6853,-2.10725 L 38.6947,-2.14374 L 38.7,-2.20004
 L 38.7,-98.7 L 38.7023,-98.7376 L 38.7094,-98.7746 L 38.7211,-98.8104 L 38.7371,-98.8445 L 38.7573,-98.8763
 L 38.7813,-98.9054 L 38.8088,-98.9312 L 38.8392,-98.9533 L 38.8723,-98.9715 L 38.9073,-98.9853 L 38.9438,-98.9947
 L 39,-99 L 40.3,-99 L 40.3376,-98.9976 L 40.3746,-98.9906 L 40.4104,-98.9789 L 40.4445,-98.9629
 L 40.4763,-98.9427 L 40.5054,-98.9187 L 40.5311,-98.8912 L 40.5533,-98.8607 L 40.5714,-98.8277 L 40.5853,-98.7927
 L 40.5947,-98.7562 L 40.6,-98.7 L 40.6,-2.19998 L 40.6024,-2.16243 L 40.6094,-2.12532 L 40.621,-2.08961
 L 40.6371,-2.05545 L 40.6573,-2.02364 L 40.6813,-1.99466 L 40.7088,-1.96883 L 40.7392,-1.9467 L 40.7723,-1.92853
 L 40.8073,-1.91469 L 40.8437,-1.90532 L 40.9,-1.89999 L 44.2,-1.89999 L 44.2375,-1.90236 L 44.2747,-1.90944
 L 44.3104,-1.92104 L 44.3445,-1.93712 L 44.3763,-1.95731 L 44.4053,-1.98128 L 44.4312,-2.00879 L 44.4533,-2.03923
 L 44.4715,-2.07228 L 44.4853,-2.10725 L 44.4947,-2.14374 L 44.5,-2.20004 L 44.5,-98.7 L 44.5023,-98.7376
 L 44.5094,-98.7746 L 44.5211,-98.8104 L 44.5371,-98.8445 L 44.5573,-98.8763 L 44.5813,-98.9054 L 44.6088,-98.9312
 L 44.6392,-98.9533 L 44.6723,-98.9715 L 44.7073,-98.9853 L 44.7438,-98.9947 L 44.8,-99 L 46.1,-99
 L 46.1376,-98.9976 L 46.1746,-98.9906 L 46.2104,-98.9789 L 46.2445,-98.9629 L 46.2763,-98.9427 L 46.3054,-98.9187
 L 46.3311,-98.8912 L 46.3533,-98.8607 L 46.3714,-98.8277 L 46.3853,-98.7927 L 46.3947,-98.7562 L 46.4,-98.7
 L 46.4,-2.19998 L 46.4024,-2.16243 L 46.4094,-2.12532 L 46.421,-2.08961 L 46.4371,-2.05545 L 46.4573,-2.02364
 L 46.4813,-1.99466 L 46.5088,-1.96883 L 46.5392,-1.9467 L 46.5723,-1.92853 L 46.6073,-1.91469 L 46.6437,-1.90532
 L 46.7,-1.89999 L 50,-1.89999 L 50.0376,-1.90236 L 50.0747,-1.90944 L 50.1104,-1.92104 L 50.1445,-1.93712
 L 50.1763,-1.95731 L 50.2053,-1.98128 L 50.2312,-2.00879 L 50.2533,-2.03923 L 50.2715,-2.07228 L 50.2853,-2.10725
 L 50.2947,-2.14374 L 50.3,-2.20004 L 50.3,-98.7 L 50.3024,-98.7376 L 50.3094,-98.7746 L 50.3211,-98.8104
 L 50.3371,-98.8445 L 50.3573,-98.8763 L 50.3813,-98.9054 L 50.4088,-98.9312 L 50.4392,-98.9533 L 50.4723,-98.9715
 L 50.5073,-98.9853 L 50.5438,-98.9947 L 50.6,-99 L 51.9,-99 L 51.9376,-98.9976 L 51.9746,-98.9906
 L 52.0104,-98.9789 L 52.0445,-98.9629 L 52.0763,-98.9427 L 52.1054,-98.9187 L 52.1311,-98.8912 L 52.1533,-98.8607
 L 52.1714,-98.8277 L 52.1853,-98.7927 L 52.1947,-98.7562 L 52.2,-98.7 L 52.2,-2.19998 L 52.2024,-2.16243
 L 52.2094,-2.12532 L 52.221,-2.08961 L 52.2371,-2.05545 L 52.2573,-2.02364 L 52.2813,-1.99466 L 52.3088,-1.96883
 L 52.3392,-1.9467 L 52.3723,-1.92853 L 52.4073,-1.91469 L 52.4437,-1.90532 L 52.5,-1.89999 L 55.8,-1.89999
 L 55.8376,-1.90236 L 55.8747,-1.90944 L 55.9104,-1.92104 L 55.9445,-1.93712 L 55.9763,-1.95731 L 56.0053,-1.98128
 L 56.0312,-2.00879 L 56.0533,-2.03923 L 56.0715,-2.07228 L 56.0853,-2.10725 L 56.0947,-2.14374 L 56.1,-2.20004
 L 56.1,-98.7 L 56.1024,-98.7376 L 56.1094,-98.7746 L 56.1211,-98.8104 L 56.1371,-98.8445 L 56.1573,-98.8763
 L 56.1813,-98.9054 L 56.2088,-98.9312 L 56.2392,-98.9533 L 56.2723,-98.9715 L 56.3073,-98.9853 L 56.3438,-98.9947
 L 56.4,-99 L 57.7,-99 L 57.7376,-98.9976 L 57.7746,-98.9906 L 57.8104,-98.9789 L 57.8445,-98.9629
 L 57.8763,-98.9427 L 57.9053,-98.9187 L 57.9311,-98.8912 L 57.9533,-98.8607 L 57.9714,-98.8277 L 57.9853,-98.7927
 L 57.9947,-98.7562 L 58,-98.7 L 58,-2.19998 L 58.0023,-2.16243 L 58.0094,-2.12532 L 58.021,-2.08961
 L 58.0371,-2.05545 L 58.0573,-2.02364 L 58.0813,-1.99466 L 58.1088,-1.96883 L 58.1392,-1.9467 L 58.1723,-1.92853
 L 58.2072,-1.91469 L 58.2437,-1.90532 L 58.3,-1.89999 L 61.6,-1.89999 L 61.6375,-1.90236 L 61.6747,-1.90944
 L 61.7104,-1.92104 L 61.7445,-1.93712 L 61.7763,-1.95731 L 61.8053,-1.98128 L 61.8311,-2.00879 L 61.8533,-2.03923
 L 61.8714,-2.07228 L 61.8853,-2.10725 L 61.8947,-2.14374 L 61.9,-2.20004 L 61.9,-98.7 L 61.9023,-98.7376
 L 61.9094,-98.7746 L 61.9211,-98.8104 L 61.9371,-98.8445 L 61.9573,-98.8763 L 61.9813,-98.9054 L 62.0088,-98.9312
 L 62.0392,-98.9533 L 62.0723,-98.9715 L 62.1073,-98.9853 L 62.1438,-98.9947 L 62.2,-99 L 63.5,-99
 L 63.5376,-98.9976 L 63.5746,-98.9906 L 63.6104,-98.9789 L 63.6445,-98.9629 L 63.6763,-98.9427 L 63.7054,-98.9187
 L 63.7311,-98.8912 L 63.7533,-98.8607 L 63.7714,-98.8277 L 63.7853,-98.7927 L 63.7947,-98.7562 L 63.8,-98.7
 L 63.8,-2.19998 L 63.8024,-2.16243 L 63.8094,-2.12532 L 63.821,-2.08961 L 63.8371,-2.05545 L 63.8573,-2.02364
 L 63.8813,-1.99466 L 63.9088,-1.96883 L 63.9392,-1.9467 L 63.9723,-1.92853 L 64.0072,-1.91469 L 64.0437,-1.90532
 L 64.1,-1.89999 L 67.4,-1.89999 L 67.4375,-1.90236 L 67.4747,-1.90944 L 67.5104,-1.92104 L 67.5445,-1.93712
 L 67.5763,-1.95731 L 67.6053,-1.98128 L 67.6311,-2.00879 L 67.6533,-2.03923 L 67.6714,-2.07228 L 67.6853,-2.10725
 L 67.6947,-2.14374 L 67.7,-2.20004 L 67.7,-98.7 L 67.7023,-98.7376 L 67.7094,-98.7746 L 67.7211,-98.8104
 L 67.7371,-98.8445 L 67.7573,-98.8763 L 67.7813,-98.9054 L 67.8088,-98.9312 L 67.8392,-98.9533 L 67.8723,-98.9715
 L 67.9073,-98.9853 L 67.9438,-98.9947 L 68,-99 L 69.3,-99 L 69.3376,-98.9976 L 69.3746,-98.9906
 L 69.4104,-98.9789 L 69.4445,-98.9629 L 69.4763,-98.9427 L 69.5054,-98.9187 L 69.5311,-98.8912 L 69.5533,-98.8607
 L 69.5714,-98.8277 L 69.5853,-98.7927 L 69.5947,-98.7562 L 69.6,-98.7 L 69.6,-2.19998 L 69.6024,-2.16243
 L 69.6094,-2.12532 L 69.621,-2.08961 L 69.6371,-2.05545 L 69.6573,-2.02364 L 69.6813,-1.99466 L 69.7088,-1.96883
 L 69.7392,-1.9467 L 69.7723,-1.92853 L 69.8073,-1.91469 L 69.8437,-1.90532 L 69.9,-1.89999 L 73.2,-1.89999
 L 73.2375,-1.90236 L 73.2747,-1.90944 L 73.3104,-1.92104 L 73.3445,-1.93712 L 73.3763,-1.95731 L 73.4053,-1.98128
 L 73.4312,-2.00879 L 73.4533,-2.03923 L 73.4715,-2.07228 L 73.4853,-2.10725 L 73.4947,-2.14374 L 73.5,-2.20004
 L 73.5,-98.7 L 73.5023,-98.7376 L 73.5094,-98.7746 L 73.5211,-98.8104 L 73.5371,-98.8445 L 73.5573,-98.8763
 L 73.5813,-98.9054 L 73.6088,-98.9312 L 73.6392,-98.9533 L 73.6723,-98.9715 L 73.7073,-98.9853 L 73.7438,-98.9947
 L 73.8,-99 L 75.1,-99 L 75.1376,-98.9976 L 75.1746,-98.9906 L 75.2104,-98.9789 L 75.2445,-98.9629
 L 75.2763,-98.9427 L 75.3054,-98.9187 L 75.3311,-98.8912 L 75.3533,-98.8607 L 75.3714,-98.8277 L 75.3853,-98.7927
 L 75.3947,-98.7562 L 75.4,-98.7 L 75.4,-2.19998 L 75.4024,-2.16243 L 75.4094,-2.12532 L 75.421,-2.08961
 L 75.4371,-2.05545 L 75.4573,-2.02364 L 75.4813,-1.99466 L 75.5088,-1.96883 L 75.5392,-1.9467 L 75.5723,-1.92853
 L 75.6073,-1.91469 L 75.6437,-1.90532 L 75.7,-1.89999 L 79,-1.89999 L 79.0376,-1.90236 L 79.0747,-1.90944
 L 79.1104,-1.92104 L 79.1445,-1.93712 L 79.1763,-1.95731 L 79.2053,-1.98128 L 79.2312,-2.00879 L 79.2533,-2.03923
 L 79.2715,-2.07228 L 79.2853,-2.10725 L 79.2947,-2.14374 L 79.3,-2.20004 L 79.3,-98.7 L 79.3024,-98.7376
 L 79.3094,-98.7746 L 79.3211,-98.8104 L 79.3371,-98.8445 L 79.3573,-98.8763 L 79.3813,-98.9054 L 79.4088,-98.9312
 L 79.4392,-98.9533 L 79.4723,-98.9715 L 79.5073,-98.9853 L 79.5438,-98.9947 L 79.6,-99 L 80.9,-99
 L 80.9376,-98.9976 L 80.9746,-98.9906 L 81.0104,-98.9789 L 81.0445,-98.9629 L 81.0763,-98.9427 L 81.1054,-98.9187
 L 81.1311,-98.8912 L 81.1533,-98.8607 L 81.1714,-98.8277 L 81.1853,-98.7927 L 81.1947,-98.7562 L 81.2,-98.7
 L 81.2,-2.19998 L 81.2024,-2.16243 L 81.2094,-2.12532 L 81.221,-2.08961 L 81.2371,-2.05545 L 81.2573,-2.02364
 L 81.2813,-1.99466 L 81.3088,-1.96883 L 81.3392,-1.9467 L 81.3723,-1.92853 L 81.4073,-1.91469 L 81.4437,-1.90532
 L 81.5,-1.89999 L 84.8,-1.89999 L 84.8376,-1.90236 L 84.8747,-1.90944 L 84.9104,-1.92104 L 84.9445,-1.93712
 L 84.9763,-1.95731 L 85.0053,-1.98128 L 85.0312,-2.00879 L 85.0533,-2.03923 L 85.0715,-2.07228 L 85.0853,-2.10725
 L 85.0947,-2.14374 L 85.1,-2.20004 L 85.1,-98.7 L 85.1024,-98.7376 L 85.1094,-98.7746 L 85.1211,-98.8104
 L 85.1371,-98.8445 L 85.1573,-98.8763 L 85.1813,-98.9054 L 85.2088,-98.9312 L 85.2392,-98.9533 L 85.2723,-98.9715
 L 85.3073,-98.9853 L 85.3438,-98.9947 L 85.4,-99 L 86.7,-99 L 86.7376,-98.9976 L 86.7746,-98.9906
 L 86.8104,-98.9789 L 86.8445,-98.9629 L 86.8763,-98.9427 L 86.9053,-98.9187 L 86.9311,-98.8912 L 86.9533,-98.8607
 L 86.9714,-98.8277 L 86.9853,-98.7927 L 86.9947,-98.7562 L 87,-98.7 L 87,-2.19998 L 87.0023,-2.16243
 L 87.0094,-2.12532 L 87.021,-2.08961 L 87.0371,-2.05545 L 87.0573,-2.02364 L 87.0813,-1.99466 L 87.1088,-1.96883
 L 87.1392,-1.9467 L 87.1723,-1.92853 L 87.2072,-1.91469 L 87.2437,-1.90532 L 87.3,-1.89999 L 90.6,-1.89999
 L 90.6375,-1.90236 L 90.6747,-1.90944 L 90.7104,-1.92104 L 90.7445,-1.93712 L 90.7763,-1.95731 L 90.8053,-1.98128
 L 90.8311,-2.00879 L 90.8533,-2.03923 L 90.8714,-2.07228 L 90.8853,-2.10725 L 90.8947,-2.14374 L 90.9,-2.20004
 L 90.9,-98.7 L 90.9023,-98.7376 L 90.9094,-98.7746 L 90.9211,-98.8104 L 90.9371,-98.8445 L 90.9573,-98.8763
 L 90.9813,-98.9054 L 91.0088,-98.9312 L 91.0392,-98.9533 L 91.0723,-98.9715 L 91.1073,-98.9853 L 91.1438,-98.9947
 L 91.2,-99 L 92.5,-99 L 92.5376,-98.9976 L 92.5746,-98.9906 L 92.6104,-98.9789 L 92.6445,-98.9629
 L 92.6763,-98.9427 L 92.7054,-98.9187 L 92.7311,-98.8912 L 92.7533,-98.8607 L 92.7714,-98.8277 L 92.7853,-98.7927
 L 92.7947,-98.7562 L 92.8,-98.7 L 92.8,-2.19998 L 92.8024,-2.16243 L 92.8094,-2.12532 L 92.821,-2.08961
 L 92.8371,-2.05545 L 92.8573,-2.02364 L 92.8813,-1.99466 L 92.9088,-1.96883 L 92.9392,-1.9467 L 92.9723,-1.92853
 L 93.0072,-1.91469 L 93.0437,-1.90532 L 93.1,-1.89999 L 96.4,-1.89999 L 96.4375,-1.90236 L 96.4747,-1.90944
 L 96.5104,-1.92104 L 96.5445,-1.93712 L 96.5763,-1.95731 L 96.6053,-1.98128 L 96.6311,-2.00879 L 96.6533,-2.03923
 L 96.6714,-2.07228 L 96.6853,-2.10725 L 96.6947,-2.14374 L 96.7,-2.20004 L 96.7,-98.7 L 96.7023,-98.7376
 L 96.7094,-98.7746 L 96.7211,-98.8104 L 96.7371,-98.8445 L 96.7573,-98.8763 L 96.7813,-98.9054 L 96.8088,-98.9312
 L 96.8392,-98.9533 L 96.8723,-98.9715 L 96.9073,-98.9853 L 96.9438,-98.9947 L 97,-99 L 98.3,-99
 L 98.3376,-98.9976 L 98.3746,-98.9906 L 98.4104,-98.9789 L 98.4445,-98.9629 L 98.4763,-98.9427 L 98.5054,-98.9187
 L 98.5311,-98.8912 L 98.5533,-98.8607 L 98.5714,-98.8277 L 98.5853,-98.7927 L 98.5947,-98.7562 L 98.6,-98.7
 L 98.6,-2.19998 L 98.6024,-2.16243 L 98.6094,-2.12532 L 98.621,-2.08961 L 98.6371,-2.05545 L 98.6573,-2.02364
 L 98.6813,-1.99466 L 98.7088,-1.96883 L 98.7392,-1.9467 L 98.7723,-1.92853 L 98.8073,-1.91469 L 98.8437,-1.90532
 L 98.9,-1.89999 L 102.2,-1.89999 L 102.238,-1.90236 L 102.275,-1.90944 L 102.31,-1.92104 L 102.345,-1.93712
 L 102.376,-1.95731 L 102.405,-1.98128 L 102.431,-2.00879 L 102.453,-2.03923 L 102.471,-2.07228 L 102.485,-2.10725
 L 102.495,-2.14374 L 102.5,-2.20004 L 102.5,-98.7 L 102.502,-98.7376 L 102.509,-98.7746 L 102.521,-98.8104
 L 102.537,-98.8445 L 102.557,-98.8763 L 102.581,-98.9054 L 102.609,-98.9312 L 102.639,-98.9533 L 102.672,-98.9715
 L 102.707,-98.9853 L 102.744,-98.9947 L 102.8,-99 L 105.1,-99 L 105.138,-99.0024 L 105.175,-99.0094
 L 105.21,-99.021 L 105.245,-99.0371 L 105.276,-99.0573 L 105.305,-99.0813 L 105.331,-99.1088 L 105.353,-99.1392
 L 105.371,-99.1723 L 105.385,-99.2073 L 105.395,-99.2437 L 105.4,-99.3 L 105.4,-99.7 L 105.398,-99.7376
 L 105.391,-99.7747 L 105.379,-99.8104 L 105.363,-99.8445 L 105.343,-99.8764 L 105.319,-99.9053 L 105.291,-99.9312
 L 105.261,-99.9533 L 105.228,-99.9715 L 105.193,-99.9853 L 105.156,-99.9947 L 105.1,-100 L 101.8,-100
 L 101.762,-99.9976 L 101.725,-99.9906 L 101.69,-99.979 L 101.655,-99.9629 L 101.624,-99.9427 L 101.595,-99.9187
 L 101.569,-99.8912 L 101.547,-99.8608 L 101.529,-99.8277 L 101.515,-99.7927 L 101.505,-99.7563 L 101.5,-99.7
 L 101.5,-3.2 L 101.498,-3.1624 L 101.491,-3.1254 L 101.479,-3.08955 L 101.463,-3.05547 L 101.443,-3.02367
 L 101.419,-2.99463 L 101.391,-2.96884 L 101.361,-2.9467 L 101.328,-2.92854 L 101.293,-2.91467 L 101.256,-2.9053
 L 101.2,-2.89999 L 99.9,-2.89999 L 99.8624,-2.90236 L 99.8254,-2.90942 L 99.7896,-2.92107 L 99.7555,-2.9371
 L 99.7237,-2.95729 L 99.6946,-2.98131 L 99.6688,-3.00877 L 99.6467,-3.03925 L 99.6285,-3.07227 L 99.6147,-3.10728
 L 99.6053,-3.14378 L 99.6,-3.2 L 99.6,-98.7 L 99.5976,-98.7375 L 99.5905,-98.7747 L 99.5789,-98.8104
 L 99.5603,-98.8499 L 99.5478,-98.8727 L 99.534,-98.9077 L 99.5246,-98.9442 L 99.5199,-98.9816 L 99.5199,-99.0193
 L 99.5246,-99.0566 L 99.534,-99.0931 L 99.5478,-99.1282 L 99.5564,-99.145 L 99.5714,-99.1723 L 99.5853,-99.2073
 L 99.5947,-99.2437 L 99.6,-99.3 L 99.6,-99.7 L 99.5976,-99.7376 L 99.5905,-99.7747 L 99.5789,-99.8104
 L 99.5629,-99.8445 L 99.5427,-99.8764 L 99.5187,-99.9053 L 99.4912,-99.9312 L 99.4607,-99.9533 L 99.4277,-99.9715
 L 99.3927,-99.9853 L 99.3562,-99.9947 L 99.2999,-100 L 96,-100 L 95.9624,-99.9976 L 95.9253,-99.9906
 L 95.8896,-99.979 L 95.8554,-99.9629 L 95.8236,-99.9427 L 95.7946,-99.9187 L 95.7688,-99.8912 L 95.7467,-99.8608
 L 95.7285,-99.8277 L 95.7147,-99.7927 L 95.7053,-99.7563 L 95.7,-99.7 L 95.7,-3.2 L 95.6976,-3.1624
 L 95.6906,-3.1254 L 95.6789,-3.08955 L 95.6629,-3.05547 L 95.6427,-3.02367 L 95.6187,-2.99463 L 95.5912,-2.96884
 L 95.5607,-2.9467 L 95.5277,-2.92854 L 95.4927,-2.91467 L 95.4562,-2.9053 L 95.4,-2.89999 L 94.1,-2.89999
 L 94.0624,-2.90236 L 94.0254,-2.90942 L 93.9895,-2.92107 L 93.9555,-2.9371 L 93.9237,-2.95729 L 93.8946,-2.98131
 L 93.8688,-3.00877 L 93.8467,-3.03925 L 93.8285,-3.07227 L 93.8147,-3.10728 L 93.8053,-3.14378 L 93.8,-3.2
 L 93.8,-98.7 L 93.7976,-98.7375 L 93.7905,-98.7747 L 93.7789,-98.8104 L 93.7603,-98.8499 L 93.7478,-98.8727
 L 93.7339,-98.9077 L 93.7246,-98.9442 L 93.7199,-98.9816 L 93.7199,-99.0193 L 93.7246,-99.0566 L 93.734,-99.0931
 L 93.7478,-99.1282 L 93.7564,-99.145 L 93.7714,-99.1723 L 93.7853,-99.2073 L 93.7946,-99.2437 L 93.8,-99.3
 L 93.8,-99.7 L 93.7976,-99.7376 L 93.7905,-99.7747 L 93.7789,-99.8104 L 93.7628,-99.8445 L 93.7427,-99.8764
 L 93.7187,-99.9053 L 93.6912,-99.9312 L 93.6607,-99.9533 L 93.6277,-99.9715 L 93.5927,-99.9853 L 93.5562,-99.9947
 L 93.4999,-100 L 90.2,-100 L 90.1624,-99.9976 L 90.1253,-99.9906 L 90.0896,-99.979 L 90.0554,-99.9629
 L 90.0236,-99.9427 L 89.9946,-99.9187 L 89.9688,-99.8912 L 89.9467,-99.8608 L 89.9285,-99.8277 L 89.9147,-99.7927
 L 89.9053,-99.7563 L 89.9,-99.7 L 89.9,-3.2 L 89.8976,-3.1624 L 89.8905,-3.1254 L 89.8789,-3.08955
 L 89.8629,-3.05547 L 89.8427,-3.02367 L 89.8187,-2.99463 L 89.7912,-2.96884 L 89.7607,-2.9467 L 89.7277,-2.92854
 L 89.6927,-2.91467 L 89.6562,-2.9053 L 89.6,-2.89999 L 88.3,-2.89999 L 88.2624,-2.90236 L 88.2254,-2.90942
 L 88.1895,-2.92107 L 88.1555,-2.9371 L 88.1237,-2.95729 L 88.0946,-2.98131 L 88.0688,-3.00877 L 88.0467,-3.03925
 L 88.0285,-3.07227 L 88.0147,-3.10728 L 88.0053,-3.14378 L 88,-3.2 L 88,-98.7 L 87.9976,-98.7375
 L 87.9905,-98.7747 L 87.9789,-98.8104 L 87.9603,-98.8499 L 87.9478,-98.8728 L 87.9339,-98.9078 L 87.9246,-98.9443
 L 87.9199,-98.9817 L 87.9199,-99.0193 L 87.9246,-99.0567 L 87.934,-99.0932 L 87.9564,-99.1449 L 87.9715,-99.1723
 L 87.9853,-99.2073 L 87.9947,-99.2437 L 88,-99.3 L 88,-99.7 L 87.9976,-99.7376 L 87.9905,-99.7747
 L 87.9789,-99.8104 L 87.9629,-99.8445 L 87.9427,-99.8764 L 87.9187,-99.9053 L 87.8912,-99.9312 L 87.8607,-99.9533
 L 87.8277,-99.9715 L 87.7927,-99.9853 L 87.7562,-99.9947 L 87.6999,-100 L 84.4,-100 L 84.3624,-99.9976
 L 84.3253,-99.9906 L 84.2896,-99.979 L 84.2554,-99.9629 L 84.2236,-99.9427 L 84.1947,-99.9187 L 84.1688,-99.8912
 L 84.1467,-99.8608 L 84.1285,-99.8277 L 84.1147,-99.7927 L 84.1053,-99.7563 L 84.1,-99.7 L 84.1,-3.2
 L 84.0976,-3.1624 L 84.0906,-3.1254 L 84.0789,-3.08955 L 84.0629,-3.05547 L 84.0427,-3.02367 L 84.0187,-2.99463
 L 83.9912,-2.96884 L 83.9607,-2.9467 L 83.9277,-2.92854 L 83.8927,-2.91467 L 83.8562,-2.9053 L 83.8,-2.89999
 L 82.5,-2.89999 L 82.4624,-2.90236 L 82.4254,-2.90942 L 82.3896,-2.92107 L 82.3555,-2.9371 L 82.3237,-2.95729
 L 82.2946,-2.98131 L 82.2688,-3.00877 L 82.2467,-3.03925 L 82.2285,-3.07227 L 82.2147,-3.10728 L 82.2053,-3.14378
 L 82.2,-3.2 L 82.2,-98.7 L 82.1976,-98.7375 L 82.1906,-98.7747 L 82.179,-98.8104 L 82.1603,-98.8499
 L 82.1478,-98.8727 L 82.134,-98.9077 L 82.1246,-98.9442 L 82.1199,-98.9816 L 82.1199,-99.0193 L 82.1246,-99.0566
 L 82.134,-99.0931 L 82.1478,-99.1282 L 82.1564,-99.145 L 82.1714,-99.1723 L 82.1853,-99.2073 L 82.1947,-99.2437
 L 82.2,-99.3 L 82.2,-99.7 L 82.1976,-99.7376 L 82.1905,-99.7747 L 82.1789,-99.8104 L 82.1629,-99.8445
 L 82.1427,-99.8764 L 82.1187,-99.9053 L 82.0912,-99.9312 L 82.0607,-99.9533 L 82.0277,-99.9715 L 81.9927,-99.9853
 L 81.9562,-99.9947 L 81.8999,-100 L 78.6,-100 L 78.5624,-99.9976 L 78.5253,-99.9906 L 78.4896,-99.979
 L 78.4554,-99.9629 L 78.4236,-99.9427 L 78.3947,-99.9187 L 78.3688,-99.8912 L 78.3467,-99.8608 L 78.3285,-99.8277
 L 78.3147,-99.7927 L 78.3053,-99.7563 L 78.3,-99.7 L 78.3,-3.2 L 78.2976,-3.1624 L 78.2906,-3.1254
 L 78.2789,-3.08955 L 78.2629,-3.05547 L 78.2427,-3.02367 L 78.2187,-2.99463 L 78.1912,-2.96884 L 78.1607,-2.9467
 L 78.1277,-2.92854 L 78.0927,-2.91467 L 78.0562,-2.9053 L 78,-2.89999 L 76.7,-2.89999 L 76.6624,-2.90236
 L 76.6254,-2.90942 L 76.5896,-2.92107 L 76.5555,-2.9371 L 76.5237,-2.95729 L 76.4946,-2.98131 L 76.4688,-3.00877
 L 76.4467,-3.03925 L 76.4285,-3.07227 L 76.4147,-3.10728 L 76.4053,-3.14378 L 76.4,-3.2 L 76.4,-98.7
 L 76.3976,-98.7375 L 76.3905,-98.7747 L 76.379,-98.8104 L 76.3603,-98.8499 L 76.3478,-98.8727 L 76.334,-98.9077
 L 76.3246,-98.9442 L 76.3199,-98.9816 L 76.3199,-99.0193 L 76.3246,-99.0566 L 76.334,-99.0931 L 76.3478,-99.1282
 L 76.3564,-99.145 L 76.3714,-99.1723 L 76.3853,-99.2073 L 76.3947,-99.2437 L 76.4,-99.3 L 76.4,-99.7
 L 76.3976,-99.7376 L 76.3905,-99.7747 L 76.3789,-99.8104 L 76.3629,-99.8445 L 76.3427,-99.8764 L 76.3187,-99.9053
 L 76.2912,-99.9312 L 76.2607,-99.9533 L 76.2277,-99.9715 L 76.1927,-99.9853 L 76.1562,-99.9947 L 76.0999,-100
 L 72.8,-100 L 72.7624,-99.9976 L 72.7253,-99.9906 L 72.6896,-99.979 L 72.6554,-99.9629 L 72.6236,-99.9427
 L 72.5947,-99.9187 L 72.5688,-99.8912 L 72.5467,-99.8608 L 72.5285,-99.8277 L 72.5147,-99.7927 L 72.5053,-99.7563
 L 72.5,-99.7 L 72.5,-3.2 L 72.4976,-3.1624 L 72.4906,-3.1254 L 72.4789,-3.08955 L 72.4629,-3.05547
 L 72.4427,-3.02367 L 72.4187,-2.99463 L 72.3912,-2.96884 L 72.3607,-2.9467 L 72.3277,-2.92854 L 72.2927,-2.91467
 L 72.2562,-2.9053 L 72.2,-2.89999 L 70.9,-2.89999 L 70.8624,-2.90236 L 70.8254,-2.90942 L 70.7896,-2.92107
 L 70.7555,-2.9371 L 70.7237,-2.95729 L 70.6946,-2.98131 L 70.6688,-3.00877 L 70.6467,-3.03925 L 70.6285,-3.07227
 L 70.6147,-3.10728 L 70.6053,-3.14378 L 70.6,-3.2 L 70.6,-98.7 L 70.5976,-98.7375 L 70.5905,-98.7747
 L 70.5789,-98.8104 L 70.5603,-98.8499 L 70.5478,-98.8727 L 70.534,-98.9077 L 70.5246,-98.9442 L 70.5199,-98.9816
 L 70.5199,-99.0193 L 70.5246,-99.0566 L 70.534,-99.0931 L 70.5478,-99.1282 L 70.5564,-99.145 L 70.5714,-99.1723
 L 70.5853,-99.2073 L 70.5947,-99.2437 L 70.6,-99.3 L 70.6,-99.7 L 70.5976,-99.7376 L 70.5905,-99.7747
 L 70.5789,-99.8104 L 70.5629,-99.8445 L 70.5427,-99.8764 L 70.5187,-99.9053 L 70.4912,-99.9312 L 70.4607,-99.9533
 L 70.4277,-99.9715 L 70.3927,-99.9853 L 70.3562,-99.9947 L 70.2999,-100 L 67,-100 L 66.9624,-99.9976
 L 66.9253,-99.9906 L 66.8896,-99.979 L 66.8554,-99.9629 L 66.8236,-99.9427 L 66.7946,-99.9187 L 66.7688,-99.8912
 L 66.7467,-99.8608 L 66.7285,-99.8277 L 66.7147,-99.7927 L 66.7053,-99.7563 L 66.7,-99.7 L 66.7,-3.2
 L 66.6976,-3.1624 L 66.6906,-3.1254 L 66.6789,-3.08955 L 66.6629,-3.05547 L 66.6427,-3.02367 L 66.6187,-2.99463
 L 66.5912,-2.96884 L 66.5607,-2.9467 L 66.5277,-2.92854 L 66.4927,-2.91467 L 66.4562,-2.9053 L 66.4,-2.89999
 L 65.1,-2.89999 L 65.0624,-2.90236 L 65.0254,-2.90942 L 64.9895,-2.92107 L 64.9555,-2.9371 L 64.9237,-2.95729
 L 64.8946,-2.98131 L 64.8688,-3.00877 L 64.8467,-3.03925 L 64.8285,-3.07227 L 64.8147,-3.10728 L 64.8053,-3.14378
 L 64.8,-3.2 L 64.8,-98.7 L 64.7976,-98.7375 L 64.7905,-98.7747 L 64.7789,-98.8104 L 64.7603,-98.8499
 L 64.7478,-98.8727 L 64.7339,-98.9077 L 64.7246,-98.9442 L 64.7199,-98.9816 L 64.7199,-99.0193 L 64.7246,-99.0566
 L 64.734,-99.0931 L 64.7478,-99.1282 L 64.7564,-99.145 L 64.7714,-99.1723 L 64.7853,-99.2073 L 64.7946,-99.2437
 L 64.8,-99.3 L 64.8,-99.7 L 64.7976,-99.7376 L 64.7905,-99.7747 L 64.7789,-99.8104 L 64.7628,-99.8445
 L 64.7427,-99.8764 L 64.7187,-99.9053 L 64.6912,-99.9312 L 64.6607,-99.9533 L 64.6277,-99.9715 L 64.5927,-99.9853
 L 64.5562,-99.9947 L 64.4999,-100 L 61.2,-100 L 61.1624,-99.9976 L 61.1253,-99.9906 L 61.0896,-99.979
 L 61.0554,-99.9629 L 61.0236,-99.9427 L 60.9946,-99.9187 L 60.9688,-99.8912 L 60.9467,-99.8608 L 60.9285,-99.8277
 L 60.9147,-99.7927 L 60.9053,-99.7563 L 60.9,-99.7 L 60.9,-3.2 L 60.8976,-3.1624 L 60.8905,-3.1254
 L 60.8789,-3.08955 L 60.8629,-3.05547 L 60.8427,-3.02367 L 60.8187,-2.99463 L 60.7912,-2.96884 L 60.7607,-2.9467
 L 60.7277,-2.92854 L 60.6927,-2.91467 L 60.6562,-2.9053 L 60.6,-2.89999 L 59.3,-2.89999 L 59.2624,-2.90236
 L 59.2254,-2.90942 L 59.1895,-2.92107 L 59.1555,-2.9371 L 59.1237,-2.95729 L 59.0946,-2.98131 L 59.0688,-3.00877
 L 59.0467,-3.03925 L 59.0285,-3.07227 L 59.0147,-3.10728 L 59.0053,-3.14378 L 59,-3.2 L 59,-98.7
 L 58.9976,-98.7375 L 58.9905,-98.7747 L 58.9789,-98.8104 L 58.9603,-98.8499 L 58.9478,-98.8728 L 58.9339,-98.9078
 L 58.9246,-98.9443 L 58.9199,-98.9817 L 58.9199,-99.0193 L 58.9246,-99.0567 L 58.934,-99.0932 L 58.9564,-99.1449
 L 58.9715,-99.1723 L 58.9853,-99.2073 L 58.9947,-99.2437 L 59,-99.3 L 59,-99.7 L 58.9976,-99.7376
 L 58.9905,-99.7747 L 58.9789,-99.8104 L 58.9629,-99.8445 L 58.9427,-99.8764 L 58.9187,-99.9053 L 58.8912,-99.9312
 L 58.8607,-99.9533 L 58.8277,-99.9715 L 58.7927,-99.9853 L 58.7562,-99.9947 L 58.6999,-100 L 55.4,-100
 L 55.3624,-99.9976 L 55.3253,-99.9906 L 55.2896,-99.979 L 55.2554,-99.9629 L 55.2236,-99.9427 L 55.1947,-99.9187
 L 55.1688,-99.8912 L 55.1467,-99.8608 L 55.1285,-99.8277 L 55.1147,-99.7927 L 55.1053,-99.7563 L 55.1,-99.7
 L 55.1,-3.2 L 55.0976,-3.1624 L 55.0906,-3.1254 L 55.0789,-3.08955 L 55.0629,-3.05547 L 55.0427,-3.02367
 L 55.0187,-2.99463 L 54.9912,-2.96884 L 54.9607,-2.9467 L 54.9277,-2.92854 L 54.8927,-2.91467 L 54.8562,-2.9053
 L 54.8,-2.89999 L 53.5,-2.89999 L 53.4624,-2.90236 L 53.4254,-2.90942 L 53.3896,-2.92107 L 53.3555,-2.9371
 L 53.3237,-2.95729 L 53.2946,-2.98131 L 53.2688,-3.00877 L 53.2467,-3.03925 L 53.2285,-3.07227 L 53.2147,-3.10728
 L 53.2053,-3.14378 L 53.2,-3.2 L 53.2,-98.7 L 53.1976,-98.7375 L 53.1906,-98.7747 L 53.179,-98.8104
 L 53.1603,-98.8499 L 53.1478,-98.8727 L 53.134,-98.9077 L 53.1246,-98.9442 L 53.1199,-98.9816 L 53.1199,-99.0193
 L 53.1246,-99.0566 L 53.134,-99.0931 L 53.1478,-99.1282 L 53.1564,-99.145 L 53.1714,-99.1723 L 53.1853,-99.2073
 L 53.1947,-99.2437 L 53.2,-99.3 L 53.2,-99.7 L 53.1976,-99.7376 L 53.1905,-99.7747 L 53.1789,-99.8104
 L 53.1629,-99.8445 L 53.1427,-99.8764 L 53.1187,-99.9053 L 53.0912,-99.9312 L 53.0607,-99.9533 L 53.0277,-99.9715
 L 52.9927,-99.9853 L 52.9562,-99.9947 L 52.8999,-100 L 49.6,-100 L 49.5624,-99.9976 L 49.5253,-99.9906
 L 49.4896,-99.979 L 49.4554,-99.9629 L 49.4236,-99.9427 L 49.3947,-99.9187 L 49.3688,-99.8912 L 49.3467,-99.8608
 L 49.3285,-99.8277 L 49.3147,-99.7927 L 49.3053,-99.7563 L 49.3,-99.7 L 49.3,-3.2 L 49.2976,-3.1624
 L 49.2906,-3.1254 L 49.2789,-3.08955 L 49.2629,-3.05547 L 49.2427,-3.02367 L 49.2187,-2.99463 L 49.1912,-2.96884
 L 49.1607,-2.9467 L 49.1277,-2.92854 L 49.0927,-2.91467 L 49.0562,-2.9053 L 49,-2.89999 L 47.7,-2.89999
 L 47.6624,-2.90236 L 47.6254,-2.90942 L 47.5896,-2.92107 L 47.5555,-2.9371 L 47.5237,-2.95729 L 47.4946,-2.98131
 L 47.4688,-3.00877 L 47.4467,-3.03925 L 47.4285,-3.07227 L 47.4147,-3.10728 L 47.4053,-3.14378 L 47.4,-3.2
 L 47.4,-98.7 L 47.3976,-98.7375 L 47.3905,-98.7747 L 47.379,-98.8104 L 47.3603,-98.8499 L 47.3478,-98.8727
 L 47.334,-98.9077 L 47.3246,-98.9442 L 47.3199,-98.9816 L 47.3199,-99.0193 L 47.3246,-99.0566 L 47.334,-99.0931
 L 47.3478,-99.1282 L 47.3564,-99.145 L 47.3714,-99.1723 L 47.3853,-99.2073 L 47.3947,-99.2437 L 47.4,-99.3
 L 47.4,-99.7 L 47.3976,-99.7376 L 47.3905,-99.7747 L 47.3789,-99.8104 L 47.3629,-99.8445 L 47.3427,-99.8764
 L 47.3187,-99.9053 L 47.2912,-99.9312 L 47.2607,-99.9533 L 47.2277,-99.9715 L 47.1927,-99.9853 L 47.1562,-99.9947
 L 47.0999,-100 L 43.8,-100 L 43.7624,-99.9976 L 43.7253,-99.9906 L 43.6896,-99.979 L 43.6554,-99.9629
 L 43.6236,-99.9427 L 43.5947,-99.9187 L 43.5688,-99.8912 L 43.5467,-99.8608 L 43.5285,-99.8277 L 43.5147,-99.7927
 L 43.5053,-99.7563 L 43.5,-99.7 L 43.5,-3.2 L 43.4976,-3.1624 L 43.4906,-3.1254 L 43.4789,-3.08955
 L 43.4629,-3.05547 L 43.4427,-3.02367 L 43.4187,-2.99463 L 43.3912,-2.96884 L 43.3607,-2.9467 L 43.3277,-2.92854
 L 43.2927,-2.91467 L 43.2562,-2.9053 L 43.2,-2.89999 L 41.9,-2.89999 L 41.8624,-2.90236 L 41.8254,-2.90942
 L 41.7896,-2.92107 L 41.7555,-2.9371 L 41.7237,-2.95729 L 41.6946,-2.98131 L 41.6688,-3.00877 L 41.6467,-3.03925
 L 41.6285,-3.07227 L 41.6147,-3.10728 L 41.6053,-3.14378 L 41.6,-3.2 L 41.6,-98.7 L 41.5976,-98.7375
 L 41.5905,-98.7747 L 41.5789,-98.8104 L 41.5603,-98.8499 L 41.5478,-98.8727 L 41.534,-98.9077 L 41.5246,-98.9442
 L 41.5199,-98.9816 L 41.5199,-99.0193 L 41.5246,-99.0566 L 41.534,-99.0931 L 41.5478,-99.1282 L 41.5564,-99.145
 L 41.5714,-99.1723 L 41.5853,-99.2073 L 41.5947,-99.2437 L 41.6,-99.3 L 41.6,-99.7 L 41.5976,-99.7376
 L 41.5905,-99.7747 L 41.5789,-99.8104 L 41.5629,-99.8445 L 41.5427,-99.8764 L 41.5187,-99.9053 L 41.4912,-99.9312
 L 41.4607,-99.9533 L 41.4277,-99.9715 L 41.3927,-99.9853 L 41.3562,-99.9947 L 41.2999,-100 L 38,-100
 L 37.9624,-99.9976 L 37.9253,-99.9906 L 37.8896,-99.979 L 37.8554,-99.9629 L 37.8236,-99.9427 L 37.7946,-99.9187
 L 37.7688,-99.8912 L 37.7467,-99.8608 L 37.7285,-99.8277 L 37.7147,-99.7927 L 37.7053,-99.7563 L 37.7,-99.7
 L 37.7,-3.2 L 37.6976,-3.1624 L 37.6906,-3.1254 L 37.6789,-3.08955 L 37.6629,-3.05547 L 37.6427,-3.02367
 L 37.6187,-2.99463 L 37.5912,-2.96884 L 37.5607,-2.9467 L 37.5277,-2.92854 L 37.4927,-2.91467 L 37.4562,-2.9053
 L 37.4,-2.89999 L 36.1,-2.89999 L 36.0624,-2.90236 L 36.0254,-2.90942 L 35.9895,-2.92107 L 35.9555,-2.9371
 L 35.9237,-2.95729 L 35.8946,-2.98131 L 35.8688,-3.00877 L 35.8467,-3.03925 L 35.8285,-3.07227 L 35.8147,-3.10728
 L 35.8053,-3.14378 L 35.8,-3.2 L 35.8,-98.7 L 35.7976,-98.7375 L 35.7905,-98.7747 L 35.7789,-98.8104
 L 35.7603,-98.8499 L 35.7478,-98.8728 L 35.7339,-98.9078 L 35.7246,-98.9443 L 35.7199,-98.9817 L 35.7199,-99.0193
 L 35.7246,-99.0567 L 35.734,-99.0932 L 35.7564,-99.1449 L 35.7715,-99.1723 L 35.7853,-99.2073 L 35.7947,-99.2437
 L 35.8,-99.3 L 35.8,-99.7 L 35.7976,-99.7376 L 35.7905,-99.7747 L 35.7789,-99.8104 L 35.7629,-99.8445
 L 35.7427,-99.8764 L 35.7187,-99.9053 L 35.6912,-99.9312 L 35.6608,-99.9533 L 35.6277,-99.9715 L 35.5927,-99.9853
 L 35.5562,-99.9947 L 35.4999,-100 L 32.2,-100 L 32.1624,-99.9976 L 32.1253,-99.9906 L 32.0896,-99.979
 L 32.0555,-99.9629 L 32.0236,-99.9427 L 31.9947,-99.9187 L 31.9688,-99.8912 L 31.9467,-99.8608 L 31.9285,-99.8277
 L 31.9147,-99.7927 L 31.9053,-99.7563 L 31.9,-99.7 L 31.9,-3.2 L 31.8976,-3.1624 L 31.8906,-3.1254
 L 31.8789,-3.08955 L 31.8629,-3.05547 L 31.8427,-3.02367 L 31.8187,-2.99463 L 31.7912,-2.96884 L 31.7607,-2.9467
 L 31.7277,-2.92854 L 31.6927,-2.91467 L 31.6562,-2.9053 L 31.6,-2.89999 L 30.3,-2.89999 L 30.2624,-2.90236
 L 30.2254,-2.90942 L 30.1896,-2.92107 L 30.1555,-2.9371 L 30.1237,-2.95729 L 30.0946,-2.98131 L 30.0688,-3.00877
 L 30.0467,-3.03925 L 30.0285,-3.07227 L 30.0147,-3.10728 L 30.0053,-3.14378 L 30,-3.2 L 30,-98.7
 L 29.9976,-98.7375 L 29.9906,-98.7747 L 29.979,-98.8104 L 29.9603,-98.8499 L 29.9478,-98.8727 L 29.934,-98.9077
 L 29.9246,-98.9442 L 29.9199,-98.9816 L 29.9199,-99.0193 L 29.9246,-99.0566 L 29.934,-99.0931 L 29.9478,-99.1282
 L 29.9564,-99.145 L 29.9714,-99.1723 L 29.9853,-99.2073 L 29.9947,-99.2437 L 30,-99.3 L 30,-99.7
 L 29.9976,-99.7376 L 29.9905,-99.7747 L 29.9789,-99.8104 L 29.9629,-99.8445 L 29.9427,-99.8764 L 29.9187,-99.9053
 L 29.8912,-99.9312 L 29.8607,-99.9533 L 29.8277,-99.9715 L 29.7927,-99.9853 L 29.7562,-99.9947 L 29.6999,-100
 L 26.4,-100 L 26.3624,-99.9976 L 26.3253,-99.9906 L 26.2896,-99.979 L 26.2554,-99.9629 L 26.2236,-99.9427
 L 26.1947,-99.9187 L 26.1688,-99.8912 L 26.1467,-99.8608 L 26.1285,-99.8277 L 26.1147,-99.7927 L 26.1053,-99.7563
 L 26.1,-99.7 L 26.1,-3.2 L 26.0976,-3.1624 L 26.0906,-3.1254 L 26.0789,-3.08955 L 26.0629,-3.05547
 L 26.0427,-3.02367 L 26.0187,-2.99463 L 25.9912,-2.96884 L 25.9607,-2.9467 L 25.9277,-2.92854 L 25.8927,-2.91467
 L 25.8562,-2.9053 L 25.8,-2.89999 L 24.5,-2.89999 L 24.4624,-2.90236 L 24.4254,-2.90942 L 24.3896,-2.92107
 L 24.3555,-2.9371 L 24.3237,-2.95729 L 24.2946,-2.98131 L 24.2688,-3.00877 L 24.2467,-3.03925 L 24.2285,-3.07227
 L 24.2147,-3.10728 L 24.2053,-3.14378 L 24.2,-3.2 L 24.2,-98.7 L 24.1976,-98.7375 L 24.1906,-98.7747
 L 24.179,-98.8104 L 24.1603,-98.8499 L 24.1478,-98.8727 L 24.134,-98.9077 L 24.1246,-98.9442 L 24.1199,-98.9816
 L 24.1199,-99.0193 L 24.1246,-99.0566 L 24.134,-99.0931 L 24.1478,-99.1282 L 24.1564,-99.145 L 24.1714,-99.1723
 L 24.1853,-99.2073 L 24.1947,-99.2437 L 24.2,-99.3 L 24.2,-99.7 L 24.1976,-99.7376 L 24.1905,-99.7747
 L 24.1789,-99.8104 L 24.1629,-99.8445 L 24.1427,-99.8764 L 24.1187,-99.9053 L 24.0912,-99.9312 L 24.0607,-99.9533
 L 24.0277,-99.9715 L 23.9927,-99.9853 L 23.9562,-99.9947 L 23.8999,-100 L 20.6,-100 L 20.5624,-99.9976
 L 20.5253,-99.9906 L 20.4896,-99.979 L 20.4554,-99.9629 L 20.4236,-99.9427 L 20.3947,-99.9187 L 20.3688,-99.8912
 L 20.3467,-99.8608 L 20.3285,-99.8277 L 20.3147,-99.7927 L 20.3053,-99.7563 L 20.3,-99.7 L 20.3,-3.2
 L 20.2976,-3.1624 L 20.2906,-3.1254 L 20.2789,-3.08955 L 20.2629,-3.05547 L 20.2427,-3.02367 L 20.2187,-2.99463
 L 20.1912,-2.96884 L 20.1607,-2.9467 L 20.1277,-2.92854 L 20.0927,-2.91467 L 20.0562,-2.9053 L 20,-2.89999
 L 18.7,-2.89999 L 18.6624,-2.90236 L 18.6254,-2.90942 L 18.5896,-2.92107 L 18.5555,-2.9371 L 18.5237,-2.95729
 L 18.4946,-2.98131 L 18.4688,-3.00877 L 18.4467,-3.03925 L 18.4285,-3.07227 L 18.4147,-3.10728 L 18.4053,-3.14378
 L 18.4,-3.2 L 18.4,-98.7 L 18.3976,-98.7375 L 18.3905,-98.7747 L 18.379,-98.8104 L 18.3603,-98.8499
 L 18.3478,-98.8727 L 18.334,-98.9077 L 18.3246,-98.9442 L 18.3199,-98.9816 L 18.3199,-99.0193 L 18.3246,-99.0566
 L 18.334,-99.0931 L 18.3478,-99.1282 L 18.3564,-99.145 L 18.3714,-99.1723 L 18.3853,-99.2073 L 18.3947,-99.2437
 L 18.4,-99.3 L 18.4,-99.7 L 18.3976,-99.7376 L 18.3905,-99.7747 L 18.3789,-99.8104 L 18.3629,-99.8445
 L 18.3427,-99.8764 L 18.3187,-99.9053 L 18.2912,-99.9312 L 18.2607,-99.9533 L 18.2277,-99.9715 L 18.1927,-99.9853
 L 18.1562,-99.9947 L 18.0999,-100 L 14.8,-100 L 14.7624,-99.9976 L 14.7253,-99.9906 L 14.6896,-99.979
 L 14.6554,-99.9629 L 14.6236,-99.9427 L 14.5947,-99.9187 L 14.5688,-99.8912 L 14.5467,-99.8608 L 14.5285,-99.8277
 L 14.5147,-99.7927 L 14.5053,-99.7563 L 14.5,-99.7 L 14.5,-3.2 L 14.4976,-3.1624 L 14.4906,-3.1254
 L 14.4789,-3.08955 L 14.4629,-3.05547 L 14.4427,-3.02367 L 14.4187,-2.99463 L 14.3912,-2.96884 L 14.3607,-2.9467
 L 14.3277,-2.92854 L 14.2927,-2.91467 L 14.2562,-2.9053 L 14.2,-2.89999 L 12.9,-2.89999 L 12.8624,-2.90236
 L 12.8254,-2.90942 L 12.7896,-2.92107 L 12.7555,-2.9371 L 12.7237,-2.95729 L 12.6946,-2.98131 L 12.6688,-3.00877
 L 12.6467,-3.03925 L 12.6285,-3.07227 L 12.6147,-3.10728 L 12.6053,-3.14378 L 12.6,-3.2 L 12.6,-98.7
 L 12.5976,-98.7375 L 12.5905,-98.7747 L 12.5789,-98.8104 L 12.5603,-98.8499 L 12.5478,-98.8727 L 12.534,-98.9077
 L 12.5246,-98.9442 L 12.5199,-98.9816 L 12.5199,-99.0193 L 12.5246,-99.0566 L 12.534,-99.0931 L 12.5478,-99.1282
 L 12.5564,-99.145 L 12.5714,-99.1723 L 12.5853,-99.2073 L 12.5947,-99.2437 L 12.6,-99.3 L 12.6,-99.7
 L 12.5976,-99.7376 L 12.5905,-99.7747 L 12.5789,-99.8104 L 12.5629,-99.8445 L 12.5427,-99.8764 L 12.5187,-99.9053
 L 12.4912,-99.9312 L 12.4607,-99.9533 L 12.4277,-99.9715 L 12.3927,-99.9853 L 12.3562,-99.9947 L 12.2999,-100
 L 8.99997,-100 L 8.96242,-99.9976 L 8.92531,-99.9906 L 8.8896,-99.979 L 8.85544,-99.9629 L 8.82362,-99.9427
 L 8.79465,-99.9187 L 8.76881,-99.8912 L 8.74669,-99.8608 L 8.72852,-99.8277 L 8.71468,-99.7927 L 8.70531,-99.7563
 L 8.69998,-99.7 L 8.69998,-3.2 L 8.69762,-3.1624 L 8.69055,-3.1254 L 8.67891,-3.08955 L 8.66287,-3.05547
 L 8.64268,-3.02367 L 8.61867,-2.99463 L 8.5912,-2.96884 L 8.56073,-2.9467 L 8.52771,-2.92854 L 8.49269,-2.91467
 L 8.45619,-2.9053 L 8.39998,-2.89999 L 7.09999,-2.89999 L 7.06239,-2.90236 L 7.02539,-2.90942 L 6.98955,-2.92107
 L 6.95546,-2.9371 L 6.92366,-2.95729 L 6.89462,-2.98131 L 6.86884,-3.00877 L 6.84669,-3.03925 L 6.82854,-3.07227
 L 6.81467,-3.10728 L 6.8053,-3.14378 L 6.79999,-3.2 L 6.79999,-98.7 L 6.79762,-98.7375 L 6.79054,-98.7747
 L 6.77895,-98.8104 L 6.76033,-98.8499 L 6.74779,-98.8728 L 6.73393,-98.9078 L 6.72458,-98.9443 L 6.71986,-98.9817
 L 6.71989,-99.0193 L 6.72462,-99.0567 L 6.73401,-99.0932 L 6.75641,-99.1449 L 6.77147,-99.1723 L 6.78529,-99.2073
 L 6.79466,-99.2437 L 6.79999,-99.3 L 6.79999,-99.7 L 6.79762,-99.7376 L 6.79054,-99.7747 L 6.77895,-99.8104
 L 6.76286,-99.8445 L 6.74268,-99.8764 L 6.7187,-99.9053 L 6.69119,-99.9312 L 6.66075,-99.9533 L 6.6277,-99.9715
 L 6.59273,-99.9853 L 6.55624,-99.9947 L 6.49994,-100 L 3.19998,-100 L 3.16243,-99.9976 L 3.12532,-99.9906
 L 3.08961,-99.979 L 3.05545,-99.9629 L 3.02364,-99.9427 L 2.99466,-99.9187 L 2.96883,-99.8912 L 2.9467,-99.8608
 L 2.92853,-99.8277 L 2.91469,-99.7927 L 2.90532,-99.7563 L 2.89999,-99.7 L 2.89999,-3.2 L 2.89763,-3.1624
 L 2.89056,-3.1254 L 2.87892,-3.08955 L 2.86288,-3.05547 L 2.8427,-3.02367 L 2.81868,-2.99463 L 2.79121,-2.96884
 L 2.76074,-2.9467 L 2.72772,-2.92854 L 2.6927,-2.91467 L 2.6562,-2.9053 L 2.59999,-2.89999 L 0.299988,-2.89999
 L 0.262436,-2.89763 L 0.225327,-2.89055 L 0.189621,-2.87895 L 0.155457,-2.86287 L 0.123642,-2.84268 L 0.0946655,-2.81871
 L 0.0688324,-2.7912 L 0.0467072,-2.76076 L 0.0285339,-2.72771 L 0.0146942,-2.69273 L 0.00532532,-2.65625 L 0,-2.59995
 L 0,-2.19998 L 0.00236511,-2.16243 L 0.00944519,-2.12532 L 0.0210419,-2.08961 L 0.0371246,-2.05545 L 0.057312,-2.02364
 L 0.0812836,-1.99466 L 0.108795,-1.96883 L 0.139236,-1.9467 L 0.172287,-1.92853 L 0.20726,-1.91469 L 0.243744,-1.90532
 L 0.300049,-1.89999 L 3.60001,-1.89999 L 3.63756,-1.90236 L 3.67467,-1.90944 L 3.71037,-1.92104 L 3.74454,-1.93712
 L 3.77635,-1.95731 L 3.80533,-1.98128 L 3.83116,-2.00879 L 3.85329,-2.03923 L 3.87146,-2.07228 L 3.8853,-2.10725
 L 3.89467,-2.14374 L 3.89999,-2.20004 L 3.89999,-98.7 L 3.90236,-98.7376 L 3.90942,-98.7746 L 3.92107,-98.8104
 L 3.9371,-98.8445 L 3.95729,-98.8763 L 3.98131,-98.9054 L 4.00877,-98.9312 L 4.03925,-98.9533 L 4.07227,-98.9715
 L 4.10728,-98.9853 L 4.14378,-98.9947 L 4.2,-99 L 5.49998,-99 L 5.53758,-98.9976 L 5.57458,-98.9906
 L 5.61043,-98.9789 L 5.64452,-98.9629 L 5.67632,-98.9427 L 5.70535,-98.9187 L 5.73114,-98.8912 L 5.75328,-98.8607
 L 5.77144,-98.8277 L 5.78531,-98.7927 L 5.79468,-98.7562 L 5.79999,-98.7 L 5.79999,-2.19998 L 5.80235,-2.16243
 L 5.80943,-2.12532 L 5.82103,-2.08961 L 5.83711,-2.05545 L 5.8573,-2.02364 L 5.88127,-1.99466 L 5.90878,-1.96883
 L 5.93922,-1.9467 L 5.97227,-1.92853 L 6.00725,-1.91469 L 6.04373,-1.90532 L 6.10004,-1.89999 L 9.39999,-1.89999
 L 9.43755,-1.90236 L 9.47466,-1.90944 L 9.51036,-1.92104 L 9.54453,-1.93712 L 9.57634,-1.95731 L 9.60532,-1.98128
 L 9.63115,-2.00879 L 9.65327,-2.03923 L 9.67145,-2.07228 L 9.68529,-2.10725 L 9.69466,-2.14374 L 9.69998,-2.20004
 L 9.69998,-98.7 L 9.70235,-98.7376 L 9.70941,-98.7746 L 9.72105,-98.8104 L 9.73709,-98.8445 L 9.75728,-98.8763
 L 9.7813,-98.9054 L 9.80876,-98.9312 L 9.83923,-98.9533 L 9.87225,-98.9715 L 9.90727,-98.9853 L 9.94377,-98.9947
 L 9.99998,-99 L 11.3,-99 L 11.3376,-98.9976 L 11.3746,-98.9906 L 11.4104,-98.9789 L 11.4445,-98.9629
 L 11.4763,-98.9427 L 11.5054,-98.9187 L 11.5311,-98.8912 L 11.5533,-98.8607 L 11.5714,-98.8277 L 11.5853,-98.7927
 L 11.5947,-98.7562 L 11.6,-98.7 L 11.6,-2.19998 L 11.6024,-2.16243 L 11.6094,-2.12532 L 11.621,-2.08961
 L 11.6371,-2.05545 L 11.6573,-2.02364 L 11.6813,-1.99466 L 11.7088,-1.96883 L 11.7392,-1.9467 L 11.7723,-1.92853
 L 11.8073,-1.91469 L 11.8437,-1.90532 L 11.9,-1.89999 L 15.2,-1.89999 L 15.2375,-1.90236 L 15.2747,-1.90944
 L 15.3104,-1.92104 L 15.3445,-1.93712 L 15.3763,-1.95731 L 15.4053,-1.98128 L 15.4312,-2.00879 L 15.4533,-2.03923
 L 15.4715,-2.07228 L 15.4853,-2.10725 L 15.4947,-2.14374 L 15.5,-2.20004 L 15.5,-98.7 L 15.5023,-98.7376
 L 15.5094,-98.7746 L 15.5211,-98.8104 L 15.5371,-98.8445 L 15.5573,-98.8763 L 15.5813,-98.9054 L 15.6088,-98.9312
 L 15.6392,-98.9533 L 15.6723,-98.9715 L 15.7073,-98.9853 L 15.7438,-98.9947 L 15.8,-99 L 17.1,-99
 L 17.1376,-98.9976 L 17.1746,-98.9906 L 17.2104,-98.9789 L 17.2445,-98.9629 L 17.2763,-98.9427 L 17.3054,-98.9187
 L 17.3311,-98.8912 L 17.3533,-98.8607 L 17.3714,-98.8277 L 17.3853,-98.7927 L 17.3947,-98.7562 L 17.4,-98.7
 L 17.4,-2.19998 L 17.4024,-2.16243 L 17.4094,-2.12532 L 17.421,-2.08961 L 17.4371,-2.05545 L 17.4573,-2.02364
 L 17.4813,-1.99466 L 17.5088,-1.96883 L 17.5392,-1.9467 L 17.5723,-1.92853 L 17.6073,-1.91469 L 17.6437,-1.90532
 L 17.7,-1.89999 L 21,-1.89999 L 21.0376,-1.90236 L 21.0747,-1.90944 L 21.1104,-1.92104 L 21.1445,-1.93712
 L 21.1763,-1.95731 L 21.2053,-1.98128 L 21.2312,-2.00879 L 21.2533,-2.03923 L 21.2715,-2.07228 L 21.2853,-2.10725
 L 21.2947,-2.14374 L 21.3,-2.20004 L 21.3,-98.7 L 21.3024,-98.7376 L 21.3094,-98.7746 L 21.3211,-98.8104
 L 21.3371,-98.8445 L 21.3573,-98.8763 L 21.3813,-98.9054 L 21.4088,-98.9312 L 21.4392,-98.9533 L 21.4723,-98.9715
 L 21.5073,-98.9853 L 21.5438,-98.9947 L 21.6,-99 L 22.9,-99 L 22.9376,-98.9976 L 22.9746,-98.9906
 L 23.0104,-98.9789 L 23.0445,-98.9629 L 23.0763,-98.9427 L 23.1054,-98.9187 L 23.1311,-98.8912 L 23.1533,-98.8607
 L 23.1714,-98.8277 L 23.1853,-98.7927 L 23.1947,-98.7562 L 23.2,-98.7 L 23.2,-2.19998 L 23.2024,-2.16243
 L 23.2094,-2.12532 L 23.221,-2.08961 L 23.2371,-2.05545 L 23.2573,-2.02364 L 23.2813,-1.99466 L 23.3088,-1.96883
 L 23.3392,-1.9467 L 23.3723,-1.92853 L 23.4073,-1.91469 L 23.4437,-1.90532 L 23.5,-1.89999 L 26.8,-1.89999
 L 26.8376,-1.90236 L 26.8747,-1.90944 L 26.9104,-1.92104 L 26.9445,-1.93712 L 26.9763,-1.95731 L 27.0053,-1.98128
 L 27.0312,-2.00879 L 27.0533,-2.03923 L 27.0715,-2.07228 L 27.0853,-2.10725 L 27.0947,-2.14374 L 27.1,-2.20004
 L 27.1,-98.7 L 27.1024,-98.7376 L 27.1094,-98.7746 L 27.1211,-98.8104 L 27.1371,-98.8445 L 27.1573,-98.8763
 L 27.1813,-98.9054 L 27.2088,-98.9312 L 27.2392,-98.9533 L 27.2723,-98.9715 L 27.3073,-98.9853 L 27.3438,-98.9947
 L 27.4,-99 L 28.7,-99 L 28.7376,-98.9976 L 28.7746,-98.9906 L 28.8104,-98.9789 L 28.8445,-98.9629
 L 28.8763,-98.9427 L 28.9054,-98.9187 L 28.9312,-98.8912 L 28.9533,-98.8607 L 28.9715,-98.8277 L 28.9853,-98.7927
 L 28.9947,-98.7562 L 29,-98.7 L 29,-2.19998 L 29.0024,-2.16243 L 29.0094,-2.12532 L 29.021,-2.08961
 L 29.0371,-2.05545 L 29.0573,-2.02364 L 29.0813,-1.99466 L 29.1088,-1.96883 L 29.1392,-1.9467 L 29.1723,-1.92853
 L 29.2073,-1.91469 L 29.2437,-1.90532 L 29.3,-1.89999 L 32.6,-1.89999 L 32.6376,-1.90236 L 32.6747,-1.90944
 L 32.7104,-1.92104 L 32.7445,-1.93712 L 32.7764,-1.95731 L 32.8053,-1.98128 L 32.8312,-2.00879 L 32.8533,-2.03923
 L 32.8715,-2.07228 L 32.8853,-2.10725 L 32.8947,-2.14374 L 32.9,-2.20004 L 32.9,-98.7 L 32.9024,-98.7376
 L 32.9094,-98.7746 L 32.9211,-98.8104 L 32.9371,-98.8445 L 32.9573,-98.8763 L 32.9813,-98.9054 L 33.0088,-98.9312
 L 33.0392,-98.9533 L 33.0723,-98.9715 L 33.1073,-98.9853 L 33.1438,-98.9947 L 33.2,-99 L 34.5,-99
 L 34.5376,-98.9976 L 34.5746,-98.9906 L 34.6104,-98.9789 L 34.6445,-98.9629 L 34.6763,-98.9427 L 34.7054,-98.9187
 L 34.7311,-98.8912 L 34.7533,-98.8607 L 34.7714,-98.8277 L 34.7853,-98.7927 L 34.7947,-98.7562 L 34.8,-98.7
 L 34.8,-2.19998 L 34.8024,-2.16243 L 34.8094,-2.12532 L 34.821,-2.08961 L 34.8371,-2.05545 L 34.8573,-2.02364
 L 34.8813,-1.99466 L 34.9088,-1.96883 L 34.9392,-1.9467 L 34.9723,-1.92853 L 35.0072,-1.91469 L 35.0437,-1.90532
 L 35.1,-1.89999 L 38.4,-1.89999 z
" stroke="black" fill="lightgray" stroke-width="0.5"/>
</svg>
