%TF.GenerationSoftware,KiCad,Pcbnew,5.1.8-db9833491~88~ubuntu20.04.1*%
%TF.CreationDate,2020-12-18T16:20:58-07:00*%
%TF.ProjectId,iconograph-pcb,69636f6e-6f67-4726-9170-682d7063622e,rev?*%
%TF.SameCoordinates,Original*%
%TF.FileFunction,Soldermask,Top*%
%TF.FilePolarity,Negative*%
%FSLAX46Y46*%
G04 Gerber Fmt 4.6, Leading zero omitted, Abs format (unit mm)*
G04 Created by KiCad (PCBNEW 5.1.8-db9833491~88~ubuntu20.04.1) date 2020-12-18 16:20:58*
%MOMM*%
%LPD*%
G01*
G04 APERTURE LIST*
%ADD10C,2.100000*%
%ADD11C,3.200000*%
%ADD12O,1.600000X1.600000*%
%ADD13R,1.600000X1.600000*%
%ADD14C,1.400000*%
%ADD15C,1.498000*%
%ADD16R,1.498000X1.498000*%
%ADD17C,1.600000*%
%ADD18O,1.700000X1.700000*%
%ADD19R,1.700000X1.700000*%
%ADD20R,2.921000X0.558800*%
%ADD21R,1.041400X2.387600*%
%ADD22R,1.041400X1.193800*%
%ADD23R,1.041400X1.092200*%
%ADD24R,0.711200X0.787400*%
%ADD25R,0.508000X0.990600*%
%ADD26O,6.030000X2.070000*%
%ADD27O,2.400000X2.400000*%
%ADD28R,2.400000X2.400000*%
G04 APERTURE END LIST*
D10*
%TO.C,J14*%
X155900000Y-104300000D03*
X150900000Y-104300000D03*
X145900000Y-104300000D03*
%TD*%
%TO.C,J5*%
X171600000Y-45700000D03*
X176600000Y-45700000D03*
X181600000Y-45700000D03*
%TD*%
%TO.C,J2*%
X189600000Y-63300000D03*
X189600000Y-68300000D03*
X189600000Y-73300000D03*
%TD*%
D11*
%TO.C,H4*%
X195000000Y-42400000D03*
%TD*%
%TO.C,H3*%
X195000000Y-107400000D03*
%TD*%
%TO.C,H2*%
X70000000Y-107400000D03*
%TD*%
%TO.C,H1*%
X70000000Y-42400000D03*
%TD*%
D12*
%TO.C,U2*%
X173900000Y-88120000D03*
X156120000Y-80500000D03*
X171360000Y-88120000D03*
X158660000Y-80500000D03*
X168820000Y-88120000D03*
X161200000Y-80500000D03*
X166280000Y-88120000D03*
X163740000Y-80500000D03*
X163740000Y-88120000D03*
X166280000Y-80500000D03*
X161200000Y-88120000D03*
X168820000Y-80500000D03*
X158660000Y-88120000D03*
X171360000Y-80500000D03*
X156120000Y-88120000D03*
D13*
X173900000Y-80500000D03*
%TD*%
D14*
%TO.C,U1*%
X124570000Y-40170000D03*
X122030000Y-40170000D03*
X122030000Y-42710000D03*
X124570000Y-42710000D03*
X122030000Y-45250000D03*
X124570000Y-45250000D03*
X122030000Y-47790000D03*
X124570000Y-47790000D03*
X122030000Y-50330000D03*
X124570000Y-50330000D03*
X122030000Y-52870000D03*
X124570000Y-52870000D03*
X122030000Y-55410000D03*
X124570000Y-55410000D03*
X122030000Y-57950000D03*
X124570000Y-57950000D03*
X122030000Y-60490000D03*
X124570000Y-60490000D03*
X122030000Y-63030000D03*
X124570000Y-63030000D03*
X147430000Y-40170000D03*
X149970000Y-40170000D03*
X147430000Y-42710000D03*
X149970000Y-42710000D03*
X147430000Y-45250000D03*
X149970000Y-45250000D03*
X147430000Y-47790000D03*
X149970000Y-47790000D03*
X147430000Y-50330000D03*
X149970000Y-50330000D03*
X147430000Y-52870000D03*
X149970000Y-52870000D03*
X147430000Y-55410000D03*
X149970000Y-55410000D03*
X147430000Y-57950000D03*
X149970000Y-57950000D03*
X147430000Y-60490000D03*
X149970000Y-60490000D03*
X147430000Y-63030000D03*
X149970000Y-63030000D03*
%TD*%
D15*
%TO.C,SW7*%
X172250000Y-75750000D03*
X172250000Y-71250000D03*
D16*
X178750000Y-75750000D03*
D15*
X178750000Y-71250000D03*
%TD*%
%TO.C,SW6*%
X172250000Y-67050000D03*
X172250000Y-62550000D03*
D16*
X178750000Y-67050000D03*
D15*
X178750000Y-62550000D03*
%TD*%
%TO.C,SW5*%
X166650000Y-71250000D03*
X166650000Y-75750000D03*
D16*
X160150000Y-71250000D03*
D15*
X160150000Y-75750000D03*
%TD*%
%TO.C,SW4*%
X166650000Y-62550000D03*
X166650000Y-67050000D03*
D16*
X160150000Y-62550000D03*
D15*
X160150000Y-67050000D03*
%TD*%
D12*
%TO.C,SW3*%
X101680000Y-80000000D03*
X109300000Y-74920000D03*
X101680000Y-77460000D03*
X109300000Y-77460000D03*
X101680000Y-74920000D03*
D13*
X109300000Y-80000000D03*
%TD*%
D12*
%TO.C,SW2*%
X101680000Y-105000000D03*
X109300000Y-99920000D03*
X101680000Y-102460000D03*
X109300000Y-102460000D03*
X101680000Y-99920000D03*
D13*
X109300000Y-105000000D03*
%TD*%
D12*
%TO.C,SW1*%
X101680000Y-55000000D03*
X109300000Y-49920000D03*
X101680000Y-52460000D03*
X109300000Y-52460000D03*
X101680000Y-49920000D03*
D13*
X109300000Y-55000000D03*
%TD*%
D12*
%TO.C,R6*%
X144780000Y-77000000D03*
D17*
X152400000Y-77000000D03*
%TD*%
D12*
%TO.C,R5*%
X132580000Y-79400000D03*
D17*
X140200000Y-79400000D03*
%TD*%
D12*
%TO.C,R4*%
X132580000Y-83300000D03*
D17*
X140200000Y-83300000D03*
%TD*%
D12*
%TO.C,R3*%
X132580000Y-87300000D03*
D17*
X140200000Y-87300000D03*
%TD*%
D12*
%TO.C,R2*%
X132580000Y-91300000D03*
D17*
X140200000Y-91300000D03*
%TD*%
D12*
%TO.C,R1*%
X182300000Y-52280000D03*
D17*
X182300000Y-59900000D03*
%TD*%
D18*
%TO.C,J13*%
X82980000Y-65800000D03*
X85520000Y-65800000D03*
X88060000Y-65800000D03*
D19*
X90600000Y-65800000D03*
%TD*%
D18*
%TO.C,J12*%
X82980000Y-90800000D03*
X85520000Y-90800000D03*
X88060000Y-90800000D03*
D19*
X90600000Y-90800000D03*
%TD*%
D18*
%TO.C,J11*%
X82980000Y-40900000D03*
X85520000Y-40900000D03*
X88060000Y-40900000D03*
D19*
X90600000Y-40900000D03*
%TD*%
D20*
%TO.C,J10*%
X157955000Y-49817300D03*
X162145000Y-49817300D03*
D21*
X165325001Y-45387299D03*
D22*
X165324965Y-48572299D03*
X154674999Y-49142300D03*
D23*
X154674999Y-46532300D03*
D24*
X154690000Y-45262300D03*
D25*
X164149999Y-42582301D03*
X163050002Y-42582301D03*
X161950001Y-42582301D03*
X160850001Y-42582301D03*
X159750000Y-42582301D03*
X158650000Y-42582301D03*
X157550000Y-42582301D03*
X156449999Y-42582301D03*
%TD*%
D10*
%TO.C,J9*%
X168300000Y-104200000D03*
X163300000Y-104200000D03*
%TD*%
%TO.C,J8*%
X180800000Y-104200000D03*
X175800000Y-104200000D03*
%TD*%
D18*
%TO.C,J7*%
X163840000Y-94700000D03*
X166380000Y-94700000D03*
X168920000Y-94700000D03*
X171460000Y-94700000D03*
D19*
X174000000Y-94700000D03*
%TD*%
D10*
%TO.C,J6*%
X189600000Y-51400000D03*
X189600000Y-56400000D03*
%TD*%
%TO.C,J4*%
X189600000Y-80100000D03*
X189600000Y-85100000D03*
%TD*%
D26*
%TO.C,J3*%
X117750000Y-92700000D03*
X125650000Y-92700000D03*
%TD*%
D10*
%TO.C,J1*%
X189700000Y-93100000D03*
X189700000Y-98100000D03*
%TD*%
D27*
%TO.C,D1*%
X116740000Y-87700000D03*
D28*
X126900000Y-87700000D03*
%TD*%
D17*
%TO.C,C7*%
X170900000Y-55000000D03*
D13*
X167400000Y-55000000D03*
%TD*%
D17*
%TO.C,C6*%
X156900000Y-55200000D03*
X161900000Y-55200000D03*
%TD*%
%TO.C,C5*%
X146200000Y-72800000D03*
X151200000Y-72800000D03*
%TD*%
%TO.C,C4*%
X81400000Y-75700000D03*
D13*
X81400000Y-79200000D03*
%TD*%
D17*
%TO.C,C3*%
X81600000Y-100700000D03*
D13*
X81600000Y-104200000D03*
%TD*%
D17*
%TO.C,C2*%
X81500000Y-50700000D03*
D13*
X81500000Y-54200000D03*
%TD*%
D17*
%TO.C,C1*%
X148600000Y-82600000D03*
D13*
X148600000Y-86100000D03*
%TD*%
D12*
%TO.C,A3*%
X95700000Y-83800000D03*
X77920000Y-71100000D03*
X93160000Y-83800000D03*
X80460000Y-71100000D03*
X90620000Y-83800000D03*
X83000000Y-71100000D03*
X88080000Y-83800000D03*
X85540000Y-71100000D03*
X85540000Y-83800000D03*
X88080000Y-71100000D03*
X83000000Y-83800000D03*
X90620000Y-71100000D03*
X80460000Y-83800000D03*
X93160000Y-71100000D03*
X77920000Y-83800000D03*
D13*
X95700000Y-71100000D03*
%TD*%
D12*
%TO.C,A2*%
X95700000Y-108800000D03*
X77920000Y-96100000D03*
X93160000Y-108800000D03*
X80460000Y-96100000D03*
X90620000Y-108800000D03*
X83000000Y-96100000D03*
X88080000Y-108800000D03*
X85540000Y-96100000D03*
X85540000Y-108800000D03*
X88080000Y-96100000D03*
X83000000Y-108800000D03*
X90620000Y-96100000D03*
X80460000Y-108800000D03*
X93160000Y-96100000D03*
X77920000Y-108800000D03*
D13*
X95700000Y-96100000D03*
%TD*%
D12*
%TO.C,A1*%
X95700000Y-58800000D03*
X77920000Y-46100000D03*
X93160000Y-58800000D03*
X80460000Y-46100000D03*
X90620000Y-58800000D03*
X83000000Y-46100000D03*
X88080000Y-58800000D03*
X85540000Y-46100000D03*
X85540000Y-58800000D03*
X88080000Y-46100000D03*
X83000000Y-58800000D03*
X90620000Y-46100000D03*
X80460000Y-58800000D03*
X93160000Y-46100000D03*
X77920000Y-58800000D03*
D13*
X95700000Y-46100000D03*
%TD*%
M02*
