M48
; DRILL file {KiCad 5.1.8-db9833491~88~ubuntu20.04.1} date Fri Dec 18 16:21:02 2020
; FORMAT={-:-/ absolute / inch / decimal}
; #@! TF.CreationDate,2020-12-18T16:21:02-07:00
; #@! TF.GenerationSoftware,Kicad,Pcbnew,5.1.8-db9833491~88~ubuntu20.04.1
; #@! TF.FileFunction,Plated,1,2,PTH
FMAT,2
INCH
T1C0.0118
T2C0.0157
T3C0.0315
T4C0.0390
T5C0.0394
T6C0.0472
T7C0.0500
T8C0.0512
%
G90
G05
T1
X4.5118Y-1.7874
X4.8504Y-1.5657
X4.9882Y-2.8307
X5.2283Y-3.7953
X5.4764Y-2.7992
X5.6181Y-1.8858
X5.626Y-2.9843
X5.9724Y-1.748
X6.0354Y-1.5482
X6.4055Y-3.6142
X6.7205Y-2.8031
X7.0945Y-3.311
X7.5197Y-2.1053
T2
X3.2717Y-4.1693
X3.2913Y-3.1496
X3.3189Y-2.122
X3.3819Y-3.0984
X3.3819Y-4.1614
X3.4016Y-2.0866
X3.9094Y-1.8268
X3.9173Y-2.2677
X3.9331Y-2.315
X3.9409Y-1.7559
X4.3819Y-3.2953
X4.4094Y-2.1299
X4.437Y-2.0315
X4.437Y-3.2087
X4.4685Y-1.9882
X5.2205Y-2.3465
X6.0544Y-1.9259
X6.1575Y-3.7205
X6.2323Y-2.4213
X6.2559Y-2.1732
X6.2638Y-2.3346
X6.4331Y-2.4291
X6.4803Y-2.0866
X6.534Y-2.0709
X6.5591Y-1.8622
X6.5921Y-1.9827
X6.6575Y-2.0433
X6.8228Y-2.5197
X6.9528Y-2.2323
T3
X3.0677Y-3.7835
X3.0677Y-4.2835
X3.1677Y-3.7835
X3.1677Y-4.2835
X3.2677Y-3.7835
X3.2677Y-4.2835
X3.3677Y-3.7835
X3.3677Y-4.2835
X3.4677Y-3.7835
X3.4677Y-4.2835
X3.5677Y-3.7835
X3.5677Y-4.2835
X3.6677Y-3.7835
X3.6677Y-4.2835
X3.7677Y-3.7835
X3.7677Y-4.2835
X7.1772Y-2.0583
X7.1772Y-2.3583
X5.2197Y-3.126
X5.5197Y-3.126
X3.0677Y-2.7992
X3.0677Y-3.2992
X3.1677Y-2.7992
X3.1677Y-3.2992
X3.2677Y-2.7992
X3.2677Y-3.2992
X3.3677Y-2.7992
X3.3677Y-3.2992
X3.4677Y-2.7992
X3.4677Y-3.2992
X3.5677Y-2.7992
X3.5677Y-3.2992
X3.6677Y-2.7992
X3.6677Y-3.2992
X3.7677Y-2.7992
X3.7677Y-3.2992
X3.2126Y-3.9646
X3.2126Y-4.1024
X4.8043Y-1.5815
X4.8043Y-1.6815
X4.8043Y-1.7815
X4.8043Y-1.8815
X4.8043Y-1.9815
X4.8043Y-2.0815
X4.8043Y-2.1815
X4.8043Y-2.2815
X4.8043Y-2.3815
X4.8043Y-2.4815
X4.9043Y-1.5815
X4.9043Y-1.6815
X4.9043Y-1.7815
X4.9043Y-1.8815
X4.9043Y-1.9815
X4.9043Y-2.0815
X4.9043Y-2.1815
X4.9043Y-2.2815
X4.9043Y-2.3815
X4.9043Y-2.4815
X5.8043Y-1.5815
X5.8043Y-1.6815
X5.8043Y-1.7815
X5.8043Y-1.8815
X5.8043Y-1.9815
X5.8043Y-2.0815
X5.8043Y-2.1815
X5.8043Y-2.2815
X5.8043Y-2.3815
X5.8043Y-2.4815
X5.9043Y-1.5815
X5.9043Y-1.6815
X5.9043Y-1.7815
X5.9043Y-1.8815
X5.9043Y-1.9815
X5.9043Y-2.0815
X5.9043Y-2.1815
X5.9043Y-2.2815
X5.9043Y-2.3815
X5.9043Y-2.4815
X5.2197Y-3.437
X5.5197Y-3.437
X6.1772Y-2.1732
X6.374Y-2.1732
X5.7Y-3.0315
X6.0Y-3.0315
X3.2047Y-2.9803
X3.2047Y-3.1181
X5.8504Y-3.252
X5.8504Y-3.3898
X4.0031Y-2.9496
X4.0031Y-3.0496
X4.0031Y-3.1496
X4.3031Y-2.9496
X4.3031Y-3.0496
X4.3031Y-3.1496
X3.0677Y-1.815
X3.0677Y-2.315
X3.1677Y-1.815
X3.1677Y-2.315
X3.2677Y-1.815
X3.2677Y-2.315
X3.3677Y-1.815
X3.3677Y-2.315
X3.4677Y-1.815
X3.4677Y-2.315
X3.5677Y-1.815
X3.5677Y-2.315
X3.6677Y-1.815
X3.6677Y-2.315
X3.7677Y-1.815
X3.7677Y-2.315
X5.2197Y-3.5945
X5.5197Y-3.5945
X4.0031Y-1.9654
X4.0031Y-2.0654
X4.0031Y-2.1654
X4.3031Y-1.9654
X4.3031Y-2.0654
X4.3031Y-2.1654
X6.5906Y-2.1654
X6.7283Y-2.1654
X5.2197Y-3.2795
X5.5197Y-3.2795
X4.0031Y-3.9339
X4.0031Y-4.0339
X4.0031Y-4.1339
X4.3031Y-3.9339
X4.3031Y-4.0339
X4.3031Y-4.1339
X6.1465Y-3.1693
X6.1465Y-3.4693
X6.2465Y-3.1693
X6.2465Y-3.4693
X6.3465Y-3.1693
X6.3465Y-3.4693
X6.4465Y-3.1693
X6.4465Y-3.4693
X6.5465Y-3.1693
X6.5465Y-3.4693
X6.6465Y-3.1693
X6.6465Y-3.4693
X6.7465Y-3.1693
X6.7465Y-3.4693
X6.8465Y-3.1693
X6.8465Y-3.4693
X5.7559Y-2.8661
X5.9528Y-2.8661
X3.2087Y-1.9961
X3.2087Y-2.1339
T4
X6.7815Y-2.8051
X6.7815Y-2.9823
X7.0374Y-2.8051
X7.0374Y-2.9823
X6.3051Y-2.8051
X6.3051Y-2.9823
X6.561Y-2.8051
X6.561Y-2.9823
X6.3051Y-2.4626
X6.3051Y-2.6398
X6.561Y-2.4626
X6.561Y-2.6398
X6.7815Y-2.4626
X6.7815Y-2.6398
X7.0374Y-2.4626
X7.0374Y-2.6398
T5
X3.2669Y-3.5748
X3.3669Y-3.5748
X3.4669Y-3.5748
X3.5669Y-3.5748
X3.2669Y-1.6102
X3.3669Y-1.6102
X3.4669Y-1.6102
X3.5669Y-1.6102
X6.4504Y-3.7283
X6.5504Y-3.7283
X6.6504Y-3.7283
X6.7504Y-3.7283
X6.8504Y-3.7283
X3.2669Y-2.5906
X3.3669Y-2.5906
X3.4669Y-2.5906
X3.5669Y-2.5906
T6
X4.5961Y-3.4528
X4.9961Y-3.4528
T8
X6.7559Y-1.7992
X6.9528Y-1.7992
X7.1496Y-1.7992
X7.4646Y-2.0236
X7.4646Y-2.2205
X6.4291Y-4.1024
X6.626Y-4.1024
X6.9213Y-4.1024
X7.1181Y-4.1024
X7.4646Y-2.4921
X7.4646Y-2.689
X7.4646Y-2.8858
X7.4646Y-3.1535
X7.4646Y-3.3504
X7.4685Y-3.6654
X7.4685Y-3.8622
X5.7441Y-4.1063
X5.9409Y-4.1063
X6.1378Y-4.1063
T7
G00X4.7138Y-3.6496
M15
G01X4.5579Y-3.6496
M16
G05
G00X5.0248Y-3.6496
M15
G01X4.8689Y-3.6496
M16
G05
T0
M30
